<svg xmlns="http://www.w3.org/2000/svg" xmlns:xlink="http://www.w3.org/1999/xlink" width="375" height="104" viewBox="0 0 375 104">
  <defs>
    <clipPath id="clip-path">
      <rect id="Rectangle_27918" data-name="Rectangle 27918" width="375" height="104" transform="translate(0 707)" fill="#fff" stroke="#707070" stroke-width="1"/>
    </clipPath>
  </defs>
  <g id="Group_175259" data-name="Group 175259" transform="translate(0 -707)">
    <g id="Mask_Group_2268" data-name="Mask Group 2268" clip-path="url(#clip-path)">
      <g id="Group_175174" data-name="Group 175174" transform="translate(62.02 -23)">
        <text id="إنضم_لريمونتادا_الآن" data-name="إنضم لريمونتادا الآن" transform="translate(84 652)" fill="#275072" font-size="14" font-family="DINNextLTArabic-Medium, DIN Next LT Arabic" font-weight="500"><tspan x="0" y="0">إنضم لريمونتادا الآن</tspan></text>
        <g id="Group_175173" data-name="Group 175173" transform="translate(153.203 1271.27) rotate(180)">
          <path id="Vector" d="M0,0H12.175" transform="translate(77.629 623.27)" fill="none" stroke="#275072" stroke-linecap="round" stroke-linejoin="round" stroke-width="1.5"/>
          <path id="Vector-2" data-name="Vector" d="M0,0,5.826,5.826,0,11.651" transform="translate(85.397 617.444)" fill="none" stroke="#275072" stroke-linecap="round" stroke-linejoin="round" stroke-width="1.5"/>
        </g>
      </g>
      <g id="Group_175177" data-name="Group 175177" opacity="0.23">
        <g id="Group_175175" data-name="Group 175175" transform="translate(117.365 494.373)">
          <path id="Path_65622" data-name="Path 65622" d="M17.316,255.73c-.2,0-.2,0-.4-.2a.626.626,0,0,0-.4-.2l.4.808.2.2h0c-.4,0-.808-.2-1.212-.2h-.2c0-.4.2-.606.2-1.01.4-1.212.606-2.02,1.01-2.222l.2-.2a.885.885,0,0,1,.2.606h0v.2A4.076,4.076,0,0,1,17.316,255.73Z" transform="translate(16.014 40.595)" fill="#275072"/>
          <path id="Path_65623" data-name="Path 65623" d="M26.412,246.9a2.013,2.013,0,0,1-.2.808,2.166,2.166,0,0,1-.4,1.212q-.3.3-.606-.606A4.5,4.5,0,0,0,26.412,246.9Z" transform="translate(25.703 34.679)" fill="#275072"/>
          <path id="Path_65624" data-name="Path 65624" d="M10.206,256.478c-.2.2-.2,0-.2,0,0-.2-.2-.4-.2-.606a2.2,2.2,0,0,0-.2-1.01v-1.818c0-.2,0-.4.2-.2a.705.705,0,0,1,.2.4,13.748,13.748,0,0,1,.606,2.424v.2A2.9,2.9,0,0,0,10.206,256.478Z" transform="translate(9.792 40.655)" fill="#275072"/>
          <path id="Path_65625" data-name="Path 65625" d="M25.92,247.084a13.919,13.919,0,0,0,.606,1.616,4.417,4.417,0,0,1-1.01.606,2.146,2.146,0,0,1-1.616.2C25.112,247.084,25.516,245.67,25.92,247.084Z" transform="translate(24.377 34.293)" fill="#275072"/>
          <path id="Path_65626" data-name="Path 65626" d="M0,307.637l12.12,13.736c2.626,0,5.454.2,8.686.4,6.868.2,15.352.606,25.452.808l8.484.2c13.13.4,27.876.808,44.439,1.212l32.522.808,75.345,1.414,42.016.606c33.33.4,91.706-78.779,90.09-76.759a23.759,23.759,0,0,0-2.222,3.03,11.976,11.976,0,0,0-1.616-1.616,12.639,12.639,0,0,0-2.222-1.616,10.343,10.343,0,0,1,1.414,2.02c.4.606.808,1.616,1.414,2.828-.808,1.616-1.616,3.232-2.424,5.252-.4,1.212-.808,2.222-1.212,3.434s-.808,2.424-1.212,3.838-.808,2.828-1.212,4.444v-.2c-.2-1.212-.4-2.626-.606-3.838a13.638,13.638,0,0,1-.4-2.828c.606-2.626,1.01-4.242,1.01-4.242a2.5,2.5,0,0,0-.4.606c-.2.4-.606.808-.808,1.212a44.708,44.708,0,0,0-1.414-6.06c.606-3.838.606-5.656.2-5.858a1.806,1.806,0,0,1-.808-1.616v-2.424a16.7,16.7,0,0,1-1.818,2.222l-.606.606a7.689,7.689,0,0,0-1.01-1.212c-.4-.4-.808-.606-1.01-.808a.626.626,0,0,0-.4-.2v.2a8.75,8.75,0,0,0-.2,1.01,18.73,18.73,0,0,0-.2,4.04c-.4,1.01-.808,2.424-1.414,4.04-.4,1.01-.606,2.222-1.01,3.232a6.244,6.244,0,0,0-.4,1.616c-.2.606-.2,1.212-.4,1.616a.742.742,0,0,1-.2.606c-1.01-2.02-1.818-3.838-2.828-5.454-2.02-3.434-3.636-5.656-5.05-6.666a7.479,7.479,0,0,0-2.222-1.616,10.341,10.341,0,0,1,1.414,2.02c.4.808,1.01,1.818,1.616,3.03.606,1.414,1.212,3.03,2.02,4.848s1.414,4.04,2.222,6.464c.4,1.212.808,2.626,1.212,3.838a1.214,1.214,0,0,1-.2.808c-1.01-2.222-1.818-4.444-2.626-6.262a60.121,60.121,0,0,0-3.838-6.868,16.387,16.387,0,0,0-1.212-1.616,2.5,2.5,0,0,0-.4-.606s.2,1.01.4,3.03.808,4.848,1.414,8.484,1.616,7.878,2.626,12.322c0,.2.2.606.2.808a21.288,21.288,0,0,0-1.414,2.222c-.4.808-1.01,1.818-1.414,2.828v-9.09c0-2.626-.2-5.252-.4-7.474s-.606-4.04-.808-5.252c-.2-.606-.2-1.212-.4-1.414a.885.885,0,0,0-.2-.606l-.4.4a11.591,11.591,0,0,1-.808,1.414c-.606,1.212-1.414,3.03-2.222,5.05-.2.4-.2.808-.4,1.212,0-.606-.2-1.414-.2-2.02-.2-1.01-.2-2.02-.4-2.828.606-2.828,1.01-4.242,1.01-4.242a2.5,2.5,0,0,0-.4.606c-.2.4-.606.808-.808,1.212a48,48,0,0,0-1.414-6.262c.606-3.838.606-5.454,0-5.454s-1.01-.2-1.01-1.01v-2.222a10.308,10.308,0,0,1-1.818,2.02,5.764,5.764,0,0,0-1.414-1.616c-.4-.4-.808-.606-1.01-.808a.626.626,0,0,0-.4-.2l-.2.2c0,.2-.2.4-.2.808a18.73,18.73,0,0,0-.2,4.04c-.4.808-.808,2.424-1.414,4.04-.4,1.01-.606,2.222-1.01,3.232a6.245,6.245,0,0,0-.4,1.616c-.2.606-.2,1.212-.4,1.616l-.606,2.424v-2.222c0-1.616-.2-3.03-.2-4.444-.2-1.414-.2-2.626-.4-3.838-.606-4.646-1.212-6.666-2.222-7.878a5.385,5.385,0,0,0-2.424-2.02,2.788,2.788,0,0,1-.808-.606.626.626,0,0,0-.4-.2l-.2.2c0,.2-.2.4-.4.606a4.97,4.97,0,0,0-.808,2.02,54.08,54.08,0,0,0-.4,8.282v2.02a4.407,4.407,0,0,0-.808-1.01,2.5,2.5,0,0,0-.4-.606s.2,1.01.4,3.03q.3,1.515.606,4.242v3.636c-.2-1.212-.4-2.222-.606-3.232-.2-.606-.2-1.212-.4-1.414a.885.885,0,0,0-.2-.606l-.4.4a11.59,11.59,0,0,1-.808,1.414c-.606,1.212-1.414,3.03-2.222,5.05-.4,1.01-.606,1.818-1.01,3.03h0c0-5.05,0-10.3-.2-14.544-.2-2.222-.2-4.242-.2-5.656-.2-1.212-.2-2.02-.4-2.828v-.2h0v-.4a9.391,9.391,0,0,0-.606-1.818c-.2-.4-.606-.808-.808-1.212-.2-.2-.2-.4-.4-.606s-.4-.606-.606-.808a18.035,18.035,0,0,1-1.01-2.626c-.808-2.222-1.414-5.858-2.02-8.08a38.6,38.6,0,0,0-1.818-5.252c-.606-1.414-1.212-2.828-1.818-4.04s-1.212-2.626-1.818-3.838c-1.212-2.222-2.02-4.04-2.02-4.04a5.652,5.652,0,0,0,.2,1.212c0,.808.2,1.818.2,3.03.2,2.424.4,5.05.606,8.08a115.63,115.63,0,0,0,1.414,13.332,14.182,14.182,0,0,0,1.212,3.838,13.677,13.677,0,0,1,1.212,3.232c.2.808.4,2.02.606,3.434a46.459,46.459,0,0,1,.4,5.656c0,1.01.2,2.222.2,3.434-.606,2.02-1.212,4.444-1.818,6.868-.606,2.626-1.212,5.454-1.616,8.282a1.214,1.214,0,0,1-.2.808v-8.888c0-1.616-.2-3.232-.2-4.848s-.2-3.03-.2-4.444c-.2-1.414-.2-2.626-.4-3.838-.606-4.646-1.212-6.666-2.02-7.878a6.073,6.073,0,0,0-2.424-2.222,2.788,2.788,0,0,1-.808-.606.626.626,0,0,0-.4-.2l-.2.2c0,.2-.2.4-.4.606a11.069,11.069,0,0,0-.808,2.424,56.238,56.238,0,0,0-.4,8.282v14.544a8.551,8.551,0,0,0-1.01,1.414l-1.212,1.818c-.4.606-.808,1.414-1.212,2.02s-.606,1.212-1.01,1.818c-.2.2-.606.4-.808.808l-.606.606c0-2.222,0-4.646.2-7.07,0-5.05,0-10.1-.2-14.342-.2-2.222-.2-4.242-.2-5.454-.2-1.01-.2-2.02-.4-2.828v-.2h0v-.4a12.552,12.552,0,0,0-.606-2.02c-.2-.606-.606-1.01-.808-1.616-.2-.2-.2-.606-.4-.808-.2-.4-.4-.606-.606-1.01a21.949,21.949,0,0,1-1.01-2.828c-.808-2.222-1.414-5.656-2.02-7.878a42.735,42.735,0,0,0-1.818-5.454c-.606-1.616-1.212-3.03-1.818-4.444a34.648,34.648,0,0,0-1.818-3.838l-2.02-4.04a5.652,5.652,0,0,0,.2,1.212c0,.808.2,1.818.2,3.03q.3,3.636.606,8.484c.2,3.232.808,9.494,1.414,13.534a37.156,37.156,0,0,0,1.212,4.646,38.618,38.618,0,0,1,1.212,4.242c.2,1.01.4,2.02.606,3.434a40.969,40.969,0,0,1,.4,5.656c0,1.01.2,2.222.2,3.232-.606,2.02-1.212,4.242-1.818,6.868-.2,1.212-.606,2.626-.808,3.838a.2.2,0,0,0-.2-.2v1.414l-.606,3.03c0,.4-.2.808-.2,1.414-.2.2-.2.4-.4.808.2-1.212.2-2.222.4-3.434s.2-2.626.4-3.838a24.446,24.446,0,0,0,.2-3.838c.2-2.424.4-4.848.4-6.868s.2-3.838.2-5.454a33.212,33.212,0,0,0-.2-5.454,8.751,8.751,0,0,0-.2-1.01v-.4a10.439,10.439,0,0,0-1.414,1.212,11.871,11.871,0,0,0-2.828,4.848c-.606,1.414-1.01,3.232-1.616,5.05-.606,2.02-1.01,4.242-1.616,6.464l-.606,3.636a1.527,1.527,0,0,1-.2.808,29.547,29.547,0,0,0-1.818,2.626L230.68,273.7c-.2.2-.2.4-.4.606l-1.212-1.212a18.85,18.85,0,0,0-4.444-3.434,11.588,11.588,0,0,0-1.414-.808,1.564,1.564,0,0,0-.606-.2,6.533,6.533,0,0,0,.4,1.818l.606,1.818-.4.4c-.808,1.01-2.02,2.424-3.232,4.04v-1.818c0-1.01-.2-2.02-.2-2.828-.2-3.838-.4-7.676-.808-11.11q-.3-2.727-.606-4.848a16.209,16.209,0,0,0-.808-3.636c0-.2-.2-.4-.2-.606,0-.4.2-.606.2-1.01.4-1.414.808-2.626,1.01-3.636a46.774,46.774,0,0,1,1.616-4.444,5.139,5.139,0,0,0,.4-1.414,1.563,1.563,0,0,0,.2-.606,2.5,2.5,0,0,1-.606.4,6.445,6.445,0,0,0-1.414,1.212,14.737,14.737,0,0,0-2.02,1.818,18.211,18.211,0,0,0-1.818,2.02c-.2-.2-.2-.606-.4-.808a186855.724,186855.724,0,0,1-2.02-4.04h0c-.2-.606-.606-1.212-.606-1.414a1.563,1.563,0,0,1-.2-.606v.2h0a40.367,40.367,0,0,1-2.02-4.242,34.651,34.651,0,0,0-1.818-3.838c-1.01-2.02-1.616-3.03-1.616-3.03v3.232c0,1.01.2,2.626.2,4.04.2,1.414.2,2.828.4,4.242a8.749,8.749,0,0,0,.2,1.01,1.821,1.821,0,0,0,.2,1.01,7.177,7.177,0,0,0,.4,2.02c.2,1.414.606,2.828.808,4.444.2.808.2,1.616.4,2.626a.742.742,0,0,0,.2.606c0,1.01-.2,2.02-.2,3.03s-.2,2.222-.2,3.434a28.449,28.449,0,0,1-.2,4.04V263.8c-.4,3.03-1.01,6.464-1.414,10.1-.2,1.818-.4,3.434-.606,5.252h0c-1.212-1.212-2.222-2.424-3.232-3.232a33.829,33.829,0,0,0-4.242-3.232h0c-.2-2.626-.2-4.646-.4-6.06a22.512,22.512,0,0,0-.4-2.626.885.885,0,0,0-.2.606c-.2.4-.4,1.01-.808,1.818a42.934,42.934,0,0,0-2.02,7.272l-.606,3.03c0-.808-.2-1.616-.2-2.424-.2-3.636-.4-7.272-.808-10.706-.2-1.616-.4-3.232-.606-4.646a16.208,16.208,0,0,0-.808-3.636c0-.2-.2-.4-.2-.606,0-.4.2-.808.2-1.212.4-1.616.808-3.232,1.01-4.444.606-2.626,1.212-4.848,1.616-6.262a10.246,10.246,0,0,0,.4-1.818,1.563,1.563,0,0,0,.2-.606l-.606.606a13.185,13.185,0,0,0-1.414,1.616c-.606.606-1.212,1.414-2.02,2.424-.606.808-1.212,1.818-1.818,2.828-.2-.4-.2-.808-.4-1.212-.4-.808-.606-1.818-1.01-2.626s-.606-1.818-1.01-2.626h0a18.589,18.589,0,0,1-.606-1.818,1.563,1.563,0,0,1-.2-.606v.2h0a49.342,49.342,0,0,1-2.02-4.848,39.336,39.336,0,0,0-1.818-4.04c-1.01-2.02-1.616-3.03-1.616-3.03v3.232c0,1.212.2,2.626.2,4.242.2,1.616.2,3.232.4,5.05,0,.4.2.808.2,1.414a3.438,3.438,0,0,0,.2,1.414,13.64,13.64,0,0,0,.4,2.828c.2,1.818.606,3.838.808,5.858.2,1.01.2,2.02.4,3.232a.742.742,0,0,0,.2.606c0,1.01-.2,2.222-.2,3.434,0,1.01-.2,2.222-.2,3.434v5.454c-.4,3.03-1.01,6.262-1.414,9.494l-.606,4.848c-.2,1.616-.2,3.232-.4,4.848a3.938,3.938,0,0,1-.2,1.616,6.512,6.512,0,0,1-1.212-.4l.2.2.4.4c.2.2.4.4.4.606s.2.2.2.4v9.494c0,1.01.2,2.02.2,2.626a2.562,2.562,0,0,0,.2,1.212h-1.01a5.02,5.02,0,0,1,.2-1.616v-3.636c0-.606-.2-1.414-.2-2.02a7.177,7.177,0,0,0-.4-2.02,2.92,2.92,0,0,0-.4-1.414v-1.212a2.089,2.089,0,0,0-.2-.808.626.626,0,0,0-.4.2,4.226,4.226,0,0,0-.808-1.212,16.4,16.4,0,0,0-1.818-2.02,13.067,13.067,0,0,0-1.616-1.818c-.2-.808-.2-1.616-.4-2.424l-1.01-4.04a5.027,5.027,0,0,0-.606-1.414l-.4.4c-.2.2-.4.606-.808,1.01-.2.2-.2.4-.4.808a17.244,17.244,0,0,0-2.222-2.828c.606-2.828,1.212-5.858,1.818-8.484.606-2.828,1.212-5.454,1.616-7.676s1.01-4.242,1.414-6.06.808-3.636,1.01-5.252c.606-3.232,1.01-5.858,1.212-7.676s.2-3.03.2-3.03l-.606.606a19.562,19.562,0,0,0-1.414,1.818c-1.01,1.616-2.626,4.04-4.242,7.07a90.176,90.176,0,0,0-4.848,11.312c-.4,1.01-.808,2.222-1.212,3.434s-.808,2.424-1.212,3.838c-.808,2.626-1.414,5.454-2.02,8.484s-1.212,6.06-1.818,8.888c-.4,2.02-.808,4.242-1.01,6.262a8.888,8.888,0,0,0-2.02-.4,6.457,6.457,0,0,0-1.414-.2h.2a.705.705,0,0,0,.4.2c.2.2.4.2.4.4l.2.2h-.4a2.5,2.5,0,0,0,.606.4,6.645,6.645,0,0,1,1.212,1.212c.2.2.2.4.4.606a22.494,22.494,0,0,0-.4,3.434c-.2,1.212-.2,2.424-.4,3.434,0,1.01-.2,1.818-.2,2.626v1.212h-1.616v-.4a5.02,5.02,0,0,1,.2-1.616v-3.636c0-.606-.2-1.414-.2-2.02a7.177,7.177,0,0,0-.4-2.02,5.139,5.139,0,0,1-.4-1.414,4.4,4.4,0,0,0-1.414-1.818,14.179,14.179,0,0,0-1.818-1.212,8.21,8.21,0,0,1-2.02-1.818,11.206,11.206,0,0,1-1.212-1.616A14.174,14.174,0,0,0,145.841,284a29.547,29.547,0,0,0-1.818-2.626c0-.808-.2-1.818-.2-2.626s-.2-1.616-.2-2.424c.4-1.818.808-3.434,1.212-5.05.606-2.626,1.212-5.05,1.616-7.474.4-2.222,1.01-4.646,1.414-6.868s.808-4.444,1.01-6.464c.606-4.04,1.01-7.474,1.212-9.7.2-2.424.2-3.636.2-3.636a2.211,2.211,0,0,0-.4.808,14.491,14.491,0,0,0-1.414,2.222c-1.01,2.02-2.626,5.05-4.242,8.888-1.414,3.232-2.626,7.07-4.04,11.11-.2-.4-.2-.808-.4-1.212a10.369,10.369,0,0,0-.808-2.02,2.013,2.013,0,0,1-.2-.808s-.2,1.212-.606,3.03a52.539,52.539,0,0,0-1.01,7.272,39.352,39.352,0,0,0-.4,5.05c-.606,2.02-1.01,4.04-1.616,6.262-.606,2.828-1.212,5.656-1.818,8.282a59.207,59.207,0,0,0-1.01,5.858h-2.626a1.563,1.563,0,0,1,.606.2,5.437,5.437,0,0,1,1.818,1.212h0a1.214,1.214,0,0,1-.2.808c0,.4-.2,1.01-.2,1.414a3.806,3.806,0,0,0-.4-1.616,5.922,5.922,0,0,0-.808-1.616l-.4-.4h-.2c-.2,0-.4.2-.606.2a4.911,4.911,0,0,0-1.818,1.414l-.2.2c.2-.606.2-1.414.4-2.02a13.9,13.9,0,0,0,.4-2.626c.2-.606.2-1.212.4-1.616v-.606s-.4.4-1.212,1.414a5.02,5.02,0,0,0-.2-1.616v-2.222c0-.2.2-.2.2-.4a4.99,4.99,0,0,1,.808-1.818,16.1,16.1,0,0,1,1.616-3.232c.2-.606.4-1.01.606-1.616,0-.2.2-.606.2-.808s.2-.606.2-.808a16.827,16.827,0,0,0,.808-3.03,12.615,12.615,0,0,0,.2-2.424v-1.01s-.606,0-1.616,1.01c-.4.4-1.01,1.414-1.818,2.424a30.823,30.823,0,0,1-2.222,3.232h0v-.2l-.4.4a3.106,3.106,0,0,0-.808,1.212h0a10.117,10.117,0,0,1-1.414,1.616c-.4.606-1.01,1.01-1.414,1.616s-1.01,1.01-1.414,1.616L119.38,284a12,12,0,0,0-.808,1.616,8.286,8.286,0,0,0-.2-2.222c0-1.01-.2-2.02-.2-3.03a11.921,11.921,0,0,0-.4-2.828,55.46,55.46,0,0,0-1.818-9.7c-.606-2.626-1.414-5.454-2.02-7.474a16.842,16.842,0,0,0-.808-2.424,3.186,3.186,0,0,1-.2-.808s-.2,1.414-.606,3.434c-.4,2.222-.808,5.05-1.212,7.878s-.606,6.262-.808,9.9c0,1.818-.2,3.838-.2,5.656v8.686l-.2.2a1.531,1.531,0,0,0-.4.808l-.2-.2a6.822,6.822,0,0,0-2.222-1.414,10.139,10.139,0,0,0-2.424-.4h-1.01a13.065,13.065,0,0,0,.808-2.626c.606-2.02,1.414-4.242,2.02-6.262s1.212-4.242,1.818-6.06c.606-2.02,1.01-3.838,1.616-5.656.4-1.818.808-3.434,1.212-5.05.808-3.434,1.212-7.07,1.616-9.494a27.207,27.207,0,0,0,.4-4.04,5.98,5.98,0,0,0-.606.808c-.4.606-.808,1.414-1.414,2.424-1.212,2.02-2.828,5.252-4.444,8.686s-3.434,6.666-5.252,10.3c-.4,1.01-.808,1.818-1.212,2.828l-1.212,3.03c-.2.4-.2.606-.4,1.01l-.606.606L96.554,283.6a9.332,9.332,0,0,0-1.414,1.414c-.4.606-.808,1.01-1.212,1.616a6.319,6.319,0,0,0-1.01,2.02,16.962,16.962,0,0,0-.808,2.424h0c-.2-.4-.2-.808-.4-1.01a52.335,52.335,0,0,0-2.828-5.858c-1.01-1.818-2.02-3.434-3.03-5.05a34.264,34.264,0,0,0-2.02-2.828c.2-1.01.606-1.818.808-2.828.4-1.616.808-3.232,1.212-5.05.808-3.636,1.212-7.676,1.616-10.5a36.39,36.39,0,0,0,.4-4.646,10.492,10.492,0,0,1-.606,1.01c-.4.606-.808,1.616-1.414,2.626-1.212,2.424-2.828,5.858-4.444,9.494-.808,1.414-1.414,3.232-2.222,4.444-.606-.606-1.212-1.414-1.616-1.818a26.856,26.856,0,0,0-2.222-2.626s.606,1.414,1.414,3.232a16.7,16.7,0,0,0,1.414,2.626,30.408,30.408,0,0,0-2.222,4.444c-.4.808-.808,1.616-1.212,2.626-.2-.4-.2-.808-.4-1.212-.4-1.212-.808,0-1.616,2.424a1.543,1.543,0,0,0,1.01-.4,3.546,3.546,0,0,0,1.01-.808v.2c-.4,1.01-.808,1.818-1.212,2.828l-1.212,3.03h0l-.606-2.424.606-1.212a2.871,2.871,0,0,0,.4-1.212H71.91c-.2,0-.4-.2-.606-.2.4-1.414.606-2.424.606-2.424a2.5,2.5,0,0,0-.4.606,4.407,4.407,0,0,0-.808,1.01c-.808-2.828-1.818-5.252-2.626-7.878-1.01-3.03-2.02-6.262-2.828-8.686-.4-1.212-.808-2.222-1.01-2.828a8.492,8.492,0,0,0-.4-1.01,5.652,5.652,0,0,1-.2,1.212c0,.808-.2,1.818-.2,3.232-.2,2.626-.4,6.464-.4,9.292s.2,5.858.4,9.292c0,.606.2,1.414.2,2.02l-.2.2c-.2.4-.606.606-.808,1.01h0c-.808-1.414-1.818-2.828-2.626-4.242-1.01-1.414-2.02-2.828-3.03-4.04-2.02-2.424-3.838-4.242-5.05-6.06-1.212-1.616-2.222-2.828-2.222-2.828s.606,1.414,1.414,3.434a22.08,22.08,0,0,0,1.616,3.03c.606,1.01,1.414,2.424,2.02,3.636.808,1.414,1.414,2.828,2.222,4.444l2.424,4.848c0,.2.2.4.2.606-.4.4-.606,1.01-1.01,1.414a10.146,10.146,0,0,0-1.01,2.626c-.2,1.01-.2,2.02-.4,2.626l1.415,1.01a2.562,2.562,0,0,1-1.212-.2c-.2,0-.2,0-.4-.2h-.4c-.2,0-.4-.2-.606-.2-.2-.2-.4-.2-.606-.4h0L53.529,293.7c-.2-.2-.4-.2-.606-.4,0-1.212.2-2.626.2-3.434a19.477,19.477,0,0,0,.4-2.424v-.808a.626.626,0,0,0-.4.2,3.289,3.289,0,0,1-1.212.606,27.478,27.478,0,0,0-3.434,2.424l-.2.2-.606-3.03c-.2-.4-.2-1.01-.4-1.414l.606-1.212c.2-.4.2-.606.4-1.01-.2,0-.2,0-.4-.2a4.226,4.226,0,0,1-1.212-.808,22.441,22.441,0,0,1,.808-2.626l-.4.4a4.407,4.407,0,0,0-.808,1.01c-.808-2.828-1.818-5.252-2.626-7.878-1.01-2.828-2.02-6.464-2.828-8.888-.4-1.212-.808-2.222-1.01-3.03a8.492,8.492,0,0,0-.4-1.01,5.653,5.653,0,0,1-.2,1.212c0,.808-.2,2.02-.2,3.434-.2,2.828-.4,6.666-.4,9.292,0,2.828.2,5.858.4,9.09,0,.808.2,1.616.2,2.424v.2h0c-.2.4-.606.606-.808.808l-.808.808a11.547,11.547,0,0,0-1.616,1.414,6.291,6.291,0,0,0-1.414,1.818,23.7,23.7,0,0,0-1.01,2.222,5.406,5.406,0,0,1,.4,2.222c.4,1.818.606,3.434,1.01,4.848,0,.2.2.4.2.606a39.282,39.282,0,0,0-1.01,4.04,8.748,8.748,0,0,1-.2,1.01c-1.818,0-3.434.2-5.05.2v-.2c.4-1.01.606-2.222,1.01-3.434s.606-2.424,1.01-3.636c.2-.808.606-1.818.808-2.626a8.189,8.189,0,0,1-1.818-1.01,13.065,13.065,0,0,1-1.818-1.616c-.2-.2-.4-.4-.606-.4,0-1.01.2-2.02.2-2.626.2-1.212.4-1.818.4-2.222v-.808a.626.626,0,0,0-.4.2,6.723,6.723,0,0,1-1.212.606,25.216,25.216,0,0,0-3.636,2.222c-1.212,1.01-2.222,3.434-2.828,5.252,0,.4.2.606.2,1.01a17.19,17.19,0,0,0,1.212,3.434c.4,1.01.808,1.818,1.212,2.626-.4.606-.606,1.414-1.01,2.02-.2.606-.606,1.01-.808,1.616h-.4c-3.232.2-6.06.2-8.686.2Zm277.545-9.292h0l-.606-1.818c0-.2,0-.2-.2-.4v-.4c.2.606.2,1.01.4,1.616A3.415,3.415,0,0,0,277.545,298.345ZM40.4,305.011l.606,1.212H40a1.821,1.821,0,0,0,.2-1.01A.2.2,0,0,0,40.4,305.011Zm35.552-1.818-.606.606-.2.2v-.4c.2-.4.2-.606.4-1.01C75.749,302.789,75.951,302.991,75.951,303.193Zm-9.9,2.222h-.606c0-.2.2-.4.2-.808h0C65.851,304.809,65.851,305.213,66.053,305.415Zm33.734-.808Zm66.659-17.978a2.434,2.434,0,0,0,1.01,1.01c0,.2-.2.4-.2.606s-.2.4-.2.808c-.2.4-.2,1.01-.4,1.414v.2c0,.2-.2.2-.2.4a1.215,1.215,0,0,0-.2.808c0,.4-.2.606-.2,1.01a2.562,2.562,0,0,1-.2,1.212v.606a4.226,4.226,0,0,0-1.212-.808h0c.4-1.212.606-2.626,1.01-3.838A17.1,17.1,0,0,1,166.446,286.629Zm56.357,2.424c.4-.4.606-.808,1.01-1.212a8.784,8.784,0,0,1,1.212-1.414c0-.2.2-.2.2-.4a25.583,25.583,0,0,0-1.212,3.636,5.9,5.9,0,0,0-.4,1.818l-.606-1.818A.742.742,0,0,0,222.8,289.053Zm74.941,2.424c.2.2.2.4.4.606a.2.2,0,0,0,.2.2v.2c.2,1.01.4,2.02.606,2.828.2,1.01.606,2.02.808,2.828h0c-.4-1.01-.808-2.02-1.212-3.232-.2-.808-.606-1.616-.808-2.424Zm15.352,9.292ZM27.674,296.527v0Zm25.452-.606v0Zm7.474,4.848v.4c-.4,1.414-.808,2.626-1.01,3.636,0,.2-.2.606-.2.808h-.606a1.215,1.215,0,0,1,.2-.808,15.288,15.288,0,0,0,.2-3.03c0-1.01.2-2.222.2-3.232v-3.232h0a.742.742,0,0,0,.2.606C59.993,297.739,60.2,299.355,60.6,300.769Zm28.886-5.252h0a3.289,3.289,0,0,1-1.212.606,9.391,9.391,0,0,1-1.818.606,25.231,25.231,0,0,0-1.818-2.424,4.815,4.815,0,0,0-2.222-1.212,9.835,9.835,0,0,0-2.424-.2h-.808a13.92,13.92,0,0,1,.606-1.616c.606-1.818,1.414-3.838,2.02-5.858.4-1.616,1.01-3.03,1.414-4.646.2.2.2.606.4.808.808,1.616,1.616,3.434,2.424,5.252.4.808.808,1.818,1.212,2.828s.808,2.02,1.212,2.828C88.879,293.7,89.283,294.709,89.485,295.517Zm1.01,3.03c.606,2.02,1.212,4.04,1.616,5.656,0,.2.2.4.2.606H90.091c0-.4-.2-.808-.2-1.212-.2-.4-.2-.808-.4-1.212a15.23,15.23,0,0,0-1.212-2.626l-.606-1.212a9.324,9.324,0,0,0,1.414-2.02,1.532,1.532,0,0,0,.4-.808A24.5,24.5,0,0,1,90.495,298.547ZM151.7,303.4h-4.04c-.2-.2-.4-.606-.606-.808a2.789,2.789,0,0,1-.606-.808,7.578,7.578,0,0,1,.2-2.02v-.4l1.818-2.424a20.383,20.383,0,0,1,1.414,3.03c.2.606.606,1.01.808,1.616a9.851,9.851,0,0,0,.606,1.414C151.5,303.193,151.7,303.193,151.7,303.4Zm54.135-14.544h0v1.414c0,.606-.2,1.212-.2,1.616V293.5c0,1.01-.2,2.02-.2,3.03a32.287,32.287,0,0,0,0,4.444v1.414h-.4a9.434,9.434,0,0,0-2.02-1.01c.2-.4.2-.808.4-1.212l.606-2.424a19.349,19.349,0,0,0,.606-4.444v-2.626a2.451,2.451,0,0,0-.2-1.01,9.24,9.24,0,0,0-1.212.808,22.167,22.167,0,0,0-2.424,2.222,4.406,4.406,0,0,0-.808,1.01,3.438,3.438,0,0,1,.2-1.414c0-1.01.2-1.818.2-2.626v-2.222a8.286,8.286,0,0,0-.2-2.222c-.2-1.414-.4-2.828-.606-4.444v-1.818c.4.808.606,1.818,1.01,2.424A11.453,11.453,0,0,0,202.2,284l1.818,2.424Zm20.806-8.08c-.606.606-1.414,1.212-2.02,1.818-1.01,1.01-2.02,1.818-3.03,2.828v-.2h0a1.215,1.215,0,0,0,.2-.808c.2-1.01.606-1.818.808-2.828s.606-2.02.808-2.828c.2-1.212.4-2.424.606-3.434,0,.2.2.4.2.808.4,1.01.808,2.02,1.212,3.232A2.54,2.54,0,0,1,226.641,280.771Zm4.242,9.292a12.876,12.876,0,0,0,.4-1.414v.606c0,.606-.2,1.212-.2,1.616v1.616c0,1.01-.2,2.02-.2,3.03a32.287,32.287,0,0,0,0,4.444v1.818c-.606-.4-1.414-.808-2.02-1.212,0-.4.2-1.01.2-1.414.2-.808.2-1.616.4-2.222a10.139,10.139,0,0,0,.4-2.424c.2-.808.2-1.616.4-2.424C230.479,291.477,230.681,290.669,230.883,290.063Zm27.068-6.868c0,.2.2.2.2.4v6.666a.742.742,0,0,1-.2.606c-.2.606-.2,1.616-.4,2.626v5.656a6.871,6.871,0,0,0,.2,2.02v.4h-4.04c.2-.808.2-1.414.4-2.222s.2-1.616.4-2.222a10.139,10.139,0,0,0,.4-2.424c.2-.808.2-1.616.4-2.424l.606-2.424c.4-1.616.808-3.03,1.212-4.444A9.844,9.844,0,0,0,257.951,283.2ZM283.4,296.931a27.607,27.607,0,0,1,.4-3.838,4.447,4.447,0,0,1,.2-1.616c.2,2.424.2,4.242.4,5.858,0,.808.2,1.414.2,2.02s.2,1.212.2,1.616H283.4v-.808c0-.606.2-1.01.2-1.616C283.2,298.143,283.4,297.537,283.4,296.931Zm55.347-17.776c-.606,1.01-1.414,2.222-2.222,3.434-.4.808-1.01,1.818-1.414,2.828,0-.2-.2-.4-.2-.606.606-1.818,1.01-3.636,1.616-5.454.606-2.626,1.414-5.454,2.02-8.08C339.154,269.055,338.952,278.347,338.75,279.155Z" transform="translate(0 0)" fill="#275072"/>
        </g>
        <g id="Group_175176" data-name="Group 175176" transform="translate(-128.186 707.272)">
          <path id="Path_65622-2" data-name="Path 65622" d="M15.852,255.73c.2,0,.2,0,.4-.2a.626.626,0,0,1,.4-.2l-.4.808-.2.2h0c.4,0,.808-.2,1.212-.2h.2c0-.4-.2-.606-.2-1.01-.4-1.212-.606-2.02-1.01-2.222l-.2-.2a.885.885,0,0,0-.2.606h0v.2A4.076,4.076,0,0,0,15.852,255.73Z" transform="translate(290.004 -172.305)" fill="#275072"/>
          <path id="Path_65623-2" data-name="Path 65623" d="M25.2,246.9a2.013,2.013,0,0,0,.2.808,2.166,2.166,0,0,0,.4,1.212q.3.3.606-.606A4.5,4.5,0,0,1,25.2,246.9Z" transform="translate(261.87 -178.221)" fill="#275072"/>
          <path id="Path_65624-2" data-name="Path 65624" d="M10,256.478c.2.2.2,0,.2,0,0-.2.2-.4.2-.606a2.2,2.2,0,0,1,.2-1.01v-1.818c0-.2,0-.4-.2-.2a.705.705,0,0,0-.2.4A13.748,13.748,0,0,0,9.6,255.67v.2A2.905,2.905,0,0,1,10,256.478Z" transform="translate(309.184 -172.245)" fill="#275072"/>
          <path id="Path_65625-2" data-name="Path 65625" d="M24.506,247.084A13.919,13.919,0,0,1,23.9,248.7a4.417,4.417,0,0,0,1.01.606,2.146,2.146,0,0,0,1.616.2C25.314,247.084,24.91,245.67,24.506,247.084Z" transform="translate(264.382 -178.607)" fill="#275072"/>
          <path id="Path_65626-2" data-name="Path 65626" d="M339.186,307.637l-12.12,13.736c-2.626,0-5.454.2-8.686.4-6.868.2-15.352.606-25.452.808l-8.484.2c-13.13.4-27.876.808-44.439,1.212l-32.522.808-75.345,1.414-42.015.606c-33.33.4-91.706-78.779-90.09-76.759a23.76,23.76,0,0,1,2.222,3.03,11.976,11.976,0,0,1,1.616-1.616,12.639,12.639,0,0,1,2.222-1.616,10.343,10.343,0,0,0-1.414,2.02c-.4.606-.808,1.616-1.414,2.828.808,1.616,1.616,3.232,2.424,5.252.4,1.212.808,2.222,1.212,3.434s.808,2.424,1.212,3.838.808,2.828,1.212,4.444v-.2c.2-1.212.4-2.626.606-3.838a13.638,13.638,0,0,0,.4-2.828c-.606-2.626-1.01-4.242-1.01-4.242a2.5,2.5,0,0,1,.4.606c.2.4.606.808.808,1.212a44.708,44.708,0,0,1,1.414-6.06c-.606-3.838-.606-5.656-.2-5.858a1.806,1.806,0,0,0,.808-1.616v-2.424a16.7,16.7,0,0,0,1.818,2.222l.606.606a7.689,7.689,0,0,1,1.01-1.212c.4-.4.808-.606,1.01-.808a.626.626,0,0,1,.4-.2v.2a8.75,8.75,0,0,1,.2,1.01,18.73,18.73,0,0,1,.2,4.04c.4,1.01.808,2.424,1.414,4.04.4,1.01.606,2.222,1.01,3.232a6.244,6.244,0,0,1,.4,1.616c.2.606.2,1.212.4,1.616a.742.742,0,0,0,.2.606c1.01-2.02,1.818-3.838,2.828-5.454,2.02-3.434,3.636-5.656,5.05-6.666a7.479,7.479,0,0,1,2.222-1.616,10.341,10.341,0,0,0-1.414,2.02c-.4.808-1.01,1.818-1.616,3.03-.606,1.414-1.212,3.03-2.02,4.848s-1.414,4.04-2.222,6.464c-.4,1.212-.808,2.626-1.212,3.838a1.214,1.214,0,0,0,.2.808c1.01-2.222,1.818-4.444,2.626-6.262a60.123,60.123,0,0,1,3.838-6.868,16.387,16.387,0,0,1,1.212-1.616,2.5,2.5,0,0,1,.4-.606s-.2,1.01-.4,3.03-.808,4.848-1.414,8.484-1.616,7.878-2.626,12.322c0,.2-.2.606-.2.808a21.288,21.288,0,0,1,1.414,2.222c.4.808,1.01,1.818,1.414,2.828v-9.09c0-2.626.2-5.252.4-7.474s.606-4.04.808-5.252c.2-.606.2-1.212.4-1.414a.885.885,0,0,1,.2-.606l.4.4A11.591,11.591,0,0,0,32.352,263c.606,1.212,1.414,3.03,2.222,5.05.2.4.2.808.4,1.212,0-.606.2-1.414.2-2.02.2-1.01.2-2.02.4-2.828-.606-2.828-1.01-4.242-1.01-4.242a2.5,2.5,0,0,1,.4.606c.2.4.606.808.808,1.212a48,48,0,0,1,1.414-6.262c-.606-3.838-.606-5.454,0-5.454s1.01-.2,1.01-1.01v-2.222a10.308,10.308,0,0,0,1.818,2.02,5.764,5.764,0,0,1,1.414-1.616c.4-.4.808-.606,1.01-.808a.626.626,0,0,1,.4-.2l.2.2c0,.2.2.4.2.808a18.73,18.73,0,0,1,.2,4.04c.4.808.808,2.424,1.414,4.04.4,1.01.606,2.222,1.01,3.232a6.245,6.245,0,0,1,.4,1.616c.2.606.2,1.212.4,1.616l.606,2.424v-2.222c0-1.616.2-3.03.2-4.444.2-1.414.2-2.626.4-3.838.606-4.646,1.212-6.666,2.222-7.878a5.385,5.385,0,0,1,2.424-2.02,2.788,2.788,0,0,0,.808-.606.626.626,0,0,1,.4-.2l.2.2c0,.2.2.4.4.606a4.97,4.97,0,0,1,.808,2.02,54.08,54.08,0,0,1,.4,8.282v2.02a4.407,4.407,0,0,1,.808-1.01,2.5,2.5,0,0,1,.4-.606s-.2,1.01-.4,3.03q-.3,1.515-.606,4.242v3.636c.2-1.212.4-2.222.606-3.232.2-.606.2-1.212.4-1.414a.885.885,0,0,1,.2-.606l.4.4a11.59,11.59,0,0,0,.808,1.414c.606,1.212,1.414,3.03,2.222,5.05.4,1.01.606,1.818,1.01,3.03h0c0-5.05,0-10.3.2-14.544.2-2.222.2-4.242.2-5.656.2-1.212.2-2.02.4-2.828v-.2h0v-.4a9.391,9.391,0,0,1,.606-1.818c.2-.4.606-.808.808-1.212.2-.2.2-.4.4-.606s.4-.606.606-.808a18.039,18.039,0,0,0,1.01-2.626c.808-2.222,1.414-5.858,2.02-8.08a38.6,38.6,0,0,1,1.818-5.252c.606-1.414,1.212-2.828,1.818-4.04s1.212-2.626,1.818-3.838c1.212-2.222,2.02-4.04,2.02-4.04a5.652,5.652,0,0,1-.2,1.212c0,.808-.2,1.818-.2,3.03-.2,2.424-.4,5.05-.606,8.08a115.629,115.629,0,0,1-1.414,13.332,14.182,14.182,0,0,1-1.212,3.838,13.677,13.677,0,0,0-1.212,3.232c-.2.808-.4,2.02-.606,3.434a46.458,46.458,0,0,0-.4,5.656c0,1.01-.2,2.222-.2,3.434.606,2.02,1.212,4.444,1.818,6.868.606,2.626,1.212,5.454,1.616,8.282a1.214,1.214,0,0,0,.2.808v-8.888c0-1.616.2-3.232.2-4.848s.2-3.03.2-4.444c.2-1.414.2-2.626.4-3.838.606-4.646,1.212-6.666,2.02-7.878A6.073,6.073,0,0,1,78,243.4a2.788,2.788,0,0,0,.808-.606.626.626,0,0,1,.4-.2l.2.2c0,.2.2.4.4.606a11.069,11.069,0,0,1,.808,2.424,56.238,56.238,0,0,1,.4,8.282v14.544a8.551,8.551,0,0,1,1.01,1.414l1.212,1.818c.4.606.808,1.414,1.212,2.02s.606,1.212,1.01,1.818c.2.2.606.4.808.808l.606.606c0-2.222,0-4.646-.2-7.07,0-5.05,0-10.1.2-14.342.2-2.222.2-4.242.2-5.454.2-1.01.2-2.02.4-2.828v-.2h0v-.4a12.552,12.552,0,0,1,.606-2.02c.2-.606.606-1.01.808-1.616.2-.2.2-.606.4-.808.2-.4.4-.606.606-1.01a21.949,21.949,0,0,0,1.01-2.828c.808-2.222,1.414-5.656,2.02-7.878a42.735,42.735,0,0,1,1.818-5.454c.606-1.616,1.212-3.03,1.818-4.444a34.648,34.648,0,0,1,1.818-3.838l2.02-4.04a5.652,5.652,0,0,1-.2,1.212c0,.808-.2,1.818-.2,3.03q-.3,3.636-.606,8.484c-.2,3.232-.808,9.494-1.414,13.534a37.156,37.156,0,0,1-1.212,4.646,38.617,38.617,0,0,0-1.212,4.242c-.2,1.01-.4,2.02-.606,3.434a40.968,40.968,0,0,0-.4,5.656c0,1.01-.2,2.222-.2,3.232.606,2.02,1.212,4.242,1.818,6.868.2,1.212.606,2.626.808,3.838a.2.2,0,0,1,.2-.2v1.414l.606,3.03c0,.4.2.808.2,1.414.2.2.2.4.4.808-.2-1.212-.2-2.222-.4-3.434s-.2-2.626-.4-3.838a24.446,24.446,0,0,1-.2-3.838c-.2-2.424-.4-4.848-.4-6.868s-.2-3.838-.2-5.454a33.212,33.212,0,0,1,.2-5.454,8.751,8.751,0,0,1,.2-1.01v-.4a10.439,10.439,0,0,1,1.414,1.212,11.871,11.871,0,0,1,2.828,4.848c.606,1.414,1.01,3.232,1.616,5.05.606,2.02,1.01,4.242,1.616,6.464l.606,3.636a1.527,1.527,0,0,0,.2.808,29.547,29.547,0,0,1,1.818,2.626l1.212,1.818c.2.2.2.4.4.606l1.212-1.212a18.85,18.85,0,0,1,4.444-3.434,11.588,11.588,0,0,1,1.414-.808,1.564,1.564,0,0,1,.606-.2,6.533,6.533,0,0,1-.4,1.818l-.606,1.818.4.4c.808,1.01,2.02,2.424,3.232,4.04v-1.818c0-1.01.2-2.02.2-2.828.2-3.838.4-7.676.808-11.11q.3-2.727.606-4.848a16.209,16.209,0,0,1,.808-3.636c0-.2.2-.4.2-.606,0-.4-.2-.606-.2-1.01-.4-1.414-.808-2.626-1.01-3.636a46.775,46.775,0,0,0-1.616-4.444,5.139,5.139,0,0,1-.4-1.414,1.563,1.563,0,0,1-.2-.606,2.5,2.5,0,0,0,.606.4,6.445,6.445,0,0,1,1.414,1.212,14.737,14.737,0,0,1,2.02,1.818,18.21,18.21,0,0,1,1.818,2.02c.2-.2.2-.606.4-.808a149483.451,149483.451,0,0,0,2.02-4.04h0c.2-.606.606-1.212.606-1.414a1.563,1.563,0,0,0,.2-.606v.2h0a40.366,40.366,0,0,0,2.02-4.242,34.651,34.651,0,0,1,1.818-3.838c1.01-2.02,1.616-3.03,1.616-3.03v3.232c0,1.01-.2,2.626-.2,4.04-.2,1.414-.2,2.828-.4,4.242a8.749,8.749,0,0,1-.2,1.01,1.821,1.821,0,0,1-.2,1.01,7.177,7.177,0,0,1-.4,2.02c-.2,1.414-.606,2.828-.808,4.444-.2.808-.2,1.616-.4,2.626a.742.742,0,0,1-.2.606c0,1.01.2,2.02.2,3.03s.2,2.222.2,3.434a28.449,28.449,0,0,0,.2,4.04V263.8c.4,3.03,1.01,6.464,1.414,10.1.2,1.818.4,3.434.606,5.252h0c1.212-1.212,2.222-2.424,3.232-3.232a33.829,33.829,0,0,1,4.242-3.232h0c.2-2.626.2-4.646.4-6.06a22.512,22.512,0,0,1,.4-2.626.885.885,0,0,1,.2.606c.2.4.4,1.01.808,1.818a42.934,42.934,0,0,1,2.02,7.272l.606,3.03c0-.808.2-1.616.2-2.424.2-3.636.4-7.272.808-10.706.2-1.616.4-3.232.606-4.646a16.208,16.208,0,0,1,.808-3.636c0-.2.2-.4.2-.606,0-.4-.2-.808-.2-1.212-.4-1.616-.808-3.232-1.01-4.444-.606-2.626-1.212-4.848-1.616-6.262a10.246,10.246,0,0,1-.4-1.818,1.563,1.563,0,0,1-.2-.606l.606.606a13.185,13.185,0,0,1,1.414,1.616c.606.606,1.212,1.414,2.02,2.424.606.808,1.212,1.818,1.818,2.828.2-.4.2-.808.4-1.212.4-.808.606-1.818,1.01-2.626s.606-1.818,1.01-2.626h0a18.589,18.589,0,0,0,.606-1.818,1.563,1.563,0,0,0,.2-.606v.2h0a49.34,49.34,0,0,0,2.02-4.848,39.334,39.334,0,0,1,1.818-4.04c1.01-2.02,1.616-3.03,1.616-3.03v3.232c0,1.212-.2,2.626-.2,4.242-.2,1.616-.2,3.232-.4,5.05,0,.4-.2.808-.2,1.414a3.438,3.438,0,0,1-.2,1.414,13.64,13.64,0,0,1-.4,2.828c-.2,1.818-.606,3.838-.808,5.858-.2,1.01-.2,2.02-.4,3.232a.742.742,0,0,1-.2.606c0,1.01.2,2.222.2,3.434,0,1.01.2,2.222.2,3.434v5.454c.4,3.03,1.01,6.262,1.414,9.494l.606,4.848c.2,1.616.2,3.232.4,4.848a3.938,3.938,0,0,0,.2,1.616,6.512,6.512,0,0,0,1.212-.4l-.2.2-.4.4c-.2.2-.4.4-.4.606s-.2.2-.2.4v9.494c0,1.01-.2,2.02-.2,2.626a2.562,2.562,0,0,1-.2,1.212h1.01a5.02,5.02,0,0,0-.2-1.616v-3.636c0-.606.2-1.414.2-2.02a7.177,7.177,0,0,1,.4-2.02,2.92,2.92,0,0,1,.4-1.414v-1.212a2.089,2.089,0,0,1,.2-.808.626.626,0,0,1,.4.2,4.226,4.226,0,0,1,.808-1.212,16.4,16.4,0,0,1,1.818-2.02,13.067,13.067,0,0,1,1.616-1.818c.2-.808.2-1.616.4-2.424l1.01-4.04a5.027,5.027,0,0,1,.606-1.414l.4.4c.2.2.4.606.808,1.01.2.2.2.4.4.808a17.243,17.243,0,0,1,2.222-2.828c-.606-2.828-1.212-5.858-1.818-8.484-.606-2.828-1.212-5.454-1.616-7.676s-1.01-4.242-1.414-6.06-.808-3.636-1.01-5.252c-.606-3.232-1.01-5.858-1.212-7.676s-.2-3.03-.2-3.03l.606.606a19.562,19.562,0,0,1,1.414,1.818c1.01,1.616,2.626,4.04,4.242,7.07a90.175,90.175,0,0,1,4.848,11.312c.4,1.01.808,2.222,1.212,3.434s.808,2.424,1.212,3.838c.808,2.626,1.414,5.454,2.02,8.484s1.212,6.06,1.818,8.888c.4,2.02.808,4.242,1.01,6.262a8.888,8.888,0,0,1,2.02-.4,6.457,6.457,0,0,1,1.414-.2h-.2a.705.705,0,0,1-.4.2c-.2.2-.4.2-.4.4l-.2.2h.4a2.5,2.5,0,0,1-.606.4,6.646,6.646,0,0,0-1.212,1.212c-.2.2-.2.4-.4.606a22.494,22.494,0,0,1,.4,3.434c.2,1.212.2,2.424.4,3.434,0,1.01.2,1.818.2,2.626v1.212h1.616v-.4a5.02,5.02,0,0,0-.2-1.616v-3.636c0-.606.2-1.414.2-2.02a7.177,7.177,0,0,1,.4-2.02,5.139,5.139,0,0,0,.4-1.414,4.4,4.4,0,0,1,1.414-1.818,14.179,14.179,0,0,1,1.818-1.212,8.21,8.21,0,0,0,2.02-1.818,11.206,11.206,0,0,0,1.212-1.616A14.174,14.174,0,0,1,193.344,284a29.547,29.547,0,0,1,1.818-2.626c0-.808.2-1.818.2-2.626s.2-1.616.2-2.424c-.4-1.818-.808-3.434-1.212-5.05-.606-2.626-1.212-5.05-1.616-7.474-.4-2.222-1.01-4.646-1.414-6.868s-.808-4.444-1.01-6.464c-.606-4.04-1.01-7.474-1.212-9.7-.2-2.424-.2-3.636-.2-3.636a2.211,2.211,0,0,1,.4.808,14.49,14.49,0,0,1,1.414,2.222c1.01,2.02,2.626,5.05,4.242,8.888,1.414,3.232,2.626,7.07,4.04,11.11.2-.4.2-.808.4-1.212a10.369,10.369,0,0,1,.808-2.02,2.013,2.013,0,0,0,.2-.808s.2,1.212.606,3.03a52.539,52.539,0,0,1,1.01,7.272,39.355,39.355,0,0,1,.4,5.05c.606,2.02,1.01,4.04,1.616,6.262.606,2.828,1.212,5.656,1.818,8.282a59.208,59.208,0,0,1,1.01,5.858H209.5a1.563,1.563,0,0,0-.606.2,5.437,5.437,0,0,0-1.818,1.212h0a1.214,1.214,0,0,0,.2.808c0,.4.2,1.01.2,1.414a3.806,3.806,0,0,1,.4-1.616,5.922,5.922,0,0,1,.808-1.616l.4-.4h.2c.2,0,.4.2.606.2a4.911,4.911,0,0,1,1.818,1.414l.2.2c-.2-.606-.2-1.414-.4-2.02a13.9,13.9,0,0,1-.4-2.626c-.2-.606-.2-1.212-.4-1.616v-.606s.4.4,1.212,1.414a5.02,5.02,0,0,1,.2-1.616v-2.222c0-.2-.2-.2-.2-.4a4.99,4.99,0,0,0-.808-1.818,16.1,16.1,0,0,0-1.616-3.232c-.2-.606-.4-1.01-.606-1.616,0-.2-.2-.606-.2-.808s-.2-.606-.2-.808a16.827,16.827,0,0,1-.808-3.03,12.615,12.615,0,0,1-.2-2.424v-1.01s.606,0,1.616,1.01c.4.4,1.01,1.414,1.818,2.424a30.824,30.824,0,0,0,2.222,3.232h0v-.2l.4.4a3.106,3.106,0,0,1,.808,1.212h0a10.118,10.118,0,0,0,1.414,1.616c.4.606,1.01,1.01,1.414,1.616s1.01,1.01,1.414,1.616L219.806,284a11.994,11.994,0,0,1,.808,1.616,8.286,8.286,0,0,1,.2-2.222c0-1.01.2-2.02.2-3.03a11.921,11.921,0,0,1,.4-2.828,55.461,55.461,0,0,1,1.818-9.7c.606-2.626,1.414-5.454,2.02-7.474a16.84,16.84,0,0,1,.808-2.424,3.186,3.186,0,0,0,.2-.808s.2,1.414.606,3.434c.4,2.222.808,5.05,1.212,7.878s.606,6.262.808,9.9c0,1.818.2,3.838.2,5.656v8.686l.2.2a1.531,1.531,0,0,1,.4.808l.2-.2a6.823,6.823,0,0,1,2.222-1.414,10.139,10.139,0,0,1,2.424-.4h1.01a13.064,13.064,0,0,1-.808-2.626c-.606-2.02-1.414-4.242-2.02-6.262s-1.212-4.242-1.818-6.06c-.606-2.02-1.01-3.838-1.616-5.656-.4-1.818-.808-3.434-1.212-5.05-.808-3.434-1.212-7.07-1.616-9.494a27.207,27.207,0,0,1-.4-4.04,5.979,5.979,0,0,1,.606.808c.4.606.808,1.414,1.414,2.424,1.212,2.02,2.828,5.252,4.444,8.686s3.434,6.666,5.252,10.3c.4,1.01.808,1.818,1.212,2.828l1.212,3.03c.2.4.2.606.4,1.01l.606.606,1.414,1.414a9.333,9.333,0,0,1,1.414,1.414c.4.606.808,1.01,1.212,1.616a6.319,6.319,0,0,1,1.01,2.02,16.963,16.963,0,0,1,.808,2.424h0c.2-.4.2-.808.4-1.01a52.333,52.333,0,0,1,2.828-5.858c1.01-1.818,2.02-3.434,3.03-5.05a34.263,34.263,0,0,1,2.02-2.828c-.2-1.01-.606-1.818-.808-2.828-.4-1.616-.808-3.232-1.212-5.05-.808-3.636-1.212-7.676-1.616-10.5a36.39,36.39,0,0,1-.4-4.646,10.494,10.494,0,0,0,.606,1.01c.4.606.808,1.616,1.414,2.626,1.212,2.424,2.828,5.858,4.444,9.494.808,1.414,1.414,3.232,2.222,4.444.606-.606,1.212-1.414,1.616-1.818a26.858,26.858,0,0,1,2.222-2.626s-.606,1.414-1.414,3.232a16.7,16.7,0,0,1-1.414,2.626,30.411,30.411,0,0,1,2.222,4.444c.4.808.808,1.616,1.212,2.626.2-.4.2-.808.4-1.212.4-1.212.808,0,1.616,2.424a1.543,1.543,0,0,1-1.01-.4,3.546,3.546,0,0,1-1.01-.808v.2c.4,1.01.808,1.818,1.212,2.828l1.212,3.03h0l.606-2.424-.606-1.212a2.871,2.871,0,0,1-.4-1.212h.808c.2,0,.4-.2.606-.2-.4-1.414-.606-2.424-.606-2.424a2.5,2.5,0,0,1,.4.606,4.406,4.406,0,0,1,.808,1.01c.808-2.828,1.818-5.252,2.626-7.878,1.01-3.03,2.02-6.262,2.828-8.686.4-1.212.808-2.222,1.01-2.828a8.5,8.5,0,0,1,.4-1.01,5.653,5.653,0,0,0,.2,1.212c0,.808.2,1.818.2,3.232.2,2.626.4,6.464.4,9.292s-.2,5.858-.4,9.292c0,.606-.2,1.414-.2,2.02l.2.2c.2.4.606.606.808,1.01h0c.808-1.414,1.818-2.828,2.626-4.242,1.01-1.414,2.02-2.828,3.03-4.04,2.02-2.424,3.838-4.242,5.05-6.06,1.212-1.616,2.222-2.828,2.222-2.828s-.606,1.414-1.414,3.434a22.076,22.076,0,0,1-1.616,3.03c-.606,1.01-1.414,2.424-2.02,3.636-.808,1.414-1.414,2.828-2.222,4.444l-2.424,4.848c0,.2-.2.4-.2.606.4.4.606,1.01,1.01,1.414a10.147,10.147,0,0,1,1.01,2.626c.2,1.01.2,2.02.4,2.626l-1.415,1.01a2.562,2.562,0,0,0,1.212-.2c.2,0,.2,0,.4-.2h.4c.2,0,.4-.2.606-.2.2-.2.4-.2.606-.4h0l1.818-1.212c.2-.2.4-.2.606-.4,0-1.212-.2-2.626-.2-3.434a19.477,19.477,0,0,1-.4-2.424v-.808a.626.626,0,0,1,.4.2,3.289,3.289,0,0,0,1.212.606,27.48,27.48,0,0,1,3.434,2.424l.2.2.606-3.03c.2-.4.2-1.01.4-1.414l-.606-1.212c-.2-.4-.2-.606-.4-1.01.2,0,.2,0,.4-.2a4.226,4.226,0,0,0,1.212-.808,22.441,22.441,0,0,0-.808-2.626l.4.4a4.407,4.407,0,0,1,.808,1.01c.808-2.828,1.818-5.252,2.626-7.878,1.01-2.828,2.02-6.464,2.828-8.888.4-1.212.808-2.222,1.01-3.03a8.492,8.492,0,0,1,.4-1.01,5.653,5.653,0,0,0,.2,1.212c0,.808.2,2.02.2,3.434.2,2.828.4,6.666.4,9.292,0,2.828-.2,5.858-.4,9.09,0,.808-.2,1.616-.2,2.424v.2h0c.2.4.606.606.808.808l.808.808a11.545,11.545,0,0,1,1.616,1.414,6.291,6.291,0,0,1,1.414,1.818,23.7,23.7,0,0,1,1.01,2.222,5.406,5.406,0,0,0-.4,2.222c-.4,1.818-.606,3.434-1.01,4.848,0,.2-.2.4-.2.606a39.282,39.282,0,0,1,1.01,4.04,8.746,8.746,0,0,0,.2,1.01c1.818,0,3.434.2,5.05.2v-.2c-.4-1.01-.606-2.222-1.01-3.434s-.606-2.424-1.01-3.636c-.2-.808-.606-1.818-.808-2.626a8.189,8.189,0,0,0,1.818-1.01,13.063,13.063,0,0,0,1.818-1.616c.2-.2.4-.4.606-.4,0-1.01-.2-2.02-.2-2.626-.2-1.212-.4-1.818-.4-2.222v-.808a.626.626,0,0,1,.4.2,6.723,6.723,0,0,0,1.212.606,25.216,25.216,0,0,1,3.636,2.222c1.212,1.01,2.222,3.434,2.828,5.252,0,.4-.2.606-.2,1.01a17.189,17.189,0,0,1-1.212,3.434c-.4,1.01-.808,1.818-1.212,2.626.4.606.606,1.414,1.01,2.02.2.606.606,1.01.808,1.616h.4c3.232.2,6.06.2,8.686.2ZM61.641,298.345h0l.606-1.818c0-.2,0-.2.2-.4v-.4c-.2.606-.2,1.01-.4,1.616A3.415,3.415,0,0,1,61.641,298.345Zm237.145,6.666-.606,1.212h1.01a1.821,1.821,0,0,1-.2-1.01A.2.2,0,0,1,298.786,305.011Zm-35.552-1.818.606.606.2.2v-.4c-.2-.4-.2-.606-.4-1.01C263.436,302.789,263.234,302.991,263.234,303.193Zm9.9,2.222h.606c0-.2-.2-.4-.2-.808h0C273.334,304.809,273.334,305.213,273.132,305.415Zm-33.734-.808ZM172.74,286.629a2.434,2.434,0,0,1-1.01,1.01c0,.2.2.4.2.606s.2.4.2.808c.2.4.2,1.01.4,1.414v.2c0,.2.2.2.2.4a1.214,1.214,0,0,1,.2.808c0,.4.2.606.2,1.01a2.562,2.562,0,0,0,.2,1.212v.606a4.226,4.226,0,0,1,1.212-.808h0c-.4-1.212-.606-2.626-1.01-3.838A17.1,17.1,0,0,0,172.74,286.629Zm-56.357,2.424c-.4-.4-.606-.808-1.01-1.212a8.784,8.784,0,0,0-1.212-1.414c0-.2-.2-.2-.2-.4a25.583,25.583,0,0,1,1.212,3.636,5.9,5.9,0,0,1,.4,1.818l.606-1.818A.742.742,0,0,1,116.382,289.053Zm-74.941,2.424c-.2.2-.2.4-.4.606a.2.2,0,0,1-.2.2v.2c-.2,1.01-.4,2.02-.606,2.828-.2,1.01-.606,2.02-.808,2.828h0c.4-1.01.808-2.02,1.212-3.232.2-.808.606-1.616.808-2.424ZM26.09,300.769Zm285.422-4.242v0Zm-25.452-.606v0Zm-7.474,4.848v.4c.4,1.414.808,2.626,1.01,3.636,0,.2.2.606.2.808h.606a1.215,1.215,0,0,0-.2-.808,15.288,15.288,0,0,1-.2-3.03c0-1.01-.2-2.222-.2-3.232v-3.232h0a.742.742,0,0,1-.2.606C279.192,297.739,278.99,299.355,278.586,300.769ZM249.7,295.517h0a3.289,3.289,0,0,0,1.212.606,9.391,9.391,0,0,0,1.818.606,25.235,25.235,0,0,1,1.818-2.424,4.816,4.816,0,0,1,2.222-1.212,9.835,9.835,0,0,1,2.424-.2H260a13.915,13.915,0,0,0-.606-1.616c-.606-1.818-1.414-3.838-2.02-5.858-.4-1.616-1.01-3.03-1.414-4.646-.2.2-.2.606-.4.808-.808,1.616-1.616,3.434-2.424,5.252-.4.808-.808,1.818-1.212,2.828s-.808,2.02-1.212,2.828C250.307,293.7,249.9,294.709,249.7,295.517Zm-1.01,3.03c-.606,2.02-1.212,4.04-1.616,5.656,0,.2-.2.4-.2.606h2.222c0-.4.2-.808.2-1.212.2-.4.2-.808.4-1.212a15.23,15.23,0,0,1,1.212-2.626l.606-1.212a9.323,9.323,0,0,1-1.414-2.02,1.532,1.532,0,0,1-.4-.808A24.5,24.5,0,0,0,248.691,298.547Zm-61.205,4.848h4.04c.2-.2.4-.606.606-.808a2.789,2.789,0,0,0,.606-.808,7.578,7.578,0,0,0-.2-2.02v-.4l-1.818-2.424a20.383,20.383,0,0,0-1.414,3.03c-.2.606-.606,1.01-.808,1.616a9.851,9.851,0,0,1-.606,1.414C187.687,303.193,187.485,303.193,187.485,303.395ZM133.35,288.851h0v1.414c0,.606.2,1.212.2,1.616V293.5c0,1.01.2,2.02.2,3.03a32.287,32.287,0,0,1,0,4.444v1.414h.4a9.434,9.434,0,0,1,2.02-1.01c-.2-.4-.2-.808-.4-1.212l-.606-2.424a19.349,19.349,0,0,1-.606-4.444v-2.626a2.451,2.451,0,0,1,.2-1.01,9.24,9.24,0,0,1,1.212.808,22.166,22.166,0,0,1,2.424,2.222,4.406,4.406,0,0,1,.808,1.01,3.438,3.438,0,0,0-.2-1.414c0-1.01-.2-1.818-.2-2.626v-2.222a8.286,8.286,0,0,1,.2-2.222c.2-1.414.4-2.828.606-4.444v-1.818c-.4.808-.606,1.818-1.01,2.424A11.453,11.453,0,0,1,136.986,284l-1.818,2.424Zm-20.806-8.08c.606.606,1.414,1.212,2.02,1.818,1.01,1.01,2.02,1.818,3.03,2.828v-.2h0a1.215,1.215,0,0,1-.2-.808c-.2-1.01-.606-1.818-.808-2.828s-.606-2.02-.808-2.828c-.2-1.212-.4-2.424-.606-3.434,0,.2-.2.4-.2.808-.4,1.01-.808,2.02-1.212,3.232A2.54,2.54,0,0,0,112.544,280.771Zm-4.242,9.292a12.876,12.876,0,0,1-.4-1.414v.606c0,.606.2,1.212.2,1.616v1.616c0,1.01.2,2.02.2,3.03a32.287,32.287,0,0,1,0,4.444v1.818c.606-.4,1.414-.808,2.02-1.212,0-.4-.2-1.01-.2-1.414-.2-.808-.2-1.616-.4-2.222a10.139,10.139,0,0,1-.4-2.424c-.2-.808-.2-1.616-.4-2.424C108.706,291.477,108.5,290.669,108.3,290.063ZM81.235,283.2c0,.2-.2.2-.2.4v6.666a.742.742,0,0,0,.2.606c.2.606.2,1.616.4,2.626v5.656a6.871,6.871,0,0,1-.2,2.02v.4h4.04c-.2-.808-.2-1.414-.4-2.222s-.2-1.616-.4-2.222a10.139,10.139,0,0,1-.4-2.424c-.2-.808-.2-1.616-.4-2.424l-.606-2.424c-.4-1.616-.808-3.03-1.212-4.444A9.844,9.844,0,0,1,81.235,283.2ZM55.783,296.931a27.607,27.607,0,0,0-.4-3.838,4.447,4.447,0,0,0-.2-1.616c-.2,2.424-.2,4.242-.4,5.858,0,.808-.2,1.414-.2,2.02s-.2,1.212-.2,1.616h1.414v-.808c0-.606-.2-1.01-.2-1.616C55.985,298.143,55.783,297.537,55.783,296.931ZM.436,279.155c.606,1.01,1.414,2.222,2.222,3.434.4.808,1.01,1.818,1.414,2.828,0-.2.2-.4.2-.606-.606-1.818-1.01-3.636-1.616-5.454-.606-2.626-1.414-5.454-2.02-8.08C.032,269.055.234,278.347.436,279.155Z" transform="translate(0 -212.9)" fill="#275072"/>
        </g>
      </g>
    </g>
  </g>
</svg>
