<svg xmlns="http://www.w3.org/2000/svg" width="23.194" height="23.227" viewBox="0 0 23.194 23.227">
  <g id="bell" transform="translate(-0.256 -0.246)">
    <path id="Path_66114" data-name="Path 66114" d="M2.974,11.808a1.063,1.063,0,0,1-.238.667L.927,14.653a2.928,2.928,0,0,0-.655,2.166A2.745,2.745,0,0,0,1.32,18.7a3.449,3.449,0,0,0,2.107.726H7a4.923,4.923,0,0,0,9.689,0h3.571a3.442,3.442,0,0,0,2.428-1,2.8,2.8,0,0,0,.083-3.761l-1.821-2.19a1.039,1.039,0,0,1-.238-.667V9.285A9.017,9.017,0,0,0,12.116.251,8.813,8.813,0,0,0,5.6,2.774a8.58,8.58,0,0,0-2.63,6.189Zm8.867,9.867A3.16,3.16,0,0,1,8.83,19.414h6.023a3.135,3.135,0,0,1-3.011,2.261ZM4.76,11.808V8.963a6.754,6.754,0,0,1,2.095-4.9,7.131,7.131,0,0,1,4.987-2.012h.226A7.214,7.214,0,0,1,18.936,9.3V11.82a1.7,1.7,0,0,0,.036.345H11.723a.893.893,0,1,0,0,1.785h8.129l1.559,1.869a1.019,1.019,0,0,1,.024,1.357,1.638,1.638,0,0,1-1.166.476H3.427a1.626,1.626,0,0,1-1.012-.345,1,1,0,0,1-.369-.69,1.123,1.123,0,0,1,.25-.833l1.809-2.178a2.762,2.762,0,0,0,.655-1.8Z" transform="translate(0 0)" fill="#275072"/>
  </g>
</svg>
