<svg xmlns="http://www.w3.org/2000/svg" width="28.01" height="28.009" viewBox="0 0 28.01 28.009">
  <g id="_9-Home" data-name="9-Home" transform="translate(-1.996 -1.994)">
    <path id="Path_66113" data-name="Path 66113" d="M21.82,30H10.18A5,5,0,0,1,5,25.24V19a1,1,0,0,1,2,0v6.24A3,3,0,0,0,10.18,28H21.82A3,3,0,0,0,25,25.24V19a1,1,0,0,1,2,0v6.24A5,5,0,0,1,21.82,30Zm7.89-13.29a1,1,0,0,0,0-1.42l-13-13a1,1,0,0,0-1.42,0l-13,13a1,1,0,0,0,1.42,1.42L16,4.41l12.29,12.3a1,1,0,0,0,1.42,0Z" fill="#275072"/>
  </g>
</svg>
