<svg id="all" xmlns="http://www.w3.org/2000/svg" xmlns:xlink="http://www.w3.org/1999/xlink" width="375" height="269" viewBox="0 0 375 269">
  <defs>
    <clipPath id="clip-path">
      <rect id="Rectangle_27920" data-name="Rectangle 27920" width="107" height="269" transform="translate(268)" fill="#fff" stroke="#707070" stroke-width="1"/>
    </clipPath>
    <clipPath id="clip-path-2">
      <rect id="Rectangle_27921" data-name="Rectangle 27921" width="101" height="260" fill="#fff" stroke="#707070" stroke-width="1"/>
    </clipPath>
  </defs>
  <g id="Group_175263" data-name="Group 175263">
    <g id="Mask_Group_2270" data-name="Mask Group 2270" clip-path="url(#clip-path)">
      <g id="Group_175192" data-name="Group 175192" transform="translate(-377.549 399.058) rotate(-110)" opacity="0.13">
        <g id="Group_175175" data-name="Group 175175" transform="translate(39.915 707.272)">
          <path id="Path_65622" data-name="Path 65622" d="M16.806,254.774c-.138,0-.138,0-.277-.138a.428.428,0,0,0-.277-.138l.277.553.138.138h0c-.277,0-.553-.138-.83-.138H15.7c0-.277.138-.415.138-.691.277-.83.415-1.383.691-1.521l.138-.138a.606.606,0,0,1,.138.415h0v.138A2.791,2.791,0,0,1,16.806,254.774Z" transform="translate(6.011 -147.822)" fill="#275072"/>
          <path id="Path_65623" data-name="Path 65623" d="M26.03,246.9a1.378,1.378,0,0,1-.138.553,1.483,1.483,0,0,1-.277.83q-.207.207-.415-.415A3.081,3.081,0,0,0,26.03,246.9Z" transform="translate(9.648 -157.892)" fill="#275072"/>
          <path id="Path_65624" data-name="Path 65624" d="M10.015,255.305c-.138.138-.138,0-.138,0,0-.138-.138-.277-.138-.415A1.5,1.5,0,0,0,9.6,254.2v-1.245c0-.138,0-.277.138-.138a.483.483,0,0,1,.138.277,9.412,9.412,0,0,1,.415,1.659v.138A1.989,1.989,0,0,0,10.015,255.305Z" transform="translate(3.675 -147.647)" fill="#275072"/>
          <path id="Path_65625" data-name="Path 65625" d="M25.283,246.907a9.532,9.532,0,0,0,.415,1.106,3.025,3.025,0,0,1-.691.415,1.469,1.469,0,0,1-1.106.138C24.73,246.907,25.006,245.939,25.283,246.907Z" transform="translate(9.15 -158.139)" fill="#275072"/>
          <path id="Path_65626" data-name="Path 65626" d="M0,334.613,8.3,352.26a53.251,53.251,0,0,1,5.946.519c4.7.259,10.51.778,17.424,1.038l5.808.259c8.989.519,19.083,1.038,30.423,1.557l22.264,1.038,51.58,1.817,28.763.779c22.817.519,62.781-101.212,61.674-98.617a36.982,36.982,0,0,0-1.521,3.893,14.721,14.721,0,0,0-1.106-2.076,11.386,11.386,0,0,0-1.521-2.076,16.2,16.2,0,0,1,.968,2.6c.277.779.553,2.076.968,3.633-.553,2.076-1.106,4.152-1.659,6.747-.277,1.557-.553,2.855-.83,4.412s-.553,3.114-.83,4.931-.553,3.633-.83,5.709v-.26c-.138-1.557-.277-3.374-.415-4.931a32.117,32.117,0,0,1-.277-3.633c.415-3.374.691-5.45.691-5.45a4.015,4.015,0,0,0-.277.779c-.138.519-.415,1.038-.553,1.557-.277-2.855-.553-5.45-.968-7.785.415-4.931.415-7.266.138-7.526a3.2,3.2,0,0,1-.553-2.076v-3.114a24.589,24.589,0,0,1-1.245,2.855l-.415.779a10.874,10.874,0,0,0-.691-1.557c-.277-.519-.553-.779-.691-1.038s-.277-.259-.277-.259v.259c0,.26-.138.779-.138,1.3a44.885,44.885,0,0,0-.138,5.19c-.277,1.3-.553,3.114-.968,5.19-.277,1.3-.415,2.855-.691,4.152a14.1,14.1,0,0,0-.277,2.076c-.138.779-.138,1.557-.277,2.076a1.555,1.555,0,0,1-.138.779c-.691-2.6-1.245-4.931-1.936-7.007-1.383-4.412-2.489-7.266-3.457-8.564a6.6,6.6,0,0,0-1.521-2.076,16.191,16.191,0,0,1,.968,2.6c.277,1.038.691,2.336,1.106,3.893.415,1.817.83,3.893,1.383,6.228s.968,5.19,1.521,8.3c.277,1.557.553,3.374.83,4.931a2.692,2.692,0,0,1-.138,1.038c-.691-2.855-1.245-5.709-1.8-8.045-.968-3.893-1.936-6.747-2.627-8.823-.277-1.038-.691-1.557-.83-2.076a4.014,4.014,0,0,0-.277-.779s.138,1.3.277,3.893.553,6.228.968,10.9,1.106,10.121,1.8,15.83c0,.26.138.779.138,1.038-.277.779-.691,1.817-.968,2.855s-.691,2.336-.968,3.633V293.869c0-3.374-.138-6.747-.277-9.6s-.415-5.19-.553-6.747a13.793,13.793,0,0,0-.277-1.817,1.784,1.784,0,0,0-.138-.779l-.277.519c-.138.519-.277,1.038-.553,1.817-.415,1.557-.968,3.893-1.521,6.488-.138.519-.138,1.038-.277,1.557,0-.779-.138-1.817-.138-2.6-.138-1.3-.138-2.6-.277-3.633.415-3.633.691-5.45.691-5.45a4.016,4.016,0,0,0-.277.779c-.138.519-.415,1.038-.553,1.557-.277-2.855-.553-5.709-.968-8.045.415-4.931.415-7.007,0-7.007s-.691-.259-.691-1.3v-2.855a14.217,14.217,0,0,1-1.245,2.6,7.831,7.831,0,0,0-.968-2.076c-.277-.519-.553-.779-.691-1.038s-.277-.26-.277-.26l-.138.26a10.311,10.311,0,0,0-.138,1.038,44.892,44.892,0,0,0-.138,5.19c-.277,1.038-.553,3.114-.968,5.19-.277,1.3-.415,2.855-.691,4.152a14.1,14.1,0,0,0-.277,2.076c-.138.779-.138,1.557-.277,2.076l-.415,3.114v-2.855c0-2.076-.138-3.893-.138-5.709-.138-1.817-.138-3.374-.277-4.931-.415-5.969-.83-8.564-1.521-10.121a5.514,5.514,0,0,0-1.659-2.6,2.708,2.708,0,0,1-.553-.779c-.138-.26-.277-.26-.277-.26l-.138.26a1.768,1.768,0,0,1-.277.779,10,10,0,0,0-.553,2.6c-.138,1.557-.277,4.412-.277,10.64v2.6a6.434,6.434,0,0,0-.553-1.3,4.019,4.019,0,0,0-.277-.779s.138,1.3.277,3.893q.207,1.946.415,5.45v4.671c-.138-1.557-.277-2.855-.415-4.152a13.8,13.8,0,0,0-.277-1.817,1.784,1.784,0,0,0-.138-.779l-.277.519c-.138.519-.277,1.038-.553,1.817-.415,1.557-.968,3.893-1.521,6.488-.277,1.3-.415,2.336-.691,3.893h0c0-6.488,0-13.235-.138-18.685-.138-2.855-.138-5.45-.138-7.266-.138-1.557-.138-2.6-.277-3.633v-.259h0v-.519a20.144,20.144,0,0,0-.415-2.336c-.138-.519-.415-1.038-.553-1.557-.138-.26-.138-.519-.277-.779s-.277-.779-.415-1.038c-.277-.779-.415-2.076-.691-3.374-.553-2.855-.968-7.526-1.383-10.381s-.83-4.931-1.245-6.747-.83-3.633-1.245-5.19-.83-3.374-1.245-4.931c-.83-2.855-1.383-5.19-1.383-5.19a13.283,13.283,0,0,0,.138,1.557c0,1.038.138,2.336.138,3.893.138,3.114.277,6.488.415,10.381s.415,12.2.968,17.128a30.594,30.594,0,0,0,.83,4.931,28.468,28.468,0,0,1,.83,4.152c.138,1.038.277,2.6.415,4.412.138,2.076.277,4.671.277,7.266,0,1.3.138,2.855.138,4.412-.415,2.6-.83,5.709-1.245,8.824-.415,3.374-.83,7.007-1.106,10.64a2.692,2.692,0,0,1-.138,1.038V281.931c0-2.076-.138-4.152-.138-6.228s-.138-3.893-.138-5.709c-.138-1.817-.138-3.374-.277-4.931-.415-5.969-.83-8.564-1.383-10.121a6.784,6.784,0,0,0-1.659-2.855,2.708,2.708,0,0,1-.553-.779c-.138-.26-.277-.26-.277-.26l-.138.26a1.768,1.768,0,0,1-.277.779A23.707,23.707,0,0,0,177,255.2c-.138,1.817-.277,4.412-.277,10.64v18.685a13.539,13.539,0,0,0-.691,1.817l-.83,2.336c-.277.779-.553,1.817-.83,2.6s-.415,1.557-.691,2.336a3.722,3.722,0,0,0-.553,1.038l-.415.779c0-2.855,0-5.969.138-9.083,0-6.488,0-12.976-.138-18.426-.138-2.855-.138-5.45-.138-7.007-.138-1.3-.138-2.6-.277-3.633v-.26h0V256.5c-.138-1.038-.277-2.076-.415-2.6-.138-.779-.415-1.3-.553-2.076-.138-.26-.138-.779-.277-1.038-.138-.519-.277-.779-.415-1.3-.277-1.038-.415-2.076-.691-3.633-.553-2.855-.968-7.266-1.383-10.121s-.83-5.19-1.245-7.007c-.415-2.076-.83-3.893-1.245-5.709s-.83-3.633-1.245-4.931l-1.383-5.19a13.287,13.287,0,0,0,.138,1.557c0,1.038.138,2.336.138,3.893q.207,4.671.415,10.9c.138,4.152.553,12.2.968,17.388.277,2.6.553,4.412.83,5.969s.553,3.114.83,5.45c.138,1.3.277,2.6.415,4.412s.277,4.412.277,7.266c0,1.3.138,2.855.138,4.152-.415,2.6-.83,5.45-1.245,8.824-.138,1.557-.415,3.374-.553,4.931,0-.26-.138-.26-.138-.26V289.2l-.415,3.893c0,.519-.138,1.038-.138,1.817a5.6,5.6,0,0,0-.277,1.038c.138-1.557.138-2.855.277-4.412s.138-3.374.277-4.931.138-3.374.138-4.931c.138-3.114.277-6.228.277-8.824s.138-4.931.138-7.007c0-3.893,0-5.709-.138-7.007,0-.519-.138-1.038-.138-1.3v-.519a11.037,11.037,0,0,0-.968,1.557,20.5,20.5,0,0,0-1.936,6.228c-.415,1.817-.691,4.152-1.106,6.488-.415,2.6-.691,5.45-1.106,8.3l-.415,4.671a3.438,3.438,0,0,1-.138,1.038c-.415,1.038-.83,2.076-1.245,3.374l-.83,2.336c-.138.26-.138.519-.277.779l-.83-1.557a18.358,18.358,0,0,0-3.042-4.412,8.666,8.666,0,0,0-.968-1.038c-.277-.259-.415-.26-.415-.26a15.065,15.065,0,0,0,.277,2.336l.415,2.336-.277.519c-.553,1.3-1.383,3.114-2.213,5.19v-2.336c0-1.3-.138-2.6-.138-3.633-.138-4.931-.277-9.862-.553-14.273q-.207-3.5-.415-6.228a36.988,36.988,0,0,0-.553-4.671c0-.26-.138-.519-.138-.779,0-.519.138-.779.138-1.3.277-1.817.553-3.374.691-4.671.415-2.6.83-4.412,1.106-5.709a11.4,11.4,0,0,0,.277-1.817,3.423,3.423,0,0,0,.138-.779,2.25,2.25,0,0,1-.415.519,6.87,6.87,0,0,0-.968,1.557,16.569,16.569,0,0,0-1.383,2.336,24.538,24.538,0,0,0-1.245,2.6c-.138-.26-.138-.779-.277-1.038-.277-.779-.415-1.557-.691-2.6-.277-.779-.415-1.557-.691-2.6h0c-.138-.779-.415-1.557-.415-1.817a3.423,3.423,0,0,1-.138-.779v.259h0c-.553-1.817-.968-3.633-1.383-5.45s-.83-3.633-1.245-4.931c-.691-2.6-1.106-3.893-1.106-3.893v4.152c0,1.3.138,3.374.138,5.19.138,1.817.138,3.633.277,5.45,0,.519.138,1.038.138,1.3a4.153,4.153,0,0,0,.138,1.3,16.536,16.536,0,0,0,.277,2.6c.138,1.817.415,3.633.553,5.709.138,1.038.138,2.076.277,3.374a1.555,1.555,0,0,0,.138.779c0,1.3-.138,2.6-.138,3.893s-.138,2.855-.138,4.412,0,3.374-.138,5.19V278.3c-.277,3.893-.691,8.3-.968,12.976-.138,2.336-.277,4.412-.415,6.747h0c-.83-1.557-1.521-3.114-2.213-4.152a32.749,32.749,0,0,0-2.9-4.152h0c-.138-3.374-.138-5.969-.277-7.785-.138-2.336-.277-3.374-.277-3.374a1.785,1.785,0,0,0-.138.779c-.138.519-.277,1.3-.553,2.336-.415,2.076-.968,5.19-1.383,9.342l-.415,3.893c0-1.038-.138-2.076-.138-3.114-.138-4.671-.277-9.343-.553-13.754-.138-2.076-.277-4.152-.415-5.969a36.986,36.986,0,0,0-.553-4.671c0-.26-.138-.519-.138-.779,0-.519.138-1.038.138-1.557.277-2.076.553-4.152.691-5.709.415-3.374.83-6.228,1.106-8.045a23.493,23.493,0,0,0,.277-2.336,3.424,3.424,0,0,0,.138-.779l-.415.779a18.064,18.064,0,0,0-.968,2.076c-.415.779-.83,1.817-1.383,3.114-.415,1.038-.83,2.336-1.245,3.633-.138-.519-.138-1.038-.277-1.557-.277-1.038-.415-2.336-.691-3.374s-.415-2.336-.691-3.374h0c-.138-1.038-.415-1.817-.415-2.336a3.423,3.423,0,0,1-.138-.779v.26h0c-.553-2.076-.968-4.152-1.383-6.228-.415-1.817-.83-3.893-1.245-5.19-.691-2.6-1.106-3.893-1.106-3.893v4.152c0,1.557.138,3.374.138,5.45.138,2.076.138,4.152.277,6.488,0,.519.138,1.038.138,1.817a8.05,8.05,0,0,0,.138,1.817,32.123,32.123,0,0,0,.277,3.633c.138,2.336.415,4.931.553,7.526.138,1.3.138,2.6.277,4.152a1.556,1.556,0,0,0,.138.779c0,1.3-.138,2.855-.138,4.412,0,1.3-.138,2.855-.138,4.412v7.007c-.277,3.893-.691,8.045-.968,12.2l-.415,6.228c-.138,2.076-.138,4.152-.277,6.228a9.251,9.251,0,0,1-.138,2.076,3.434,3.434,0,0,1-.83-.519l.138.26.277.519a1.767,1.767,0,0,1,.277.779c0,.26.138.26.138.519v12.2c0,1.3.138,2.6.138,3.374a5.939,5.939,0,0,0,.138,1.557h-.691a11.865,11.865,0,0,1,.138-2.076v-4.671c0-.779-.138-1.817-.138-2.6a16.538,16.538,0,0,0-.277-2.6,6.378,6.378,0,0,0-.277-1.817v-1.557a4.627,4.627,0,0,0-.138-1.038s-.138,0-.277.26a7.007,7.007,0,0,0-.553-1.557,22.162,22.162,0,0,0-1.245-2.6,17.829,17.829,0,0,0-1.106-2.336c-.138-1.038-.138-2.076-.277-3.114l-.691-5.19a9.927,9.927,0,0,0-.415-1.817l-.277.519c-.138.26-.277.779-.553,1.3a5.6,5.6,0,0,0-.277,1.038,25.624,25.624,0,0,0-1.521-3.633c.415-3.633.83-7.526,1.245-10.9.415-3.633.83-7.007,1.106-9.862s.691-5.45.968-7.785.553-4.671.691-6.747c.415-4.152.691-7.526.83-9.862s.138-3.893.138-3.893l-.415.779c-.277.519-.553,1.3-.968,2.336-.691,2.076-1.8,5.19-2.9,9.083s-2.213,8.824-3.319,14.533c-.277,1.3-.553,2.855-.83,4.412s-.553,3.114-.83,4.931c-.553,3.374-.968,7.007-1.383,10.9s-.83,7.785-1.245,11.419c-.277,2.6-.553,5.45-.691,8.045a3.731,3.731,0,0,0-1.383-.519,2.515,2.515,0,0,0-.968-.26h.138s.138.26.277.26c.138.259.277.259.277.519l.138.26h-.277a2.249,2.249,0,0,0,.415.519,8.107,8.107,0,0,1,.83,1.557c.138.26.138.519.277.779-.138,1.557-.277,3.114-.277,4.412-.138,1.557-.138,3.114-.277,4.412,0,1.3-.138,2.336-.138,3.374v1.557h-1.106v-.519a11.865,11.865,0,0,1,.138-2.076V321.9c0-.779-.138-1.817-.138-2.6a16.537,16.537,0,0,0-.277-2.6,11.4,11.4,0,0,1-.277-1.817,6.485,6.485,0,0,0-.968-2.336A12.269,12.269,0,0,0,102.883,311a9.2,9.2,0,0,1-1.383-2.336,17.214,17.214,0,0,1-.83-2.076,23.45,23.45,0,0,0-.83-2.336c-.415-1.3-.83-2.336-1.245-3.374,0-1.038-.138-2.336-.138-3.374s-.138-2.076-.138-3.114c.277-2.336.553-4.412.83-6.488.415-3.374.83-6.488,1.106-9.6.277-2.855.691-5.969.968-8.824s.553-5.709.691-8.3c.415-5.19.691-9.6.83-12.457.138-3.114.138-4.671.138-4.671a4.039,4.039,0,0,0-.277,1.038,24.5,24.5,0,0,0-.968,2.855c-.691,2.6-1.8,6.488-2.9,11.419-.968,4.152-1.8,9.083-2.766,14.273-.138-.519-.138-1.038-.277-1.557a21.267,21.267,0,0,0-.553-2.6A4.574,4.574,0,0,1,95,268.436s-.138,1.557-.415,3.893-.553,5.709-.691,9.343c-.138,2.076-.277,4.152-.277,6.488-.415,2.6-.691,5.19-1.106,8.045-.415,3.633-.83,7.266-1.245,10.64-.277,2.6-.553,4.931-.691,7.526h-1.8s.138,0,.415.259a4.542,4.542,0,0,1,1.245,1.557h0a2.692,2.692,0,0,1-.138,1.038c0,.519-.138,1.3-.138,1.817a8.5,8.5,0,0,0-.277-2.076,11.186,11.186,0,0,0-.553-2.076l-.277-.519h-.138c-.138,0-.277.259-.415.259a4.729,4.729,0,0,0-1.245,1.817l-.138.26c.138-.779.138-1.817.277-2.6a32.657,32.657,0,0,0,.277-3.374c.138-.779.138-1.557.277-2.076v-.779s-.277.519-.83,1.817a11.864,11.864,0,0,0-.138-2.076v-2.855c0-.259.138-.259.138-.519a9.869,9.869,0,0,1,.553-2.336,30.7,30.7,0,0,1,1.106-4.152c.138-.779.277-1.3.415-2.076,0-.26.138-.779.138-1.038s.138-.779.138-1.038a37.664,37.664,0,0,0,.553-3.893,30.171,30.171,0,0,0,.138-3.114v-1.3s-.415,0-1.106,1.3c-.277.519-.691,1.817-1.245,3.114-.415,1.3-.968,2.855-1.521,4.152h0v-.259l-.277.519a5.017,5.017,0,0,0-.553,1.557h0a13.972,13.972,0,0,1-.968,2.076c-.277.779-.691,1.3-.968,2.076s-.691,1.3-.968,2.076l-.83,2.336c-.138.519-.415,1.3-.553,2.076a19.739,19.739,0,0,0-.138-2.855c0-1.3-.138-2.6-.138-3.893a28.041,28.041,0,0,0-.277-3.633c-.277-4.671-.691-9.083-1.245-12.457-.415-3.374-.968-7.007-1.383-9.6-.138-1.3-.415-2.336-.553-3.114a7.266,7.266,0,0,1-.138-1.038s-.138,1.817-.415,4.412c-.277,2.855-.553,6.488-.83,10.121s-.415,8.045-.553,12.716c0,2.336-.138,4.931-.138,7.266v11.159l-.138.26a2.9,2.9,0,0,0-.277,1.038l-.138-.26c-.553-.779-.968-1.557-1.521-1.817a4.11,4.11,0,0,0-1.659-.519H70.94a28.572,28.572,0,0,0,.553-3.374c.415-2.6.968-5.45,1.383-8.045s.83-5.45,1.245-7.786c.415-2.6.691-4.931,1.106-7.266.277-2.336.553-4.412.83-6.488.553-4.412.83-9.083,1.106-12.2s.277-5.19.277-5.19a9.015,9.015,0,0,0-.415,1.038c-.277.779-.553,1.817-.968,3.114-.83,2.6-1.936,6.747-3.042,11.159s-2.351,8.564-3.6,13.235c-.277,1.3-.553,2.336-.83,3.633l-.83,3.893c-.138.519-.138.779-.277,1.3l-.415.779L66.1,303.73a11.59,11.59,0,0,0-.968,1.817c-.277.779-.553,1.3-.83,2.076a11.99,11.99,0,0,0-.691,2.6c-.277,1.038-.415,2.336-.553,3.114h0a10.635,10.635,0,0,0-.277-1.3c-.553-2.6-1.245-5.19-1.936-7.526s-1.383-4.412-2.074-6.488c-.415-1.3-.968-2.6-1.383-3.633.138-1.3.415-2.336.553-3.633.277-2.076.553-4.152.83-6.488.553-4.671.83-9.862,1.106-13.495s.277-5.969.277-5.969-.138.519-.415,1.3-.553,2.076-.968,3.374c-.83,3.114-1.936,7.526-3.042,12.2-.553,1.817-.968,4.152-1.521,5.709-.415-.779-.83-1.817-1.106-2.336-.83-2.076-1.521-3.374-1.521-3.374s.415,1.817.968,4.152a30.916,30.916,0,0,0,.968,3.374,58.049,58.049,0,0,0-1.521,5.709c-.277,1.038-.553,2.076-.83,3.374-.138-.519-.138-1.038-.277-1.557-.277-1.557-.553,0-1.106,3.114a.911.911,0,0,0,.691-.519,3.572,3.572,0,0,0,.691-1.038v.26c-.277,1.3-.553,2.336-.83,3.633l-.83,3.893h0l-.415-3.114.415-1.557a6.148,6.148,0,0,0,.277-1.557h-.553c-.138,0-.277-.26-.415-.26.277-1.817.415-3.114.415-3.114a4.015,4.015,0,0,0-.277.779,6.432,6.432,0,0,0-.553,1.3c-.553-3.633-1.245-6.747-1.8-10.121-.691-3.893-1.383-8.045-1.936-11.159-.277-1.557-.553-2.855-.691-3.633s-.277-1.3-.277-1.3a13.287,13.287,0,0,1-.138,1.557c0,1.038-.138,2.336-.138,4.152-.138,3.374-.277,8.3-.277,11.938s.138,7.526.277,11.938c0,.779.138,1.817.138,2.6l-.138.26c-.138.519-.415.779-.553,1.3h0c-.553-1.817-1.245-3.633-1.8-5.45-.691-1.817-1.383-3.633-2.074-5.19-1.383-3.114-2.627-5.45-3.457-7.785-.83-2.076-1.521-3.633-1.521-3.633s.415,1.817.968,4.412c.277,1.3.691,2.6,1.106,3.893s.968,3.114,1.383,4.671c.553,1.817.968,3.633,1.521,5.709l1.659,6.228c0,.259.138.519.138.779-.277.519-.415,1.3-.691,1.817a21.057,21.057,0,0,0-.691,3.374c-.138,1.3-.138,2.6-.277,3.374l.969,1.3a1.059,1.059,0,0,1-.83-.259c-.138,0-.138,0-.277-.26H38.72c-.138,0-.277-.26-.415-.26-.138-.26-.277-.26-.415-.519h0l-1.245-1.557c-.138-.26-.277-.26-.415-.519,0-1.557.138-3.374.138-4.412.138-1.557.277-2.336.277-3.114v-1.038s-.138,0-.277.26a2.276,2.276,0,0,1-.83.779,24.886,24.886,0,0,0-2.351,3.114l-.138.26-.415-3.893c-.138-.519-.138-1.3-.277-1.817l.415-1.557c.138-.519.138-.779.277-1.3-.138,0-.138,0-.277-.26a3.616,3.616,0,0,1-.83-1.038c.277-2.076.553-3.374.553-3.374l-.277.519a6.435,6.435,0,0,0-.553,1.3c-.553-3.633-1.245-6.747-1.8-10.121-.691-3.633-1.383-8.3-1.936-11.419-.277-1.557-.553-2.855-.691-3.893-.138-.779-.277-1.3-.277-1.3a13.285,13.285,0,0,1-.138,1.557c0,1.038-.138,2.6-.138,4.412-.138,3.633-.277,8.564-.277,11.938,0,3.633.138,7.526.277,11.678,0,1.038.138,2.076.138,3.114v.26h0a3.722,3.722,0,0,1-.553,1.038l-.553,1.038a12.778,12.778,0,0,0-1.106,1.817,9.4,9.4,0,0,0-.968,2.336c-.277.779-.415,1.817-.691,2.855a12.422,12.422,0,0,1,.277,2.855c.277,2.336.415,4.412.691,6.228,0,.259.138.519.138.779-.277,1.817-.553,3.633-.691,5.19,0,.519-.138,1.038-.138,1.3-1.245,0-2.351.26-3.457.26v-.26c.277-1.3.415-2.855.691-4.412s.415-3.114.691-4.671c.138-1.038.415-2.336.553-3.374a6,6,0,0,1-1.245-1.3,14.585,14.585,0,0,1-1.245-2.076c-.138-.259-.277-.519-.415-.519,0-1.3.138-2.6.138-3.374.138-1.557.277-2.336.277-2.855v-1.038s-.138,0-.277.259a4.557,4.557,0,0,1-.83.779,20.052,20.052,0,0,0-2.489,2.855c-.83,1.3-1.521,4.412-1.936,6.747,0,.519.138.779.138,1.3a36.52,36.52,0,0,0,.83,4.412c.277,1.3.553,2.336.83,3.374-.277.779-.415,1.817-.691,2.6-.138.779-.415,1.3-.553,2.076h-.277a48.853,48.853,0,0,1-5.946.26Zm190-11.938h0l-.415-2.336a.743.743,0,0,0-.138-.519V319.3c.138.779.138,1.3.277,2.076A7.068,7.068,0,0,0,190,322.676ZM27.657,331.24l.415,1.557H27.38a4.153,4.153,0,0,0,.138-1.3C27.657,331.5,27.657,331.24,27.657,331.24ZM52,328.9l-.415.779-.138.26v-.519c.138-.519.138-.778.277-1.3A1.768,1.768,0,0,1,52,328.9Zm-6.776,2.855H44.8a10.32,10.32,0,0,0,.138-1.038h0C45.081,330.98,45.081,331.5,45.219,331.759Zm23.094-1.038Zm45.634-23.1a2.978,2.978,0,0,0,.691,1.3c0,.26-.138.519-.138.779a10.317,10.317,0,0,0-.138,1.038c-.138.519-.138,1.3-.277,1.817v.26c0,.259-.138.259-.138.519a2.692,2.692,0,0,0-.138,1.038c0,.519-.138.779-.138,1.3a5.939,5.939,0,0,1-.138,1.557V318a3.615,3.615,0,0,0-.83-1.038h0c.277-1.557.415-3.374.691-4.931A38.844,38.844,0,0,1,113.947,307.624Zm38.581,3.114c.277-.519.415-1.038.691-1.557a12.254,12.254,0,0,1,.83-1.817c0-.259.138-.259.138-.519-.277,1.557-.691,3.114-.83,4.671a13.454,13.454,0,0,0-.277,2.336l-.415-2.336A1.555,1.555,0,0,0,152.528,310.738Zm51.3,3.114c.138.26.138.519.277.779,0,0,0,.26.138.26v.26c.138,1.3.277,2.6.415,3.633.138,1.3.415,2.6.553,3.633h0c-.277-1.3-.553-2.6-.83-4.152-.138-1.038-.415-2.076-.553-3.114Zm10.51,11.938Zm-195.4-5.45v0Zm17.424-.779v0Zm5.117,6.228v.519c-.277,1.817-.553,3.374-.691,4.671,0,.26-.138.779-.138,1.038h-.415a2.693,2.693,0,0,1,.138-1.038,36.62,36.62,0,0,0,.138-3.893c0-1.3.138-2.855.138-4.152v-4.152h0a1.556,1.556,0,0,0,.138.779C41.071,321.9,41.209,323.973,41.485,325.79Zm19.775-6.747h0a2.276,2.276,0,0,1-.83.779,4.858,4.858,0,0,1-1.245.779c-.415-1.038-.83-2.336-1.245-3.114a3.48,3.48,0,0,0-1.521-1.557,3.715,3.715,0,0,0-1.659-.259h-.553c.138-.779.277-1.557.415-2.076.415-2.336.968-4.931,1.383-7.526.277-2.076.691-3.893.968-5.969.138.26.138.779.277,1.038.553,2.076,1.106,4.412,1.659,6.747.277,1.038.553,2.336.83,3.633s.553,2.6.83,3.633C60.845,316.707,61.122,318,61.26,319.042Zm.691,3.893c.415,2.6.83,5.19,1.106,7.267,0,.26.138.519.138.778H61.675c0-.519-.138-1.038-.138-1.557-.138-.519-.138-1.038-.277-1.557a29.989,29.989,0,0,0-.83-3.374l-.415-1.557a15.082,15.082,0,0,0,.968-2.6,2.9,2.9,0,0,0,.277-1.038C61.537,320.6,61.813,321.9,61.952,322.935Zm41.9,6.228h-2.766c-.138-.259-.277-.778-.415-1.038a4.232,4.232,0,0,1-.415-1.038,18.032,18.032,0,0,1,.138-2.6v-.519l1.245-3.114a39.984,39.984,0,0,1,.968,3.893c.138.779.415,1.3.553,2.076s.277,1.3.415,1.817C103.714,328.9,103.852,328.9,103.852,329.163Zm37.06-18.685h0v1.817c0,.778-.138,1.557-.138,2.076v2.076c0,1.3-.138,2.6-.138,3.893,0,2.336-.138,4.152,0,5.709v1.817h-.277a6.336,6.336,0,0,0-1.383-1.3c.138-.519.138-1.038.277-1.557l.415-3.114a45.666,45.666,0,0,0,.415-5.709v-3.374a5.541,5.541,0,0,0-.138-1.3,7.763,7.763,0,0,0-.83,1.038,25.391,25.391,0,0,0-1.659,2.855,6.432,6.432,0,0,0-.553,1.3,8.049,8.049,0,0,1,.138-1.817c0-1.3.138-2.336.138-3.374v-2.855a19.74,19.74,0,0,0-.138-2.855c-.138-1.817-.277-3.633-.415-5.709v-2.336c.277,1.038.415,2.336.691,3.114a19.8,19.8,0,0,0,1.106,3.374l1.245,3.114ZM155.156,300.1c-.415.779-.968,1.557-1.383,2.336-.691,1.3-1.383,2.336-2.074,3.633v-.259h0a2.693,2.693,0,0,0,.138-1.038c.138-1.3.415-2.336.553-3.633s.415-2.6.553-3.633c.138-1.557.277-3.114.415-4.412a10.315,10.315,0,0,1,.138,1.038c.277,1.3.553,2.6.83,4.152A3.58,3.58,0,0,1,155.156,300.1Zm2.9,11.938c.138-.519.138-1.038.277-1.817V311c0,.779-.138,1.557-.138,2.076v2.076c0,1.3-.138,2.6-.138,3.893,0,2.336-.138,4.152,0,5.709v2.336c-.415-.519-.968-1.038-1.383-1.557,0-.519.138-1.3.138-1.817.138-1.038.138-2.076.277-2.855a23.68,23.68,0,0,0,.277-3.114c.138-1.038.138-2.076.277-3.114C157.783,313.852,157.921,312.814,158.06,312.035Zm18.53-8.824c0,.26.138.26.138.519v8.564a1.555,1.555,0,0,1-.138.779c-.138.779-.138,2.076-.277,3.374v7.267a16.327,16.327,0,0,0,.138,2.6v.519h-2.766c.138-1.038.138-1.817.277-2.855s.138-2.076.277-2.855a23.681,23.681,0,0,0,.277-3.114c.138-1.038.138-2.076.277-3.114l.415-3.114c.277-2.076.553-3.893.83-5.709A20.778,20.778,0,0,0,176.59,303.212Zm17.424,17.647c0-1.557.138-3.114.277-4.931a10.484,10.484,0,0,1,.138-2.076c.138,3.114.138,5.45.277,7.526,0,1.038.138,1.817.138,2.6s.138,1.557.138,2.076h-.968v-1.038c0-.779.138-1.3.138-2.076A4.94,4.94,0,0,1,194.014,320.859Zm37.89-22.837c-.415,1.3-.968,2.855-1.521,4.412-.277,1.038-.691,2.336-.968,3.633,0-.259-.138-.519-.138-.779.415-2.336.691-4.671,1.106-7.007.415-3.374.968-7.007,1.383-10.381C232.18,285.046,232.042,296.983,231.9,298.022Z" transform="translate(0 -212.9)" fill="#275072"/>
        </g>
        <g id="Group_175176" data-name="Group 175176" transform="translate(-128.186 707.272)">
          <path id="Path_65622-2" data-name="Path 65622" d="M15.8,254.774c.138,0,.138,0,.277-.138a.428.428,0,0,1,.277-.138l-.277.553-.138.138h0c.277,0,.553-.138.83-.138h.138c0-.277-.138-.415-.138-.691-.277-.83-.415-1.383-.691-1.521l-.138-.138a.606.606,0,0,0-.138.415h0v.138A2.791,2.791,0,0,0,15.8,254.774Z" transform="translate(193.581 -147.822)" fill="#275072"/>
          <path id="Path_65623-2" data-name="Path 65623" d="M25.2,246.9a1.378,1.378,0,0,0,.138.553,1.483,1.483,0,0,0,.277.83q.207.207.415-.415A3.081,3.081,0,0,1,25.2,246.9Z" transform="translate(171.324 -157.892)" fill="#275072"/>
          <path id="Path_65624-2" data-name="Path 65624" d="M9.877,255.3c.138.138.138,0,.138,0,0-.138.138-.277.138-.415a1.5,1.5,0,0,1,.138-.691v-1.245c0-.138,0-.277-.138-.138a.483.483,0,0,0-.138.277,9.412,9.412,0,0,0-.415,1.659v.138A1.989,1.989,0,0,1,9.877,255.3Z" transform="translate(208.635 -147.647)" fill="#275072"/>
          <path id="Path_65625-2" data-name="Path 65625" d="M24.315,246.907a9.532,9.532,0,0,1-.415,1.106,3.025,3.025,0,0,0,.691.415,1.469,1.469,0,0,0,1.106.138C24.868,246.907,24.591,245.939,24.315,246.907Z" transform="translate(173.454 -158.139)" fill="#275072"/>
          <path id="Path_65626-2" data-name="Path 65626" d="M232.2,334.613l-8.3,17.647a53.258,53.258,0,0,0-5.946.519c-4.7.259-10.51.779-17.424,1.038l-5.808.259c-8.989.519-19.083,1.038-30.423,1.557l-22.264,1.038-51.58,1.817-28.763.779C38.88,359.786-1.084,258.055.023,260.651a36.97,36.97,0,0,1,1.521,3.893,14.725,14.725,0,0,1,1.106-2.076,11.388,11.388,0,0,1,1.521-2.076,16.194,16.194,0,0,0-.968,2.6c-.277.779-.553,2.076-.968,3.633.553,2.076,1.106,4.152,1.659,6.747.277,1.557.553,2.855.83,4.412s.553,3.114.83,4.931.553,3.633.83,5.709v-.26c.138-1.557.277-3.374.415-4.931a32.118,32.118,0,0,0,.277-3.633c-.415-3.374-.691-5.45-.691-5.45a4.015,4.015,0,0,1,.277.779c.138.519.415,1.038.553,1.557.277-2.855.553-5.45.968-7.785-.415-4.931-.415-7.266-.138-7.526a3.2,3.2,0,0,0,.553-2.076v-3.114a24.588,24.588,0,0,0,1.245,2.855l.415.779a10.876,10.876,0,0,1,.691-1.557c.277-.519.553-.779.691-1.038s.277-.259.277-.259v.259c0,.26.138.779.138,1.3a44.893,44.893,0,0,1,.138,5.19c.277,1.3.553,3.114.968,5.19.277,1.3.415,2.855.691,4.152a14.1,14.1,0,0,1,.277,2.076c.138.779.138,1.557.277,2.076a1.555,1.555,0,0,0,.138.779c.691-2.6,1.245-4.931,1.936-7.007,1.383-4.412,2.489-7.266,3.457-8.564a6.6,6.6,0,0,1,1.521-2.076,16.189,16.189,0,0,0-.968,2.6c-.277,1.038-.691,2.336-1.106,3.893-.415,1.817-.83,3.893-1.383,6.228s-.968,5.19-1.521,8.3c-.277,1.557-.553,3.374-.83,4.931a2.691,2.691,0,0,0,.138,1.038c.691-2.855,1.245-5.709,1.8-8.045.968-3.893,1.936-6.747,2.627-8.824.277-1.038.691-1.557.83-2.076a4.017,4.017,0,0,1,.277-.779s-.138,1.3-.277,3.893-.553,6.228-.968,10.9-1.106,10.121-1.8,15.83c0,.26-.138.779-.138,1.038.277.779.691,1.817.968,2.855s.691,2.336.968,3.633V293.869c0-3.374.138-6.747.277-9.6s.415-5.19.553-6.747a13.791,13.791,0,0,1,.277-1.817,1.784,1.784,0,0,1,.138-.779l.277.519c.138.519.277,1.038.553,1.817.415,1.557.968,3.893,1.521,6.488.138.519.138,1.038.277,1.557,0-.779.138-1.817.138-2.6.138-1.3.138-2.6.277-3.633-.415-3.633-.691-5.45-.691-5.45a4.014,4.014,0,0,1,.277.779c.138.519.415,1.038.553,1.557.277-2.855.553-5.709.968-8.045-.415-4.931-.415-7.007,0-7.007s.691-.259.691-1.3v-2.855a14.22,14.22,0,0,0,1.245,2.6,7.83,7.83,0,0,1,.968-2.076c.277-.519.553-.779.691-1.038s.277-.26.277-.26l.138.26a10.312,10.312,0,0,1,.138,1.038,44.893,44.893,0,0,1,.138,5.19c.277,1.038.553,3.114.968,5.19.277,1.3.415,2.855.691,4.152a14.106,14.106,0,0,1,.277,2.076c.138.779.138,1.557.277,2.076l.415,3.114v-2.855c0-2.076.138-3.893.138-5.709.138-1.817.138-3.374.277-4.931.415-5.969.83-8.564,1.521-10.121a5.514,5.514,0,0,1,1.659-2.6,2.708,2.708,0,0,0,.553-.779c.138-.26.277-.26.277-.26l.138.26a1.768,1.768,0,0,0,.277.779,10,10,0,0,1,.553,2.6c.138,1.557.277,4.412.277,10.64v2.6a6.432,6.432,0,0,1,.553-1.3,4.018,4.018,0,0,1,.277-.779s-.138,1.3-.277,3.893q-.207,1.946-.415,5.45v4.671c.138-1.557.277-2.855.415-4.152a13.8,13.8,0,0,1,.277-1.817,1.784,1.784,0,0,1,.138-.779l.277.519c.138.519.277,1.038.553,1.817.415,1.557.968,3.893,1.521,6.488.277,1.3.415,2.336.691,3.893h0c0-6.488,0-13.235.138-18.685.138-2.855.138-5.45.138-7.266.138-1.557.138-2.6.277-3.633v-.26h0v-.519a20.144,20.144,0,0,1,.415-2.336c.138-.519.415-1.038.553-1.557.138-.26.138-.519.277-.779s.277-.779.415-1.038c.277-.779.415-2.076.691-3.374.553-2.855.968-7.526,1.383-10.381s.83-4.931,1.245-6.747.83-3.633,1.245-5.19.83-3.374,1.245-4.931c.83-2.855,1.383-5.19,1.383-5.19a13.285,13.285,0,0,1-.138,1.557c0,1.038-.138,2.336-.138,3.893-.138,3.114-.277,6.488-.415,10.381s-.415,12.2-.968,17.128a30.593,30.593,0,0,1-.83,4.931,28.468,28.468,0,0,0-.83,4.152c-.138,1.038-.277,2.6-.415,4.412-.138,2.076-.277,4.671-.277,7.266,0,1.3-.138,2.855-.138,4.412.415,2.6.83,5.709,1.245,8.823.415,3.374.83,7.007,1.106,10.64a2.692,2.692,0,0,0,.138,1.038V281.931c0-2.076.138-4.152.138-6.228s.138-3.893.138-5.709c.138-1.817.138-3.374.277-4.931.415-5.969.83-8.564,1.383-10.121a6.783,6.783,0,0,1,1.659-2.855,2.707,2.707,0,0,0,.553-.779c.138-.259.277-.259.277-.259l.138.259a1.768,1.768,0,0,0,.277.779A23.7,23.7,0,0,1,55.2,255.2c.138,1.817.277,4.412.277,10.64v18.685a13.542,13.542,0,0,1,.691,1.817l.83,2.336c.277.779.553,1.817.83,2.6s.415,1.557.691,2.336a3.723,3.723,0,0,1,.553,1.038l.415.779c0-2.855,0-5.969-.138-9.083,0-6.488,0-12.976.138-18.426.138-2.855.138-5.45.138-7.007.138-1.3.138-2.6.277-3.633v-.26h0V256.5c.138-1.038.277-2.076.415-2.6.138-.779.415-1.3.553-2.076.138-.26.138-.779.277-1.038.138-.519.277-.779.415-1.3.277-1.038.415-2.076.691-3.633.553-2.855.968-7.266,1.383-10.121s.83-5.19,1.245-7.007c.415-2.076.83-3.893,1.245-5.709s.83-3.633,1.245-4.931l1.383-5.19a13.286,13.286,0,0,1-.138,1.557c0,1.038-.138,2.336-.138,3.893q-.207,4.671-.415,10.9c-.138,4.152-.553,12.2-.968,17.388-.277,2.6-.553,4.412-.83,5.969s-.553,3.114-.83,5.45c-.138,1.3-.277,2.6-.415,4.412s-.277,4.412-.277,7.266c0,1.3-.138,2.855-.138,4.152.415,2.6.83,5.45,1.245,8.824.138,1.557.415,3.374.553,4.931,0-.259.138-.259.138-.259V289.2l.415,3.893c0,.519.138,1.038.138,1.817a5.6,5.6,0,0,1,.277,1.038c-.138-1.557-.138-2.855-.277-4.412s-.138-3.374-.277-4.931-.138-3.374-.138-4.931c-.138-3.114-.277-6.228-.277-8.823s-.138-4.931-.138-7.007c0-3.893,0-5.709.138-7.007,0-.519.138-1.038.138-1.3v-.519a11.035,11.035,0,0,1,.968,1.557,20.5,20.5,0,0,1,1.936,6.228c.415,1.817.691,4.152,1.106,6.488.415,2.6.691,5.45,1.106,8.3l.415,4.671a3.438,3.438,0,0,0,.138,1.038c.415,1.038.83,2.076,1.245,3.374l.83,2.336c.138.26.138.519.277.779l.83-1.557a18.358,18.358,0,0,1,3.042-4.412,8.674,8.674,0,0,1,.968-1.038c.277-.259.415-.26.415-.26a15.064,15.064,0,0,1-.277,2.336l-.415,2.336.277.519c.553,1.3,1.383,3.114,2.213,5.19v-2.336c0-1.3.138-2.6.138-3.633.138-4.931.277-9.862.553-14.273q.207-3.5.415-6.228a36.986,36.986,0,0,1,.553-4.671c0-.26.138-.519.138-.779,0-.519-.138-.779-.138-1.3-.277-1.817-.553-3.374-.691-4.671-.415-2.6-.83-4.412-1.106-5.709a11.4,11.4,0,0,1-.277-1.817,3.423,3.423,0,0,1-.138-.779,2.25,2.25,0,0,0,.415.519,6.873,6.873,0,0,1,.968,1.557,16.572,16.572,0,0,1,1.383,2.336,24.531,24.531,0,0,1,1.245,2.6c.138-.259.138-.779.277-1.038.277-.779.415-1.557.691-2.6.277-.779.415-1.557.691-2.6h0c.138-.779.415-1.557.415-1.817a3.424,3.424,0,0,0,.138-.779v.26h0c.553-1.817.968-3.633,1.383-5.45s.83-3.633,1.245-4.931c.691-2.6,1.106-3.893,1.106-3.893v4.152c0,1.3-.138,3.374-.138,5.19-.138,1.817-.138,3.633-.277,5.45,0,.519-.138,1.038-.138,1.3a4.154,4.154,0,0,1-.138,1.3,16.536,16.536,0,0,1-.277,2.6c-.138,1.817-.415,3.633-.553,5.709-.138,1.038-.138,2.076-.277,3.374a1.555,1.555,0,0,1-.138.779c0,1.3.138,2.6.138,3.893s.138,2.855.138,4.412,0,3.374.138,5.19V278.3c.277,3.893.691,8.3.968,12.976.138,2.336.277,4.412.415,6.747h0c.83-1.557,1.521-3.114,2.213-4.152a32.747,32.747,0,0,1,2.9-4.152h0c.138-3.374.138-5.969.277-7.785.138-2.336.277-3.374.277-3.374a1.784,1.784,0,0,1,.138.779c.138.519.277,1.3.553,2.336.415,2.076.968,5.19,1.383,9.343l.415,3.893c0-1.038.138-2.076.138-3.114.138-4.671.277-9.343.553-13.754.138-2.076.277-4.152.415-5.969a36.983,36.983,0,0,1,.553-4.671c0-.26.138-.519.138-.779,0-.519-.138-1.038-.138-1.557-.277-2.076-.553-4.152-.691-5.709-.415-3.374-.83-6.228-1.106-8.045a23.489,23.489,0,0,1-.277-2.336,3.423,3.423,0,0,1-.138-.779l.415.779a18.064,18.064,0,0,1,.968,2.076c.415.779.83,1.817,1.383,3.114.415,1.038.83,2.336,1.245,3.633.138-.519.138-1.038.277-1.557.277-1.038.415-2.336.691-3.374s.415-2.336.691-3.374h0c.138-1.038.415-1.817.415-2.336a3.423,3.423,0,0,0,.138-.779v.26h0c.553-2.076.968-4.152,1.383-6.228.415-1.817.83-3.893,1.245-5.19.691-2.6,1.106-3.893,1.106-3.893v4.152c0,1.557-.138,3.374-.138,5.45-.138,2.076-.138,4.152-.277,6.488,0,.519-.138,1.038-.138,1.817a8.051,8.051,0,0,1-.138,1.817,32.121,32.121,0,0,1-.277,3.633c-.138,2.336-.415,4.931-.553,7.526-.138,1.3-.138,2.6-.277,4.152a1.556,1.556,0,0,1-.138.779c0,1.3.138,2.855.138,4.412,0,1.3.138,2.855.138,4.412v7.007c.277,3.893.691,8.045.968,12.2l.415,6.228c.138,2.076.138,4.152.277,6.228a9.252,9.252,0,0,0,.138,2.076,3.434,3.434,0,0,0,.83-.519l-.138.26-.277.519a1.767,1.767,0,0,0-.277.779c0,.26-.138.26-.138.519v12.2c0,1.3-.138,2.6-.138,3.374a5.939,5.939,0,0,1-.138,1.557h.691a11.865,11.865,0,0,0-.138-2.076v-4.671c0-.778.138-1.817.138-2.6a16.536,16.536,0,0,1,.277-2.6,6.378,6.378,0,0,1,.277-1.817v-1.557a4.627,4.627,0,0,1,.138-1.038s.138,0,.277.26a7.007,7.007,0,0,1,.553-1.557,22.164,22.164,0,0,1,1.245-2.6,17.833,17.833,0,0,1,1.106-2.336c.138-1.038.138-2.076.277-3.114l.691-5.19a9.927,9.927,0,0,1,.415-1.817l.277.519c.138.259.277.779.553,1.3a5.6,5.6,0,0,1,.277,1.038,25.619,25.619,0,0,1,1.521-3.633c-.415-3.633-.83-7.526-1.245-10.9-.415-3.633-.83-7.007-1.106-9.862s-.691-5.45-.968-7.785-.553-4.671-.691-6.747c-.415-4.152-.691-7.526-.83-9.862s-.138-3.893-.138-3.893l.415.779c.277.519.553,1.3.968,2.336.691,2.076,1.8,5.19,2.9,9.083s2.213,8.824,3.319,14.533c.277,1.3.553,2.855.83,4.412s.553,3.114.83,4.931c.553,3.374.968,7.007,1.383,10.9s.83,7.785,1.245,11.419c.277,2.6.553,5.45.691,8.045a3.731,3.731,0,0,1,1.383-.519,2.515,2.515,0,0,1,.968-.26h-.138s-.138.26-.277.26c-.138.26-.277.26-.277.519l-.138.26h.277a2.25,2.25,0,0,1-.415.519,8.108,8.108,0,0,0-.83,1.557c-.138.26-.138.519-.277.779.138,1.557.277,3.114.277,4.412.138,1.557.138,3.114.277,4.412,0,1.3.138,2.336.138,3.374v1.557h1.106v-.519a11.863,11.863,0,0,0-.138-2.076V321.9c0-.779.138-1.817.138-2.6a16.537,16.537,0,0,1,.277-2.6,11.4,11.4,0,0,0,.277-1.817,6.486,6.486,0,0,1,.968-2.336A12.275,12.275,0,0,1,129.319,311a9.2,9.2,0,0,0,1.383-2.336,17.211,17.211,0,0,0,.83-2.076,23.459,23.459,0,0,1,.83-2.336c.415-1.3.83-2.336,1.245-3.374,0-1.038.138-2.336.138-3.374s.138-2.076.138-3.114c-.277-2.336-.553-4.412-.83-6.488-.415-3.374-.83-6.488-1.106-9.6-.277-2.855-.691-5.969-.968-8.823s-.553-5.709-.691-8.3c-.415-5.19-.691-9.6-.83-12.457-.138-3.114-.138-4.671-.138-4.671a4.039,4.039,0,0,1,.277,1.038,24.5,24.5,0,0,1,.968,2.855c.691,2.6,1.8,6.488,2.9,11.419.968,4.152,1.8,9.083,2.766,14.273.138-.519.138-1.038.277-1.557a21.266,21.266,0,0,1,.553-2.6,4.574,4.574,0,0,0,.138-1.038s.138,1.557.415,3.893.553,5.709.691,9.343c.138,2.076.277,4.152.277,6.488.415,2.6.691,5.19,1.106,8.045.415,3.633.83,7.266,1.245,10.64.277,2.6.553,4.931.691,7.526h1.8s-.138,0-.415.26a4.541,4.541,0,0,0-1.245,1.557h0a2.692,2.692,0,0,0,.138,1.038c0,.519.138,1.3.138,1.817a8.5,8.5,0,0,1,.277-2.076,11.187,11.187,0,0,1,.553-2.076l.277-.519h.138c.138,0,.277.26.415.26a4.729,4.729,0,0,1,1.245,1.817l.138.26c-.138-.779-.138-1.817-.277-2.6a32.653,32.653,0,0,1-.277-3.374c-.138-.779-.138-1.557-.277-2.076v-.779s.277.519.83,1.817a11.864,11.864,0,0,1,.138-2.076v-2.855c0-.26-.138-.26-.138-.519a9.869,9.869,0,0,0-.553-2.336,30.7,30.7,0,0,0-1.106-4.152c-.138-.779-.277-1.3-.415-2.076,0-.26-.138-.779-.138-1.038s-.138-.779-.138-1.038a37.666,37.666,0,0,1-.553-3.893,30.172,30.172,0,0,1-.138-3.114v-1.3s.415,0,1.106,1.3c.277.519.691,1.817,1.245,3.114.415,1.3.968,2.855,1.521,4.152h0v-.26l.277.519a5.015,5.015,0,0,1,.553,1.557h0a13.979,13.979,0,0,0,.968,2.076c.277.779.691,1.3.968,2.076s.691,1.3.968,2.076l.83,2.336c.138.519.415,1.3.553,2.076a19.738,19.738,0,0,1,.138-2.855c0-1.3.138-2.6.138-3.893a28.039,28.039,0,0,1,.277-3.633c.277-4.671.691-9.083,1.245-12.457.415-3.374.968-7.007,1.383-9.6.138-1.3.415-2.336.553-3.114a7.266,7.266,0,0,0,.138-1.038s.138,1.817.415,4.412c.277,2.855.553,6.488.83,10.121s.415,8.045.553,12.716c0,2.336.138,4.931.138,7.266v11.159l.138.26a2.9,2.9,0,0,1,.277,1.038l.138-.26c.553-.779.968-1.557,1.521-1.817a4.11,4.11,0,0,1,1.659-.519h.691a28.569,28.569,0,0,1-.553-3.374c-.415-2.6-.968-5.45-1.383-8.045s-.83-5.45-1.245-7.785c-.415-2.6-.691-4.931-1.106-7.266-.277-2.336-.553-4.412-.83-6.488-.553-4.412-.83-9.083-1.106-12.2s-.277-5.19-.277-5.19a9.013,9.013,0,0,1,.415,1.038c.277.779.553,1.817.968,3.114.83,2.6,1.936,6.747,3.042,11.159s2.351,8.564,3.6,13.235c.277,1.3.553,2.336.83,3.633l.83,3.893c.138.519.138.779.277,1.3l.415.779.968,1.817a11.586,11.586,0,0,1,.968,1.817c.277.779.553,1.3.83,2.076a11.991,11.991,0,0,1,.691,2.6c.277,1.038.415,2.336.553,3.114h0a10.63,10.63,0,0,1,.277-1.3c.553-2.6,1.245-5.19,1.936-7.526s1.383-4.412,2.074-6.488c.415-1.3.968-2.6,1.383-3.633-.138-1.3-.415-2.336-.553-3.633-.277-2.076-.553-4.152-.83-6.488-.553-4.671-.83-9.862-1.106-13.495s-.277-5.969-.277-5.969.138.519.415,1.3.553,2.076.968,3.374c.83,3.114,1.936,7.526,3.042,12.2.553,1.817.968,4.152,1.521,5.709.415-.779.83-1.817,1.106-2.336.83-2.076,1.521-3.374,1.521-3.374s-.415,1.817-.968,4.152a30.92,30.92,0,0,1-.968,3.374,58.052,58.052,0,0,1,1.521,5.709c.277,1.038.553,2.076.83,3.374.138-.519.138-1.038.277-1.557.277-1.557.553,0,1.106,3.114a.911.911,0,0,1-.691-.519,3.572,3.572,0,0,1-.691-1.038v.26c.277,1.3.553,2.336.83,3.633l.83,3.893h0l.415-3.114-.415-1.557a6.148,6.148,0,0,1-.277-1.557h.553c.138,0,.277-.26.415-.26-.277-1.817-.415-3.114-.415-3.114a4.015,4.015,0,0,1,.277.779,6.431,6.431,0,0,1,.553,1.3c.553-3.633,1.245-6.747,1.8-10.121.691-3.893,1.383-8.045,1.936-11.159.277-1.557.553-2.855.691-3.633s.277-1.3.277-1.3a13.287,13.287,0,0,0,.138,1.557c0,1.038.138,2.336.138,4.152.138,3.374.277,8.3.277,11.938s-.138,7.526-.277,11.938c0,.779-.138,1.817-.138,2.6l.138.26c.138.519.415.779.553,1.3h0c.553-1.817,1.245-3.633,1.8-5.45.691-1.817,1.383-3.633,2.074-5.19,1.383-3.114,2.627-5.45,3.457-7.785.83-2.076,1.521-3.633,1.521-3.633s-.415,1.817-.968,4.412c-.277,1.3-.691,2.6-1.106,3.893s-.968,3.114-1.383,4.671c-.553,1.817-.968,3.633-1.521,5.709l-1.659,6.228c0,.259-.138.519-.138.778.277.519.415,1.3.691,1.817a21.06,21.06,0,0,1,.691,3.374c.138,1.3.138,2.6.277,3.374l-.969,1.3a1.06,1.06,0,0,0,.83-.259c.138,0,.138,0,.277-.26h.277c.138,0,.277-.26.415-.26.138-.26.277-.26.415-.519h0l1.245-1.557c.138-.26.277-.26.415-.519,0-1.557-.138-3.374-.138-4.412-.138-1.557-.277-2.336-.277-3.114v-1.038s.138,0,.277.26a2.276,2.276,0,0,0,.83.779,24.893,24.893,0,0,1,2.351,3.114l.138.26.415-3.893c.138-.519.138-1.3.277-1.817l-.415-1.557c-.138-.519-.138-.779-.277-1.3.138,0,.138,0,.277-.26a3.616,3.616,0,0,0,.83-1.038c-.277-2.076-.553-3.374-.553-3.374l.277.519a6.431,6.431,0,0,1,.553,1.3c.553-3.633,1.245-6.747,1.8-10.121.691-3.633,1.383-8.3,1.936-11.419.277-1.557.553-2.855.691-3.893.138-.779.277-1.3.277-1.3a13.285,13.285,0,0,0,.138,1.557c0,1.038.138,2.6.138,4.412.138,3.633.277,8.564.277,11.938,0,3.633-.138,7.526-.277,11.678,0,1.038-.138,2.076-.138,3.114v.259h0a3.72,3.72,0,0,0,.553,1.038l.553,1.038a12.783,12.783,0,0,1,1.106,1.817,9.4,9.4,0,0,1,.968,2.336c.277.779.415,1.817.691,2.855a12.422,12.422,0,0,0-.277,2.855c-.277,2.336-.415,4.412-.691,6.228,0,.259-.138.519-.138.778.277,1.817.553,3.633.691,5.19,0,.519.138,1.038.138,1.3,1.245,0,2.351.26,3.457.26v-.26c-.277-1.3-.415-2.855-.691-4.412s-.415-3.114-.691-4.671c-.138-1.038-.415-2.336-.553-3.374a6,6,0,0,0,1.245-1.3,14.584,14.584,0,0,0,1.245-2.076c.138-.259.277-.519.415-.519,0-1.3-.138-2.6-.138-3.374-.138-1.557-.277-2.336-.277-2.855v-1.038s.138,0,.277.259a4.557,4.557,0,0,0,.83.779,20.051,20.051,0,0,1,2.489,2.855c.83,1.3,1.521,4.412,1.936,6.747,0,.519-.138.779-.138,1.3a36.515,36.515,0,0,1-.83,4.412c-.277,1.3-.553,2.336-.83,3.374.277.779.415,1.817.691,2.6.138.779.415,1.3.553,2.076h.277a48.859,48.859,0,0,0,5.946.26Zm-190-11.938h0l.415-2.336a.743.743,0,0,1,.138-.519V319.3c-.138.779-.138,1.3-.277,2.076A7.066,7.066,0,0,1,42.2,322.675Zm162.346,8.564-.415,1.557h.691a4.153,4.153,0,0,1-.138-1.3C204.545,331.5,204.545,331.239,204.545,331.239ZM180.207,328.9l.415.778.138.26v-.519c-.138-.519-.138-.779-.277-1.3A1.768,1.768,0,0,0,180.207,328.9Zm6.776,2.855h.415a10.318,10.318,0,0,1-.138-1.038h0C187.121,330.98,187.121,331.5,186.983,331.758Zm-23.094-1.038Zm-45.634-23.1a2.978,2.978,0,0,1-.691,1.3c0,.26.138.519.138.779a10.315,10.315,0,0,1,.138,1.038c.138.519.138,1.3.277,1.817v.26c0,.26.138.26.138.519a2.692,2.692,0,0,1,.138,1.038c0,.519.138.779.138,1.3a5.939,5.939,0,0,0,.138,1.557V318a3.617,3.617,0,0,1,.83-1.038h0c-.277-1.557-.415-3.374-.691-4.931A38.841,38.841,0,0,0,118.255,307.623Zm-38.581,3.114c-.277-.519-.415-1.038-.691-1.557a12.251,12.251,0,0,0-.83-1.817c0-.26-.138-.26-.138-.519.277,1.557.691,3.114.83,4.671a13.454,13.454,0,0,1,.277,2.336l.415-2.336A1.556,1.556,0,0,1,79.674,310.738Zm-51.3,3.114c-.138.259-.138.519-.277.778,0,0,0,.26-.138.26v.26c-.138,1.3-.277,2.6-.415,3.633-.138,1.3-.415,2.6-.553,3.633h0c.277-1.3.553-2.6.83-4.152.138-1.038.415-2.076.553-3.114Zm-10.51,11.938Zm195.4-5.45v0Zm-17.424-.779v0Zm-5.117,6.228v.519c.277,1.817.553,3.374.691,4.671,0,.26.138.779.138,1.038h.415a2.692,2.692,0,0,0-.138-1.038,36.619,36.619,0,0,1-.138-3.893c0-1.3-.138-2.855-.138-4.152v-4.152h0a1.556,1.556,0,0,1-.138.779C191.131,321.9,190.993,323.973,190.717,325.789Zm-19.775-6.747h0a2.277,2.277,0,0,0,.83.779,4.857,4.857,0,0,0,1.245.779c.415-1.038.83-2.336,1.245-3.114a3.479,3.479,0,0,1,1.521-1.557,3.714,3.714,0,0,1,1.659-.26h.553c-.138-.779-.277-1.557-.415-2.076-.415-2.336-.968-4.931-1.383-7.526-.277-2.076-.691-3.893-.968-5.969-.138.26-.138.779-.277,1.038-.553,2.076-1.106,4.412-1.659,6.747-.277,1.038-.553,2.336-.83,3.633s-.553,2.6-.83,3.633C171.357,316.706,171.08,318,170.942,319.042Zm-.691,3.893c-.415,2.6-.83,5.19-1.106,7.267,0,.26-.138.519-.138.778h1.521c0-.519.138-1.038.138-1.557.138-.519.138-1.038.277-1.557a29.982,29.982,0,0,1,.83-3.374l.415-1.557a15.083,15.083,0,0,1-.968-2.6,2.9,2.9,0,0,1-.277-1.038C170.665,320.6,170.389,321.9,170.25,322.935Zm-41.9,6.228h2.766c.138-.259.277-.779.415-1.038a4.23,4.23,0,0,0,.415-1.038,18.031,18.031,0,0,0-.138-2.6v-.519l-1.245-3.114a39.986,39.986,0,0,0-.968,3.893c-.138.779-.415,1.3-.553,2.076s-.277,1.3-.415,1.817C128.488,328.9,128.35,328.9,128.35,329.163ZM91.29,310.478h0v1.817c0,.779.138,1.557.138,2.076v2.076c0,1.3.138,2.6.138,3.893,0,2.336.138,4.152,0,5.709v1.817h.277a6.339,6.339,0,0,1,1.383-1.3c-.138-.519-.138-1.038-.277-1.557l-.415-3.114a45.668,45.668,0,0,1-.415-5.709v-3.374a5.541,5.541,0,0,1,.138-1.3,7.766,7.766,0,0,1,.83,1.038,25.4,25.4,0,0,1,1.659,2.855,6.432,6.432,0,0,1,.553,1.3,8.05,8.05,0,0,0-.138-1.817c0-1.3-.138-2.336-.138-3.374v-2.855a19.738,19.738,0,0,1,.138-2.855c.138-1.817.277-3.633.415-5.709v-2.336c-.277,1.038-.415,2.336-.691,3.114a19.8,19.8,0,0,1-1.106,3.374l-1.245,3.114ZM77.046,300.1c.415.779.968,1.557,1.383,2.336.691,1.3,1.383,2.336,2.074,3.633v-.26h0a2.692,2.692,0,0,1-.138-1.038c-.138-1.3-.415-2.336-.553-3.633s-.415-2.6-.553-3.633c-.138-1.557-.277-3.114-.415-4.412a10.31,10.31,0,0,0-.138,1.038c-.277,1.3-.553,2.6-.83,4.152A3.58,3.58,0,0,0,77.046,300.1Zm-2.9,11.938C74,311.516,74,311,73.866,310.219V311c0,.779.138,1.557.138,2.076v2.076c0,1.3.138,2.6.138,3.893,0,2.336.138,4.152,0,5.709v2.336c.415-.519.968-1.038,1.383-1.557,0-.519-.138-1.3-.138-1.817-.138-1.038-.138-2.076-.277-2.855a23.682,23.682,0,0,1-.277-3.114c-.138-1.038-.138-2.076-.277-3.114C74.419,313.852,74.281,312.814,74.142,312.035Zm-18.53-8.824c0,.26-.138.26-.138.519v8.564a1.555,1.555,0,0,0,.138.779c.138.779.138,2.076.277,3.374v7.266a16.328,16.328,0,0,1-.138,2.6v.519h2.766c-.138-1.038-.138-1.817-.277-2.855s-.138-2.076-.277-2.855A23.682,23.682,0,0,1,57.687,318c-.138-1.038-.138-2.076-.277-3.114L57,311.776c-.277-2.076-.553-3.893-.83-5.709A20.778,20.778,0,0,1,55.612,303.212ZM38.188,320.859c0-1.557-.138-3.114-.277-4.931a10.483,10.483,0,0,0-.138-2.076c-.138,3.114-.138,5.45-.277,7.526,0,1.038-.138,1.817-.138,2.6s-.138,1.557-.138,2.076h.968v-1.038c0-.779-.138-1.3-.138-2.076A4.94,4.94,0,0,0,38.188,320.859ZM.3,298.021c.415,1.3.968,2.855,1.521,4.412.277,1.038.691,2.336.968,3.633,0-.26.138-.519.138-.779-.415-2.336-.691-4.671-1.106-7.007C1.4,294.907.852,291.274.437,287.9.022,285.046.16,296.983.3,298.021Z" transform="translate(0 -212.9)" fill="#275072"/>
        </g>
      </g>
    </g>
  </g>
  <g id="Group_175264" data-name="Group 175264">
    <g id="Mask_Group_2271" data-name="Mask Group 2271" clip-path="url(#clip-path-2)">
      <g id="Group_175193" data-name="Group 175193" transform="translate(-109.454 227.55) rotate(-70)" opacity="0.13">
        <g id="Group_175175-2" data-name="Group 175175" transform="translate(168.101 0)">
          <path id="Path_65622-3" data-name="Path 65622" d="M1.106.415C.968.415.968.415.83.553A.428.428,0,0,1,.553.691L.83.138.968,0h0C.691,0,.415.138.138.138H0C0,.415.138.553.138.83c.277.83.415,1.383.691,1.521l.138.138a.606.606,0,0,0,.138-.415h0V1.936A2.791,2.791,0,0,0,1.106.415Z" transform="translate(21.711 39.002)" fill="#275072"/>
          <path id="Path_65623-3" data-name="Path 65623" d="M.83,1.435A1.378,1.378,0,0,0,.691.882,1.483,1.483,0,0,0,.415.052Q.207-.156,0,.467A3.081,3.081,0,0,1,.83,1.435Z" transform="translate(34.848 55.926)" fill="#275072"/>
          <path id="Path_65624-3" data-name="Path 65624" d="M.415.061c-.138-.138-.138,0-.138,0C.277.2.138.338.138.476A1.5,1.5,0,0,1,0,1.168V2.412c0,.138,0,.277.138.138a.483.483,0,0,0,.138-.277A9.412,9.412,0,0,0,.691.615V.476A1.989,1.989,0,0,1,.415.061Z" transform="translate(13.275 38.65)" fill="#275072"/>
          <path id="Path_65625-3" data-name="Path 65625" d="M1.383,1.717A9.532,9.532,0,0,1,1.8.61,3.025,3.025,0,0,0,1.106.2,1.469,1.469,0,0,0,0,.057C.83,1.717,1.106,2.685,1.383,1.717Z" transform="translate(33.05 55.885)" fill="#275072"/>
          <path id="Path_65626-3" data-name="Path 65626" d="M0,24.656,8.3,7.009a53.252,53.252,0,0,0,5.946-.519c4.7-.259,10.51-.778,17.424-1.038l5.808-.259C46.464,4.673,56.559,4.154,67.9,3.635L90.162,2.6,141.742.781,170.505,0c22.817-.519,62.781,101.212,61.674,98.617a36.982,36.982,0,0,1-1.521-3.893,14.721,14.721,0,0,1-1.106,2.076,11.386,11.386,0,0,1-1.521,2.076,16.2,16.2,0,0,0,.968-2.6c.277-.779.553-2.076.968-3.633-.553-2.076-1.106-4.152-1.659-6.747-.277-1.557-.553-2.855-.83-4.412s-.553-3.114-.83-4.931-.553-3.633-.83-5.709v.26c-.138,1.557-.277,3.374-.415,4.931a32.117,32.117,0,0,0-.277,3.633c.415,3.374.691,5.45.691,5.45a4.015,4.015,0,0,1-.277-.779c-.138-.519-.415-1.038-.553-1.557-.277,2.855-.553,5.45-.968,7.785.415,4.931.415,7.266.138,7.526a3.2,3.2,0,0,0-.553,2.076v3.114a24.589,24.589,0,0,0-1.245-2.855l-.415-.779a10.874,10.874,0,0,1-.691,1.557c-.277.519-.553.779-.691,1.038s-.277.259-.277.259v-.259c0-.26-.138-.779-.138-1.3a44.885,44.885,0,0,1-.138-5.19c-.277-1.3-.553-3.114-.968-5.19-.277-1.3-.415-2.855-.691-4.152a14.1,14.1,0,0,1-.277-2.076c-.138-.779-.138-1.557-.277-2.076a1.556,1.556,0,0,0-.138-.779c-.691,2.6-1.245,4.931-1.936,7.007-1.383,4.412-2.489,7.266-3.457,8.564a6.6,6.6,0,0,1-1.521,2.076,16.191,16.191,0,0,0,.968-2.6c.277-1.038.691-2.336,1.106-3.893.415-1.817.83-3.893,1.383-6.228s.968-5.19,1.521-8.3c.277-1.557.553-3.374.83-4.931a2.692,2.692,0,0,0-.138-1.038c-.691,2.855-1.245,5.709-1.8,8.045-.968,3.893-1.936,6.747-2.627,8.824-.277,1.038-.691,1.557-.83,2.076a4.014,4.014,0,0,1-.277.779s.138-1.3.277-3.893.553-6.228.968-10.9,1.106-10.121,1.8-15.83c0-.26.138-.779.138-1.038-.277-.779-.691-1.817-.968-2.855s-.691-2.336-.968-3.633V65.4c0,3.374-.138,6.747-.277,9.6s-.415,5.19-.553,6.747a13.793,13.793,0,0,1-.277,1.817,1.784,1.784,0,0,1-.138.779l-.277-.519c-.138-.519-.277-1.038-.553-1.817-.415-1.557-.968-3.893-1.521-6.488-.138-.519-.138-1.038-.277-1.557,0,.779-.138,1.817-.138,2.6-.138,1.3-.138,2.6-.277,3.633.415,3.633.691,5.45.691,5.45a4.016,4.016,0,0,1-.277-.779c-.138-.519-.415-1.038-.553-1.557-.277,2.855-.553,5.709-.968,8.045.415,4.931.415,7.007,0,7.007s-.691.259-.691,1.3v2.855a14.217,14.217,0,0,0-1.245-2.6,7.831,7.831,0,0,1-.968,2.076c-.277.519-.553.779-.691,1.038s-.277.26-.277.26l-.138-.26a10.311,10.311,0,0,1-.138-1.038,44.892,44.892,0,0,1-.138-5.19c-.277-1.038-.553-3.114-.968-5.19-.277-1.3-.415-2.855-.691-4.152a14.1,14.1,0,0,1-.277-2.076c-.138-.779-.138-1.557-.277-2.076l-.415-3.114v2.855c0,2.076-.138,3.893-.138,5.709-.138,1.817-.138,3.374-.277,4.931-.415,5.969-.83,8.564-1.521,10.121a5.514,5.514,0,0,1-1.659,2.6,2.708,2.708,0,0,0-.553.779c-.138.26-.277.26-.277.26l-.138-.26a1.768,1.768,0,0,0-.277-.779,10,10,0,0,1-.553-2.6c-.138-1.557-.277-4.412-.277-10.64v-2.6a6.434,6.434,0,0,1-.553,1.3,4.019,4.019,0,0,1-.277.779s.138-1.3.277-3.893q.207-1.946.415-5.45V78.636c-.138,1.557-.277,2.855-.415,4.152a13.8,13.8,0,0,1-.277,1.817,1.784,1.784,0,0,1-.138.779l-.277-.519c-.138-.519-.277-1.038-.553-1.817-.415-1.557-.968-3.893-1.521-6.488-.277-1.3-.415-2.336-.691-3.893h0c0,6.488,0,13.235-.138,18.685-.138,2.855-.138,5.45-.138,7.266-.138,1.557-.138,2.6-.277,3.633v.259h0v.519a20.144,20.144,0,0,1-.415,2.336c-.138.519-.415,1.038-.553,1.557-.138.26-.138.519-.277.779s-.277.779-.415,1.038c-.277.779-.415,2.076-.691,3.374-.553,2.855-.968,7.526-1.383,10.381s-.83,4.931-1.245,6.747-.83,3.633-1.245,5.19-.83,3.374-1.245,4.931c-.83,2.855-1.383,5.19-1.383,5.19a13.283,13.283,0,0,1,.138-1.557c0-1.038.138-2.336.138-3.893.138-3.114.277-6.488.415-10.381s.415-12.2.968-17.128a30.594,30.594,0,0,1,.83-4.931,28.468,28.468,0,0,0,.83-4.152c.138-1.038.277-2.6.415-4.412.138-2.076.277-4.671.277-7.266,0-1.3.138-2.855.138-4.412-.415-2.6-.83-5.709-1.245-8.824-.415-3.374-.83-7.007-1.106-10.64a2.692,2.692,0,0,0-.138-1.038V77.338c0,2.076-.138,4.152-.138,6.228s-.138,3.893-.138,5.709c-.138,1.817-.138,3.374-.277,4.931-.415,5.969-.83,8.564-1.383,10.121a6.784,6.784,0,0,1-1.659,2.855,2.708,2.708,0,0,0-.553.779c-.138.26-.277.26-.277.26l-.138-.26a1.768,1.768,0,0,0-.277-.779,23.707,23.707,0,0,1-.553-3.114c-.138-1.817-.277-4.412-.277-10.64V74.743a13.539,13.539,0,0,1-.691-1.817l-.83-2.336c-.277-.779-.553-1.817-.83-2.6s-.415-1.557-.691-2.336a3.722,3.722,0,0,1-.553-1.038l-.415-.779c0,2.855,0,5.969.138,9.083,0,6.488,0,12.976-.138,18.426-.138,2.855-.138,5.45-.138,7.007-.138,1.3-.138,2.6-.277,3.633v.26h0v.519c-.138,1.038-.277,2.076-.415,2.6-.138.779-.415,1.3-.553,2.076-.138.26-.138.779-.277,1.038-.138.519-.277.779-.415,1.3-.277,1.038-.415,2.076-.691,3.633-.553,2.855-.968,7.266-1.383,10.121s-.83,5.19-1.245,7.007c-.415,2.076-.83,3.893-1.245,5.709s-.83,3.633-1.245,4.931l-1.383,5.19a13.287,13.287,0,0,1,.138-1.557c0-1.038.138-2.336.138-3.893q.207-4.671.415-10.9c.138-4.152.553-12.2.968-17.388.277-2.6.553-4.412.83-5.969s.553-3.114.83-5.45c.138-1.3.277-2.6.415-4.412s.277-4.412.277-7.266c0-1.3.138-2.855.138-4.152-.415-2.6-.83-5.45-1.245-8.824-.138-1.557-.415-3.374-.553-4.931,0,.26-.138.26-.138.26V70.072l-.415-3.893c0-.519-.138-1.038-.138-1.817a5.6,5.6,0,0,1-.277-1.038c.138,1.557.138,2.855.277,4.412s.138,3.374.277,4.931.138,3.374.138,4.931c.138,3.114.277,6.228.277,8.824s.138,4.931.138,7.007c0,3.893,0,5.709-.138,7.007,0,.519-.138,1.038-.138,1.3v.519a11.037,11.037,0,0,1-.968-1.557,20.5,20.5,0,0,1-1.936-6.228c-.415-1.817-.691-4.152-1.106-6.488-.415-2.6-.691-5.45-1.106-8.3L160.133,75A3.438,3.438,0,0,0,160,73.965c-.415-1.038-.83-2.076-1.245-3.374l-.83-2.336c-.138-.26-.138-.519-.277-.779l-.83,1.557a18.358,18.358,0,0,1-3.042,4.412,8.666,8.666,0,0,1-.968,1.038c-.277.259-.415.26-.415.26a15.065,15.065,0,0,1,.277-2.336l.415-2.336-.277-.519c-.553-1.3-1.383-3.114-2.213-5.19V66.7c0,1.3-.138,2.6-.138,3.633-.138,4.931-.277,9.862-.553,14.273q-.207,3.5-.415,6.228a36.988,36.988,0,0,1-.553,4.671c0,.26-.138.519-.138.779,0,.519.138.779.138,1.3.277,1.817.553,3.374.691,4.671.415,2.6.83,4.412,1.106,5.709a11.4,11.4,0,0,1,.277,1.817,3.423,3.423,0,0,1,.138.779,2.25,2.25,0,0,0-.415-.519,6.87,6.87,0,0,1-.968-1.557,16.569,16.569,0,0,1-1.383-2.336,24.538,24.538,0,0,1-1.245-2.6c-.138.26-.138.779-.277,1.038-.277.779-.415,1.557-.691,2.6-.277.779-.415,1.557-.691,2.6h0c-.138.779-.415,1.557-.415,1.817a3.423,3.423,0,0,0-.138.779v-.259h0c-.553,1.817-.968,3.633-1.383,5.45s-.83,3.633-1.245,4.931c-.691,2.6-1.106,3.893-1.106,3.893v-4.152c0-1.3.138-3.374.138-5.19.138-1.817.138-3.633.277-5.45,0-.519.138-1.038.138-1.3a4.153,4.153,0,0,1,.138-1.3,16.536,16.536,0,0,1,.277-2.6c.138-1.817.415-3.633.553-5.709.138-1.038.138-2.076.277-3.374a1.555,1.555,0,0,1,.138-.779c0-1.3-.138-2.6-.138-3.893s-.138-2.855-.138-4.412,0-3.374-.138-5.19V80.971c-.277-3.893-.691-8.3-.968-12.976-.138-2.336-.277-4.412-.415-6.747h0c-.83,1.557-1.521,3.114-2.213,4.152a32.749,32.749,0,0,1-2.9,4.152h0c-.138,3.374-.138,5.969-.277,7.785-.138,2.336-.277,3.374-.277,3.374a1.785,1.785,0,0,1-.138-.779c-.138-.519-.277-1.3-.553-2.336-.415-2.076-.968-5.19-1.383-9.342l-.415-3.893c0,1.038-.138,2.076-.138,3.114-.138,4.671-.277,9.343-.553,13.754-.138,2.076-.277,4.152-.415,5.969a36.986,36.986,0,0,1-.553,4.671c0,.26-.138.519-.138.779,0,.519.138,1.038.138,1.557.277,2.076.553,4.152.691,5.709.415,3.374.83,6.228,1.106,8.045a23.493,23.493,0,0,1,.277,2.336,3.424,3.424,0,0,1,.138.779l-.415-.779a18.064,18.064,0,0,1-.968-2.076c-.415-.779-.83-1.817-1.383-3.114-.415-1.038-.83-2.336-1.245-3.633-.138.519-.138,1.038-.277,1.557-.277,1.038-.415,2.336-.691,3.374s-.415,2.336-.691,3.374h0c-.138,1.038-.415,1.817-.415,2.336a3.423,3.423,0,0,0-.138.779v-.26h0c-.553,2.076-.968,4.152-1.383,6.228-.415,1.817-.83,3.893-1.245,5.19-.691,2.6-1.106,3.893-1.106,3.893v-4.152c0-1.557.138-3.374.138-5.45.138-2.076.138-4.152.277-6.488,0-.519.138-1.038.138-1.817a8.05,8.05,0,0,1,.138-1.817,32.123,32.123,0,0,1,.277-3.633c.138-2.336.415-4.931.553-7.526.138-1.3.138-2.6.277-4.152a1.556,1.556,0,0,1,.138-.779c0-1.3-.138-2.855-.138-4.412,0-1.3-.138-2.855-.138-4.412V76.3c-.277-3.893-.691-8.045-.968-12.2l-.415-6.228c-.138-2.076-.138-4.152-.277-6.228a9.251,9.251,0,0,0-.138-2.076,3.434,3.434,0,0,0-.83.519l.138-.26.277-.519a1.767,1.767,0,0,0,.277-.779c0-.26.138-.26.138-.519v-12.2c0-1.3.138-2.6.138-3.374a5.939,5.939,0,0,1,.138-1.557h-.691a11.865,11.865,0,0,0,.138,2.076v4.671c0,.779-.138,1.817-.138,2.6a16.538,16.538,0,0,1-.277,2.6,6.378,6.378,0,0,1-.277,1.817V46.2a4.627,4.627,0,0,1-.138,1.038s-.138,0-.277-.26a7.007,7.007,0,0,1-.553,1.557,22.164,22.164,0,0,1-1.245,2.6,17.829,17.829,0,0,1-1.106,2.336c-.138,1.038-.138,2.076-.277,3.114l-.691,5.19a9.927,9.927,0,0,1-.415,1.817l-.277-.519c-.138-.26-.277-.779-.553-1.3a5.6,5.6,0,0,1-.277-1.038,25.624,25.624,0,0,1-1.521,3.633c.415,3.633.83,7.526,1.245,10.9.415,3.633.83,7.007,1.106,9.862s.691,5.45.968,7.785.553,4.671.691,6.747c.415,4.152.691,7.526.83,9.862s.138,3.893.138,3.893l-.415-.779c-.277-.519-.553-1.3-.968-2.336-.691-2.076-1.8-5.19-2.9-9.083s-2.213-8.824-3.319-14.533c-.277-1.3-.553-2.855-.83-4.412s-.553-3.114-.83-4.931c-.553-3.374-.968-7.007-1.383-10.9s-.83-7.785-1.245-11.419c-.277-2.6-.553-5.45-.691-8.045a3.731,3.731,0,0,1-1.383.519,2.515,2.515,0,0,1-.968.26h.138s.138-.26.277-.26c.138-.259.277-.259.277-.519l.138-.26h-.277a2.249,2.249,0,0,1,.415-.519,8.107,8.107,0,0,0,.83-1.557c.138-.26.138-.519.277-.779-.138-1.557-.277-3.114-.277-4.412-.138-1.557-.138-3.114-.277-4.412,0-1.3-.138-2.336-.138-3.374V30.106h-1.106v.519a11.865,11.865,0,0,0,.138,2.076v4.671c0,.779-.138,1.817-.138,2.6a16.537,16.537,0,0,1-.277,2.6,11.4,11.4,0,0,0-.277,1.817,6.485,6.485,0,0,1-.968,2.336,12.27,12.27,0,0,1-1.245,1.557,9.2,9.2,0,0,0-1.383,2.336,17.214,17.214,0,0,0-.83,2.076,23.45,23.45,0,0,1-.83,2.336c-.415,1.3-.83,2.336-1.245,3.374,0,1.038-.138,2.336-.138,3.374s-.138,2.076-.138,3.114c.277,2.336.553,4.412.83,6.488.415,3.374.83,6.488,1.106,9.6.277,2.855.691,5.969.968,8.824s.553,5.709.691,8.3c.415,5.19.691,9.6.83,12.457.138,3.114.138,4.671.138,4.671a4.039,4.039,0,0,1-.277-1.038,24.5,24.5,0,0,1-.968-2.855c-.691-2.6-1.8-6.488-2.9-11.419-.968-4.152-1.8-9.083-2.766-14.273-.138.519-.138,1.038-.277,1.557a21.267,21.267,0,0,1-.553,2.6A4.574,4.574,0,0,0,95,90.833s-.138-1.557-.415-3.893-.553-5.709-.691-9.343c-.138-2.076-.277-4.152-.277-6.488-.415-2.6-.691-5.19-1.106-8.045-.415-3.633-.83-7.266-1.245-10.64-.277-2.6-.553-4.931-.691-7.526h-1.8s.138,0,.415-.259a4.542,4.542,0,0,0,1.245-1.557h0a2.692,2.692,0,0,0-.138-1.038c0-.519-.138-1.3-.138-1.817a8.5,8.5,0,0,1-.277,2.076,11.186,11.186,0,0,1-.553,2.076l-.277.519h-.138c-.138,0-.277-.259-.415-.259a4.729,4.729,0,0,1-1.245-1.817l-.138-.26c.138.779.138,1.817.277,2.6a32.657,32.657,0,0,1,.277,3.374c.138.779.138,1.557.277,2.076v.779s-.277-.519-.83-1.817a11.864,11.864,0,0,1-.138,2.076V54.5c0,.259.138.259.138.519a9.869,9.869,0,0,0,.553,2.336,30.7,30.7,0,0,0,1.106,4.152c.138.779.277,1.3.415,2.076,0,.26.138.779.138,1.038s.138.779.138,1.038a37.664,37.664,0,0,1,.553,3.893,30.171,30.171,0,0,1,.138,3.114v1.3s-.415,0-1.106-1.3c-.277-.519-.691-1.817-1.245-3.114-.415-1.3-.968-2.855-1.521-4.152h0v.259l-.277-.519a5.017,5.017,0,0,1-.553-1.557h0a13.972,13.972,0,0,0-.968-2.076c-.277-.779-.691-1.3-.968-2.076s-.691-1.3-.968-2.076l-.83-2.336c-.138-.519-.415-1.3-.553-2.076a19.739,19.739,0,0,1-.138,2.855c0,1.3-.138,2.6-.138,3.893a28.041,28.041,0,0,1-.277,3.633c-.277,4.671-.691,9.083-1.245,12.457-.415,3.374-.968,7.007-1.383,9.6-.138,1.3-.415,2.336-.553,3.114a7.266,7.266,0,0,0-.138,1.038s-.138-1.817-.415-4.412c-.277-2.855-.553-6.488-.83-10.121s-.415-8.045-.553-12.716c0-2.336-.138-4.931-.138-7.266V43.861l-.138-.26a2.9,2.9,0,0,1-.277-1.038l-.138.26c-.553.779-.968,1.557-1.521,1.817a4.11,4.11,0,0,1-1.659.519H70.94a28.572,28.572,0,0,1,.553,3.374c.415,2.6.968,5.45,1.383,8.045s.83,5.45,1.245,7.786c.415,2.6.691,4.931,1.106,7.266.277,2.336.553,4.412.83,6.488.553,4.412.83,9.083,1.106,12.2s.277,5.19.277,5.19a9.015,9.015,0,0,1-.415-1.038c-.277-.779-.553-1.817-.968-3.114-.83-2.6-1.936-6.747-3.042-11.159s-2.351-8.564-3.6-13.235c-.277-1.3-.553-2.336-.83-3.633l-.83-3.893c-.138-.519-.138-.779-.277-1.3l-.415-.779L66.1,55.539a11.59,11.59,0,0,1-.968-1.817c-.277-.779-.553-1.3-.83-2.076a11.99,11.99,0,0,1-.691-2.6c-.277-1.038-.415-2.336-.553-3.114h0a10.635,10.635,0,0,1-.277,1.3c-.553,2.6-1.245,5.19-1.936,7.526s-1.383,4.412-2.074,6.488c-.415,1.3-.968,2.6-1.383,3.633.138,1.3.415,2.336.553,3.633.277,2.076.553,4.152.83,6.488.553,4.671.83,9.862,1.106,13.495s.277,5.969.277,5.969-.138-.519-.415-1.3-.553-2.076-.968-3.374c-.83-3.114-1.936-7.526-3.042-12.2-.553-1.817-.968-4.152-1.521-5.709-.415.779-.83,1.817-1.106,2.336C52.271,76.3,51.58,77.6,51.58,77.6s.415-1.817.968-4.152a30.916,30.916,0,0,1,.968-3.374,58.05,58.05,0,0,1-1.521-5.709c-.277-1.038-.553-2.076-.83-3.374-.138.519-.138,1.038-.277,1.557-.277,1.557-.553,0-1.106-3.114a.911.911,0,0,1,.691.519,3.572,3.572,0,0,1,.691,1.038v-.26c-.277-1.3-.553-2.336-.83-3.633l-.83-3.893h0l-.415,3.114.415,1.557a6.148,6.148,0,0,1,.277,1.557h-.553c-.138,0-.277.26-.415.26.277,1.817.415,3.114.415,3.114a4.015,4.015,0,0,1-.277-.779,6.432,6.432,0,0,1-.553-1.3c-.553,3.633-1.245,6.747-1.8,10.121-.691,3.893-1.383,8.045-1.936,11.159-.277,1.557-.553,2.855-.691,3.633s-.277,1.3-.277,1.3a13.287,13.287,0,0,0-.138-1.557c0-1.038-.138-2.336-.138-4.152-.138-3.374-.277-8.3-.277-11.938s.138-7.526.277-11.938c0-.779.138-1.817.138-2.6l-.138-.26c-.138-.519-.415-.779-.553-1.3h0c-.553,1.817-1.245,3.633-1.8,5.45-.691,1.817-1.383,3.633-2.074,5.19-1.383,3.114-2.627,5.45-3.457,7.785-.83,2.076-1.521,3.633-1.521,3.633s.415-1.817.968-4.412c.277-1.3.691-2.6,1.106-3.893s.968-3.114,1.383-4.671c.553-1.817.968-3.633,1.521-5.709l1.659-6.228c0-.259.138-.519.138-.779-.277-.519-.415-1.3-.691-1.817a21.057,21.057,0,0,1-.691-3.374c-.138-1.3-.138-2.6-.277-3.374l.969-1.3a1.059,1.059,0,0,0-.83.259c-.138,0-.138,0-.277.26H38.72c-.138,0-.277.26-.415.26-.138.26-.277.26-.415.519h0l-1.245,1.557c-.138.26-.277.26-.415.519,0,1.557.138,3.374.138,4.412.138,1.557.277,2.336.277,3.114v1.038s-.138,0-.277-.26a2.276,2.276,0,0,0-.83-.779,24.886,24.886,0,0,1-2.351-3.114l-.138-.26-.415,3.893c-.138.519-.138,1.3-.277,1.817l.415,1.557c.138.519.138.779.277,1.3-.138,0-.138,0-.277.26a3.616,3.616,0,0,0-.83,1.038c.277,2.076.553,3.374.553,3.374l-.277-.519a6.435,6.435,0,0,1-.553-1.3c-.553,3.633-1.245,6.747-1.8,10.121-.691,3.633-1.383,8.3-1.936,11.419-.277,1.557-.553,2.855-.691,3.893-.138.779-.277,1.3-.277,1.3a13.285,13.285,0,0,0-.138-1.557c0-1.038-.138-2.6-.138-4.412-.138-3.633-.277-8.564-.277-11.938,0-3.633.138-7.526.277-11.678,0-1.038.138-2.076.138-3.114v-.26h0a3.722,3.722,0,0,0-.553-1.038l-.553-1.038a12.778,12.778,0,0,1-1.106-1.817,9.4,9.4,0,0,1-.968-2.336c-.277-.779-.415-1.817-.691-2.855a12.422,12.422,0,0,0,.277-2.855c.277-2.336.415-4.412.691-6.228,0-.259.138-.519.138-.779-.277-1.817-.553-3.633-.691-5.19,0-.519-.138-1.038-.138-1.3-1.245,0-2.351-.26-3.457-.26v.26c.277,1.3.415,2.855.691,4.412s.415,3.114.691,4.671c.138,1.038.415,2.336.553,3.374a6,6,0,0,0-1.245,1.3,14.585,14.585,0,0,0-1.245,2.076c-.138.259-.277.519-.415.519,0,1.3.138,2.6.138,3.374.138,1.557.277,2.336.277,2.855q0,.389,0,.779v.259s-.138,0-.277-.259a4.557,4.557,0,0,0-.83-.779,20.052,20.052,0,0,1-2.489-2.855c-.83-1.3-1.521-4.412-1.936-6.747,0-.519.138-.779.138-1.3a36.52,36.52,0,0,1,.83-4.412c.277-1.3.553-2.336.83-3.374-.277-.779-.415-1.817-.691-2.6-.138-.779-.415-1.3-.553-2.076h-.277a48.853,48.853,0,0,0-5.946-.26ZM190,36.594h0l-.415,2.336a.743.743,0,0,1-.138.519v.519c.138-.779.138-1.3.277-2.076A7.068,7.068,0,0,1,190,36.594ZM27.657,28.03l.415-1.557H27.38a4.153,4.153,0,0,1,.138,1.3C27.657,27.77,27.657,28.03,27.657,28.03ZM52,30.365l-.415-.779-.138-.26v.519c.138.519.138.778.277,1.3A1.768,1.768,0,0,0,52,30.365Zm-6.776-2.855H44.8a10.32,10.32,0,0,1,.138,1.038h0C45.081,28.289,45.081,27.77,45.219,27.511Zm23.094,1.038Zm45.634,23.1a2.978,2.978,0,0,1,.691-1.3c0-.26-.138-.519-.138-.779a10.317,10.317,0,0,1-.138-1.038c-.138-.519-.138-1.3-.277-1.817v-.26c0-.259-.138-.259-.138-.519a2.692,2.692,0,0,1-.138-1.038c0-.519-.138-.779-.138-1.3a5.939,5.939,0,0,0-.138-1.557v-.779a3.615,3.615,0,0,1-.83,1.038h0c.277,1.557.415,3.374.691,4.931A38.844,38.844,0,0,0,113.947,51.646Zm38.582-3.114c.277.519.415,1.038.691,1.557a12.254,12.254,0,0,0,.83,1.817c0,.259.138.259.138.519-.277-1.557-.691-3.114-.83-4.671a13.454,13.454,0,0,1-.277-2.336l-.415,2.336A1.555,1.555,0,0,1,152.528,48.532Zm51.3-3.114c.138-.26.138-.519.277-.779,0,0,0-.26.138-.26v-.26c.138-1.3.277-2.6.415-3.633.138-1.3.415-2.6.553-3.633h0c-.277,1.3-.553,2.6-.83,4.152-.138,1.038-.415,2.076-.553,3.114Zm10.51-11.938Zm-195.4,5.45v0Zm17.424.779v0Zm5.117-6.228v-.519c-.277-1.817-.553-3.374-.691-4.671,0-.26-.138-.779-.138-1.038h-.415a2.693,2.693,0,0,0,.138,1.038,36.62,36.62,0,0,1,.138,3.893c0,1.3.138,2.855.138,4.152v4.152h0a1.556,1.556,0,0,1,.138-.779C41.071,37.372,41.209,35.3,41.485,33.48ZM61.26,40.227h0a2.276,2.276,0,0,0-.83-.779,4.857,4.857,0,0,0-1.245-.779c-.415,1.038-.83,2.336-1.245,3.114a3.48,3.48,0,0,1-1.521,1.557,3.715,3.715,0,0,1-1.659.259h-.553c.138.779.277,1.557.415,2.076.415,2.336.968,4.931,1.383,7.526.277,2.076.691,3.893.968,5.969.138-.26.138-.779.277-1.038.553-2.076,1.106-4.412,1.659-6.747.277-1.038.553-2.336.83-3.633s.553-2.6.83-3.633C60.845,42.563,61.122,41.265,61.26,40.227Zm.691-3.893c.415-2.6.83-5.19,1.106-7.267,0-.26.138-.519.138-.778H61.675c0,.519-.138,1.038-.138,1.557-.138.519-.138,1.038-.277,1.557a29.989,29.989,0,0,1-.83,3.374l-.415,1.557a15.082,15.082,0,0,1,.968,2.6,2.9,2.9,0,0,1,.277,1.038C61.537,38.67,61.813,37.372,61.952,36.334Zm41.9-6.228h-2.766c-.138.259-.277.778-.415,1.038a4.232,4.232,0,0,0-.415,1.038,18.032,18.032,0,0,0,.138,2.6V35.3l1.245,3.114a39.984,39.984,0,0,0,.968-3.893c.138-.779.415-1.3.553-2.076s.277-1.3.415-1.817C103.714,30.365,103.852,30.365,103.852,30.106Zm37.06,18.685h0V46.974c0-.778-.138-1.557-.138-2.076V42.822c0-1.3-.138-2.6-.138-3.893,0-2.336-.138-4.152,0-5.709V31.4h-.277a6.336,6.336,0,0,1-1.383,1.3c.138.519.138,1.038.277,1.557l.415,3.114a45.667,45.667,0,0,1,.415,5.709v3.374a5.541,5.541,0,0,1-.138,1.3,7.763,7.763,0,0,1-.83-1.038,25.391,25.391,0,0,1-1.659-2.855,6.432,6.432,0,0,1-.553-1.3,8.049,8.049,0,0,0,.138,1.817c0,1.3.138,2.336.138,3.374v2.855a19.74,19.74,0,0,1-.138,2.855c-.138,1.817-.277,3.633-.415,5.709v2.336c.277-1.038.415-2.336.691-3.114a19.8,19.8,0,0,1,1.106-3.374l1.245-3.114Zm14.243,10.381c-.415-.779-.968-1.557-1.383-2.336-.691-1.3-1.383-2.336-2.074-3.633v.259h0a2.693,2.693,0,0,1,.138,1.038c.138,1.3.415,2.336.553,3.633s.415,2.6.553,3.633c.138,1.557.277,3.114.415,4.412a10.315,10.315,0,0,0,.138-1.038c.277-1.3.553-2.6.83-4.152A3.58,3.58,0,0,0,155.156,59.172Zm2.9-11.938c.138.519.138,1.038.277,1.817v-.779c0-.779-.138-1.557-.138-2.076V44.12c0-1.3-.138-2.6-.138-3.893,0-2.336-.138-4.152,0-5.709V32.182c-.415.519-.968,1.038-1.383,1.557,0,.519.138,1.3.138,1.817.138,1.038.138,2.076.277,2.855a23.681,23.681,0,0,1,.277,3.114c.138,1.038.138,2.076.277,3.114C157.783,45.417,157.921,46.455,158.06,47.234Zm18.53,8.824c0-.26.138-.26.138-.519V46.975a1.555,1.555,0,0,0-.138-.779c-.138-.779-.138-2.076-.277-3.374V35.556a16.327,16.327,0,0,1,.138-2.6v-.519h-2.766c.138,1.038.138,1.817.277,2.855s.138,2.076.277,2.855a23.681,23.681,0,0,1,.277,3.114c.138,1.038.138,2.076.277,3.114l.415,3.114c.277,2.076.553,3.893.83,5.709A20.778,20.778,0,0,1,176.59,56.058ZM194.014,38.41c0,1.557.138,3.114.277,4.931a10.484,10.484,0,0,0,.138,2.076c.138-3.114.138-5.45.277-7.526,0-1.038.138-1.817.138-2.6s.138-1.557.138-2.076h-.968v1.038c0,.779.138,1.3.138,2.076A4.94,4.94,0,0,0,194.014,38.41ZM231.9,61.248c-.415-1.3-.968-2.855-1.521-4.412-.277-1.038-.691-2.336-.968-3.633,0,.259-.138.519-.138.779.415,2.336.691,4.671,1.106,7.007.415,3.374.968,7.007,1.383,10.381C232.18,74.224,232.042,62.286,231.9,61.248Z" transform="translate(0 0)" fill="#275072"/>
        </g>
        <g id="Group_175176-2" data-name="Group 175176" transform="translate(0 0)">
          <path id="Path_65622-4" data-name="Path 65622" d="M.1.415c.138,0,.138,0,.277.138A.428.428,0,0,0,.657.691L.38.138.242,0h0c.277,0,.553.138.83.138H1.21c0,.277-.138.415-.138.691C.8,1.659.657,2.213.38,2.351l-.138.138A.606.606,0,0,1,.1,2.074h0V1.936A2.791,2.791,0,0,1,.1.415Z" transform="translate(209.281 39.002)" fill="#275072"/>
          <path id="Path_65623-4" data-name="Path 65623" d="M0,1.435A1.378,1.378,0,0,1,.138.882,1.483,1.483,0,0,1,.415.052Q.622-.156.83.467A3.081,3.081,0,0,0,0,1.435Z" transform="translate(196.525 55.926)" fill="#275072"/>
          <path id="Path_65624-4" data-name="Path 65624" d="M.277.061c.138-.138.138,0,.138,0C.415.2.553.338.553.476a1.5,1.5,0,0,0,.138.691V2.412c0,.138,0,.277-.138.138a.483.483,0,0,1-.138-.277A9.412,9.412,0,0,1,0,.615V.476A1.989,1.989,0,0,0,.277.061Z" transform="translate(218.235 38.65)" fill="#275072"/>
          <path id="Path_65625-4" data-name="Path 65625" d="M.415,1.717A9.532,9.532,0,0,0,0,.61,3.025,3.025,0,0,1,.691.2,1.469,1.469,0,0,1,1.8.057C.968,1.717.691,2.685.415,1.717Z" transform="translate(197.354 55.885)" fill="#275072"/>
          <path id="Path_65626-4" data-name="Path 65626" d="M232.2,24.656,223.9,7.009a53.258,53.258,0,0,1-5.946-.519c-4.7-.259-10.51-.779-17.424-1.038l-5.808-.259c-8.989-.519-19.083-1.038-30.423-1.557L142.04,2.6,90.46.781,61.7,0C38.88-.517-1.084,101.214.022,98.619a36.97,36.97,0,0,0,1.521-3.893A14.725,14.725,0,0,0,2.65,96.8a11.388,11.388,0,0,0,1.521,2.076,16.194,16.194,0,0,1-.968-2.6c-.277-.779-.553-2.076-.968-3.633C2.788,90.574,3.341,88.5,3.894,85.9c.277-1.557.553-2.855.83-4.412s.553-3.114.83-4.931.553-3.633.83-5.709v.26c.138,1.557.277,3.374.415,4.931a32.118,32.118,0,0,1,.277,3.633c-.415,3.374-.691,5.45-.691,5.45a4.015,4.015,0,0,0,.277-.779c.138-.519.415-1.038.553-1.557.277,2.855.553,5.45.968,7.785C7.766,95.5,7.766,97.84,8.043,98.1a3.2,3.2,0,0,1,.553,2.076c0,.519,0,1.3,0,2.076v1.038a24.588,24.588,0,0,1,1.245-2.855l.415-.779a10.876,10.876,0,0,0,.691,1.557c.277.519.553.779.691,1.038s.277.259.277.259v-.259c0-.26.138-.779.138-1.3a44.893,44.893,0,0,0,.138-5.19c.277-1.3.553-3.114.968-5.19.277-1.3.415-2.855.691-4.152a14.1,14.1,0,0,0,.277-2.076c.138-.779.138-1.557.277-2.076a1.555,1.555,0,0,1,.138-.779c.691,2.6,1.245,4.931,1.936,7.007,1.383,4.412,2.489,7.266,3.457,8.564a6.6,6.6,0,0,0,1.521,2.076,16.189,16.189,0,0,1-.968-2.6c-.277-1.038-.691-2.336-1.106-3.893-.415-1.817-.83-3.893-1.383-6.228s-.968-5.19-1.521-8.3c-.277-1.557-.553-3.374-.83-4.931a2.691,2.691,0,0,1,.138-1.038c.691,2.855,1.245,5.709,1.8,8.045.968,3.893,1.936,6.747,2.627,8.824.277,1.038.691,1.557.83,2.076a4.017,4.017,0,0,0,.277.779s-.138-1.3-.277-3.893-.553-6.228-.968-10.9-1.106-10.121-1.8-15.83c0-.26-.138-.779-.138-1.038.277-.779.691-1.817.968-2.855s.691-2.336.968-3.633V65.4c0,3.374.138,6.747.277,9.6s.415,5.19.553,6.747a13.791,13.791,0,0,0,.277,1.817,1.784,1.784,0,0,0,.138.779l.277-.519c.138-.519.277-1.038.553-1.817.415-1.557.968-3.893,1.521-6.488.138-.519.138-1.038.277-1.557,0,.779.138,1.817.138,2.6.138,1.3.138,2.6.277,3.633-.415,3.633-.691,5.45-.691,5.45a4.014,4.014,0,0,0,.277-.779c.138-.519.415-1.038.553-1.557.277,2.855.553,5.709.968,8.045-.415,4.931-.415,7.007,0,7.007s.691.259.691,1.3v2.855a14.22,14.22,0,0,1,1.245-2.6,7.83,7.83,0,0,0,.968,2.076c.277.519.553.779.691,1.038s.277.26.277.26l.138-.26a10.312,10.312,0,0,0,.138-1.038,44.893,44.893,0,0,0,.138-5.19c.277-1.038.553-3.114.968-5.19.277-1.3.415-2.855.691-4.152a14.106,14.106,0,0,0,.277-2.076c.138-.779.138-1.557.277-2.076l.415-3.114v2.855c0,2.076.138,3.893.138,5.709.138,1.817.138,3.374.277,4.931.415,5.969.83,8.564,1.521,10.121a5.514,5.514,0,0,0,1.659,2.6,2.708,2.708,0,0,1,.553.779c.138.26.277.26.277.26l.138-.26a1.768,1.768,0,0,1,.277-.779,10,10,0,0,0,.553-2.6c.138-1.557.277-4.412.277-10.64v-2.6a6.432,6.432,0,0,0,.553,1.3,4.018,4.018,0,0,0,.277.779s-.138-1.3-.277-3.893q-.207-1.946-.415-5.45V78.636c.138,1.557.277,2.855.415,4.152A13.8,13.8,0,0,0,38.88,84.6a1.784,1.784,0,0,0,.138.779l.277-.519c.138-.519.277-1.038.553-1.817.415-1.557.968-3.893,1.521-6.488.277-1.3.415-2.336.691-3.893h0c0,6.488,0,13.235.138,18.685.138,2.855.138,5.45.138,7.266.138,1.557.138,2.6.277,3.633v.26h0v.519a20.144,20.144,0,0,0,.415,2.336c.138.519.415,1.038.553,1.557.138.26.138.519.277.779s.277.779.415,1.038c.277.779.415,2.076.691,3.374.553,2.855.968,7.526,1.383,10.381s.83,4.931,1.245,6.747.83,3.633,1.245,5.19.83,3.374,1.245,4.931c.83,2.855,1.383,5.19,1.383,5.19A13.285,13.285,0,0,0,51.326,143c0-1.038-.138-2.336-.138-3.893-.138-3.114-.277-6.488-.415-10.381s-.415-12.2-.968-17.128a30.593,30.593,0,0,0-.83-4.931,28.468,28.468,0,0,1-.83-4.152c-.138-1.038-.277-2.6-.415-4.412-.138-2.076-.277-4.671-.277-7.266,0-1.3-.138-2.855-.138-4.412.415-2.6.83-5.709,1.245-8.824.415-3.374.83-7.007,1.106-10.64A2.692,2.692,0,0,1,49.8,65.92V77.338c0,2.076.138,4.152.138,6.228s.138,3.893.138,5.709c.138,1.817.138,3.374.277,4.931.415,5.969.83,8.564,1.383,10.121a6.783,6.783,0,0,0,1.659,2.855,2.707,2.707,0,0,1,.553.779c.138.259.277.259.277.259l.138-.259a1.768,1.768,0,0,1,.277-.779,23.7,23.7,0,0,0,.553-3.114c.138-1.817.277-4.412.277-10.64V83.047c0-2.6,0-5.45,0-8.3a13.542,13.542,0,0,0,.691-1.817L57,70.591c.277-.779.553-1.817.83-2.6s.415-1.557.691-2.336a3.723,3.723,0,0,0,.553-1.038l.415-.779c0,2.855,0,5.969-.138,9.083,0,6.488,0,12.976.138,18.426.138,2.855.138,5.45.138,7.007.138,1.3.138,2.6.277,3.633v.26h0v.519c.138,1.038.277,2.076.415,2.6.138.779.415,1.3.553,2.076.138.26.138.779.277,1.038.138.519.277.779.415,1.3.277,1.038.415,2.076.691,3.633.553,2.855.968,7.266,1.383,10.121s.83,5.19,1.245,7.007c.415,2.076.83,3.893,1.245,5.709s.83,3.633,1.245,4.931l1.383,5.19a13.286,13.286,0,0,0-.138-1.557c0-1.038-.138-2.336-.138-3.893q-.207-4.671-.415-10.9c-.138-4.152-.553-12.2-.968-17.388-.277-2.6-.553-4.412-.83-5.969s-.553-3.114-.83-5.45c-.138-1.3-.277-2.6-.415-4.412s-.277-4.412-.277-7.266c0-1.3-.138-2.855-.138-4.152.415-2.6.83-5.45,1.245-8.824.138-1.557.415-3.374.553-4.931,0,.259.138.259.138.259V70.072l.415-3.893c0-.519.138-1.038.138-1.817a5.6,5.6,0,0,0,.277-1.038c-.138,1.557-.138,2.855-.277,4.412s-.138,3.374-.277,4.931-.138,3.374-.138,4.931c-.138,3.114-.277,6.228-.277,8.824s-.138,4.931-.138,7.007c0,3.893,0,5.709.138,7.007,0,.519.138,1.038.138,1.3v.519a11.035,11.035,0,0,0,.968-1.557,20.5,20.5,0,0,0,1.936-6.228c.415-1.817.691-4.152,1.106-6.488.415-2.6.691-5.45,1.106-8.3L72.069,75a3.438,3.438,0,0,1,.138-1.038c.415-1.038.83-2.076,1.245-3.374l.83-2.336c.138-.26.138-.519.277-.779l.83,1.557a18.358,18.358,0,0,0,3.042,4.412,8.674,8.674,0,0,0,.968,1.038c.277.259.415.26.415.26a15.064,15.064,0,0,0-.277-2.336l-.415-2.336.277-.519c.553-1.3,1.383-3.114,2.213-5.19V66.7c0,1.3.138,2.6.138,3.633.138,4.931.277,9.862.553,14.273q.207,3.5.415,6.228A36.986,36.986,0,0,0,83.27,95.5c0,.26.138.519.138.779,0,.519-.138.779-.138,1.3-.277,1.817-.553,3.374-.691,4.671-.415,2.6-.83,4.412-1.106,5.709a11.4,11.4,0,0,0-.277,1.817,3.423,3.423,0,0,0-.138.779,2.25,2.25,0,0,1,.415-.519,6.873,6.873,0,0,0,.968-1.557,16.572,16.572,0,0,0,1.383-2.336,24.531,24.531,0,0,0,1.245-2.6c.138.259.138.779.277,1.038.277.779.415,1.557.691,2.6.277.779.415,1.557.691,2.6h0c.138.779.415,1.557.415,1.817a3.424,3.424,0,0,1,.138.779v-.26h0c.553,1.817.968,3.633,1.383,5.45s.83,3.633,1.245,4.931c.691,2.6,1.106,3.893,1.106,3.893v-4.152c0-1.3-.138-3.374-.138-5.19-.138-1.817-.138-3.633-.277-5.45,0-.519-.138-1.038-.138-1.3a4.154,4.154,0,0,0-.138-1.3,16.536,16.536,0,0,0-.277-2.6c-.138-1.817-.415-3.633-.553-5.709-.138-1.038-.138-2.076-.277-3.374a1.555,1.555,0,0,0-.138-.779c0-1.3.138-2.6.138-3.893s.138-2.855.138-4.412,0-3.374.138-5.19V80.971c.277-3.893.691-8.3.968-12.976.138-2.336.277-4.412.415-6.747h0c.83,1.557,1.521,3.114,2.213,4.152a32.747,32.747,0,0,0,2.9,4.152h0c.138,3.374.138,5.969.277,7.785.138,2.336.277,3.374.277,3.374a1.784,1.784,0,0,0,.138-.779c.138-.519.277-1.3.553-2.336.415-2.076.968-5.19,1.383-9.343l.415-3.893c0,1.038.138,2.076.138,3.114.138,4.671.277,9.343.553,13.754.138,2.076.277,4.152.415,5.969a36.983,36.983,0,0,0,.553,4.671c0,.26.138.519.138.779,0,.519-.138,1.038-.138,1.557-.277,2.076-.553,4.152-.691,5.709-.415,3.374-.83,6.228-1.106,8.045a23.489,23.489,0,0,0-.277,2.336,3.423,3.423,0,0,0-.138.779l.415-.779a18.064,18.064,0,0,0,.968-2.076c.415-.779.83-1.817,1.383-3.114.415-1.038.83-2.336,1.245-3.633.138.519.138,1.038.277,1.557.277,1.038.415,2.336.691,3.374s.415,2.336.691,3.374h0c.138,1.038.415,1.817.415,2.336a3.423,3.423,0,0,1,.138.779v-.26h0c.553,2.076.968,4.152,1.383,6.228.415,1.817.83,3.893,1.245,5.19.691,2.6,1.106,3.893,1.106,3.893v-4.152c0-1.557-.138-3.374-.138-5.45-.138-2.076-.138-4.152-.277-6.488,0-.519-.138-1.038-.138-1.817a8.051,8.051,0,0,0-.138-1.817,32.121,32.121,0,0,0-.277-3.633c-.138-2.336-.415-4.931-.553-7.526-.138-1.3-.138-2.6-.277-4.152a1.556,1.556,0,0,0-.138-.779c0-1.3.138-2.855.138-4.412,0-1.3.138-2.855.138-4.412V76.3c.277-3.893.691-8.045.968-12.2l.415-6.228c.138-2.076.138-4.152.277-6.228a9.252,9.252,0,0,1,.138-2.076,3.434,3.434,0,0,1,.83.519l-.138-.26-.277-.519a1.767,1.767,0,0,1-.277-.779c0-.26-.138-.26-.138-.519v-12.2c0-1.3-.138-2.6-.138-3.374a5.939,5.939,0,0,0-.138-1.557h.691a11.865,11.865,0,0,1-.138,2.076v4.671c0,.778.138,1.817.138,2.6a16.536,16.536,0,0,0,.277,2.6,6.378,6.378,0,0,0,.277,1.817V46.2a4.627,4.627,0,0,0,.138,1.038s.138,0,.277-.26a7.007,7.007,0,0,0,.553,1.557,22.164,22.164,0,0,0,1.245,2.6,17.833,17.833,0,0,0,1.106,2.336c.138,1.038.138,2.076.277,3.114l.691,5.19a9.927,9.927,0,0,0,.415,1.817l.277-.519c.138-.259.277-.779.553-1.3a5.6,5.6,0,0,0,.277-1.038,25.619,25.619,0,0,0,1.521,3.633c-.415,3.633-.83,7.526-1.245,10.9-.415,3.633-.83,7.007-1.106,9.862s-.691,5.45-.968,7.785-.553,4.671-.691,6.747c-.415,4.152-.691,7.526-.83,9.862s-.138,3.893-.138,3.893l.415-.779c.277-.519.553-1.3.968-2.336.691-2.076,1.8-5.19,2.9-9.083s2.213-8.824,3.319-14.533c.277-1.3.553-2.855.83-4.412s.553-3.114.83-4.931c.553-3.374.968-7.007,1.383-10.9s.83-7.785,1.245-11.419c.277-2.6.553-5.45.691-8.045a3.731,3.731,0,0,0,1.383.519,2.515,2.515,0,0,0,.968.26h-.138s-.138-.26-.277-.26c-.138-.26-.277-.26-.277-.519l-.138-.26h.277a2.25,2.25,0,0,0-.415-.519,8.108,8.108,0,0,1-.83-1.557c-.138-.26-.138-.519-.277-.779.138-1.557.277-3.114.277-4.412.138-1.557.138-3.114.277-4.412,0-1.3.138-2.336.138-3.374V30.106h1.106v.519a11.863,11.863,0,0,1-.138,2.076v4.671c0,.779.138,1.817.138,2.6a16.537,16.537,0,0,0,.277,2.6,11.4,11.4,0,0,1,.277,1.817,6.486,6.486,0,0,0,.968,2.336,12.275,12.275,0,0,0,1.245,1.557,9.2,9.2,0,0,1,1.383,2.336,17.211,17.211,0,0,1,.83,2.076,23.459,23.459,0,0,0,.83,2.336c.415,1.3.83,2.336,1.245,3.374,0,1.038.138,2.336.138,3.374s.138,2.076.138,3.114c-.277,2.336-.553,4.412-.83,6.488-.415,3.374-.83,6.488-1.106,9.6-.277,2.855-.691,5.969-.968,8.824s-.553,5.709-.691,8.3c-.415,5.19-.691,9.6-.83,12.457-.138,3.114-.138,4.671-.138,4.671a4.039,4.039,0,0,0,.277-1.038,24.5,24.5,0,0,0,.968-2.855c.691-2.6,1.8-6.488,2.9-11.419.968-4.152,1.8-9.083,2.766-14.273.138.519.138,1.038.277,1.557a21.266,21.266,0,0,0,.553,2.6,4.574,4.574,0,0,1,.138,1.038s.138-1.557.415-3.893.553-5.709.691-9.343c.138-2.076.277-4.152.277-6.488.415-2.6.691-5.19,1.106-8.045.415-3.633.83-7.266,1.245-10.64.277-2.6.553-4.931.691-7.526h1.8s-.138,0-.415-.26a4.541,4.541,0,0,1-1.245-1.557h0a2.692,2.692,0,0,1,.138-1.038c0-.519.138-1.3.138-1.817a8.5,8.5,0,0,0,.277,2.076,11.187,11.187,0,0,0,.553,2.076l.277.519h.138c.138,0,.277-.26.415-.26a4.729,4.729,0,0,0,1.245-1.817l.138-.26c-.138.779-.138,1.817-.277,2.6a32.653,32.653,0,0,0-.277,3.374c-.138.779-.138,1.557-.277,2.076v.779s.277-.519.83-1.817a11.864,11.864,0,0,0,.138,2.076V54.5c0,.26-.138.26-.138.519a9.869,9.869,0,0,1-.553,2.336,30.7,30.7,0,0,1-1.106,4.152c-.138.779-.277,1.3-.415,2.076,0,.26-.138.779-.138,1.038s-.138.779-.138,1.038a37.666,37.666,0,0,0-.553,3.893,30.172,30.172,0,0,0-.138,3.114v1.3s.415,0,1.106-1.3c.277-.519.691-1.817,1.245-3.114.415-1.3.968-2.855,1.521-4.152h0v.26l.277-.519a5.015,5.015,0,0,0,.553-1.557h0a13.979,13.979,0,0,1,.968-2.076c.277-.779.691-1.3.968-2.076s.691-1.3.968-2.076l.83-2.336c.138-.519.415-1.3.553-2.076a19.738,19.738,0,0,0,.138,2.855c0,1.3.138,2.6.138,3.893a28.039,28.039,0,0,0,.277,3.633c.277,4.671.691,9.083,1.245,12.457.415,3.374.968,7.007,1.383,9.6.138,1.3.415,2.336.553,3.114a7.266,7.266,0,0,1,.138,1.038s.138-1.817.415-4.412c.277-2.855.553-6.488.83-10.121s.415-8.045.553-12.716c0-2.336.138-4.931.138-7.266V43.861l.138-.26a2.9,2.9,0,0,0,.277-1.038l.138.26c.553.779.968,1.557,1.521,1.817a4.11,4.11,0,0,0,1.659.519h.691a28.569,28.569,0,0,0-.553,3.374c-.415,2.6-.968,5.45-1.383,8.045s-.83,5.45-1.245,7.785c-.415,2.6-.691,4.931-1.106,7.266-.277,2.336-.553,4.412-.83,6.488-.553,4.412-.83,9.083-1.106,12.2s-.277,5.19-.277,5.19a9.013,9.013,0,0,0,.415-1.038c.277-.779.553-1.817.968-3.114.83-2.6,1.936-6.747,3.042-11.159s2.351-8.564,3.6-13.235c.277-1.3.553-2.336.83-3.633l.83-3.893c.138-.519.138-.779.277-1.3l.415-.779.968-1.817a11.586,11.586,0,0,0,.968-1.817c.277-.779.553-1.3.83-2.076a11.991,11.991,0,0,0,.691-2.6c.277-1.038.415-2.336.553-3.114h0a10.63,10.63,0,0,0,.277,1.3c.553,2.6,1.245,5.19,1.936,7.526s1.383,4.412,2.074,6.488c.415,1.3.968,2.6,1.383,3.633-.138,1.3-.415,2.336-.553,3.633-.277,2.076-.553,4.152-.83,6.488-.553,4.671-.83,9.862-1.106,13.495s-.277,5.969-.277,5.969.138-.519.415-1.3.553-2.076.968-3.374c.83-3.114,1.936-7.526,3.042-12.2.553-1.817.968-4.152,1.521-5.709.415.779.83,1.817,1.106,2.336.83,2.076,1.521,3.374,1.521,3.374s-.415-1.817-.968-4.152a30.92,30.92,0,0,0-.968-3.374,58.052,58.052,0,0,0,1.521-5.709c.277-1.038.553-2.076.83-3.374.138.519.138,1.038.277,1.557.277,1.557.553,0,1.106-3.114a.911.911,0,0,0-.691.519,3.572,3.572,0,0,0-.691,1.038v-.26c.277-1.3.553-2.336.83-3.633l.83-3.893h0l.415,3.114-.415,1.557a6.148,6.148,0,0,0-.277,1.557h.553c.138,0,.277.26.415.26-.277,1.817-.415,3.114-.415,3.114a4.015,4.015,0,0,0,.277-.779,6.431,6.431,0,0,0,.553-1.3c.553,3.633,1.245,6.747,1.8,10.121.691,3.893,1.383,8.045,1.936,11.159.277,1.557.553,2.855.691,3.633s.277,1.3.277,1.3a13.287,13.287,0,0,1,.138-1.557c0-1.038.138-2.336.138-4.152.138-3.374.277-8.3.277-11.938s-.138-7.526-.277-11.938c0-.779-.138-1.817-.138-2.6l.138-.26c.138-.519.415-.779.553-1.3h0c.553,1.817,1.245,3.633,1.8,5.45.691,1.817,1.383,3.633,2.074,5.19,1.383,3.114,2.627,5.45,3.457,7.785.83,2.076,1.521,3.633,1.521,3.633s-.415-1.817-.968-4.412c-.277-1.3-.691-2.6-1.106-3.893s-.968-3.114-1.383-4.671c-.553-1.817-.968-3.633-1.521-5.709l-1.659-6.228c0-.259-.138-.519-.138-.778.277-.519.415-1.3.691-1.817a21.06,21.06,0,0,0,.691-3.374c.138-1.3.138-2.6.277-3.374l-.969-1.3a1.06,1.06,0,0,1,.83.259c.138,0,.138,0,.277.26h.277c.138,0,.277.26.415.26.138.26.277.26.415.519h0l1.245,1.557c.138.26.277.26.415.519,0,1.557-.138,3.374-.138,4.412-.138,1.557-.277,2.336-.277,3.114v1.038s.138,0,.277-.26a2.276,2.276,0,0,1,.83-.779,24.893,24.893,0,0,0,2.351-3.114l.138-.26.415,3.893c.138.519.138,1.3.277,1.817l-.415,1.557c-.138.519-.138.779-.277,1.3.138,0,.138,0,.277.26a3.616,3.616,0,0,1,.83,1.038c-.277,2.076-.553,3.374-.553,3.374l.277-.519a6.431,6.431,0,0,0,.553-1.3c.553,3.633,1.245,6.747,1.8,10.121.691,3.633,1.383,8.3,1.936,11.419.277,1.557.553,2.855.691,3.893.138.779.277,1.3.277,1.3a13.285,13.285,0,0,1,.138-1.557c0-1.038.138-2.6.138-4.412.138-3.633.277-8.564.277-11.938,0-3.633-.138-7.526-.277-11.678,0-1.038-.138-2.076-.138-3.114v-.259h0a3.72,3.72,0,0,1,.553-1.038l.553-1.038a12.783,12.783,0,0,0,1.106-1.817,9.4,9.4,0,0,0,.968-2.336c.277-.779.415-1.817.691-2.855a12.422,12.422,0,0,1-.277-2.855c-.277-2.336-.415-4.412-.691-6.228,0-.259-.138-.519-.138-.778.277-1.817.553-3.633.691-5.19,0-.519.138-1.038.138-1.3,1.245,0,2.351-.26,3.457-.26v.26c-.277,1.3-.415,2.855-.691,4.412s-.415,3.114-.691,4.671c-.138,1.038-.415,2.336-.553,3.374a6,6,0,0,1,1.245,1.3,14.584,14.584,0,0,1,1.245,2.076c.138.259.277.519.415.519,0,1.3-.138,2.6-.138,3.374-.138,1.557-.277,2.336-.277,2.855v1.038s.138,0,.277-.259a4.557,4.557,0,0,1,.83-.779,20.051,20.051,0,0,0,2.489-2.855c.83-1.3,1.521-4.412,1.936-6.747,0-.519-.138-.779-.138-1.3a36.515,36.515,0,0,0-.83-4.412c-.277-1.3-.553-2.336-.83-3.374.277-.779.415-1.817.691-2.6.138-.779.415-1.3.553-2.076h.277a48.859,48.859,0,0,1,5.946-.26ZM42.2,36.594h0l.415,2.336a.743.743,0,0,0,.138.519v.519c-.138-.779-.138-1.3-.277-2.076A7.066,7.066,0,0,0,42.2,36.594ZM204.545,28.03l-.415-1.557h.691a4.153,4.153,0,0,0-.138,1.3C204.545,27.77,204.545,28.03,204.545,28.03Zm-24.338,2.336.415-.778.138-.26v.519c-.138.519-.138.779-.277,1.3A1.768,1.768,0,0,1,180.207,30.365Zm6.776-2.855h.415a10.318,10.318,0,0,0-.138,1.038h0C187.121,28.289,187.121,27.77,186.983,27.511Zm-23.094,1.038Zm-45.634,23.1a2.978,2.978,0,0,0-.691-1.3c0-.26.138-.519.138-.779a10.315,10.315,0,0,0,.138-1.038c.138-.519.138-1.3.277-1.817v-.26c0-.26.138-.26.138-.519a2.692,2.692,0,0,0,.138-1.038c0-.519.138-.779.138-1.3a5.939,5.939,0,0,1,.138-1.557v-.779a3.617,3.617,0,0,0,.83,1.038h0c-.277,1.557-.415,3.374-.691,4.931A38.841,38.841,0,0,1,118.255,51.646ZM79.674,48.531c-.277.519-.415,1.038-.691,1.557a12.251,12.251,0,0,1-.83,1.817c0,.26-.138.26-.138.519.277-1.557.691-3.114.83-4.671a13.454,13.454,0,0,0,.277-2.336l.415,2.336A1.556,1.556,0,0,0,79.674,48.531Zm-51.3-3.114c-.138-.259-.138-.519-.277-.778,0,0,0-.26-.138-.26v-.26c-.138-1.3-.277-2.6-.415-3.633-.138-1.3-.415-2.6-.553-3.633h0c.277,1.3.553,2.6.83,4.152.138,1.038.415,2.076.553,3.114ZM17.861,33.48Zm195.4,5.45v0Zm-17.424.779v0Zm-5.117-6.228v-.519c.277-1.817.553-3.374.691-4.671,0-.26.138-.779.138-1.038h.415a2.692,2.692,0,0,1-.138,1.038,36.619,36.619,0,0,0-.138,3.893c0,1.3-.138,2.855-.138,4.152v4.152h0a1.556,1.556,0,0,0-.138-.779C191.131,37.372,190.993,35.3,190.717,33.48Zm-19.775,6.747h0a2.277,2.277,0,0,1,.83-.779,4.856,4.856,0,0,1,1.245-.779c.415,1.038.83,2.336,1.245,3.114a3.479,3.479,0,0,0,1.521,1.557,3.714,3.714,0,0,0,1.659.26h.553c-.138.779-.277,1.557-.415,2.076-.415,2.336-.968,4.931-1.383,7.526-.277,2.076-.691,3.893-.968,5.969-.138-.26-.138-.779-.277-1.038-.553-2.076-1.106-4.412-1.659-6.747-.277-1.038-.553-2.336-.83-3.633s-.553-2.6-.83-3.633C171.357,42.563,171.08,41.265,170.942,40.227Zm-.691-3.893c-.415-2.6-.83-5.19-1.106-7.267,0-.26-.138-.519-.138-.778h1.521c0,.519.138,1.038.138,1.557.138.519.138,1.038.277,1.557a29.982,29.982,0,0,0,.83,3.374l.415,1.557a15.083,15.083,0,0,0-.968,2.6,2.9,2.9,0,0,0-.277,1.038C170.665,38.67,170.389,37.372,170.25,36.334Zm-41.9-6.228h2.766c.138.259.277.779.415,1.038a4.23,4.23,0,0,1,.415,1.038,18.031,18.031,0,0,1-.138,2.6V35.3l-1.245,3.114a39.986,39.986,0,0,1-.968-3.893c-.138-.779-.415-1.3-.553-2.076s-.277-1.3-.415-1.817C128.488,30.365,128.35,30.365,128.35,30.106ZM91.29,48.791h0V46.974c0-.779.138-1.557.138-2.076V42.822c0-1.3.138-2.6.138-3.893,0-2.336.138-4.152,0-5.709V31.4h.277a6.339,6.339,0,0,0,1.383,1.3c-.138.519-.138,1.038-.277,1.557l-.415,3.114a45.669,45.669,0,0,0-.415,5.709v3.374a5.541,5.541,0,0,0,.138,1.3,7.766,7.766,0,0,0,.83-1.038,25.4,25.4,0,0,0,1.659-2.855,6.432,6.432,0,0,0,.553-1.3,8.05,8.05,0,0,1-.138,1.817c0,1.3-.138,2.336-.138,3.374v2.855a19.738,19.738,0,0,0,.138,2.855c.138,1.817.277,3.633.415,5.709v2.336c-.277-1.038-.415-2.336-.691-3.114a19.8,19.8,0,0,0-1.106-3.374l-1.245-3.114ZM77.046,59.172c.415-.779.968-1.557,1.383-2.336.691-1.3,1.383-2.336,2.074-3.633v.26h0a2.692,2.692,0,0,0-.138,1.038c-.138,1.3-.415,2.336-.553,3.633s-.415,2.6-.553,3.633c-.138,1.557-.277,3.114-.415,4.412a10.31,10.31,0,0,1-.138-1.038c-.277-1.3-.553-2.6-.83-4.152A3.58,3.58,0,0,1,77.046,59.172Zm-2.9-11.938c-.138.519-.138,1.038-.277,1.817v-.779c0-.779.138-1.557.138-2.076V44.12c0-1.3.138-2.6.138-3.893,0-2.336.138-4.152,0-5.709V32.182c.415.519.968,1.038,1.383,1.557,0,.519-.138,1.3-.138,1.817-.138,1.038-.138,2.076-.277,2.855a23.683,23.683,0,0,0-.277,3.114c-.138,1.038-.138,2.076-.277,3.114C74.419,45.417,74.281,46.455,74.142,47.234Zm-18.53,8.824c0-.26-.138-.26-.138-.519V46.974a1.555,1.555,0,0,1,.138-.779c.138-.779.138-2.076.277-3.374,0-1.3,0-3.114,0-4.671v-2.6a16.328,16.328,0,0,0-.138-2.6v-.519h2.766c-.138,1.038-.138,1.817-.277,2.855s-.138,2.076-.277,2.855a23.682,23.682,0,0,0-.277,3.114c-.138,1.038-.138,2.076-.277,3.114L57,47.493c-.277,2.076-.553,3.893-.83,5.709A20.778,20.778,0,0,0,55.612,56.057ZM38.188,38.41c0,1.557-.138,3.114-.277,4.931a10.483,10.483,0,0,1-.138,2.076c-.138-3.114-.138-5.45-.277-7.526,0-1.038-.138-1.817-.138-2.6s-.138-1.557-.138-2.076h.968v1.038c0,.779-.138,1.3-.138,2.076A4.94,4.94,0,0,1,38.188,38.41ZM.3,61.248c.415-1.3.968-2.855,1.521-4.412C2.1,55.8,2.511,54.5,2.787,53.2c0,.26.138.519.138.779-.415,2.336-.691,4.671-1.106,7.007C1.4,64.362.851,68,.437,71.369.022,74.224.16,62.286.3,61.248Z" transform="translate(0 0)" fill="#275072"/>
        </g>
      </g>
    </g>
  </g>
</svg>
