<svg xmlns="http://www.w3.org/2000/svg" width="17.016" height="17.016" viewBox="0 0 17.016 17.016">
  <path id="arena" d="M13.735,4.676V1.4a.275.275,0,0,0-.02-.1.215.215,0,0,0-.009-.022.273.273,0,0,0-.052-.077l-.01-.008a.285.285,0,0,0-.043-.035l-.027-.012-.021-.01a.287.287,0,0,0-.095-.02h0l-.01,0a.284.284,0,0,0-.086.017l-.018.006-.011,0-1.84.921a.5.5,0,0,0,0,.9l1.686.843V4.57a28.748,28.748,0,0,0-4.489-.365V.28a.277.277,0,0,0-.02-.1A.18.18,0,0,0,8.659.162.281.281,0,0,0,8.607.084L8.6.076A.279.279,0,0,0,8.554.041C8.546.036,8.536.033,8.528.029L8.506.02A.282.282,0,0,0,8.411,0h0L8.4,0a.272.272,0,0,0-.086.018L8.292.025l-.01,0L6.44.95a.5.5,0,0,0,0,.9L8.127,2.7v1.51a29.452,29.452,0,0,0-4.2.317V1.4a.277.277,0,0,0-.02-.1C3.9,1.3,3.9,1.29,3.9,1.283a.273.273,0,0,0-.052-.077L3.836,1.2a.279.279,0,0,0-.043-.035L3.765,1.15l-.021-.01a.286.286,0,0,0-.094-.02h0l-.01,0a.284.284,0,0,0-.086.017l-.018.006-.011,0-1.84.921a.5.5,0,0,0,0,.9l1.686.843v.8C1.391,4.988,0,5.6,0,6.446v7.147A1.684,1.684,0,0,0,.543,14.77c1.214,1.243,4.3,2.046,7.864,2.046s6.65-.8,7.864-2.046a1.682,1.682,0,0,0,.544-1.177V6.446c0-.8-1.259-1.4-3.08-1.77Zm-1.9-2.154,1.335-.668V3.19Zm-9.809,0,1.335-.668V3.19ZM6.791,1.4,8.127.733V2.069ZM8.407,4.764c4.862,0,7.847.981,7.847,1.682,0,.429-1.114.96-3.087,1.31l-1-1.5a.841.841,0,0,0-.7-.374H5.344a.841.841,0,0,0-.7.374l-1,1.5C1.674,7.406.56,6.875.56,6.446c0-.7,2.985-1.682,7.847-1.682ZM7.882,8.123H7.806a28.442,28.442,0,0,1-3.547-.274L5.112,6.57a.28.28,0,0,1,.232-.125H11.47a.28.28,0,0,1,.233.125l.851,1.279a28.436,28.436,0,0,1-3.548.272H8.931q-.26.006-.524.006t-.525,0ZM1.961,15.07V10.65a.841.841,0,0,1,1.682,0v5.034a9.052,9.052,0,0,1-1.682-.614Zm7.567,1.157H9.514a21.6,21.6,0,0,1-2.214,0H7.286V11.49a1.121,1.121,0,1,1,2.242,0Zm3.643-.541V10.65a.841.841,0,0,1,1.682,0v4.42a9.052,9.052,0,0,1-1.682.614Zm3.083-2.093a1.15,1.15,0,0,1-.384.785,2.99,2.99,0,0,1-.456.373v-4.1a1.4,1.4,0,0,0-2.8,0v5.045a1.26,1.26,0,0,0,.011.128,18.119,18.119,0,0,1-2.533.367v-4.7a1.682,1.682,0,1,0-3.363,0v4.7a18.118,18.118,0,0,1-2.533-.367,1.26,1.26,0,0,0,.011-.128V10.65a1.4,1.4,0,0,0-2.8,0v4.1a3.028,3.028,0,0,1-.456-.374,1.15,1.15,0,0,1-.384-.785V7.309c.071.05.151.1.234.147l.059.033c.084.046.173.091.269.135l.039.017q.133.059.28.115l.07.027c.108.04.219.079.336.116l.071.022q.159.05.328.1l.067.019c.128.034.26.067.4.1l.1.022.4.084.041.009c.146.028.3.056.448.081l.109.018c.154.025.31.049.469.072l.037,0c.151.021.305.04.461.059l.112.013q.246.028.5.052l.088.008q.226.021.456.038l.1.008q.249.018.5.033l.046,0,.082,0,.433.02.1,0H7.2q.259.009.519.014l.069,0h.071q.271.006.543.006t.545-.005h.071l.069,0q.26-.006.519-.014h.023c.032,0,.064,0,.1,0q.218-.008.433-.02l.082,0,.046,0q.252-.014.5-.032l.1-.008q.23-.018.456-.038l.088-.008q.252-.024.5-.052l.112-.013c.156-.018.31-.038.461-.059l.037,0c.159-.022.315-.046.469-.072l.109-.018c.152-.026.3-.052.448-.081l.041-.009c.135-.027.266-.056.4-.084l.1-.022c.135-.032.268-.064.4-.1l.067-.019q.168-.046.328-.1l.071-.022c.117-.038.229-.076.336-.117l.07-.027c.1-.037.19-.076.279-.115l.039-.017c.1-.044.184-.089.269-.135l.059-.033a2.729,2.729,0,0,0,.234-.147Zm0,0" transform="translate(0.101 0.1)" fill="#737373" stroke="#737373" stroke-width="0.2"/>
</svg>
