<svg xmlns="http://www.w3.org/2000/svg" xmlns:xlink="http://www.w3.org/1999/xlink" width="47.193" height="47.193" viewBox="0 0 47.193 47.193">
  <defs>
    <clipPath id="clip-path">
      <path id="path1332" d="M0-682.665H47.193v47.193H0Z" transform="translate(0 682.665)" fill="#275072"/>
    </clipPath>
  </defs>
  <g id="whistle" transform="translate(0 -0.002)">
    <g id="g1326" transform="translate(0 0.002)">
      <g id="g1328">
        <g id="g1330" clip-path="url(#clip-path)">
          <g id="g1336" transform="translate(1.383 16.192)">
            <path id="path1338" d="M-598.237,0h-29.618a14.809,14.809,0,0,0-14.809,14.809,14.809,14.809,0,0,0,14.809,14.809,14.809,14.809,0,0,0,14.809-14.809,14.994,14.994,0,0,0-.113-1.837l14.922-1.865Z" transform="translate(642.665)" fill="none" stroke="#275072" stroke-linecap="round" stroke-linejoin="round" stroke-width="3"/>
          </g>
          <g id="g1340" transform="translate(1.383 12.49)">
            <path id="path1342" d="M-99.707-49.852a3.7,3.7,0,0,1-3.7,3.7,3.7,3.7,0,0,1-3.7-3.7,3.7,3.7,0,0,1,3.7-3.7A3.7,3.7,0,0,1-99.707-49.852Z" transform="translate(107.112 53.555)" fill="none" stroke="#275072" stroke-linecap="round" stroke-linejoin="round" stroke-width="3"/>
          </g>
          <g id="g1344" transform="translate(8.787 23.596)">
            <path id="path1346" d="M-199.412-99.706a7.4,7.4,0,0,1-7.4,7.4,7.4,7.4,0,0,1-7.4-7.4,7.4,7.4,0,0,1,7.4-7.4A7.4,7.4,0,0,1-199.412-99.706Z" transform="translate(214.221 107.11)" fill="none" stroke="#275072" stroke-linecap="round" stroke-linejoin="round" stroke-width="3"/>
          </g>
          <g id="g1348" transform="translate(23.596 16.192)">
            <path id="path1350" d="M0-39.883v-2.962" transform="translate(0 42.845)" fill="none" stroke="#275072" stroke-linecap="round" stroke-linejoin="round" stroke-width="3"/>
          </g>
          <g id="g1352" transform="translate(23.596 1.383)">
            <path id="path1354" d="M0-49.852v-3.7" transform="translate(0 53.555)" fill="none" stroke="#275072" stroke-linecap="round" stroke-linejoin="round" stroke-width="3"/>
          </g>
          <g id="g1356" transform="translate(13.978 6.936)">
            <path id="path1358" d="M-43.172-24.926l-3.206-1.851" transform="translate(46.379 26.777)" fill="none" stroke="#275072" stroke-linecap="round" stroke-linejoin="round" stroke-width="3"/>
          </g>
          <g id="g1360" transform="translate(30.009 6.936)">
            <path id="path1362" d="M-43.177,0l-3.207,1.851" transform="translate(46.384)" fill="none" stroke="#275072" stroke-linecap="round" stroke-linejoin="round" stroke-width="3"/>
          </g>
        </g>
      </g>
    </g>
  </g>
</svg>
