<svg xmlns="http://www.w3.org/2000/svg" width="19.298" height="18.938" viewBox="0 0 19.298 18.938">
  <g id="football-player" transform="translate(-19.5 -19.5)">
    <path id="Path_66110" data-name="Path 66110" d="M20,37.785h0a6.1,6.1,0,0,1,6.1-6.1h1.13a6.155,6.155,0,0,1,.867.061M26.594,20a4.333,4.333,0,1,0,4.333,4.333A4.333,4.333,0,0,0,26.594,20ZM23.617,36.278v.9a.6.6,0,1,0,1.206,0v-.9Z" fill="none" stroke="#275072" stroke-linecap="round" stroke-linejoin="round" stroke-width="1"/>
    <circle id="Ellipse_7760" data-name="Ellipse 7760" cx="3.968" cy="3.968" r="3.968" transform="translate(30.363 30.003)" fill="none" stroke="#275072" stroke-width="1"/>
    <path id="Path_66111" data-name="Path 66111" d="M287.463,279.328l1.145.044a.593.593,0,0,1,.546.426l.192.655a.594.594,0,0,1-.245.664l-.9.634-.86-.649a.72.72,0,0,1-.223-.8Zm-4.555,0-1.145.044a.593.593,0,0,0-.546.426l-.192.655a.594.594,0,0,0,.245.664l.9.634.86-.649a.72.72,0,0,0,.223-.8Zm-.452,3.55L282.211,284a.6.6,0,0,0,.236.661l.569.392a.6.6,0,0,0,.716-.025l.917-.73-.372-.971a.709.709,0,0,0-.7-.444h-1.123Zm4.086-4.4-.428-1.061a.6.6,0,0,0-.568-.412l-.691,0a.6.6,0,0,0-.577.424l-.345,1.12.855.592a.709.709,0,0,0,.827-.026Zm.244,4.4a.709.709,0,0,0-.7.444l-.372.971.917.73a.6.6,0,0,0,.716.025l.569-.392a.6.6,0,0,0,.236-.661l-.244-1.117Zm-2.813-1.563.243.717a.64.64,0,0,0,.607.432h.737a.639.639,0,0,0,.613-.449l.226-.736a.629.629,0,0,0-.251-.706l-.606-.41a.646.646,0,0,0-.737.01l-.6.429A.629.629,0,0,0,283.972,281.315Z" transform="translate(-250.854 -247.37)" fill="#275072"/>
  </g>
</svg>
