<svg xmlns="http://www.w3.org/2000/svg" width="19.434" height="19.393" viewBox="0 0 19.434 19.393">
  <g id="information" transform="translate(-3.04 -3.184)">
    <path id="Path_66153" data-name="Path 66153" d="M15.75,19a.708.708,0,0,1-.75-.75v-4.5a.75.75,0,0,1,1.5,0v4.5A.708.708,0,0,1,15.75,19Z" transform="translate(-2.993 -2.456)" fill="#275072"/>
    <circle id="Ellipse_7766" data-name="Ellipse 7766" cx="0.75" cy="0.75" r="0.75" transform="translate(12.007 8.294)" fill="#275072"/>
    <path id="Path_66154" data-name="Path 66154" d="M4.06,22.39a.869.869,0,0,1-.3-.75l.675-3.824a9.642,9.642,0,0,1,3.3-13.27,9.813,9.813,0,0,1,13.345,3.3,9.746,9.746,0,0,1-3.3,13.345,9.61,9.61,0,0,1-9.822.075L4.884,22.539a.983.983,0,0,1-.825-.15Zm3.9-2.7a.573.573,0,0,1,.375.15A8.258,8.258,0,1,0,5.784,8.369a8.34,8.34,0,0,0,0,8.922.658.658,0,0,1,.075.525l-.45,2.774,2.174-.9Z" transform="translate(0)" fill="#275072"/>
  </g>
</svg>
