<svg xmlns="http://www.w3.org/2000/svg" width="32.676" height="32.675" viewBox="0 0 32.676 32.675">
  <g id="log-out_1_" data-name="log-out (1)" transform="translate(-126.235 -159.242)">
    <path id="Path_66155" data-name="Path 66155" d="M129.5,182.115v3.268a6.534,6.534,0,0,0,6.535,6.535h16.338a6.533,6.533,0,0,0,6.535-6.535V165.777a6.534,6.534,0,0,0-6.535-6.535H136.038a6.535,6.535,0,0,0-6.535,6.535v3.268a1.634,1.634,0,1,0,3.268,0v-3.268a3.269,3.269,0,0,1,3.268-3.268h16.338a3.268,3.268,0,0,1,3.268,3.268v19.605a3.267,3.267,0,0,1-3.268,3.268H136.038a3.268,3.268,0,0,1-3.268-3.268v-3.268a1.634,1.634,0,1,0-3.268,0Zm12.394-8.169-2.112-2.111a1.634,1.634,0,0,1,2.31-2.312l4.9,4.9a1.634,1.634,0,0,1,0,2.312l-4.9,4.9a1.634,1.634,0,0,1-2.31-2.312l2.112-2.112H127.869a1.634,1.634,0,0,1,0-3.268Z" fill="#e2114a" fill-rule="evenodd"/>
  </g>
</svg>
