<svg xmlns="http://www.w3.org/2000/svg" width="146.305" height="122.321" viewBox="0 0 146.305 122.321">
  <g id="logo_remontada" data-name="logo remontada" transform="translate(0 0)">
    <g id="Group_175167" data-name="Group 175167" transform="translate(11.18 86.329)">
      <path id="Path_65583" data-name="Path 65583" d="M40.6,340.487h5.838V315.18a1.381,1.381,0,0,1,.358-1.046c.248-.22.468-.441.661-.633H40.6Z" transform="translate(-40.6 -313.5)" fill="#fff"/>
      <path id="Path_65584" data-name="Path 65584" d="M82.767,348.91a8.087,8.087,0,0,0-4.241-1.129H75.855a1.455,1.455,0,0,1-1.074-.441.65.65,0,0,1-.193-.441l-.3,6.747h4.241a2.558,2.558,0,0,1,1.873.771,2.454,2.454,0,0,1,.771,1.845,2.4,2.4,0,0,1-.771,1.817,2.6,2.6,0,0,1-1.873.743H72v6.884c.028-.028.193-.22.523-.551a1.585,1.585,0,0,1,1.157-.5h4.847a8.5,8.5,0,0,0,4.241-1.129,8.634,8.634,0,0,0,3.084-3.057,8.088,8.088,0,0,0,1.129-4.241,8.6,8.6,0,0,0-1.129-4.268A8.421,8.421,0,0,0,82.767,348.91Z" transform="translate(-63.353 -337.703)" fill="#fff"/>
      <path id="Path_65585" data-name="Path 65585" d="M173.864,328.928a2.822,2.822,0,1,0-2.038-.826A2.783,2.783,0,0,0,173.864,328.928Z" transform="translate(-135.091 -320.529)" fill="#fff"/>
      <path id="Path_65586" data-name="Path 65586" d="M196.064,328.928a2.822,2.822,0,1,0-2.038-.826A2.783,2.783,0,0,0,196.064,328.928Z" transform="translate(-151.178 -320.529)" fill="#fff"/>
      <path id="Path_65587" data-name="Path 65587" d="M160.652,324.019a1.478,1.478,0,0,1,.468,1.157v6.636a2.789,2.789,0,0,1-.8,1.983,2.643,2.643,0,0,1-1.955.826h-.826a2.818,2.818,0,0,1-1.955-.826,2.789,2.789,0,0,1-.8-1.983V323.5h-6.857c.028.028.22.193.551.5a1.478,1.478,0,0,1,.468,1.157v6.664a2.789,2.789,0,0,1-.8,1.983,2.643,2.643,0,0,1-1.955.826h-2.2a2.643,2.643,0,0,1-1.955-.826,2.679,2.679,0,0,1-.8-1.983v-16.66a1.277,1.277,0,0,1,.358-1.019l.633-.633H135.4v18.312a8.7,8.7,0,0,0,1.239,4.131,8.243,8.243,0,0,0,7.215,4.516h2.533A7.654,7.654,0,0,0,152,338.091a7.109,7.109,0,0,0,1.57,1.129,8.15,8.15,0,0,0,3.47,1.184v.027h1.57c3.084-.055,5.48-1.57,7.215-4.516a8.7,8.7,0,0,0,1.239-4.131v-8.316h-6.857C160.156,323.524,160.349,323.689,160.652,324.019Z" transform="translate(-109.295 -313.5)" fill="#fff"/>
      <path id="Path_65588" data-name="Path 65588" d="M231.664,327.828a2.822,2.822,0,1,0-2.038-.826A2.784,2.784,0,0,0,231.664,327.828Z" transform="translate(-176.975 -319.732)" fill="#fff"/>
      <path id="Path_65589" data-name="Path 65589" d="M295.778,364.544h2.754c3.084-.055,5.48-1.57,7.215-4.516a8.694,8.694,0,0,0,1.239-4.131v-8.316h-6.857c.028.027.22.193.551.5a1.478,1.478,0,0,1,.468,1.157v6.637a2.789,2.789,0,0,1-.8,1.983,2.643,2.643,0,0,1-1.955.826h-2.065a2.818,2.818,0,0,1-1.955-.826,2.578,2.578,0,0,1-.771-1.652v-9.5l-.468.468a1.455,1.455,0,0,1-1.074.441h-7.27a8.427,8.427,0,0,0-7.325,4.213,8.255,8.255,0,0,0-1.129,4.268,8.919,8.919,0,0,0,.386,2.589h-2.2a2.819,2.819,0,0,1-1.955-.826,2.789,2.789,0,0,1-.8-1.983V346.7l-.468.468a1.455,1.455,0,0,1-1.074.441h-7.27a8.427,8.427,0,0,0-7.325,4.213,8.255,8.255,0,0,0-1.129,4.268,8.5,8.5,0,0,0,1.129,4.241,8.514,8.514,0,0,0,7.738,4.186,9.788,9.788,0,0,0,2.589-.413,2.717,2.717,0,0,1-.826,1.762,2.643,2.643,0,0,1-1.955.826h-1.4v6.857c.028-.028.193-.22.468-.551a1.466,1.466,0,0,1,1.074-.468,7.666,7.666,0,0,0,4.048-1.129,9.848,9.848,0,0,0,3.167-3.387,9.341,9.341,0,0,0,1.212-4.1,7.365,7.365,0,0,0,1.955.523v.055h11.7a7.432,7.432,0,0,0,3.8-1.129,8.079,8.079,0,0,0,1.487-1.239,7.275,7.275,0,0,0,1.6,1.129,8.721,8.721,0,0,0,3.5,1.212ZM265.9,355.87a2.789,2.789,0,0,1-.8,1.983,2.449,2.449,0,0,1-1.735.826h-.413a2.644,2.644,0,0,1-1.873-.744,2.56,2.56,0,0,1,0-3.662,2.514,2.514,0,0,1,1.873-.771h2.974v2.368Zm21.837,0a2.789,2.789,0,0,1-.8,1.983,2.643,2.643,0,0,1-1.955.826h-.22a2.644,2.644,0,0,1-1.872-.744,2.56,2.56,0,0,1,0-3.662,2.514,2.514,0,0,1,1.872-.771h2.974Z" transform="translate(-195.598 -337.558)" fill="#fff"/>
      <path id="Path_65590" data-name="Path 65590" d="M407.264,420a2.822,2.822,0,1,0,2.038.826A2.74,2.74,0,0,0,407.264,420Z" transform="translate(-304.219 -390.673)" fill="#fff"/>
      <path id="Path_65591" data-name="Path 65591" d="M429.564,420a2.822,2.822,0,1,0,2.038.826A2.828,2.828,0,0,0,429.564,420Z" transform="translate(-320.379 -390.673)" fill="#fff"/>
      <path id="Path_65592" data-name="Path 65592" d="M457.167,349.755c.028.028.22.193.551.468a1.558,1.558,0,0,1,.468,1.157v14.65a2.789,2.789,0,0,1-.8,1.983,2.643,2.643,0,0,1-1.955.826H454V375.7c.028-.028.193-.22.468-.551a1.465,1.465,0,0,1,1.074-.468,7.667,7.667,0,0,0,4.048-1.129,10.009,10.009,0,0,0,3.167-3.36,9.231,9.231,0,0,0,1.212-4.571l.028-7.6V349.7h-6.829Z" transform="translate(-340.161 -339.732)" fill="#fff"/>
    </g>
    <g id="Group_175169" data-name="Group 175169" transform="translate(0 0)">
      <g id="Group_175168" data-name="Group 175168" transform="translate(0 0)">
        <path id="Path_65593" data-name="Path 65593" d="M514.455,247.571h0a.027.027,0,0,1,.028-.027.272.272,0,0,0,.055-.165.085.085,0,0,0-.055.028c-.028,0-.028.028-.055.028,0-.11-.028-.3-.028-.468v-.055h0a.285.285,0,0,1,.028-.11.027.027,0,0,1,.028.028,1.354,1.354,0,0,1,.138.468.469.469,0,0,1,.028.193h-.028A.151.151,0,0,1,514.455,247.571Z" transform="translate(-372.748 -178.838)" fill="#fff"/>
        <path id="Path_65594" data-name="Path 65594" d="M505.838,237.882c-.055-.028-.083-.083-.138-.138.028-.083.055-.22.083-.33.055-.275.138,0,.248.523C505.975,237.965,505.92,237.938,505.838,237.882Z" transform="translate(-366.444 -171.958)" fill="#fff"/>
        <path id="Path_65595" data-name="Path 65595" d="M521.01,246.8a.1.1,0,0,1,.027.055,2.025,2.025,0,0,1,0,.413.538.538,0,0,1-.027.22,1.2,1.2,0,0,1-.027.138c0,.028-.028.028-.028,0-.027-.028-.027-.083-.055-.165v-.028a5.294,5.294,0,0,1,.083-.523A.436.436,0,0,0,521.01,246.8Z" transform="translate(-377.458 -178.838)" fill="#fff"/>
        <path id="Path_65596" data-name="Path 65596" d="M493.5,235.951c.028-.083.028-.165.055-.275.055-.22.11,0,.22.5a.238.238,0,0,1-.165-.083C493.583,236.061,493.555,236.006,493.5,235.951Z" transform="translate(-357.604 -170.715)" fill="#fff"/>
        <path id="Path_65597" data-name="Path 65597" d="M505.283,238.313c-.028-.055-.028-.165-.055-.248a.6.6,0,0,0-.028-.165,1.22,1.22,0,0,0,.165.275C505.31,238.313,505.283,238.368,505.283,238.313Z" transform="translate(-366.082 -172.389)" fill="#fff"/>
        <path id="Path_65598" data-name="Path 65598" d="M492.983,236.213c-.028-.055-.028-.165-.055-.248a.6.6,0,0,0-.028-.165,2.178,2.178,0,0,0,.138.275C493.038,236.213,493.01,236.3,492.983,236.213Z" transform="translate(-357.169 -170.867)" fill="#fff"/>
        <path id="Path_65599" data-name="Path 65599" d="M15.92,253.113c-.028,0-.028,0-.055-.028a.085.085,0,0,0-.055-.028l.055.11.028.028h0c-.055,0-.11-.028-.165-.028H15.7c0-.055.028-.083.028-.138.055-.165.083-.275.138-.3l.028-.028a.121.121,0,0,1,.028.083h0v.028A.556.556,0,0,1,15.92,253.113Z" transform="translate(-11.377 -183.113)" fill="#fff"/>
        <path id="Path_65600" data-name="Path 65600" d="M25.365,246.9a.274.274,0,0,1-.028.11.3.3,0,0,1-.055.165q-.041.041-.083-.083A.614.614,0,0,0,25.365,246.9Z" transform="translate(-18.261 -178.91)" fill="#fff"/>
        <path id="Path_65601" data-name="Path 65601" d="M9.683,253.266c-.028.028-.028,0-.028,0,0-.028-.028-.055-.028-.083a.3.3,0,0,0-.028-.138V252.8c0-.028,0-.055.028-.028a.1.1,0,0,1,.028.055,1.874,1.874,0,0,1,.083.33v.028A.4.4,0,0,0,9.683,253.266Z" transform="translate(-6.956 -183.156)" fill="#fff"/>
        <path id="Path_65602" data-name="Path 65602" d="M24.175,246.6a1.9,1.9,0,0,0,.083.22.6.6,0,0,1-.138.083.293.293,0,0,1-.22.028C24.065,246.6,24.12,246.405,24.175,246.6Z" transform="translate(-17.319 -178.636)" fill="#fff"/>
        <path id="Path_65603" data-name="Path 65603" d="M0,71.542l1.652,1.873c.358,0,.744.028,1.184.055.936.028,2.093.083,3.47.11l1.157.028c1.79.055,3.8.11,6.058.165l4.434.11,10.271.193,5.728.083c4.544.055,8.592.11,12.364.138l6.526.055,6.692.028c3.828.028,7.766.028,11.566.028h3.635c3.965,0,8.1,0,12.061-.028l6.692-.028,6.526-.055c3.773-.028,7.793-.083,12.364-.138l5.728-.083,10.271-.193,4.434-.11c2.2-.055,4.186-.11,5.921-.165l1.294-.028c1.349-.028,2.506-.083,3.442-.11a17.356,17.356,0,0,0,2.836-1.928l-1.652-.055c-.358,0-.743-.028-1.212-.055h-.358l-.028-.028L143,71.349v-.055c0-.11.028-.22.028-.33v-.551c0-.028,0-.028.028-.055l.083-.248c.055-.165.138-.386.193-.606s.11-.468.165-.744c0-.055.028-.138.028-.193a3.684,3.684,0,0,0-.386-1.1,2.516,2.516,0,0,0-.5-.468c-.055-.055-.138-.11-.165-.138l-.055-.055V67c0,.11.028.248.055.468a3.012,3.012,0,0,1,.028.551l-.083.083-.248.33a1.781,1.781,0,0,1-.248.22,4.277,4.277,0,0,0,.11.578c.055.248.083.5.138.744s.083.468.138.716c.055.22.083.441.138.633a.1.1,0,0,0,.028.083c-.33,0-.661-.028-1.019-.028-.028-.028-.028-.083-.055-.11-.028-.083-.083-.138-.11-.22a1.2,1.2,0,0,1-.11-.193.1.1,0,0,1,.028-.083,3.51,3.51,0,0,0,.11-.5c.055-.22.11-.468.165-.771s.083-.633.138-.991c.028-.193.055-.358.055-.441a1.586,1.586,0,0,0-.138-.468,1.1,1.1,0,0,0-.193-.358c-.083-.11-.165-.22-.22-.3-.028-.055-.083-.11-.11-.165a1.2,1.2,0,0,1-.11-.193,2.133,2.133,0,0,1-.193-.441c-.138-.358-.22-.8-.33-.826s-.22.138-.33.275a2.233,2.233,0,0,1-.3.358c-.028,0-.028.028-.055.028.028.055.028.138.055.193a2.338,2.338,0,0,0,.358.743,2.177,2.177,0,0,1,.358.716,2.286,2.286,0,0,1,.138.551c0,.083.028.138.028.22h0c-.055-.028-.083-.083-.138-.11l-.083.083c-.028.028-.055.055-.083.055l-.028.028a.3.3,0,0,1-.055-.11h0a.468.468,0,0,1-.028.193c0,.055-.028.083-.028.11s-.028.028-.028,0c-.028-.028-.028-.083-.055-.165a4.182,4.182,0,0,0-.386-1.129,4.994,4.994,0,0,0-.468-.523.73.73,0,0,0-.165-.138l-.055-.055v.193c0,.11.028.275.055.5a5.1,5.1,0,0,1,.028.688l-.083.083-.248.248h0l-.083.083c-.028.028-.055.055-.083.055a.027.027,0,0,0-.028.028l-.028-.028c-.028,0-.028.028-.055.028a.349.349,0,0,1-.165.028.213.213,0,0,0-.028-.083c-.028-.083-.028-.33-.055-.523a2.677,2.677,0,0,0-.138-.551,2.778,2.778,0,0,0-.193-.413,4.077,4.077,0,0,1-.22-.358,1.2,1.2,0,0,1-.11-.193c-.028-.055-.083-.138-.11-.193a2.383,2.383,0,0,1-.193-.468c-.138-.358-.22-.8-.33-.854s-.193.083-.3.22a1.047,1.047,0,0,1-.3.3.165.165,0,0,1-.11.028.815.815,0,0,1,.055.275,3.673,3.673,0,0,0,.33.8A6.9,6.9,0,0,1,137,67.3c.055.165.083.33.138.551a.349.349,0,0,0,.028.165.966.966,0,0,1-.22.138.209.209,0,0,1,.055.11c.055.055.055.083.055.083A.085.085,0,0,1,137,68.32a1.192,1.192,0,0,0-.138-.028V68.1a5.584,5.584,0,0,0-.055-.771c-.028-.083-.028-.138-.055-.165a.1.1,0,0,0-.028-.055l-.165.165a5.136,5.136,0,0,0-.358.633.955.955,0,0,1-.22.3.17.17,0,0,1-.193.028c-.028,0-.055-.028-.083-.055l-.083-.083a.38.38,0,0,1-.083-.11c-.028-.028-.055-.055-.055-.083l-.028-.028a.165.165,0,0,1-.11-.028.7.7,0,0,0-.33.055.576.576,0,0,0-.165.11c-.165-.22-.3-.413-.413-.551a2.664,2.664,0,0,0-.193-.248l-.083-.083s.028.165.055.413a8.851,8.851,0,0,0,.22.936c0,.028.028.083.028.11s-.028.055-.028.083a1.117,1.117,0,0,0-.248-.138,1.255,1.255,0,0,0-.22-.11s.028.083.083.22c.055.11.11.248.193.413l-.083.248c-.055.193-.11.386-.165.551a.1.1,0,0,1-.028.083,5.579,5.579,0,0,0-.358.5c-.028.028-.028.055-.055.083a.208.208,0,0,1,.028-.11,11.654,11.654,0,0,0,.165-1.4c0-.138.028-.3.028-.441v-.716a.085.085,0,0,1-.028.055v.055c0,.028-.028.028-.028.055-.028.055-.083.083-.11-.028a1.461,1.461,0,0,1-.083-.3c-.028-.138-.083-.358-.11-.5a3.605,3.605,0,0,0-.138-.413c-.055-.138-.11-.248-.165-.358a1.137,1.137,0,0,0-.193-.3,1.851,1.851,0,0,1-.193-.3c-.055-.11-.138-.193-.193-.3h0a1.625,1.625,0,0,1-.11-.22.341.341,0,0,0-.055-.083v.028h0a7.048,7.048,0,0,1-.3-.661,1.629,1.629,0,0,0-.248-.5c-.138-.193-.22-.193-.22-.193v.165c0,.11.028.3.055.523a3.951,3.951,0,0,0,.11.606.21.21,0,0,0,.055.138c.028.055.028.11.055.138a1.151,1.151,0,0,0,.11.275c.083.193.165.386.248.606.028.11.083.22.11.358,0,.028.028.055.028.083v.441a1.693,1.693,0,0,1-.028.386v.3h-.083c-.028,0-.055-.028-.083-.028s-.055-.028-.083-.028a.1.1,0,0,1-.055-.028H131.9a.783.783,0,0,0-.33.11c-.028.028-.055.028-.083.055a7.433,7.433,0,0,0-.5-.606c-.083-.083-.138-.165-.193-.22l-.083-.083s.028.138.055.358c.028.083.055.22.083.33h0l-.083-.248a.121.121,0,0,0-.028.083.6.6,0,0,0-.083.138h-.028a.762.762,0,0,1-.248-.028h-.028c-.028,0-.083-.055-.11-.22a2.355,2.355,0,0,1-.083-.358,3.54,3.54,0,0,0-.11-.523,2.063,2.063,0,0,0-.138-.441c-.055-.138-.11-.275-.165-.386a2.274,2.274,0,0,0-.193-.358c-.055-.11-.138-.22-.193-.33a2.054,2.054,0,0,0-.193-.33h0c-.055-.11-.083-.193-.11-.248a.34.34,0,0,0-.055-.083v.028h0a7.479,7.479,0,0,1-.3-.688,2.34,2.34,0,0,0-.248-.523c-.138-.193-.22-.22-.22-.22v.193c0,.11.028.3.028.523a5.513,5.513,0,0,0,.11.661c0,.055.028.11.028.165s.028.11.028.165l.083.33c.055.22.138.441.22.688.028.11.055.248.11.413,0,.028.028.055.028.083V66.7a2.084,2.084,0,0,1-.028.413v.523c0,.028.028.055.028.11a.1.1,0,0,0,.028.083c0,.055.028.11.028.165a3.159,3.159,0,0,0,.055.386.825.825,0,0,0-.11-.275.726.726,0,0,0-.248-.3c-.028-.028-.055-.055-.083-.055a.027.027,0,0,1-.028-.028.341.341,0,0,0-.055.083.865.865,0,0,0-.11.33c-.028.193-.055.5-.083.826v1.239c0-.028-.028-.055-.028-.11a.978.978,0,0,0-.11-.248c-.028-.083-.083-.165-.11-.248-.028-.028-.028-.083-.055-.11a1.86,1.86,0,0,0-.055-.386c-.028-.138-.055-.248-.083-.386a4.94,4.94,0,0,1,.386-.771,1.323,1.323,0,0,1,.248-.275.341.341,0,0,0,.083-.055,1.7,1.7,0,0,0-.248.028,3.175,3.175,0,0,0-.551.138.69.69,0,0,0-.193.11c-.028-.028-.055-.055-.055-.083-.028-.055-.083-.083-.11-.138V67.6c-.055-.165-.083-.275-.083-.275a.1.1,0,0,0-.028.055c-.028.028-.028.083-.055.11l-.028-.028a1.343,1.343,0,0,1-.193-.083c-.028-.055-.055-.083-.083-.138a.467.467,0,0,0,.165-.22,1.876,1.876,0,0,0,.22-.606c.055-.275.11-.523.165-.716.028-.193.055-.386.083-.523.028-.3.055-.578.055-.771v-.33l-.055.055a.905.905,0,0,1-.165.165,3.1,3.1,0,0,0-.468.606,7.037,7.037,0,0,0-.578,1.074l-.083.248a2.927,2.927,0,0,0-.248-.3,1.243,1.243,0,0,0-.193-.193c-.055-.055-.083-.055-.083-.055a3,3,0,0,0,.028.33c.028.22.083.5.165.854h0a2.408,2.408,0,0,1-.22.275l-.248.248a1.23,1.23,0,0,0-.193.386.99.99,0,0,0-.055.3c-.028.11-.028.248-.055.413,0,.138-.028.275-.028.413v.744a1.341,1.341,0,0,0,.028.33c.028.22.028.386.055.523a2.656,2.656,0,0,1,.055.33.434.434,0,0,1,.028.11.285.285,0,0,0,.028-.11c.028-.083.055-.193.11-.33a2.593,2.593,0,0,1,.165-.5c.028-.083.055-.193.083-.3s.083-.22.11-.33c.055-.193.11-.413.193-.633.083.165.165.33.248.523v.11c0,.138.028.275.028.413l-.083.165c-.028.083-.083.193-.11.275s-.083.193-.11.275a3.33,3.33,0,0,0-.138.5l-.936-.028v-.055l-.083-.33c-.028-.138-.083-.3-.11-.468a.762.762,0,0,1,.028-.248c0-.138.028-.3.028-.441v-.468a2.368,2.368,0,0,0-.028-.441c0-.11-.028-.193-.028-.3a1.9,1.9,0,0,1,.083-.22c.028-.083.083-.165.11-.248a1.872,1.872,0,0,0,.165-.248.815.815,0,0,1,.083-.11h-.055c0-.028.028-.028.028-.055.028-.028.055-.055.055-.083l.055-.055.028-.028a.88.88,0,0,0-.193.028,2.267,2.267,0,0,0-.441.165.209.209,0,0,1-.11.055l-.028-.028-.083.083c-.028.028-.055.083-.083.11a1.2,1.2,0,0,0-.165.193.027.027,0,0,1-.028.028.332.332,0,0,0-.138.138.027.027,0,0,0-.028-.028c-.055-.11-.11-.193-.165-.3-.083-.11-.138-.248-.22-.358,0-.083-.028-.138-.028-.22a1.192,1.192,0,0,0-.028-.138c0-.028-.028-.083-.028-.11a2.422,2.422,0,0,0,.165-.275,2.77,2.77,0,0,0,.22-.716c.055-.275.11-.551.165-.771s.083-.413.11-.578a5.815,5.815,0,0,0,.083-.854v-.358l-.055.055c-.028.055-.11.11-.165.193a6.6,6.6,0,0,0-.5.688,9.257,9.257,0,0,0-.5.936.466.466,0,0,1-.055-.138l-.11-.22a.341.341,0,0,0-.055-.083s-.028.11-.083.275c-.028.193-.083.5-.138.854,0,.083-.028.138-.028.22a.468.468,0,0,1-.165-.165c-.055-.028-.055-.055-.055-.055a1.854,1.854,0,0,0,.028.275c.028.11.055.248.083.386-.055.083-.083.165-.138.248-.083.138-.165.3-.248.441-.028.083-.083.165-.11.248a.085.085,0,0,0-.055-.028.4.4,0,0,0-.028.165v.248a.99.99,0,0,0-.055.3c-.028.138-.028.275-.055.441,0,.138-.028.275-.028.413v.743a1.34,1.34,0,0,0,.028.33c.028.22.028.386.055.523a2.656,2.656,0,0,1,.055.33v.055h-.22V70.5c0-.138-.028-.275-.028-.413-.028-.138-.028-.275-.055-.441-.028-.138-.055-.3-.083-.441-.055-.3-.138-.578-.193-.854v-.193a.648.648,0,0,0,.055-.22,3.022,3.022,0,0,1,.248-.633,1.342,1.342,0,0,1,.083-.193.465.465,0,0,0,.055-.138c.028-.028.028-.083.055-.083a.027.027,0,0,1,.028-.028,1.637,1.637,0,0,0-.193.083,1.8,1.8,0,0,0-.358.22c.028-.083.028-.165.055-.248.028-.193.083-.358.11-.523.028-.083.028-.165.055-.248a.166.166,0,0,1,.028-.11c0-.028.028-.083.028-.11a2.745,2.745,0,0,0,.055-.441,1.827,1.827,0,0,0,.028-.358v-.3a2.4,2.4,0,0,0-.22.275c-.055.083-.165.22-.248.358s-.193.275-.275.441h0v-.028a.085.085,0,0,1-.028.055.916.916,0,0,0-.083.165h0a1.538,1.538,0,0,1-.138.22c-.055.083-.083.165-.138.248-.028.028-.028.055-.055.11l-.248-.248c-.028-.028-.083-.055-.11-.11-.055-.3-.138-.633-.248-1.019a5.272,5.272,0,0,0-.275-.909c-.055-.11-.083-.193-.11-.248a.34.34,0,0,0-.055-.083s-.028.11-.083.3a4.553,4.553,0,0,0-.138.881c-.055.386-.083.716-.11,1.046,0,.165-.028.3-.028.468v.5c0,.165.028.358.028.551a.937.937,0,0,0,.028.275,1.2,1.2,0,0,0-.11-.193,3.072,3.072,0,0,0-.33-.468.76.76,0,0,0-.165-.165.477.477,0,0,0-.028.193,3.923,3.923,0,0,0,0,.578,6.163,6.163,0,0,0,.083.936c.028.165.055.33.083.523a3.543,3.543,0,0,0,.11.523c.028.165.083.358.11.523a.8.8,0,0,1,.055.248c.028.055.028.11.055.165H118.3V70.66a1.193,1.193,0,0,0-.028-.138,6.145,6.145,0,0,0-.11-.633.1.1,0,0,0-.028-.083c0-.055-.028-.138-.028-.193-.028-.165-.055-.3-.083-.468-.055-.3-.138-.606-.193-.881v-.193a3.228,3.228,0,0,1,.138-.3,5.762,5.762,0,0,1,.275-.578c.083-.165.193-.358.275-.5l.248-.5c.083-.165.138-.358.22-.551a5.362,5.362,0,0,0,.165-.633,6.064,6.064,0,0,0,.193-.909,3.112,3.112,0,0,1,.055-.33l-.055.055a.879.879,0,0,0-.193.165,4.326,4.326,0,0,0-.578.688,4.212,4.212,0,0,0-.413.633v-.165a2.4,2.4,0,0,0-.22.275,2.05,2.05,0,0,1-.248.33c-.083.138-.193.248-.275.386h0v-.028l-.028.028c.165-.413.275-.771.275-.771l-.055.055c-.028.028-.11.083-.165.138a1.781,1.781,0,0,0-.248.22,3.019,3.019,0,0,0-.275.3c-.028.028-.028.055-.055.055l-.248-.578h0l-.083-.248a1.9,1.9,0,0,0-.083-.22.046.046,0,1,0-.055,0c-.028-.055-.028-.083-.055-.138a7.238,7.238,0,0,0-.468-.936c-.028-.028-.028-.055-.055-.083.028-.165.055-.275.083-.386.028-.22.055-.358.055-.358a.341.341,0,0,1-.083.055,1.243,1.243,0,0,0-.193.193,7.462,7.462,0,0,0-.606.744l-.165.248c-.028-.028-.028-.083-.055-.11-.055-.138-.11-.275-.165-.386-.11-.248-.22-.468-.3-.661-.11-.193-.193-.358-.275-.5a1.975,1.975,0,0,0-.193-.3.814.814,0,0,0-.083-.11.274.274,0,0,0,.028.11c.028.083.028.193.055.33.055.275.138.688.248,1.212.055.248.083.551.138.854l.083.413c-.028.028-.028.055-.055.083l-.165.33-.165.33c-.055.11-.11.22-.165.358h0c-.028-.083-.028-.138-.055-.22.028-.055.028-.11.055-.138.22-.606.358-1.046.358-1.046l-.055.055a.905.905,0,0,0-.165.165c-.055.083-.165.165-.248.275-.028.028-.055.083-.083.11,0-.028-.028-.055-.028-.11a4.245,4.245,0,0,0,.055-.523q.041-.454.083-.744c0-.11.028-.22.028-.275a.161.161,0,0,1,.028-.11,4.164,4.164,0,0,1-.275.358c-.083.11-.138.22-.22.33v-.028a8.175,8.175,0,0,0-.386-.909c-.055-.11-.11-.193-.138-.248a.341.341,0,0,0-.055-.083.213.213,0,0,1-.028.083c0,.055-.028.138-.028.275s-.028.33-.028.578a3.144,3.144,0,0,0-.248-.441c-.138-.22-.22-.33-.22-.33v.11c0,.055.028.165.028.275.028.248.083.606.138,1.019a6.147,6.147,0,0,0,.11.633c.028.165.055.358.083.523l-.083.165c-.083-.165-.193-.3-.275-.441-.138-.22-.275-.413-.413-.606-.028-.055-.083-.11-.11-.165a2.157,2.157,0,0,0-.138-.386c-.055-.138-.11-.3-.165-.441s-.11-.275-.165-.386c-.11-.248-.22-.468-.3-.661a4,4,0,0,0-.275-.5,1.977,1.977,0,0,0-.193-.3.815.815,0,0,0-.083-.11.274.274,0,0,0,.028.11,3.384,3.384,0,0,1,.055.358c.055.3.138.716.22,1.239.055.248.083.551.138.826a4.865,4.865,0,0,0,.11.551l-.248.33c-.11.165-.248.358-.358.551-.028-.055-.028-.138-.055-.193a.815.815,0,0,1-.055-.275,3.021,3.021,0,0,0,.11-.413l-.055.055-.11.11v-.055a1.58,1.58,0,0,0,.028-.33c.028-.275.055-.5.083-.716,0-.11.028-.193.028-.275a.161.161,0,0,1,.028-.11,4.168,4.168,0,0,1-.275.358.837.837,0,0,0-.138.193,1.9,1.9,0,0,0-.083-.22,5.811,5.811,0,0,0-.386-.881c-.055-.11-.11-.193-.138-.248a.341.341,0,0,0-.055-.083.213.213,0,0,1-.028.083c0,.055-.028.165-.028.275a7.9,7.9,0,0,0-.055.964c0,.386.028.826.055,1.267a2.984,2.984,0,0,1-.22.523,2,2,0,0,1-.138.248l-.083.083-.055.055-.055.055v-.275a2.832,2.832,0,0,0-.028-.468c0-.138-.028-.3-.028-.441s-.028-.3-.028-.441c-.028-.138-.028-.3-.055-.441-.083-.578-.165-1.1-.275-1.542s-.22-.826-.3-1.074c-.055-.138-.083-.22-.11-.3l-.055-.11a.434.434,0,0,1-.028.11,1.8,1.8,0,0,1-.055.3c-.028.275-.083.661-.11,1.1s-.055.991-.055,1.542v.468c-.083.11-.193.248-.3.413a8.153,8.153,0,0,0-.441.716c0-.468,0-.936-.028-1.4-.028-.248-.028-.5-.055-.744l-.083-.744-.083-.744c-.028-.248-.083-.5-.11-.716-.028-.11-.028-.248-.055-.358a1.611,1.611,0,0,1-.055-.358c-.055-.22-.083-.468-.138-.688-.11-.441-.193-.826-.248-.964s-.083-.138-.11-.138a.166.166,0,0,1-.11-.028.5.5,0,0,1-.165-.22,2.939,2.939,0,0,1-.248-.441v.468c0,.193-.083.193-.138.22-.083,0-.083.386.028,1.267.055.441.11.909.165,1.377s.11.964.165,1.432c.028.248.055.468.083.716a6.266,6.266,0,0,1,.055.716c.028.193.028.413.055.606,0,.028-.028.028-.028.055-.165.248-.3.5-.468.8a2.368,2.368,0,0,0-.028-.441c0-.138-.028-.3-.028-.441s-.028-.3-.028-.441c-.028-.138-.028-.3-.055-.441-.083-.551-.165-1.1-.275-1.542s-.22-.826-.3-1.074c-.055-.138-.083-.22-.11-.3l-.055-.11a.434.434,0,0,1-.028.11,1.8,1.8,0,0,1-.055.3c-.028.275-.083.661-.11,1.1s-.055.991-.055,1.542v1.9c-.055-.22-.138-.413-.193-.606-.138-.358-.275-.661-.386-.881-.055-.11-.11-.193-.138-.248a.341.341,0,0,0-.055-.083.213.213,0,0,1-.028.083V64.6c-.028-.248-.028-.5-.055-.744l-.083-.743-.083-.744c-.028-.248-.083-.5-.11-.716-.028-.11-.028-.248-.055-.358a1.612,1.612,0,0,1-.055-.358c-.055-.22-.083-.468-.138-.688-.11-.441-.193-.826-.248-.991s-.083-.193-.11-.22-.083-.055-.138-.11-.11-.165-.193-.248a4.355,4.355,0,0,1-.248-.468v.5a.549.549,0,0,1-.11.358,3.813,3.813,0,0,0,.055,1.377c.055.441.11.909.165,1.377s.11.964.165,1.432c.028.248.055.468.083.716a6.264,6.264,0,0,1,.055.716,6.291,6.291,0,0,1,.055.688c.028.22.028.468.055.688v.11l-.138.138c-.165.193-.358.413-.551.661l.083-.661c.028-.11.028-.248.055-.358,0-.11.028-.248.028-.358.028-.22.028-.468.055-.688,0-.22.028-.413.028-.606a8.879,8.879,0,0,0-.028-.936c0-.11-.028-.22-.028-.275V63a3.2,3.2,0,0,0-.193.3c-.11.193-.248.5-.413.854-.083.193-.138.386-.22.578a5.983,5.983,0,0,0-.193.661c-.028.11-.055.248-.083.358s-.055.248-.083.358c-.028.083-.028.165-.055.22-.055-.22-.138-.413-.193-.578-.11-.3-.22-.551-.3-.743-.028-.165-.083-.358-.11-.5-.11-.441-.22-.826-.3-1.074-.055-.138-.083-.22-.11-.3l-.055-.11a.434.434,0,0,1-.028.11,1.8,1.8,0,0,1-.055.3c-.028.275-.083.661-.11,1.1-.028.358-.055.771-.055,1.184a4.589,4.589,0,0,0-.413.386.538.538,0,0,0-.028-.193c-.028-.386-.083-.771-.11-1.129l-.083-.578a3.25,3.25,0,0,0-.11-.551c-.028-.193-.083-.358-.11-.551s-.083-.358-.11-.523a3.668,3.668,0,0,0-.138-.523c-.055-.165-.083-.33-.138-.5s-.083-.3-.138-.468v-.028a1.713,1.713,0,0,0-.083-.275l.165-.165a34.923,34.923,0,0,0,6.031-8.041.027.027,0,0,1,.028-.028c.358-.661.688-1.322,1.019-2.01.165-.358.33-.716.5-1.1a34.809,34.809,0,0,0,2.754-12.392v-.028h0c.028-.413.028-.854.028-1.267a37.035,37.035,0,0,0-.3-4.654h0c-.055-.33-.083-.661-.138-.964-.193-1.157-.441-2.286-.716-3.415a31.7,31.7,0,0,0-1.6-4.626,34.56,34.56,0,0,0-7.545-11.18l-.578-.578h0a36.712,36.712,0,0,0-6.664-5.012H90.68a39.823,39.823,0,0,0-3.91-1.955A35.437,35.437,0,0,0,77.627.908c-.358-.055-.744-.083-1.1-.138C75.755.688,75.011.661,74.24.633c.193-.22.358-.413.551-.633h0c-.193.193-.358.413-.551.633-.386,0-.744-.028-1.129-.028A35.215,35.215,0,0,0,59.425,3.359a29.554,29.554,0,0,0-3.112,1.515q-.785.413-1.57.909a36.2,36.2,0,0,0-6.5,5.122,34.922,34.922,0,0,0-6.031,8.041c-.358.661-.688,1.322-1.019,2.01v.028c-.165.358-.33.716-.5,1.1a34.809,34.809,0,0,0-2.754,12.392c-.028.441-.028.854-.028,1.294a36.6,36.6,0,0,0,.3,4.626v.028c.055.33.083.661.138.964.193,1.157.441,2.286.716,3.415a31.7,31.7,0,0,0,1.6,4.626,34.559,34.559,0,0,0,7.545,11.18l.578.578c.523.523,1.074.991,1.652,1.487.606.523,1.239.991,1.873,1.459a1.2,1.2,0,0,0-.11.193,4,4,0,0,0-.275.5h0v-.028a.213.213,0,0,1-.028.083.932.932,0,0,0-.083.22h0a3.228,3.228,0,0,0-.138.3c-.055.11-.083.22-.138.33s-.083.22-.138.33c-.028.11-.083.22-.11.358-.028.083-.055.193-.083.275v-.028c0-.165-.028-.33-.028-.5s-.028-.33-.028-.468a8.656,8.656,0,0,0-.248-1.515,2.334,2.334,0,0,0-.275-.744c-.028-.083-.083-.11-.11-.165a.085.085,0,0,1-.028-.055s-.028.083-.083.22a2.548,2.548,0,0,0-.138.771c-.055.413-.083.936-.11,1.57,0,.248-.028.5-.028.771,0,.028-.028.055-.028.083-.083.165-.193.413-.3.688a8.548,8.548,0,0,0-.275.991c-.028.083-.028.193-.055.275a.762.762,0,0,0-.028.248,1.2,1.2,0,0,0-.11.193c0-.055-.028-.138-.028-.193a.8.8,0,0,1-.055-.248,1.9,1.9,0,0,0-.083-.22,6.757,6.757,0,0,0,.22-.8c.083-.358.193-.716.275-1.074s.165-.688.248-1.019.165-.633.22-.881c.055-.275.138-.5.165-.688.11-.358.165-.578.22-.716a.662.662,0,0,0,.055-.22A.213.213,0,0,0,50.5,63a1.58,1.58,0,0,0-.193.11,2.588,2.588,0,0,0-.606.551,3.773,3.773,0,0,0-.468.771v-.055c0-.165.028-.275.028-.358s0-.138-.028-.165V63.8s-.083.028-.193.193c-.055.083-.138.165-.22.3a4,4,0,0,0-.275.5h0v-.028a.213.213,0,0,1-.028.083.932.932,0,0,0-.083.22h0a3.231,3.231,0,0,0-.138.3c-.055.11-.083.22-.138.33s-.083.22-.138.33c-.028.11-.083.22-.11.358-.028.11-.083.248-.11.358-.028.055-.028.11-.055.165a5.114,5.114,0,0,0-.5-.633,1.243,1.243,0,0,0-.193-.193c-.083-.193-.138-.358-.22-.523a3.14,3.14,0,0,0-.275-.523c.028-.165.083-.3.11-.468.055-.275.138-.523.165-.688.11-.358.165-.523.22-.661a.888.888,0,0,1,.055-.165.213.213,0,0,0-.083.028,1.579,1.579,0,0,0-.193.11,1.765,1.765,0,0,0-.606.5,3.239,3.239,0,0,0-.3.413,1.633,1.633,0,0,0-.22-.22,1.723,1.723,0,0,0-.3-.22,1.41,1.41,0,0,1,.193.275c.055.083.11.22.193.386-.11.22-.22.441-.33.716-.055.165-.11.3-.165.468s-.11.33-.165.523-.11.386-.165.606v-.028c-.028-.165-.055-.358-.083-.523a1.859,1.859,0,0,1-.055-.386c.083-.358.138-.578.138-.578a.341.341,0,0,0-.055.083c-.028.055-.083.11-.11.165a6.1,6.1,0,0,0-.193-.826c.083-.523.083-.771.028-.8a.246.246,0,0,1-.11-.22V63.2a2.276,2.276,0,0,1-.248.3l-.083.083a1.049,1.049,0,0,0-.138-.165c-.055-.055-.11-.083-.138-.11a.085.085,0,0,0-.055-.028v.028a1.192,1.192,0,0,0-.028.138,2.554,2.554,0,0,0-.028.551c-.055.138-.11.33-.193.551-.055.138-.083.3-.138.441a.851.851,0,0,0-.055.22c-.028.083-.028.165-.055.22a.1.1,0,0,1-.028.083c-.138-.275-.248-.523-.386-.743a3.13,3.13,0,0,0-.688-.909,1.02,1.02,0,0,0-.3-.22,1.41,1.41,0,0,1,.193.275c.055.11.138.248.22.413.083.193.165.413.275.661s.193.551.3.881c.055.165.11.358.165.523a.166.166,0,0,1-.028.11c-.138-.3-.248-.606-.358-.854a8.2,8.2,0,0,0-.523-.936,2.233,2.233,0,0,0-.165-.22.341.341,0,0,0-.055-.083s.028.138.055.413.11.661.193,1.157.22,1.074.358,1.68c0,.028.028.083.028.11a2.9,2.9,0,0,0-.193.3c-.055.11-.138.248-.193.386V67.218c0-.358-.028-.716-.055-1.019s-.083-.551-.11-.716c-.028-.083-.028-.165-.055-.193a.121.121,0,0,0-.028-.083l-.055.055a1.58,1.58,0,0,1-.11.193c-.083.165-.193.413-.3.688-.028.055-.028.11-.055.165,0-.083-.028-.193-.028-.275-.028-.138-.028-.275-.055-.386.083-.386.138-.578.138-.578a.341.341,0,0,0-.055.083c-.028.055-.083.11-.11.165a6.544,6.544,0,0,0-.193-.854c.083-.523.083-.744,0-.744s-.138-.028-.138-.138v-.3a1.405,1.405,0,0,1-.248.275.786.786,0,0,0-.193-.22c-.055-.055-.11-.083-.138-.11A.085.085,0,0,0,40.4,63.2l-.028.028c0,.028-.028.055-.028.11a2.553,2.553,0,0,0-.028.551c-.055.11-.11.33-.193.551-.055.138-.083.3-.138.441a.851.851,0,0,0-.055.22c-.028.083-.028.165-.055.22l-.083.33v-.3c0-.22-.028-.413-.028-.606-.028-.193-.028-.358-.055-.523a2.147,2.147,0,0,0-.3-1.074.734.734,0,0,0-.33-.275.38.38,0,0,1-.11-.083.085.085,0,0,0-.055-.028l-.028.028c0,.028-.028.055-.055.083a.678.678,0,0,0-.11.275,7.373,7.373,0,0,0-.055,1.129v.275a.6.6,0,0,0-.11-.138.341.341,0,0,0-.055-.083s.028.138.055.413q.041.207.083.578v.5c-.028-.165-.055-.3-.083-.441-.028-.083-.028-.165-.055-.193a.121.121,0,0,0-.028-.083l-.055.055a1.579,1.579,0,0,1-.11.193c-.083.165-.193.413-.3.688-.055.138-.083.248-.138.413h0c0-.688,0-1.4-.028-1.983-.028-.3-.028-.578-.028-.771-.028-.165-.028-.275-.055-.386V63.28h0v-.055a1.28,1.28,0,0,0-.083-.248c-.028-.055-.083-.11-.11-.165-.028-.028-.028-.055-.055-.083s-.055-.083-.083-.11a2.459,2.459,0,0,1-.138-.358c-.11-.3-.193-.8-.275-1.1a5.261,5.261,0,0,0-.248-.716c-.083-.193-.165-.386-.248-.551s-.165-.358-.248-.523c-.165-.3-.275-.551-.275-.551a.77.77,0,0,0,.028.165c0,.11.028.248.028.413.028.33.055.688.083,1.1a15.762,15.762,0,0,0,.193,1.817,1.933,1.933,0,0,0,.165.523,1.865,1.865,0,0,1,.165.441c.028.11.055.275.083.468a6.334,6.334,0,0,1,.055.771c0,.138.028.3.028.468-.083.275-.165.606-.248.936-.083.358-.165.743-.22,1.129a.166.166,0,0,1-.028.11V65.951c0-.22-.028-.441-.028-.661s-.028-.413-.028-.606c-.028-.193-.028-.358-.055-.523a2.637,2.637,0,0,0-.275-1.074.828.828,0,0,0-.33-.3.38.38,0,0,1-.11-.083.085.085,0,0,0-.055-.028l-.028.028c0,.028-.028.055-.055.083a1.509,1.509,0,0,0-.11.33,7.667,7.667,0,0,0-.055,1.129v1.983a1.166,1.166,0,0,0-.138.193l-.165.248c-.055.083-.11.193-.165.275s-.083.165-.138.248c-.028.028-.083.055-.11.11l-.083.083c0-.3,0-.633.028-.964,0-.688,0-1.377-.028-1.955-.028-.3-.028-.578-.028-.744-.028-.138-.028-.275-.055-.386v-.028h0v-.055a1.711,1.711,0,0,0-.083-.275c-.028-.083-.083-.138-.11-.22-.028-.028-.028-.083-.055-.11-.028-.055-.055-.083-.083-.138a2.992,2.992,0,0,1-.138-.386c-.11-.3-.193-.771-.275-1.074a5.825,5.825,0,0,0-.248-.744c-.083-.22-.165-.413-.248-.606a4.724,4.724,0,0,0-.248-.523l-.275-.551a.771.771,0,0,0,.028.165c0,.11.028.248.028.413q.041.5.083,1.157c.028.441.11,1.294.193,1.845a5.066,5.066,0,0,0,.165.633,5.263,5.263,0,0,1,.165.578c.028.138.055.275.083.468a5.585,5.585,0,0,1,.055.771c0,.138.028.3.028.441-.083.275-.165.578-.248.936-.028.165-.083.358-.11.523a.027.027,0,0,0-.028-.028v.193l-.083.413c0,.055-.028.11-.028.193-.028.028-.028.055-.055.11.028-.165.028-.3.055-.468s.028-.358.055-.523a3.333,3.333,0,0,0,.028-.523c.028-.33.055-.661.055-.936s.028-.523.028-.743a4.529,4.529,0,0,0-.028-.744,1.193,1.193,0,0,0-.028-.138v-.055a1.423,1.423,0,0,0-.193.165,1.618,1.618,0,0,0-.386.661c-.083.193-.138.441-.22.688-.083.275-.138.578-.22.881l-.083.5a.208.208,0,0,1-.028.11,4.026,4.026,0,0,0-.248.358l-.165.248c-.028.028-.028.055-.055.083l-.165-.165a2.57,2.57,0,0,0-.606-.468,1.579,1.579,0,0,0-.193-.11.213.213,0,0,0-.083-.028.891.891,0,0,0,.055.248l.083.248-.055.055c-.11.138-.275.33-.441.551v-.248c0-.138-.028-.275-.028-.386-.028-.523-.055-1.046-.11-1.515q-.041-.372-.083-.661a2.21,2.21,0,0,0-.11-.5c0-.028-.028-.055-.028-.083,0-.055.028-.083.028-.138.055-.193.11-.358.138-.5a6.375,6.375,0,0,1,.22-.606.7.7,0,0,0,.055-.193.213.213,0,0,0,.028-.083.341.341,0,0,1-.083.055.878.878,0,0,0-.193.165,2.009,2.009,0,0,0-.275.248,2.484,2.484,0,0,0-.248.275c-.028-.028-.028-.083-.055-.11a55562.311,55562.311,0,0,1-.275-.551h0c-.028-.083-.083-.165-.083-.193a.213.213,0,0,1-.028-.083v.028h0a5.5,5.5,0,0,1-.275-.578,4.723,4.723,0,0,0-.248-.523c-.138-.275-.22-.413-.22-.413v.441c0,.138.028.358.028.551.028.193.028.386.055.578a1.193,1.193,0,0,0,.028.138.248.248,0,0,0,.028.138.978.978,0,0,0,.055.275c.028.193.083.386.11.606.028.11.028.22.055.358a.1.1,0,0,0,.028.083c0,.138-.028.275-.028.413s-.028.3-.028.468a3.878,3.878,0,0,1-.028.551v.22c-.055.413-.138.881-.193,1.377-.028.248-.055.468-.083.716h0c-.165-.165-.3-.33-.441-.441a4.612,4.612,0,0,0-.578-.441h0c-.028-.358-.028-.633-.055-.826a3.07,3.07,0,0,0-.055-.358.121.121,0,0,0-.028.083c-.028.055-.055.138-.11.248a5.853,5.853,0,0,0-.275.991l-.083.413c0-.11-.028-.22-.028-.33-.028-.5-.055-.991-.11-1.459-.028-.22-.055-.441-.083-.633a2.21,2.21,0,0,0-.11-.5c0-.028-.028-.055-.028-.083,0-.055.028-.11.028-.165.055-.22.11-.441.138-.606.083-.358.165-.661.22-.854a1.4,1.4,0,0,0,.055-.248.213.213,0,0,0,.028-.083l-.083.083a1.8,1.8,0,0,0-.193.22c-.083.083-.165.193-.275.33-.083.11-.165.248-.248.386-.028-.055-.028-.11-.055-.165-.055-.11-.083-.248-.138-.358s-.083-.248-.138-.358h0a2.535,2.535,0,0,1-.083-.248.213.213,0,0,1-.028-.083v.028h0a6.729,6.729,0,0,1-.275-.661,5.363,5.363,0,0,0-.248-.551c-.138-.275-.22-.413-.22-.413v.441c0,.165.028.358.028.578.028.22.028.441.055.688,0,.055.028.11.028.193a.469.469,0,0,0,.028.193,1.86,1.86,0,0,0,.055.386c.028.248.083.523.11.8.028.138.028.275.055.441a.1.1,0,0,0,.028.083c0,.138-.028.3-.028.468,0,.138-.028.3-.028.468v.744c-.055.413-.138.854-.193,1.294l-.083.661c-.028.22-.028.441-.055.661a.537.537,0,0,1-.028.22.888.888,0,0,1-.165-.055l.028.028.055.055c.028.028.055.055.055.083s.028.028.028.055v1.294c0,.138.028.275.028.358a.349.349,0,0,0,.028.165h-.138a.684.684,0,0,1,.028-.22v-.5c0-.083-.028-.193-.028-.275a.978.978,0,0,0-.055-.275.4.4,0,0,0-.055-.193v-.165a.285.285,0,0,0-.028-.11.085.085,0,0,0-.055.028.576.576,0,0,0-.11-.165,2.237,2.237,0,0,0-.248-.275,1.782,1.782,0,0,0-.22-.248c-.028-.11-.028-.22-.055-.33l-.138-.551a.685.685,0,0,0-.083-.193l-.055.055c-.028.028-.055.083-.11.138-.028.028-.028.055-.055.11a2.351,2.351,0,0,0-.3-.386c.083-.386.165-.8.248-1.157.083-.386.165-.744.22-1.046s.138-.578.193-.826.11-.5.138-.716c.083-.441.138-.8.165-1.046s.028-.413.028-.413l-.083.083a2.666,2.666,0,0,0-.193.248c-.138.22-.358.551-.578.964a12.294,12.294,0,0,0-.661,1.542c-.055.138-.11.3-.165.468s-.11.33-.165.523c-.11.358-.193.743-.275,1.157s-.165.826-.248,1.212c-.055.275-.11.578-.138.854a1.212,1.212,0,0,0-.275-.055.88.88,0,0,0-.193-.028h.028a.1.1,0,0,0,.055.028c.028.028.055.028.055.055l.028.028h-.055a.341.341,0,0,0,.083.055.906.906,0,0,1,.165.165c.028.028.028.055.055.083a3.066,3.066,0,0,0-.055.468c-.028.165-.028.33-.055.468,0,.138-.028.248-.028.358v.165h-.22v-.055a.684.684,0,0,1,.028-.22v-.5c0-.083-.028-.193-.028-.275a.978.978,0,0,0-.055-.275.7.7,0,0,1-.055-.193.6.6,0,0,0-.193-.248,1.932,1.932,0,0,0-.248-.165,1.119,1.119,0,0,1-.275-.248,1.528,1.528,0,0,1-.165-.22,1.932,1.932,0,0,0-.165-.248,4.029,4.029,0,0,0-.248-.358c0-.11-.028-.248-.028-.358s-.028-.22-.028-.33c.055-.248.11-.468.165-.688.083-.358.165-.688.22-1.019.055-.3.138-.633.193-.936s.11-.606.138-.881c.083-.551.138-1.019.165-1.322.028-.33.028-.5.028-.5a.3.3,0,0,0-.055.11,1.975,1.975,0,0,0-.193.3c-.138.275-.358.688-.578,1.212-.193.441-.358.964-.551,1.515-.028-.055-.028-.11-.055-.165a1.414,1.414,0,0,0-.11-.275.274.274,0,0,1-.028-.11s-.028.165-.083.413a7.163,7.163,0,0,0-.138.991,5.365,5.365,0,0,0-.055.688c-.083.275-.138.551-.22.854-.083.386-.165.771-.248,1.129a8.072,8.072,0,0,0-.138.8h-.358a.213.213,0,0,1,.083.028.741.741,0,0,1,.248.165h0a.166.166,0,0,1-.028.11c0,.055-.028.138-.028.193a.519.519,0,0,0-.055-.22.807.807,0,0,0-.11-.22l-.055-.055h-.028c-.028,0-.055.028-.083.028a.67.67,0,0,0-.248.193l-.028.028c.028-.083.028-.193.055-.275a1.9,1.9,0,0,0,.055-.358c.028-.083.028-.165.055-.22v-.083s-.055.055-.165.193a.684.684,0,0,0-.028-.22v-.3c0-.028.028-.028.028-.055a.68.68,0,0,1,.11-.248,2.2,2.2,0,0,1,.22-.441c.028-.083.055-.138.083-.22,0-.028.028-.083.028-.11s.028-.083.028-.11a2.294,2.294,0,0,0,.11-.413,1.72,1.72,0,0,0,.028-.33v-.138s-.083,0-.22.138c-.055.055-.138.193-.248.33a4.2,4.2,0,0,1-.3.441h0v-.028l-.055.055a.423.423,0,0,0-.11.165h0a1.379,1.379,0,0,1-.193.22c-.055.083-.138.138-.193.22s-.138.138-.193.22l-.165.248a1.635,1.635,0,0,0-.11.22,1.13,1.13,0,0,0-.028-.3c0-.138-.028-.275-.028-.413a1.625,1.625,0,0,0-.055-.386,7.561,7.561,0,0,0-.248-1.322c-.083-.358-.193-.743-.275-1.019a2.3,2.3,0,0,0-.11-.33.434.434,0,0,1-.028-.11s-.028.193-.083.468c-.055.3-.11.688-.165,1.074s-.083.854-.11,1.349c0,.248-.028.523-.028.771V69.5l-.028.028a.209.209,0,0,0-.055.11l-.028-.028a.93.93,0,0,0-.3-.193,1.382,1.382,0,0,0-.33-.055h-.138a1.781,1.781,0,0,0,.11-.358c.083-.275.193-.578.275-.854s.165-.578.248-.826c.083-.275.138-.523.22-.771.055-.248.11-.468.165-.688.11-.468.165-.964.22-1.294a3.709,3.709,0,0,0,.055-.551.815.815,0,0,0-.083.11c-.055.083-.11.193-.193.33-.165.275-.386.716-.606,1.184s-.468.909-.716,1.4c-.055.138-.11.248-.165.386l-.165.413c-.028.055-.028.083-.055.138l-.083.083-.193.193a1.272,1.272,0,0,0-.193.193c-.055.083-.11.138-.165.22a.861.861,0,0,0-.138.275,2.312,2.312,0,0,0-.11.33h0c-.028-.055-.028-.11-.055-.138a7.135,7.135,0,0,0-.386-.8c-.138-.248-.275-.468-.413-.688a4.673,4.673,0,0,0-.275-.386c.028-.138.083-.248.11-.386.055-.22.11-.441.165-.688.11-.5.165-1.046.22-1.432a4.961,4.961,0,0,0,.055-.633,1.43,1.43,0,0,1-.083.138c-.055.083-.11.22-.193.358-.165.33-.386.8-.606,1.294-.11.193-.193.441-.3.606-.083-.083-.165-.193-.22-.248a3.66,3.66,0,0,0-.3-.358s.083.193.193.441a2.276,2.276,0,0,0,.193.358,4.145,4.145,0,0,0-.3.606c-.055.11-.11.22-.165.358-.028-.055-.028-.11-.055-.165-.055-.165-.11,0-.22.33a.21.21,0,0,0,.138-.055.484.484,0,0,0,.138-.11v.028c-.055.138-.11.248-.165.386l-.165.413h0l-.083-.33.083-.165a.391.391,0,0,0,.055-.165H9.8c-.028,0-.055-.028-.083-.028.055-.193.083-.33.083-.33a.341.341,0,0,0-.055.083.6.6,0,0,0-.11.138c-.11-.386-.248-.716-.358-1.074-.138-.413-.275-.854-.386-1.184-.055-.165-.11-.3-.138-.386a1.158,1.158,0,0,0-.055-.138.771.771,0,0,1-.028.165c0,.11-.028.248-.028.441-.028.358-.055.881-.055,1.267s.028.8.055,1.267c0,.083.028.193.028.275l-.028.028c-.028.055-.083.083-.11.138h0c-.11-.193-.248-.386-.358-.578-.138-.193-.275-.386-.413-.551-.275-.33-.523-.578-.688-.826-.165-.22-.3-.386-.3-.386s.083.193.193.468a3.009,3.009,0,0,0,.22.413c.083.138.193.33.275.5.11.193.193.386.3.606l.33.661c0,.028.028.055.028.083-.055.055-.083.138-.138.193a1.383,1.383,0,0,0-.138.358c-.028.138-.028.275-.055.358l.193.138a.349.349,0,0,1-.165-.028c-.028,0-.028,0-.055-.028H7.71c-.028,0-.055-.028-.083-.028-.028-.028-.055-.028-.083-.055h0L7.3,69.642c-.028-.028-.055-.028-.083-.055,0-.165.028-.358.028-.468a2.655,2.655,0,0,0,.055-.33v-.11a.085.085,0,0,0-.055.028.448.448,0,0,1-.165.083,3.746,3.746,0,0,0-.468.33l-.028.028L6.5,68.733c-.028-.055-.028-.138-.055-.193l.083-.165c.028-.055.028-.083.055-.138-.028,0-.028,0-.055-.028a.576.576,0,0,1-.165-.11,3.06,3.06,0,0,1,.11-.358l-.055.055a.6.6,0,0,0-.11.138c-.11-.386-.248-.716-.358-1.074-.138-.386-.275-.881-.386-1.212-.055-.165-.11-.3-.138-.413A1.157,1.157,0,0,0,5.37,65.1a.771.771,0,0,1-.028.165c0,.11-.028.275-.028.468-.028.386-.055.909-.055,1.267,0,.386.028.8.055,1.239,0,.11.028.22.028.33V68.6h0c-.028.055-.083.083-.11.11l-.11.11a1.574,1.574,0,0,0-.22.193.858.858,0,0,0-.193.248,3.231,3.231,0,0,0-.138.3.737.737,0,0,1,.055.3c.055.248.083.468.138.661,0,.028.028.055.028.083a5.355,5.355,0,0,0-.138.551,1.193,1.193,0,0,1-.028.138c-.248,0-.468.028-.688.028v-.028c.055-.138.083-.3.138-.468s.083-.33.138-.5c.028-.11.083-.248.11-.358a1.116,1.116,0,0,1-.248-.138,1.781,1.781,0,0,1-.248-.22c-.028-.028-.055-.055-.083-.055,0-.138.028-.275.028-.358.028-.165.055-.248.055-.3v-.11a.085.085,0,0,0-.055.028.917.917,0,0,1-.165.083,3.438,3.438,0,0,0-.5.3,1.782,1.782,0,0,0-.386.716c0,.055.028.083.028.138a2.343,2.343,0,0,0,.165.468c.055.138.11.248.165.358-.055.083-.083.193-.138.275-.028.083-.083.138-.11.22H2.781c-.441.028-.826.028-1.184.028Zm102.466-3.029c0,.083.028.193.028.275a.978.978,0,0,0-.11.248.248.248,0,0,1,.028-.138c0-.11.028-.248.028-.358s.028-.22.028-.33h0A1.115,1.115,0,0,0,102.466,68.513Zm-3.5,2.038h-.193a2.684,2.684,0,0,1,.138-.3L99,70.082v.11C99,70.33,98.969,70.44,98.969,70.55Zm-61.133-.275h0l-.083-.248c0-.028,0-.028-.028-.055v-.055c.028.083.028.138.055.22A.466.466,0,0,0,37.836,70.275Zm-32.329.909.083.165H5.452a.248.248,0,0,0,.028-.138A.027.027,0,0,0,5.507,71.184Zm4.847-.248-.083.083-.028.028v-.055c.028-.055.028-.083.055-.138C10.326,70.881,10.354,70.908,10.354,70.936ZM9,71.239H8.922c0-.028.028-.055.028-.11h0C8.977,71.156,8.977,71.211,9,71.239Zm4.6-.11Zm9.087-2.451a.332.332,0,0,0,.138.138c0,.028-.028.055-.028.083s-.028.055-.028.11c-.028.055-.028.138-.055.193v.028c0,.028-.028.028-.028.055a.166.166,0,0,0-.028.11c0,.055-.028.083-.028.138a.349.349,0,0,1-.028.165v.083a.576.576,0,0,0-.165-.11h0c.055-.165.083-.358.138-.523A2.332,2.332,0,0,1,22.691,68.678Zm7.683.33c.055-.055.083-.11.138-.165a1.2,1.2,0,0,1,.165-.193c0-.028.028-.028.028-.055a3.488,3.488,0,0,0-.165.5.8.8,0,0,0-.055.248l-.083-.248A.1.1,0,0,0,30.374,69.008Zm64.6,1.542h-.083c0-.028-.028-.028-.028-.055-.028-.028-.028-.055-.055-.083l.055-.055c.028-.028.055-.083.083-.11A1.752,1.752,0,0,0,95,70.44C94.948,70.468,94.976,70.5,94.976,70.55ZM81.1,64.63h.193c.248,0,.523-.028.771-.028h.11c.165,0,.3-.028.468-.028,0,.028-.028.028-.028.055-.083.138-.193.3-.275.441h0v-.028a.085.085,0,0,1-.028.055,1.341,1.341,0,0,0-.083.193h0c-.055.083-.083.165-.138.248a2.558,2.558,0,0,0-.138.275c-.028.028-.028.083-.055.11-.083-.11-.165-.193-.248-.3a2.6,2.6,0,0,0-.275-.275.879.879,0,0,0-.193-.165c-.055-.055-.083-.055-.083-.055a.213.213,0,0,0,.028.083,1.753,1.753,0,0,1,.055.193c.055.165.138.413.22.688.055.138.083.3.138.468,0,.028,0,.028.028.055a1.117,1.117,0,0,1-.138.248c0-.028-.028-.055-.028-.083a7.133,7.133,0,0,0-.386-.8,5.188,5.188,0,0,0-.386-.661c.028-.165.083-.358.11-.523.028-.083.028-.138.055-.22A.311.311,0,0,0,81.1,64.63Zm-3.5.138c0,.22.028.468.028.744,0,.11.028.248.028.358s.028.248.028.358a.206.206,0,0,0,.028.138l-.165-.33c-.138-.248-.275-.5-.413-.716a3.507,3.507,0,0,0-.358-.523c0-.028.028-.028.028-.055h.523A1.033,1.033,0,0,0,77.6,64.767ZM55.515,66.254c.11.083.248.138.358.22.165.055.358.11.523.165-.028.083-.055.138-.083.22-.055.11-.083.22-.138.33-.028.11-.083.22-.11.358-.028.11-.083.248-.11.358s-.083.248-.11.358-.055.248-.083.386a.166.166,0,0,1-.028.11c0-.028-.028-.055-.028-.083a3.014,3.014,0,0,0-.248-.633c-.083-.22-.193-.413-.275-.633-.055-.11-.11-.193-.165-.3s-.11-.193-.165-.3a3.855,3.855,0,0,0-.275-.441,1.13,1.13,0,0,0-.028-.3c0-.11-.028-.22-.028-.358,0-.028,0-.055.028-.055C54.909,65.9,55.212,66.062,55.515,66.254Zm35.771,4.268H90.57a.537.537,0,0,1,.028-.22v-.358a.648.648,0,0,0,.055-.22c.028-.11.083-.22.11-.33.055-.193.11-.413.193-.633.083.165.165.33.248.523v.11a3.878,3.878,0,0,1,.028.551v.5C91.286,70.44,91.286,70.468,91.286,70.523ZM89,65.125c-.165.083-.33.193-.523.275.028-.138.083-.275.11-.413a2.294,2.294,0,0,1,.11-.413c.11.165.193.33.3.523h0Zm-12.227.413c.11.22.22.468.33.716.055.138.11.248.165.386.055.11.083.22.138.33-.083-.11-.193-.22-.248-.3a1.663,1.663,0,0,0-.22-.193v.055c0,.028.028.11.028.165.028.165.083.386.138.633a2.826,2.826,0,0,0,.11.386c0,.028-.028.083-.028.11-.055.248-.138.5-.193.744a1.382,1.382,0,0,0-.055.33h-.055a6.466,6.466,0,0,0,.028-.716,3.866,3.866,0,0,0-.055-.633.974.974,0,0,0-.028-.165.1.1,0,0,0-.028-.055l-.055.055h0c0-.083-.028-.165-.028-.248a7.377,7.377,0,0,0-.248-1.267,2.064,2.064,0,0,0-.138-.441c.083-.11.165-.22.22-.3A3.009,3.009,0,0,1,76.774,65.538ZM57.58,70.275c-.028-.055-.028-.11-.055-.165-.028-.028-.028-.055-.055-.11v-.028c.028.055.083.11.11.165Zm-.275-1.542c.028-.138.083-.248.11-.386.055-.165.083-.33.138-.523.028-.083.028-.165.055-.248,0,.028,0,.028.028.055.055.138.11.248.165.386,0,.055-.028.11-.028.193s-.028.165-.028.248c-.028.165-.028.33-.055.5v.028c0,.028-.028.055-.028.11v.028c-.083-.11-.193-.193-.275-.3Q57.346,68.733,57.305,68.733ZM58.9,70.5h-.165c-.028-.028-.055-.083-.083-.11v-.028c0-.083.028-.138.028-.22h0A2.031,2.031,0,0,1,58.9,70.5Zm24.866-1.184c.083-.028.193-.055.275-.083v.33a2.083,2.083,0,0,0,.028.413,1.341,1.341,0,0,0,.028.33h-.028a3.783,3.783,0,0,0-.358-.551.166.166,0,0,1,.028-.11A1.34,1.34,0,0,1,83.768,69.311Zm3.745-.578v.936a2.084,2.084,0,0,0,.028.413c0,.138.028.275.028.386h-.441a.606.606,0,0,1,.028-.22v-.193c0-.083.028-.193.028-.3,0-.028.028-.055.028-.11.028-.11.083-.22.11-.33A4.7,4.7,0,0,0,87.513,68.733Zm-32.439,1.6.165-.248a2.779,2.779,0,0,1,.193.413h-.248a1.63,1.63,0,0,1-.11-.165Zm3.938-2.313a.469.469,0,0,0,.028.193c-.028-.055-.028-.11-.055-.165,0-.028-.028-.055-.028-.083A.059.059,0,0,0,59.012,68.017Zm21.479-1.955c.028.055.055.138.083.193.055.138.11.248.165.386s.11.275.165.386a2.422,2.422,0,0,1,.138.413c.028.083.055.193.083.275a2.332,2.332,0,0,0-.11.468l-.661.165v-.11a3.955,3.955,0,0,0-.055-.661c0-.083-.028-.138-.028-.193s-.028-.055-.028-.055l-.055.055h0a.349.349,0,0,0-.028-.165l.165-.578C80.381,66.475,80.436,66.254,80.491,66.062Zm8.564,1.1a1.193,1.193,0,0,1-.028.138c-.028-.028-.028-.055-.055-.083C89,67.218,89.028,67.191,89.056,67.163Zm-10.6-2.423h.5a2.671,2.671,0,0,0,.468-.028.69.69,0,0,1-.11.193c-.055.11-.11.248-.165.358s-.11.248-.165.386l-.165.413h0c-.028-.138-.055-.248-.083-.358a.978.978,0,0,1-.055-.275c.083-.275.11-.413.11-.413l-.055.055a.6.6,0,0,0-.11.138C78.536,65.015,78.509,64.878,78.454,64.74Zm6.636-.33c.11,0,.22-.028.3-.028h0c.028.22.083.441.11.688.028.138.055.3.083.441a.576.576,0,0,1-.11.165c-.055.083-.083.165-.138.248-.028.028-.028.083-.055.11-.083-.083-.165-.193-.248-.275L84.98,65.7c0-.083-.028-.165-.028-.248-.055-.358-.11-.716-.193-1.046A.669.669,0,0,0,85.09,64.409Zm1.487-.11h0c.11,0,.22-.028.3-.028.138,0,.275-.028.441-.028a.469.469,0,0,0,.193-.028c0,.055-.028.138-.028.193l-.083.165c-.11.22-.22.468-.33.688-.083.138-.138.3-.22.441a1.4,1.4,0,0,1-.055-.358c-.028-.193-.083-.358-.11-.551A4.1,4.1,0,0,0,86.577,64.3Zm3.855,2.065c.028-.028.083-.028.11-.055a.815.815,0,0,0-.055.275c0,.028-.028.083-.028.11a.469.469,0,0,0-.028-.193C90.432,66.447,90.432,66.42,90.432,66.365ZM40.59,69.339c.028.028.028.055.055.083a.027.027,0,0,0,.028.028v.028c.028.138.055.275.083.386.028.138.083.275.11.386h0c-.055-.138-.11-.275-.165-.441-.028-.11-.083-.22-.11-.33Zm2.093,1.267Zm4.681-1.377V70c0,.11.028.193.028.3a.815.815,0,0,0,.055.275h-.275c0-.083.028-.165.028-.248,0-.11.028-.248.028-.386v-.991c.028.028.055.083.083.11C47.337,69.118,47.337,69.173,47.364,69.228Zm3.36-27.675c.028-.055.055-.083.083-.138l.165-.33c.055-.138.138-.248.193-.386l.165-.33c.055-.138.138-.248.193-.386l.165-.33c.055-.138.138-.248.193-.386l.165-.33c.055-.138.138-.248.193-.386a43.279,43.279,0,0,0,.386-.716c.055-.11.11-.193.165-.3.083-.138.138-.275.22-.441.055-.083.083-.193.138-.275.083-.165.193-.358.275-.523a1.58,1.58,0,0,1,.11-.193c.11-.22.248-.468.386-.688.055-.083.083-.165.138-.248.083-.165.165-.3.248-.468.055-.11.11-.193.165-.3.083-.138.138-.275.22-.413.055-.11.11-.193.165-.3.083-.138.138-.275.22-.413a3,3,0,0,1,.165-.3c.083-.138.138-.275.22-.413a3,3,0,0,1,.165-.3c.083-.138.138-.275.22-.413.055-.11.11-.193.165-.3a3.01,3.01,0,0,0,.22-.413c.055-.11.11-.193.165-.3l.083-.165c3.993-.083,8.234-.138,12.64-.165L75.645,41.8c-2.2,3.773-4.378,7.435-6.444,10.85h-3a4.067,4.067,0,0,1-.578-.028h-.248a4.874,4.874,0,0,1-.633-.028h-.193c-.248,0-.5-.028-.716-.028h-.083c-.551-.028-1.1-.028-1.625-.055h-.193c-.193,0-.386-.028-.578-.028h-.3c-.165,0-.33-.028-.5-.028a1.341,1.341,0,0,1-.33-.028,2.368,2.368,0,0,1-.441-.028,1.57,1.57,0,0,1-.358-.028,2.084,2.084,0,0,1-.413-.028,1.57,1.57,0,0,1-.358-.028c-.138,0-.275-.028-.413-.028a1.57,1.57,0,0,1-.358-.028c-.138,0-.275-.028-.386-.028s-.248-.028-.358-.028h-.165C54.744,48.851,52.679,45.244,50.724,41.554ZM77.159,42.82c4.406-.028,8.647-.083,12.64-.165.028.055.055.083.083.138.055.083.083.165.138.248.083.165.165.3.248.468.055.083.083.165.138.248.083.165.165.3.248.441.055.083.083.165.138.248.083.165.165.3.248.468a1.636,1.636,0,0,0,.11.22c.083.165.165.3.248.468.028.083.083.138.11.22l.248.5a1.342,1.342,0,0,1,.083.193,6.215,6.215,0,0,1,.3.606c0,.028.028.028.028.055.11.22.22.441.358.688.028.028.028.055.055.083.11.193.193.386.3.578.028.083.083.138.11.22.083.138.138.3.22.441a.978.978,0,0,1,.11.248c.055.138.138.275.193.413.055.083.083.165.138.248.055.138.138.248.193.386a2.558,2.558,0,0,1,.138.275,2.275,2.275,0,0,0,.193.358,2.56,2.56,0,0,1,.138.275,2.275,2.275,0,0,0,.193.358c.055.083.083.165.138.248a2.516,2.516,0,0,0,.193.386c.028.083.083.165.11.248.028.028.028.055.055.11-1.845,3.057-3.718,5.893-5.59,8.509.028-.3.028-.468.028-.468a.815.815,0,0,0-.083.11,1.975,1.975,0,0,0-.193.3.209.209,0,0,0-.055.11c-.028-.055-.055-.083-.055-.138a3.639,3.639,0,0,0-.248-.468v.138a2.249,2.249,0,0,0,.028.386c0,.138.028.33.028.523a.027.027,0,0,1-.028.028c-.028-.028-.028-.055-.055-.11a4,4,0,0,0-.275-.5c-.083-.138-.138-.22-.193-.3a.476.476,0,0,1-.083-.11.482.482,0,0,0,.028.138,3.382,3.382,0,0,1,.055.358c.055.275.11.633.193,1.1a.1.1,0,0,1-.028.055.349.349,0,0,0-.165.028c-.11,0-.22.028-.33.028-.138,0-.275.028-.413.028-.11,0-.22.028-.33.028-.138,0-.275.028-.413.028-.11,0-.22.028-.33.028-.138,0-.275.028-.413.028,0-.028,0-.055-.028-.055a.434.434,0,0,1-.028-.11v.028h0c-.11-.275-.193-.523-.275-.744a3.562,3.562,0,0,0-.248-.551,3.64,3.64,0,0,0-.248-.468v.138a2.249,2.249,0,0,0,.028.386c0,.165.028.358.028.606v.028l-.083-.165a4,4,0,0,0-.275-.5c-.083-.138-.138-.22-.193-.3a.475.475,0,0,1-.083-.11.482.482,0,0,0,.028.138,3.385,3.385,0,0,1,.055.358c.055.3.138.716.22,1.212,0,.055.028.138.028.193h-.055c-.165,0-.3.028-.468.028h0a1.136,1.136,0,0,1,.028-.248.815.815,0,0,0-.083.11.6.6,0,0,0-.083.138h-.055a.771.771,0,0,0,.028-.165l-.083.083-.083.083c-.165,0-.33.028-.5.028h-.193c-.248.028-.5.028-.771.055h-.138c-.193,0-.413.028-.606.028h-.275c-.165,0-.33.028-.5.028h-.165c.028-.275.028-.413.028-.413a.813.813,0,0,0-.083.11c-.055.055-.11.165-.193.275.028-.193.055-.3.055-.3l-.083.083c-.055.055-.11.138-.193.22,0,.028-.028.028-.055.055h-.441a2.369,2.369,0,0,0-.441.028h-.33a2.369,2.369,0,0,0-.441.028H77.655a.341.341,0,0,0-.055-.083v.083h-.826c-1.9-2.754-3.938-5.893-6.086-9.335C72.809,50.228,74.956,46.593,77.159,42.82ZM93.875,64.189v1.652c0,.33.028.633.028.964a2.671,2.671,0,0,0,.028.468c0,.165.028.3.028.468.028.3.055.606.083.854a2.424,2.424,0,0,0,.055.468c-.028-.165-.055-.358-.083-.523a3.667,3.667,0,0,0-.138-.523l-.165-.5c-.028-.11-.083-.22-.11-.3.028-.22.028-.413.055-.606,0-.22.028-.413.028-.606a8.879,8.879,0,0,0-.028-.936c0-.11-.028-.22-.028-.275v-.083a3.2,3.2,0,0,0-.193.3c-.11.193-.248.5-.413.854-.028.055-.028.083-.055.138a.3.3,0,0,0-.11-.138,1.249,1.249,0,0,0-.028.275v.33a5.982,5.982,0,0,0-.193.661v.028A1.968,1.968,0,0,0,92.5,66.7l-.083-.165a.027.027,0,0,0-.028.028l-.11.11c-.028.028-.028.055-.055.083a1.379,1.379,0,0,0-.193-.22,2.605,2.605,0,0,0-.138-.5c0-.028,0-.055.028-.055.028-.138.083-.275.11-.386C92.58,65.1,93.241,64.657,93.875,64.189Zm9.748,6.416h-.275v-.028a2.827,2.827,0,0,1,.11-.386,1.86,1.86,0,0,0,.055-.386.391.391,0,0,0,.055-.165c0,.055.028.083.028.138.028.11.055.248.083.358v.055c-.028.11-.028.22-.055.3C103.65,70.523,103.623,70.578,103.623,70.605Zm4.076-.083v.138h-.193v-.193a1.693,1.693,0,0,1,.028-.358,1.818,1.818,0,0,1,.028-.386c0-.275,0-.578.028-.854v-.165c0,.138.028.248.028.386a1.57,1.57,0,0,0,.028.358c0,.11.028.22.028.33a1.129,1.129,0,0,0,.028.3.762.762,0,0,0,.028.248A.469.469,0,0,0,107.7,70.523Zm7.821-4.1c0,.028.028.055.028.083a3.008,3.008,0,0,0,.165.3l.165.33c.028.083.055.138.083.22a2.9,2.9,0,0,0-.165.578h0c0-.11-.028-.22-.028-.3-.028-.165-.055-.3-.083-.468Zm7.655,4.489c.028-.028.028-.055.055-.083.055-.11.11-.193.165-.3,0,.028.028.028.028.055v.083a.537.537,0,0,0,.028.22v.055Zm8.592.193h-.138c0-.028.028-.055.028-.083a1.341,1.341,0,0,0,.083-.193v.055C131.738,70.963,131.766,71.046,131.766,71.1Zm3.965.11a5.758,5.758,0,0,1-.688-.028l.083-.165c.028-.083.083-.193.11-.275.028-.028.028-.083.055-.11v.028a1.512,1.512,0,0,0,.193.248.121.121,0,0,0,.028.083l.028-.028c.028.028.055.055.055.083A1.05,1.05,0,0,1,135.731,71.211Zm-1.6-.055a1.117,1.117,0,0,1,.138-.248c.055-.11.11-.22.193-.358.028-.028.028-.055.055-.11V70.5c-.028.11-.028.22-.055.33s-.028.193-.055.3v.055A1.032,1.032,0,0,0,134.134,71.156Zm3.47-.441Zm.33-.5c.055-.083.138-.193.193-.275,0,.138.028.3.028.441.028.22.028.413.055.606,0,.11.028.193.028.3h-.358c0-.028,0-.028-.028-.055a1.637,1.637,0,0,0-.11-.22.575.575,0,0,0-.11-.165V70.8c.028-.083.055-.165.083-.275,0-.028.028-.028.028-.055C137.824,70.358,137.879,70.3,137.934,70.22Zm.991,1.074H138.9a.1.1,0,0,1,.028-.083C138.9,71.239,138.925,71.266,138.925,71.294ZM3.773,70.027v0Zm3.47-.083v0Zm1.019.661v.055c-.055.193-.11.358-.138.5,0,.028-.028.083-.028.11H8.013a.166.166,0,0,1,.028-.11,2.084,2.084,0,0,0,.028-.413c0-.138.028-.3.028-.441v-.441h0a.1.1,0,0,0,.028.083C8.179,70.192,8.206,70.413,8.261,70.605Zm3.938-.716h0a.448.448,0,0,1-.165.083,1.281,1.281,0,0,1-.248.083,3.439,3.439,0,0,0-.248-.33.656.656,0,0,0-.3-.165,1.34,1.34,0,0,0-.33-.028h-.11a1.9,1.9,0,0,1,.083-.22c.083-.248.193-.523.275-.8.055-.22.138-.413.193-.633.028.028.028.083.055.11.11.22.22.468.33.716.055.11.11.248.165.386s.11.275.165.386C12.116,69.642,12.171,69.779,12.2,69.889Zm.138.413c.083.275.165.551.22.771,0,.028.028.055.028.083h-.3c0-.055-.028-.11-.028-.165-.028-.055-.028-.11-.055-.165a2.076,2.076,0,0,0-.165-.358l-.083-.165a1.271,1.271,0,0,0,.193-.275.209.209,0,0,0,.055-.11A3.34,3.34,0,0,1,12.337,70.3Zm8.344.661H20.13c-.028-.028-.055-.083-.083-.11a.38.38,0,0,1-.083-.11,1.033,1.033,0,0,1,.028-.275v-.055l.248-.33a2.779,2.779,0,0,1,.193.413c.028.083.083.138.11.22a1.343,1.343,0,0,0,.083.193C20.653,70.936,20.68,70.936,20.68,70.963Zm7.38-1.983h0v.193c0,.083-.028.165-.028.22v.22c0,.138-.028.275-.028.413a4.4,4.4,0,0,0,0,.606v.193H27.95a1.286,1.286,0,0,0-.275-.138c.028-.055.028-.11.055-.165l.083-.33a2.638,2.638,0,0,0,.083-.606v-.358a.334.334,0,0,0-.028-.138,1.26,1.26,0,0,0-.165.11,3.021,3.021,0,0,0-.33.3.6.6,0,0,0-.11.138.469.469,0,0,1,.028-.193c0-.138.028-.248.028-.358v-.3a1.13,1.13,0,0,0-.028-.3c-.028-.193-.055-.386-.083-.606v-.248c.055.11.083.248.138.33a1.561,1.561,0,0,0,.22.358l.248.33Zm2.836-1.1c-.083.083-.193.165-.275.248-.138.138-.275.248-.413.386v-.028h0a.166.166,0,0,0,.028-.11c.028-.138.083-.248.11-.386s.083-.275.11-.386c.028-.165.055-.33.083-.468,0,.028.028.055.028.11.055.138.11.275.165.441A.346.346,0,0,1,30.9,67.879Zm.578,1.267a1.754,1.754,0,0,0,.055-.193v.083c0,.083-.028.165-.028.22v.22c0,.138-.028.275-.028.413a4.4,4.4,0,0,0,0,.606v.248c-.083-.055-.193-.11-.275-.165,0-.055.028-.138.028-.193.028-.11.028-.22.055-.3a1.382,1.382,0,0,0,.055-.33c.028-.11.028-.22.055-.33C31.42,69.339,31.448,69.228,31.475,69.146Zm3.69-.936c0,.028.028.028.028.055v.909a.1.1,0,0,1-.028.083c-.028.083-.028.22-.055.358v.771a.937.937,0,0,0,.028.275v.055h-.551c.028-.11.028-.193.055-.3s.028-.22.055-.3a1.382,1.382,0,0,0,.055-.33c.028-.11.028-.22.055-.33l.083-.33c.055-.22.11-.413.165-.606A1.342,1.342,0,0,0,35.165,68.21Zm3.47,1.873a3.763,3.763,0,0,1,.055-.523.606.606,0,0,1,.028-.22c.028.33.028.578.055.8,0,.11.028.193.028.275s.028.165.028.22h-.193v-.11c0-.083.028-.138.028-.22C38.607,70.247,38.635,70.165,38.635,70.082Zm7.986-3.5c0,.028-.028.028-.028.055-.083.165-.193.413-.3.688-.028.11-.083.22-.11.33-.083.138-.193.3-.3.468-.055.11-.138.248-.193.386,0-.028-.028-.055-.028-.083.083-.248.138-.5.22-.744.083-.358.193-.743.275-1.1.083-.3.138-.578.22-.854.028.055.028.11.055.138A3.984,3.984,0,0,0,46.621,66.585Zm6-2.2c.248.193.523.358.771.551,0,.055.028.138.028.248.028.083.028.193.055.3l-.083.413c-.083.413-.165.854-.248,1.267,0,.083-.028.138-.028.22l-.165.413a.215.215,0,0,0-.11-.11.982.982,0,0,0-.193-.193v.055c0,.028-.028.11-.028.165,0,.138-.028.358-.028.606a2.226,2.226,0,0,0,.028.413v.055c-.028.055-.028.138-.055.193-.028.083-.055.193-.083.275-.028-.028-.028-.055-.055-.083-.055-.083-.083-.193-.138-.275v-.055c0-.193.028-.413.028-.633v-.193a2.16,2.16,0,0,0,.055-.386,1.756,1.756,0,0,1,.055-.248.121.121,0,0,1,.028-.083,1.09,1.09,0,0,0-.138.193V67.3a1.129,1.129,0,0,0-.028-.3c0-.11-.028-.22-.028-.33v-.083a1.612,1.612,0,0,0,.055-.358c.028-.22.083-.441.11-.661.028-.11.028-.22.055-.3a.206.206,0,0,1,.028-.138c0-.055.028-.083.028-.138a3.869,3.869,0,0,0,.055-.5C52.624,64.409,52.624,64.409,52.624,64.382ZM49.154,42.49c1.955,3.662,4.02,7.27,6.168,10.74-1.515,2.809-2.864,5.425-4.048,7.738A33.151,33.151,0,0,1,40.342,42.077C42.765,42.242,45.739,42.38,49.154,42.49ZM56.176,8.316c-2.148,2.919-4.323,6.2-6.416,9.693-.441.055-.881.083-1.294.138h-.11c-.083,0-.138.028-.22.028A.248.248,0,0,0,48,18.2c-.083,0-.138.028-.193.028a.206.206,0,0,0-.138.028c-.055,0-.138.028-.193.028a.349.349,0,0,0-.165.028c-.055,0-.11.028-.193.028a2180810686245.061,2180810686245.061,0,0,1-.33.055c-.055,0-.11.028-.165.028a.349.349,0,0,0-.165.028c-.055,0-.11.028-.193.028a.349.349,0,0,0-.165.028c-.055,0-.11.028-.193.028a.248.248,0,0,0-.138.028c-.055,0-.138.028-.193.028a.248.248,0,0,0-.138.028c-.083,0-.138.028-.22.028a.166.166,0,0,0-.11.028c-.083,0-.165.028-.248.028h-.083c-.11.028-.22.028-.33.055A33.646,33.646,0,0,1,55.57,7.517,2.045,2.045,0,0,1,56.176,8.316Zm13.218.275c1.9,2.754,3.938,5.893,6.086,9.335-2.065,3.415-4.241,7.05-6.416,10.822-4.406.028-8.647.083-12.64.165h0c-.11-.22-.22-.441-.358-.661,0-.028-.028-.028-.028-.055-.11-.193-.22-.413-.33-.606-.028-.028-.028-.055-.055-.083-.11-.193-.193-.386-.3-.578-.028-.055-.055-.083-.055-.138-.083-.193-.193-.358-.275-.551a.6.6,0,0,0-.083-.138c-.083-.165-.193-.358-.275-.523l-.083-.165c-.083-.193-.193-.358-.275-.523a.1.1,0,0,0-.028-.055c-.11-.22-.22-.413-.33-.633h0l-.33-.661a.027.027,0,0,0-.028-.028c-.083-.193-.193-.358-.275-.551-.055-.083-.083-.193-.138-.275a2.275,2.275,0,0,0-.193-.358.027.027,0,0,0-.028-.028c-.055-.083-.083-.193-.138-.275-.055-.11-.11-.193-.165-.3-.028-.028-.028-.055-.055-.11a2.56,2.56,0,0,1-.138-.275c-.055-.083-.083-.165-.138-.248-.028-.055-.055-.083-.083-.138-.055-.11-.083-.193-.138-.3l-.083-.165-.083-.165-.165-.33c-.028-.028-.028-.083-.055-.11-.028-.083-.083-.138-.11-.22a2.518,2.518,0,0,0-.193-.386h0c-.028-.083-.083-.165-.11-.248-.028-.028-.028-.055-.055-.11,2.12-3.5,4.268-6.774,6.444-9.693a.349.349,0,0,0,.165-.028c.11,0,.22-.028.33-.028.138,0,.248-.028.386-.028.11,0,.22-.028.358-.028s.248-.028.386-.028c.11,0,.22-.028.358-.028s.248-.028.386-.028c.11,0,.22-.028.358-.028s.275-.028.386-.028.22-.028.33-.028c.138,0,.275-.028.413-.028.11,0,.22-.028.33-.028.165,0,.33-.028.468-.028a.937.937,0,0,0,.275-.028c.248-.028.5-.028.744-.055h.22c.193,0,.358-.028.551-.028a1.13,1.13,0,0,0,.3-.028c.165,0,.3-.028.468-.028h.33a2.369,2.369,0,0,0,.441-.028h.33a2.369,2.369,0,0,0,.441-.028h.33a2.369,2.369,0,0,0,.441-.028h1.873A.7.7,0,0,0,69.394,8.591Zm24.15.826c-1.212,2.4-2.616,5.094-4.186,8.013h-.11a1.341,1.341,0,0,1-.33-.028c-.138,0-.3-.028-.441-.028a1.341,1.341,0,0,1-.33-.028c-.138,0-.3-.028-.441-.028a1.341,1.341,0,0,1-.33-.028c-.138,0-.3-.028-.441-.028a1.341,1.341,0,0,1-.33-.028c-.138,0-.3-.028-.441-.028a1.341,1.341,0,0,1-.33-.028,2.672,2.672,0,0,1-.468-.028h-.33a2.993,2.993,0,0,1-.5-.028h-.3c-.193,0-.386-.028-.551-.028h-.248c-.551-.028-1.074-.028-1.625-.055h-.248a4.067,4.067,0,0,1-.578-.028h-3.91c-2.148-3.415-4.186-6.554-6.086-9.308,1.432-1.983,2.809-3.745,4.076-5.232A33.234,33.234,0,0,1,93.544,9.418Zm12.337,20.075c-2.423-.165-5.4-.3-8.812-.413-1.955-3.662-4.02-7.27-6.168-10.74,1.515-2.809,2.864-5.425,4.048-7.738A33.151,33.151,0,0,1,105.881,29.492ZM97.757,51.6c-.413.055-.854.083-1.267.138-.854-1.762-1.79-3.607-2.754-5.48-.743-1.459-1.542-2.974-2.368-4.516,2.038-3.662,3.965-7.3,5.728-10.822,3.525.11,6.554.275,9.032.441.028.083.083.165.11.248a34.872,34.872,0,0,1,.248,4.186,33.508,33.508,0,0,1-3.635,15.173c-.386.055-.771.11-1.184.165-.11.028-.193.028-.3.055q-1.528.207-3.222.413A1.8,1.8,0,0,0,97.757,51.6Zm-.578,9.831c0,.11.028.193.028.3.028.33.083.661.11,1.019.028.165.028.358.055.523v.11c0,.165-.028.358-.028.523a2.832,2.832,0,0,1-.028.468v1.046c-.028.11-.055.193-.083.3s-.055.248-.083.358-.055.248-.083.358a1.859,1.859,0,0,0-.055.386.936.936,0,0,0-.028.275,2.853,2.853,0,0,0-.11-.275c0-.138-.028-.248-.028-.386-.028-.138-.028-.3-.055-.441-.083-.551-.165-1.1-.275-1.542s-.22-.826-.3-1.074c-.055-.138-.083-.22-.11-.3l-.055-.11a.434.434,0,0,1-.028.11,1.8,1.8,0,0,1-.055.3c-.028.275-.083.661-.11,1.1s-.055.991-.055,1.542v.248a.1.1,0,0,1-.055-.028s0,.028.055.11v.055a.027.027,0,0,0-.028.028l-.11.11a2.9,2.9,0,0,0-.22.358,2.993,2.993,0,0,0-.028-.5v-.275c0-.083-.028-.193-.028-.275-.028-.386-.083-.771-.11-1.129l-.083-.578a3.248,3.248,0,0,0-.11-.551,1.612,1.612,0,0,1-.055-.358A25.107,25.107,0,0,0,97.179,61.435ZM98.2,69.284Zm.936-2.7c.028-.055.028-.083.055-.138a.1.1,0,0,1,.028.055v1.349a3.512,3.512,0,0,0,.028.523V68.4c-.028.028-.083.055-.138.11a.341.341,0,0,1-.083-.055.213.213,0,0,0,.028.083,1.166,1.166,0,0,1-.193.138v-1.4C98.969,67,99.079,66.778,99.134,66.585Zm.083-.193v.055h-.028A.085.085,0,0,0,99.217,66.392Zm8.261-.22v.33a.294.294,0,0,0-.083-.138h0a1.343,1.343,0,0,1,.083-.193Zm.413,4.461v.028h0Zm.386-1.129c.028-.083.028-.165.055-.22v.165c0,.11-.028.193-.028.3v.716a.606.606,0,0,0,.028.22h-.193c-.028-.028-.055-.055-.055-.083A.38.38,0,0,0,108,70.5c.028-.028.028-.083.055-.11l.083-.248C108.166,69.944,108.221,69.724,108.277,69.5Zm3.415,1.019a.538.538,0,0,0,.028.193H111a1.34,1.34,0,0,1,.028-.33,10893.1,10893.1,0,0,1,.055-.826,2.085,2.085,0,0,1,.028-.413V67.989c0-.138-.028-.248-.028-.358v-.3a3.6,3.6,0,0,0-.055-.744.933.933,0,0,0-.083-.22c.055-.193.11-.358.165-.523.028.138.055.275.083.441.055.3.11.633.165.936l.083.5a17763960555121.207,17763960555121.207,0,0,1,.11.991c.028.165.028.33.055.468.028.165.028.3.055.468a2.369,2.369,0,0,1,.028.441A1.182,1.182,0,0,0,111.691,70.523Zm.386-4.213c0,.028.028.028.028.055l-.028.028c0-.055-.028-.11-.028-.165C112.049,66.254,112.077,66.282,112.077,66.31Zm3.057,4.213c0,.083.028.165.028.248h-.413a.349.349,0,0,0-.028-.165v-.138c0-.055-.028-.11-.028-.165a5.514,5.514,0,0,0-.11-.661,1.4,1.4,0,0,1-.055-.358V67.989a2.323,2.323,0,0,0-.055-.523v-.055c.083-.165.138-.33.22-.5a1.612,1.612,0,0,1,.055.358c.028.138.055.3.083.468a15537.34,15537.34,0,0,1,.11.991c.028.165.028.33.055.468.028.165.028.3.055.468a2.368,2.368,0,0,1,.028.441A2.127,2.127,0,0,1,115.133,70.523Zm.881-4.158a.027.027,0,0,0-.028-.028c-.138-.193-.275-.413-.413-.606-.083-.138-.193-.248-.275-.386.028-.11.083-.22.11-.33.055-.22.138-.468.165-.661,0-.055.028-.11.028-.165.028.193.055.441.083.716a4.674,4.674,0,0,0,.11.606c.028.193.083.386.11.606A.5.5,0,0,1,116.014,66.365Zm6.251,4.3a.851.851,0,0,1,.055.22h-.5c0-.028,0-.028.028-.055.028-.083.055-.193.11-.33.028-.138.083-.3.138-.5a2.3,2.3,0,0,0,.11.413A.8.8,0,0,0,122.265,70.66ZM129.2,70.5v.055l-.055-.055v-.248A1.757,1.757,0,0,0,129.2,70.5Zm.743.083v.468h-.33a.6.6,0,0,0-.083-.138.779.779,0,0,1-.083-.165.085.085,0,0,1-.028.055l-.083-.083a.519.519,0,0,0,.055-.22c.055-.138.083-.3.138-.5s.083-.413.138-.661v-.055c.083.468.165.854.22,1.129A.272.272,0,0,1,129.948,70.578Zm3.525.165c-.055.083-.083.165-.138.248h0a1.684,1.684,0,0,0-.138-.33,3.9,3.9,0,0,0-.22-.5,1.751,1.751,0,0,0,.055-.193c.055-.193.083-.413.138-.661v-.055c.083.468.165.854.22,1.129A2.359,2.359,0,0,0,133.473,70.743Zm.413.386c0-.028.028-.055.028-.083a.166.166,0,0,0,.028.11h-.055C133.859,71.129,133.886,71.129,133.886,71.129Zm2.588-2.891v.468a3.51,3.51,0,0,0,.028.523v.165c-.028.028-.028.055-.055.083a.38.38,0,0,1-.11-.083l-.055-.055a2.316,2.316,0,0,1,.11.275.391.391,0,0,0-.055.165,1.9,1.9,0,0,1-.083.22h0c-.055-.083-.11-.193-.165-.275-.028-.055-.055-.083-.083-.138.11-.33.193-.716.3-1.129a1.966,1.966,0,0,1,.138-.468c.028-.028.028-.055.055-.055v.028A.691.691,0,0,0,136.475,68.237ZM137.549,70c-.028.028-.028.055-.055.055-.055.055-.11.138-.165.193a.1.1,0,0,1,.028-.083.684.684,0,0,0,.028-.22c0-.083.028-.165.028-.22.028-.3.055-.578.055-.826v-.083c.028.248.028.5.055.688C137.521,69.669,137.549,69.834,137.549,70Zm.578-1.6h0v1.046l-.165.165v-.055c.055-.3.083-.633.138-.991C138.1,68.485,138.1,68.43,138.127,68.4Zm.854.165v0Zm.551,2.2c0,.028-.028.055-.028.083v-.028a.085.085,0,0,1,.028-.055Zm1.542,0V70.8a3.116,3.116,0,0,0-.275-.358c0-.028-.028-.028-.028-.055a1.193,1.193,0,0,1,.028-.138.606.606,0,0,0,.028-.22c0-.083.028-.138.028-.22.028-.275.055-.578.055-.826v-.275c.028.275.055.551.055.8.028.3.028.551.055.771S141.073,70.66,141.073,70.771Zm-.5.578h-.055c0-.028.028-.055.028-.083C140.55,71.294,140.578,71.321,140.578,71.349Zm1.873-2.616v0Z" transform="translate(0 0)" fill="#fff"/>
      </g>
      <path id="Path_65604" data-name="Path 65604" d="M105.8,280.3q43.949-1.9,87.954,0-43.949,1.941-87.954,0Z" transform="translate(-76.666 -202.425)" fill="#fff"/>
      <path id="Path_65605" data-name="Path 65605" d="M166.5,297.1a391.216,391.216,0,0,1,54.5,0,391.235,391.235,0,0,1-54.5,0Z" transform="translate(-120.65 -214.598)" fill="#fff"/>
    </g>
  </g>
</svg>
