<svg xmlns="http://www.w3.org/2000/svg" width="23.081" height="17.292" viewBox="0 0 23.081 17.292">
  <g id="Layer_2_00000126303876444903545920000014129275007389739697_" transform="translate(0 -64.2)">
    <g id="sort" transform="translate(0 64.2)">
      <path id="Path_66115" data-name="Path 66115" d="M1.447,64.2H21.634a1.447,1.447,0,0,1,0,2.895H1.447a1.447,1.447,0,0,1,0-2.895Z" transform="translate(0 -64.2)" fill="#c5c5c5"/>
      <path id="Path_66116" data-name="Path 66116" d="M1.447,223.9H14.329a1.447,1.447,0,0,1,0,2.895H1.447a1.447,1.447,0,0,1,0-2.895Z" transform="translate(0 -216.699)" fill="#c5c5c5"/>
      <path id="Path_66117" data-name="Path 66117" d="M1.447,383.5H7.025a1.447,1.447,0,0,1,0,2.895H1.447a1.447,1.447,0,1,1,0-2.895Z" transform="translate(0 -369.103)" fill="#c5c5c5"/>
    </g>
  </g>
</svg>
