<svg xmlns="http://www.w3.org/2000/svg" width="31.856" height="22.159" viewBox="0 0 31.856 22.159">
  <g id="g849" transform="translate(0.338 678.614)">
    <g id="g851" transform="translate(0.412 -677.864)">
      <g id="Group_175201" data-name="Group 175201" transform="translate(0 0)">
        <g id="g859">
          <path id="path861" d="M-587.376-350.146a3.623,3.623,0,0,0,3.159-3.589V-367.1a3.622,3.622,0,0,0-3.617-3.617H-609.6m0,0h-1.352a3.622,3.622,0,0,0-3.617,3.617v13.364a3.621,3.621,0,0,0,3.617,3.617h23.579" transform="translate(614.572 370.716)" fill="none" stroke="#c5c5c5" stroke-linecap="round" stroke-linejoin="round" stroke-width="1.5"/>
        </g>
        <g id="g867" transform="translate(2.264 5.957)">
          <path id="path869" d="M0-180.937H3.812v-8.686H0" transform="translate(0 189.624)" fill="none" stroke="#c5c5c5" stroke-linecap="round" stroke-linejoin="round" stroke-width="1.5"/>
        </g>
        <g id="g875" transform="translate(24.28 5.957)">
          <path id="path877" d="M-79.4-180.937H-83.21v-8.686H-79.4" transform="translate(83.21 189.624)" fill="none" stroke="#c5c5c5" stroke-linecap="round" stroke-linejoin="round" stroke-width="1.5"/>
        </g>
        <g id="g883" transform="translate(15.178 2.264)">
          <path id="path885" d="M0-334.759V-350.83" transform="translate(0 350.83)" fill="none" stroke="#c5c5c5" stroke-linecap="round" stroke-linejoin="round" stroke-width="1.5"/>
        </g>
      </g>
    </g>
  </g>
</svg>
