<svg xmlns="http://www.w3.org/2000/svg" width="77.453" height="77.563" viewBox="0 0 77.453 77.563">
  <g id="bell" transform="translate(-0.256 -0.246)">
    <path id="Path_66114" data-name="Path 66114" d="M9.333,38.857a3.549,3.549,0,0,1-.795,2.226L2.5,48.356A9.779,9.779,0,0,0,.311,55.59a9.167,9.167,0,0,0,3.5,6.28,11.516,11.516,0,0,0,7.035,2.425H22.768a16.439,16.439,0,0,0,32.354,0H67.045a11.494,11.494,0,0,0,8.108-3.339,9.366,9.366,0,0,0,.278-12.56L69.35,41.083a3.468,3.468,0,0,1-.795-2.226V30.431C68.555,14.254,55.678.74,39.859.263A29.429,29.429,0,0,0,18.117,8.689,28.653,28.653,0,0,0,9.333,29.358Zm29.611,32.95a10.553,10.553,0,0,1-10.056-7.552H49a10.468,10.468,0,0,1-10.056,7.552ZM15.3,38.857v-9.5a22.553,22.553,0,0,1,7-16.376A23.813,23.813,0,0,1,38.944,6.265H39.7c12.639.358,22.934,11.208,22.934,24.206V38.9a5.676,5.676,0,0,0,.119,1.153H38.547a2.981,2.981,0,1,0,0,5.962H65.694l5.207,6.24a3.4,3.4,0,0,1,.079,4.531,5.469,5.469,0,0,1-3.9,1.59H10.844A5.43,5.43,0,0,1,7.465,57.22a3.338,3.338,0,0,1-1.232-2.305,3.75,3.75,0,0,1,.835-2.782l6.041-7.274a9.225,9.225,0,0,0,2.186-6Z" transform="translate(0 0)" fill="#a3a3a3"/>
  </g>
</svg>
