<svg id="logo_remontada" data-name="logo remontada" xmlns="http://www.w3.org/2000/svg" width="44.21" height="36.962" viewBox="0 0 44.21 36.962">
  <g id="Group_175170" data-name="Group 175170" transform="translate(3.378 26.087)">
    <path id="Path_65606" data-name="Path 65606" d="M40.6,321.655h1.764v-7.647a.417.417,0,0,1,.108-.316c.075-.067.141-.133.2-.191H40.6Z" transform="translate(-40.6 -313.5)" fill="#9e9e9e"/>
    <path id="Path_65607" data-name="Path 65607" d="M75.254,347.507a2.444,2.444,0,0,0-1.281-.341h-.807a.44.44,0,0,1-.325-.133.2.2,0,0,1-.058-.133l-.092,2.039h1.281a.773.773,0,0,1,.566.233.742.742,0,0,1,.233.557.724.724,0,0,1-.233.549.785.785,0,0,1-.566.225H72v2.08c.008-.008.058-.067.158-.166a.479.479,0,0,1,.349-.15h1.465a2.569,2.569,0,0,0,1.281-.341,2.609,2.609,0,0,0,.932-.924,2.444,2.444,0,0,0,.341-1.281,2.6,2.6,0,0,0-.341-1.29A2.545,2.545,0,0,0,75.254,347.507Z" transform="translate(-69.387 -344.121)" fill="#9e9e9e"/>
    <path id="Path_65608" data-name="Path 65608" d="M171.865,324.931a.853.853,0,1,0-.616-.25A.841.841,0,0,0,171.865,324.931Z" transform="translate(-160.149 -322.393)" fill="#9e9e9e"/>
    <path id="Path_65609" data-name="Path 65609" d="M194.065,324.931a.853.853,0,1,0-.616-.25A.841.841,0,0,0,194.065,324.931Z" transform="translate(-180.502 -322.393)" fill="#9e9e9e"/>
    <path id="Path_65610" data-name="Path 65610" d="M143.03,316.679a.447.447,0,0,1,.141.35v2.005a.843.843,0,0,1-.241.6.8.8,0,0,1-.591.25h-.25a.852.852,0,0,1-.591-.25.843.843,0,0,1-.241-.6v-2.513h-2.072c.008.008.067.058.166.15a.446.446,0,0,1,.141.349v2.014a.843.843,0,0,1-.241.6.8.8,0,0,1-.591.25H138a.8.8,0,0,1-.591-.25.809.809,0,0,1-.241-.6V314a.386.386,0,0,1,.108-.308l.191-.191H135.4v5.534a2.627,2.627,0,0,0,.374,1.248,2.491,2.491,0,0,0,2.18,1.365h.766a2.313,2.313,0,0,0,1.7-.716,2.148,2.148,0,0,0,.474.341,2.462,2.462,0,0,0,1.048.358v.008h.474a2.481,2.481,0,0,0,2.18-1.365,2.627,2.627,0,0,0,.374-1.248v-2.513H142.9C142.881,316.529,142.939,316.579,143.03,316.679Z" transform="translate(-127.512 -313.5)" fill="#9e9e9e"/>
    <path id="Path_65611" data-name="Path 65611" d="M229.665,323.831a.853.853,0,1,0-.616-.25A.841.841,0,0,0,229.665,323.831Z" transform="translate(-213.14 -321.384)" fill="#9e9e9e"/>
    <path id="Path_65612" data-name="Path 65612" d="M266.973,352.092h.832a2.481,2.481,0,0,0,2.18-1.365,2.627,2.627,0,0,0,.374-1.248v-2.513h-2.072c.008.008.067.058.166.15a.446.446,0,0,1,.141.349v2.005a.843.843,0,0,1-.241.6.8.8,0,0,1-.591.25h-.624a.852.852,0,0,1-.591-.25.779.779,0,0,1-.233-.5V346.7l-.141.141a.44.44,0,0,1-.325.133h-2.2a2.546,2.546,0,0,0-2.213,1.273,2.494,2.494,0,0,0-.341,1.29,2.7,2.7,0,0,0,.116.782h-.666a.852.852,0,0,1-.591-.25.843.843,0,0,1-.241-.6V346.7l-.141.141a.44.44,0,0,1-.325.133h-2.2a2.546,2.546,0,0,0-2.213,1.273,2.5,2.5,0,0,0-.341,1.29,2.569,2.569,0,0,0,.341,1.281,2.573,2.573,0,0,0,2.338,1.265,2.96,2.96,0,0,0,.782-.125.821.821,0,0,1-.25.533.8.8,0,0,1-.591.25H256.7v2.072c.008-.008.058-.067.141-.166a.443.443,0,0,1,.325-.141,2.317,2.317,0,0,0,1.223-.341,2.975,2.975,0,0,0,.957-1.023,2.822,2.822,0,0,0,.366-1.24,2.224,2.224,0,0,0,.591.158v.017h3.536a2.246,2.246,0,0,0,1.148-.341,2.441,2.441,0,0,0,.449-.374,2.2,2.2,0,0,0,.483.341,2.634,2.634,0,0,0,1.057.366Zm-9.028-2.621a.843.843,0,0,1-.241.6.74.74,0,0,1-.524.25h-.125a.8.8,0,0,1-.566-.225.774.774,0,0,1,0-1.107.76.76,0,0,1,.566-.233h.9v.716Zm6.6,0a.843.843,0,0,1-.241.6.8.8,0,0,1-.591.25h-.067a.8.8,0,0,1-.566-.225.774.774,0,0,1,0-1.107.76.76,0,0,1,.566-.233h.9Z" transform="translate(-236.701 -343.937)" fill="#9e9e9e"/>
    <path id="Path_65613" data-name="Path 65613" d="M405.265,420a.853.853,0,1,0,.616.25A.828.828,0,0,0,405.265,420Z" transform="translate(-374.128 -411.138)" fill="#9e9e9e"/>
    <path id="Path_65614" data-name="Path 65614" d="M427.565,420a.853.853,0,1,0,.616.25A.855.855,0,0,0,427.565,420Z" transform="translate(-394.572 -411.138)" fill="#9e9e9e"/>
    <path id="Path_65615" data-name="Path 65615" d="M454.957,349.717c.008.008.067.058.166.141a.471.471,0,0,1,.141.349v4.427a.843.843,0,0,1-.241.6.8.8,0,0,1-.591.25H454v2.072c.008-.008.058-.067.141-.166a.443.443,0,0,1,.324-.141,2.316,2.316,0,0,0,1.223-.341,3.024,3.024,0,0,0,.957-1.015,2.789,2.789,0,0,0,.366-1.381l.008-2.3V349.7h-2.064Z" transform="translate(-419.601 -346.688)" fill="#9e9e9e"/>
  </g>
  <g id="Group_175172" data-name="Group 175172" transform="translate(0 0)">
    <g id="Group_175171" data-name="Group 175171">
      <path id="Path_65616" data-name="Path 65616" d="M514.417,247.033h0a.008.008,0,0,1,.008-.008.082.082,0,0,0,.017-.05.026.026,0,0,0-.017.008c-.008,0-.008.008-.017.008,0-.033-.008-.092-.008-.141v-.017h0a.086.086,0,0,1,.008-.033.008.008,0,0,1,.008.008.411.411,0,0,1,.042.141.142.142,0,0,1,.008.058h-.008A.046.046,0,0,1,514.417,247.033Z" transform="translate(-471.596 -226.264)" fill="#9e9e9e"/>
      <path id="Path_65617" data-name="Path 65617" d="M505.742,237.48c-.017-.008-.025-.025-.042-.042.008-.025.017-.067.025-.1.017-.083.042,0,.075.158C505.783,237.5,505.767,237.5,505.742,237.48Z" transform="translate(-463.62 -217.559)" fill="#9e9e9e"/>
      <path id="Path_65618" data-name="Path 65618" d="M520.933,246.8a.029.029,0,0,1,.008.017.613.613,0,0,1,0,.125.163.163,0,0,1-.008.067.359.359,0,0,1-.008.042c0,.008-.008.008-.008,0s-.008-.025-.017-.05v-.008c.008-.067.017-.125.025-.158A.131.131,0,0,0,520.933,246.8Z" transform="translate(-477.555 -226.264)" fill="#9e9e9e"/>
      <path id="Path_65619" data-name="Path 65619" d="M493.5,235.7c.008-.025.008-.05.017-.083.017-.067.033,0,.067.15a.072.072,0,0,1-.05-.025C493.525,235.732,493.517,235.716,493.5,235.7Z" transform="translate(-452.435 -215.986)" fill="#9e9e9e"/>
      <path id="Path_65620" data-name="Path 65620" d="M505.225,238.025c-.008-.017-.008-.05-.017-.075a.182.182,0,0,0-.008-.05.368.368,0,0,0,.05.083C505.233,238.025,505.225,238.041,505.225,238.025Z" transform="translate(-463.162 -218.104)" fill="#9e9e9e"/>
      <path id="Path_65621" data-name="Path 65621" d="M492.925,235.925c-.008-.017-.008-.05-.017-.075a.181.181,0,0,0-.008-.05.66.66,0,0,0,.042.083C492.942,235.925,492.933,235.95,492.925,235.925Z" transform="translate(-451.885 -216.179)" fill="#9e9e9e"/>
      <path id="Path_65622" data-name="Path 65622" d="M15.767,252.825c-.008,0-.008,0-.017-.008a.026.026,0,0,0-.017-.008l.017.033.008.008h0c-.017,0-.033-.008-.05-.008H15.7c0-.017.008-.025.008-.042.017-.05.025-.083.042-.092l.008-.008a.036.036,0,0,1,.008.025h0v.008A.168.168,0,0,1,15.767,252.825Z" transform="translate(-14.394 -231.673)" fill="#9e9e9e"/>
      <path id="Path_65623" data-name="Path 65623" d="M25.25,246.9a.083.083,0,0,1-.008.033.089.089,0,0,1-.017.05q-.012.012-.025-.025A.185.185,0,0,0,25.25,246.9Z" transform="translate(-23.103 -226.355)" fill="#9e9e9e"/>
      <path id="Path_65624" data-name="Path 65624" d="M9.625,252.912c-.008.008-.008,0-.008,0s-.008-.017-.008-.025a.091.091,0,0,0-.008-.042v-.075c0-.008,0-.017.008-.008a.029.029,0,0,1,.008.017.566.566,0,0,1,.025.1v.008A.119.119,0,0,0,9.625,252.912Z" transform="translate(-8.801 -231.726)" fill="#9e9e9e"/>
      <path id="Path_65625" data-name="Path 65625" d="M23.983,246.545a.572.572,0,0,0,.025.067.181.181,0,0,1-.042.025.088.088,0,0,1-.067.008C23.95,246.545,23.967,246.486,23.983,246.545Z" transform="translate(-21.911 -226.008)" fill="#9e9e9e"/>
      <path id="Path_65626" data-name="Path 65626" d="M0,21.618l.5.566c.108,0,.225.008.358.017.283.008.632.025,1.048.033l.349.008c.541.017,1.148.033,1.831.05l1.34.033,3.1.058,1.731.025c1.373.017,2.6.033,3.736.042l1.972.017,2.022.008c1.157.008,2.347.008,3.495.008h1.1c1.2,0,2.446,0,3.645-.008l2.022-.008,1.972-.017c1.14-.008,2.355-.025,3.736-.042l1.731-.025,3.1-.058,1.34-.033c.666-.017,1.265-.033,1.789-.05l.391-.008c.408-.008.757-.025,1.04-.033a5.244,5.244,0,0,0,.857-.582l-.5-.017c-.108,0-.225-.008-.366-.017h-.108l-.008-.008-.017-.017v-.017c0-.033.008-.067.008-.1v-.166c0-.008,0-.008.008-.017l.025-.075c.017-.05.042-.116.058-.183s.033-.141.05-.225c0-.017.008-.042.008-.058a1.113,1.113,0,0,0-.116-.333.76.76,0,0,0-.15-.141c-.017-.017-.042-.033-.05-.042l-.017-.017v.058c0,.033.008.075.017.141a.91.91,0,0,1,.008.166l-.025.025-.075.1a.537.537,0,0,1-.075.067,1.292,1.292,0,0,0,.033.175c.017.075.025.15.042.225s.025.141.042.216.025.133.042.191a.031.031,0,0,0,.008.025c-.1,0-.2-.008-.308-.008-.008-.008-.008-.025-.017-.033-.008-.025-.025-.042-.033-.067a.363.363,0,0,1-.033-.058.031.031,0,0,1,.008-.025,1.061,1.061,0,0,0,.033-.15c.017-.067.033-.141.05-.233s.025-.191.042-.3c.008-.058.017-.108.017-.133a.479.479,0,0,0-.042-.141.332.332,0,0,0-.058-.108c-.025-.033-.05-.067-.067-.092s-.025-.033-.033-.05a.362.362,0,0,1-.033-.058.644.644,0,0,1-.058-.133c-.042-.108-.067-.241-.1-.25s-.067.042-.1.083a.675.675,0,0,1-.092.108c-.008,0-.008.008-.017.008.008.017.008.042.017.058a.706.706,0,0,0,.108.225.658.658,0,0,1,.108.216.691.691,0,0,1,.042.166c0,.025.008.042.008.067h0c-.017-.008-.025-.025-.042-.033l-.025.025c-.008.008-.017.017-.025.017l-.008.008a.091.091,0,0,1-.017-.033h0a.142.142,0,0,1-.008.058c0,.017-.008.025-.008.033s-.008.008-.008,0-.008-.025-.017-.05a1.263,1.263,0,0,0-.116-.341,1.509,1.509,0,0,0-.141-.158.221.221,0,0,0-.05-.042l-.017-.017V20.2c0,.033.008.083.017.15a1.54,1.54,0,0,1,.008.208l-.025.025-.075.075h0l-.025.025c-.008.008-.017.017-.025.017a.008.008,0,0,0-.008.008l-.008-.008c-.008,0-.008.008-.017.008a.106.106,0,0,1-.05.008.064.064,0,0,0-.008-.025c-.008-.025-.008-.1-.017-.158a.809.809,0,0,0-.042-.166.839.839,0,0,0-.058-.125,1.232,1.232,0,0,1-.067-.108.362.362,0,0,1-.033-.058c-.008-.017-.025-.042-.033-.058a.72.72,0,0,1-.058-.141c-.042-.108-.067-.241-.1-.258s-.058.025-.092.067a.316.316,0,0,1-.092.092.05.05,0,0,1-.033.008.246.246,0,0,1,.017.083,1.11,1.11,0,0,0,.1.241,2.085,2.085,0,0,1,.108.233c.017.05.025.1.042.166a.106.106,0,0,0,.008.05.292.292,0,0,1-.067.042.063.063,0,0,1,.017.033c.017.017.017.025.017.025a.026.026,0,0,1-.017-.008.36.36,0,0,0-.042-.008v-.058a1.688,1.688,0,0,0-.017-.233c-.008-.025-.008-.042-.017-.05a.029.029,0,0,0-.008-.017l-.05.05a1.551,1.551,0,0,0-.108.191.288.288,0,0,1-.067.092.051.051,0,0,1-.058.008c-.008,0-.017-.008-.025-.017l-.025-.025a.115.115,0,0,1-.025-.033c-.008-.008-.017-.017-.017-.025l-.008-.008A.05.05,0,0,1,40.9,20.5a.211.211,0,0,0-.1.017.174.174,0,0,0-.05.033c-.05-.067-.092-.125-.125-.166a.805.805,0,0,0-.058-.075l-.025-.025s.008.05.017.125a2.674,2.674,0,0,0,.067.283c0,.008.008.025.008.033s-.008.017-.008.025a.337.337,0,0,0-.075-.042.379.379,0,0,0-.067-.033s.008.025.025.067.033.075.058.125l-.025.075c-.017.058-.033.116-.05.166a.031.031,0,0,1-.008.025,1.687,1.687,0,0,0-.108.15c-.008.008-.008.017-.017.025a.063.063,0,0,1,.008-.033,3.521,3.521,0,0,0,.05-.424c0-.042.008-.092.008-.133V20.5a.026.026,0,0,1-.008.017v.017c0,.008-.008.008-.008.017s-.025.025-.033-.008a.442.442,0,0,1-.025-.092c-.008-.042-.025-.108-.033-.15a1.089,1.089,0,0,0-.042-.125c-.017-.042-.033-.075-.05-.108a.344.344,0,0,0-.058-.092.56.56,0,0,1-.058-.092c-.017-.033-.042-.058-.058-.092h0a.49.49,0,0,1-.033-.067A.1.1,0,0,0,40,19.7v.008h0a2.13,2.13,0,0,1-.092-.2.492.492,0,0,0-.075-.15c-.042-.058-.067-.058-.067-.058v.05c0,.033.008.092.017.158a1.194,1.194,0,0,0,.033.183.064.064,0,0,0,.017.042c.008.017.008.033.017.042a.348.348,0,0,0,.033.083c.025.058.05.116.075.183.008.033.025.067.033.108,0,.008.008.017.008.025v.133a.512.512,0,0,1-.008.116v.092h-.025c-.008,0-.017-.008-.025-.008s-.017-.008-.025-.008a.029.029,0,0,1-.017-.008h-.042a.237.237,0,0,0-.1.033c-.008.008-.017.008-.025.017a2.246,2.246,0,0,0-.15-.183c-.025-.025-.042-.05-.058-.067L39.5,20.27s.008.042.017.108c.008.025.017.067.025.1h0l-.025-.075a.036.036,0,0,0-.008.025.182.182,0,0,0-.025.042h-.008a.23.23,0,0,1-.075-.008h-.008c-.008,0-.025-.017-.033-.067a.713.713,0,0,1-.025-.108,1.071,1.071,0,0,0-.033-.158A.623.623,0,0,0,39.259,20c-.017-.042-.033-.083-.05-.116a.688.688,0,0,0-.058-.108c-.017-.033-.042-.067-.058-.1a.621.621,0,0,0-.058-.1h0c-.017-.033-.025-.058-.033-.075a.1.1,0,0,0-.017-.025v.008h0a2.262,2.262,0,0,1-.092-.208.707.707,0,0,0-.075-.158c-.042-.058-.067-.067-.067-.067V19.1c0,.033.008.092.008.158a1.666,1.666,0,0,0,.033.2c0,.017.008.033.008.05s.008.033.008.05l.025.1c.017.067.042.133.067.208.008.033.017.075.033.125,0,.008.008.017.008.025v.133a.63.63,0,0,1-.008.125v.158c0,.008.008.017.008.033a.031.031,0,0,0,.008.025c0,.017.008.033.008.05a.955.955,0,0,0,.017.116.249.249,0,0,0-.033-.083.22.22,0,0,0-.075-.092c-.008-.008-.017-.017-.025-.017a.008.008,0,0,1-.008-.008.1.1,0,0,0-.017.025.261.261,0,0,0-.033.1c-.008.058-.017.15-.025.25v.374c0-.008-.008-.017-.008-.033a.3.3,0,0,0-.033-.075c-.008-.025-.025-.05-.033-.075-.008-.008-.008-.025-.017-.033a.562.562,0,0,0-.017-.116c-.008-.042-.017-.075-.025-.116a1.493,1.493,0,0,1,.116-.233.4.4,0,0,1,.075-.083.1.1,0,0,0,.025-.017.514.514,0,0,0-.075.008.959.959,0,0,0-.166.042.209.209,0,0,0-.058.033c-.008-.008-.017-.017-.017-.025s-.025-.025-.033-.042v-.017c-.017-.05-.025-.083-.025-.083a.029.029,0,0,0-.008.017c-.008.008-.008.025-.017.033l-.008-.008a.406.406,0,0,1-.058-.025c-.008-.017-.017-.025-.025-.042a.141.141,0,0,0,.05-.067.567.567,0,0,0,.067-.183c.017-.083.033-.158.05-.216s.017-.116.025-.158c.008-.092.017-.175.017-.233v-.1l-.017.017a.274.274,0,0,1-.05.05.935.935,0,0,0-.141.183,2.127,2.127,0,0,0-.175.325l-.025.075a.884.884,0,0,0-.075-.092.375.375,0,0,0-.058-.058c-.017-.017-.025-.017-.025-.017a.907.907,0,0,0,.008.1c.008.067.025.15.05.258h0a.728.728,0,0,1-.067.083l-.075.075a.372.372,0,0,0-.058.116.3.3,0,0,0-.017.092c-.008.033-.008.075-.017.125s-.008.083-.008.125v.225a.405.405,0,0,0,.008.1c.008.067.008.116.017.158a.8.8,0,0,1,.017.1.131.131,0,0,1,.008.033.086.086,0,0,0,.008-.033c.008-.025.017-.058.033-.1a.783.783,0,0,1,.05-.15c.008-.025.017-.058.025-.092s.025-.067.033-.1c.017-.058.033-.125.058-.191.025.05.05.1.075.158v.033c0,.042.008.083.008.125l-.025.05c-.008.025-.025.058-.033.083s-.025.058-.033.083a1.007,1.007,0,0,0-.042.15l-.283-.008v-.017l-.025-.1c-.008-.042-.025-.092-.033-.141a.23.23,0,0,1,.008-.075c0-.042.008-.092.008-.133v-.141a.716.716,0,0,0-.008-.133c0-.033-.008-.058-.008-.092a.574.574,0,0,1,.025-.067c.008-.025.025-.05.033-.075a.564.564,0,0,0,.05-.075.246.246,0,0,1,.025-.033h-.017c0-.008.008-.008.008-.017s.017-.017.017-.025l.017-.017.008-.008a.266.266,0,0,0-.058.008.685.685,0,0,0-.133.05.063.063,0,0,1-.033.017l-.008-.008-.025.025c-.008.008-.017.025-.025.033a.362.362,0,0,0-.05.058.008.008,0,0,1-.008.008.1.1,0,0,0-.042.042.008.008,0,0,0-.008-.008c-.017-.033-.033-.058-.05-.092s-.042-.075-.067-.108c0-.025-.008-.042-.008-.067a.361.361,0,0,0-.008-.042c0-.008-.008-.025-.008-.033a.732.732,0,0,0,.05-.083.837.837,0,0,0,.067-.216c.017-.083.033-.166.05-.233s.025-.125.033-.175a1.757,1.757,0,0,0,.025-.258V19.1l-.017.017c-.008.017-.033.033-.05.058a2,2,0,0,0-.15.208,2.8,2.8,0,0,0-.15.283.141.141,0,0,1-.017-.042l-.033-.067a.1.1,0,0,0-.017-.025s-.008.033-.025.083-.025.15-.042.258c0,.025-.008.042-.008.067a.141.141,0,0,1-.05-.05c-.017-.008-.017-.017-.017-.017a.56.56,0,0,0,.008.083c.008.033.017.075.025.116-.017.025-.025.05-.042.075-.025.042-.05.092-.075.133-.008.025-.025.05-.033.075a.026.026,0,0,0-.017-.008.121.121,0,0,0-.008.05v.075a.3.3,0,0,0-.017.092c-.008.042-.008.083-.017.133s-.008.083-.008.125v.225a.405.405,0,0,0,.008.1c.008.067.008.116.017.158a.8.8,0,0,1,.017.1v.017h-.067V21.3c0-.042-.008-.083-.008-.125s-.008-.083-.017-.133-.017-.092-.025-.133c-.017-.092-.042-.175-.058-.258v-.058a.2.2,0,0,0,.017-.067.913.913,0,0,1,.075-.191.406.406,0,0,1,.025-.058.141.141,0,0,0,.017-.042c.008-.008.008-.025.017-.025A.008.008,0,0,1,36.8,20.2a.5.5,0,0,0-.058.025.545.545,0,0,0-.108.067c.008-.025.008-.05.017-.075.008-.058.025-.108.033-.158.008-.025.008-.05.017-.075a.05.05,0,0,1,.008-.033c0-.008.008-.025.008-.033a.83.83,0,0,0,.017-.133.552.552,0,0,0,.008-.108v-.092a.727.727,0,0,0-.067.083c-.017.025-.05.067-.075.108s-.058.083-.083.133h0V19.9a.026.026,0,0,1-.008.017.277.277,0,0,0-.025.05h0a.464.464,0,0,1-.042.067c-.017.025-.025.05-.042.075-.008.008-.008.017-.017.033l-.075-.075c-.008-.008-.025-.017-.033-.033-.017-.092-.042-.191-.075-.308a1.594,1.594,0,0,0-.083-.275c-.017-.033-.025-.058-.033-.075a.1.1,0,0,0-.017-.025s-.008.033-.025.092a1.375,1.375,0,0,0-.042.266c-.017.116-.025.216-.033.316,0,.05-.008.092-.008.141v.15c0,.05.008.108.008.166a.283.283,0,0,0,.008.083.362.362,0,0,0-.033-.058.929.929,0,0,0-.1-.141.23.23,0,0,0-.05-.05.144.144,0,0,0-.008.058,1.186,1.186,0,0,0,0,.175,1.863,1.863,0,0,0,.025.283c.008.05.017.1.025.158a1.071,1.071,0,0,0,.033.158c.008.05.025.108.033.158a.243.243,0,0,1,.017.075c.008.017.008.033.017.05h-.191v-.083a.36.36,0,0,0-.008-.042,1.858,1.858,0,0,0-.033-.191.031.031,0,0,0-.008-.025c0-.017-.008-.042-.008-.058-.008-.05-.017-.092-.025-.141-.017-.092-.042-.183-.058-.266v-.058a.976.976,0,0,1,.042-.092,1.741,1.741,0,0,1,.083-.175c.025-.05.058-.108.083-.15l.075-.15c.025-.05.042-.108.067-.166a1.62,1.62,0,0,0,.05-.191,1.832,1.832,0,0,0,.058-.275.94.94,0,0,1,.017-.1l-.017.017a.265.265,0,0,0-.058.05,1.307,1.307,0,0,0-.175.208,1.272,1.272,0,0,0-.125.191v-.05a.726.726,0,0,0-.067.083.62.62,0,0,1-.075.1c-.025.042-.058.075-.083.116h0v-.008l-.008.008c.05-.125.083-.233.083-.233l-.017.017c-.008.008-.033.025-.05.042a.539.539,0,0,0-.075.067.911.911,0,0,0-.083.092c-.008.008-.008.017-.017.017l-.075-.175h0l-.025-.075a.572.572,0,0,0-.025-.067.014.014,0,1,0-.017,0c-.008-.017-.008-.025-.017-.042a2.187,2.187,0,0,0-.141-.283c-.008-.008-.008-.017-.017-.025.008-.05.017-.083.025-.116.008-.067.017-.108.017-.108a.1.1,0,0,1-.025.017.376.376,0,0,0-.058.058,2.254,2.254,0,0,0-.183.225l-.05.075c-.008-.008-.008-.025-.017-.033-.017-.042-.033-.083-.05-.116-.033-.075-.067-.141-.092-.2s-.058-.108-.083-.15a.6.6,0,0,0-.058-.092.247.247,0,0,0-.025-.033.083.083,0,0,0,.008.033c.008.025.008.058.017.1.017.083.042.208.075.366.017.075.025.166.042.258l.025.125c-.008.008-.008.017-.017.025l-.05.1-.05.1c-.017.033-.033.067-.05.108h0c-.008-.025-.008-.042-.017-.067.008-.017.008-.033.017-.042.067-.183.108-.316.108-.316l-.017.017a.274.274,0,0,0-.05.05c-.017.025-.05.05-.075.083-.008.008-.017.025-.025.033,0-.008-.008-.017-.008-.033a1.282,1.282,0,0,0,.017-.158q.012-.137.025-.225c0-.033.008-.067.008-.083a.049.049,0,0,1,.008-.033,1.259,1.259,0,0,1-.083.108c-.025.033-.042.067-.067.1v-.008a2.469,2.469,0,0,0-.116-.275c-.017-.033-.033-.058-.042-.075a.1.1,0,0,0-.017-.025.064.064,0,0,1-.008.025c0,.017-.008.042-.008.083s-.008.1-.008.175a.95.95,0,0,0-.075-.133c-.042-.067-.067-.1-.067-.1V19.2c0,.017.008.05.008.083.008.075.025.183.042.308a1.857,1.857,0,0,0,.033.191c.008.05.017.108.025.158l-.025.05c-.025-.05-.058-.092-.083-.133-.042-.067-.083-.125-.125-.183-.008-.017-.025-.033-.033-.05A.652.652,0,0,0,33.7,19.5c-.017-.042-.033-.092-.05-.133s-.033-.083-.05-.116c-.033-.075-.067-.141-.092-.2a1.207,1.207,0,0,0-.083-.15.6.6,0,0,0-.058-.092.247.247,0,0,0-.025-.033.083.083,0,0,0,.008.033,1.022,1.022,0,0,1,.017.108c.017.092.042.216.067.374.017.075.025.166.042.25a1.47,1.47,0,0,0,.033.166l-.075.1c-.033.05-.075.108-.108.166-.008-.017-.008-.042-.017-.058a.246.246,0,0,1-.017-.083.913.913,0,0,0,.033-.125l-.017.017-.033.033v-.017a.478.478,0,0,0,.008-.1c.008-.083.017-.15.025-.216,0-.033.008-.058.008-.083a.049.049,0,0,1,.008-.033,1.26,1.26,0,0,1-.083.108.253.253,0,0,0-.042.058.572.572,0,0,0-.025-.067,1.756,1.756,0,0,0-.116-.266c-.017-.033-.033-.058-.042-.075A.1.1,0,0,0,33,19.047a.064.064,0,0,1-.008.025c0,.017-.008.05-.008.083a2.388,2.388,0,0,0-.017.291c0,.116.008.25.017.383a.9.9,0,0,1-.067.158.6.6,0,0,1-.042.075l-.025.025-.017.017-.017.017v-.083a.856.856,0,0,0-.008-.141c0-.042-.008-.092-.008-.133s-.008-.092-.008-.133-.008-.092-.017-.133c-.025-.175-.05-.333-.083-.466s-.067-.25-.092-.325c-.017-.042-.025-.067-.033-.092l-.017-.033a.131.131,0,0,1-.008.033.543.543,0,0,1-.017.092c-.008.083-.025.2-.033.333s-.017.3-.017.466v.141c-.025.033-.058.075-.092.125a2.463,2.463,0,0,0-.133.216c0-.141,0-.283-.008-.424-.008-.075-.008-.15-.017-.225l-.025-.225-.025-.225c-.008-.075-.025-.15-.033-.216-.008-.033-.008-.075-.017-.108a.487.487,0,0,1-.017-.108c-.017-.067-.025-.141-.042-.208-.033-.133-.058-.25-.075-.291s-.025-.042-.033-.042a.05.05,0,0,1-.033-.008.152.152,0,0,1-.05-.067.888.888,0,0,1-.075-.133v.141c0,.058-.025.058-.042.067s-.025.116.008.383c.017.133.033.275.05.416s.033.291.05.433c.008.075.017.141.025.216a1.894,1.894,0,0,1,.017.216c.008.058.008.125.017.183,0,.008-.008.008-.008.017-.05.075-.092.15-.141.241a.716.716,0,0,0-.008-.133c0-.042-.008-.092-.008-.133s-.008-.092-.008-.133-.008-.092-.017-.133c-.025-.166-.05-.333-.083-.466s-.067-.25-.092-.325c-.017-.042-.025-.067-.033-.092l-.017-.033a.131.131,0,0,1-.008.033.543.543,0,0,1-.017.092c-.008.083-.025.2-.033.333s-.017.3-.017.466v.574c-.017-.067-.042-.125-.058-.183-.042-.108-.083-.2-.116-.266-.017-.033-.033-.058-.042-.075a.1.1,0,0,0-.017-.025.064.064,0,0,1-.008.025v-.025c-.008-.075-.008-.15-.017-.225l-.025-.225-.025-.225c-.008-.075-.025-.15-.033-.216-.008-.033-.008-.075-.017-.108a.487.487,0,0,1-.017-.108c-.017-.067-.025-.141-.042-.208-.033-.133-.058-.25-.075-.3s-.025-.058-.033-.067-.025-.017-.042-.033-.033-.05-.058-.075a1.315,1.315,0,0,1-.075-.141v.15a.166.166,0,0,1-.033.108,1.152,1.152,0,0,0,.017.416c.017.133.033.275.05.416s.033.291.05.433c.008.075.017.141.025.216a1.893,1.893,0,0,1,.017.216,1.9,1.9,0,0,1,.017.208c.008.067.008.141.017.208V20l-.042.042c-.05.058-.108.125-.166.2l.025-.2c.008-.033.008-.075.017-.108s.008-.075.008-.108c.008-.067.008-.141.017-.208s.008-.125.008-.183a2.683,2.683,0,0,0-.008-.283c0-.033-.008-.067-.008-.083v-.025a.967.967,0,0,0-.058.092c-.033.058-.075.15-.125.258-.025.058-.042.116-.067.175a1.808,1.808,0,0,0-.058.2c-.008.033-.017.075-.025.108s-.017.075-.025.108-.008.05-.017.067c-.017-.067-.042-.125-.058-.175-.033-.092-.067-.166-.092-.225-.008-.05-.025-.108-.033-.15-.033-.133-.067-.25-.092-.325-.017-.042-.025-.067-.033-.092l-.017-.033a.131.131,0,0,1-.008.033.543.543,0,0,1-.017.092c-.008.083-.025.2-.033.333-.008.108-.017.233-.017.358a1.388,1.388,0,0,0-.125.116.162.162,0,0,0-.008-.058c-.008-.116-.025-.233-.033-.341l-.025-.175a.982.982,0,0,0-.033-.166c-.008-.058-.025-.108-.033-.166s-.025-.108-.033-.158a1.109,1.109,0,0,0-.042-.158c-.017-.05-.025-.1-.042-.15s-.025-.092-.042-.141v-.008a.517.517,0,0,0-.025-.083l.05-.05a10.553,10.553,0,0,0,1.822-2.43.008.008,0,0,1,.008-.008c.108-.2.208-.4.308-.607.05-.108.1-.216.15-.333A10.518,10.518,0,0,0,32.7,11.2v-.008h0c.008-.125.008-.258.008-.383A11.191,11.191,0,0,0,32.619,9.4h0c-.017-.1-.025-.2-.042-.291-.058-.349-.133-.691-.216-1.032a9.58,9.58,0,0,0-.483-1.4A10.443,10.443,0,0,0,29.6,3.3l-.175-.175h0A11.094,11.094,0,0,0,27.41,1.614H27.4a12.034,12.034,0,0,0-1.182-.591A10.708,10.708,0,0,0,23.457.274c-.108-.017-.225-.025-.333-.042C22.891.208,22.667.2,22.434.191L22.6,0h0c-.058.058-.108.125-.166.191-.116,0-.225-.008-.341-.008a10.641,10.641,0,0,0-4.136.832,8.931,8.931,0,0,0-.94.458q-.237.125-.474.275a10.939,10.939,0,0,0-1.964,1.548,10.553,10.553,0,0,0-1.822,2.43c-.108.2-.208.4-.308.607V6.34c-.05.108-.1.216-.15.333a10.518,10.518,0,0,0-.832,3.744c-.008.133-.008.258-.008.391a11.059,11.059,0,0,0,.092,1.4v.008c.017.1.025.2.042.291.058.349.133.691.216,1.032a9.579,9.579,0,0,0,.483,1.4,10.443,10.443,0,0,0,2.28,3.378l.175.175c.158.158.325.3.5.449s.374.3.566.441a.362.362,0,0,0-.033.058,1.208,1.208,0,0,0-.083.15h0v-.008a.064.064,0,0,1-.008.025.282.282,0,0,0-.025.067h0a.976.976,0,0,0-.042.092c-.017.033-.025.067-.042.1s-.025.067-.042.1-.025.067-.033.108c-.008.025-.017.058-.025.083v-.008c0-.05-.008-.1-.008-.15s-.008-.1-.008-.141a2.616,2.616,0,0,0-.075-.458.705.705,0,0,0-.083-.225c-.008-.025-.025-.033-.033-.05a.026.026,0,0,1-.008-.017s-.008.025-.025.067a.77.77,0,0,0-.042.233c-.017.125-.025.283-.033.474,0,.075-.008.15-.008.233,0,.008-.008.017-.008.025-.025.05-.058.125-.092.208a2.583,2.583,0,0,0-.083.3c-.008.025-.008.058-.017.083a.23.23,0,0,0-.008.075.362.362,0,0,0-.033.058c0-.017-.008-.042-.008-.058a.243.243,0,0,1-.017-.075.573.573,0,0,0-.025-.067,2.042,2.042,0,0,0,.067-.241c.025-.108.058-.216.083-.325s.05-.208.075-.308.05-.191.067-.266.042-.15.05-.208c.033-.108.05-.175.067-.216a.2.2,0,0,0,.017-.067.064.064,0,0,0-.025.008.477.477,0,0,0-.058.033.782.782,0,0,0-.183.166,1.14,1.14,0,0,0-.141.233v-.017c0-.05.008-.083.008-.108s0-.042-.008-.05V19.28s-.025.008-.058.058c-.017.025-.042.05-.067.092a1.207,1.207,0,0,0-.083.15h0v-.008a.064.064,0,0,1-.008.025.282.282,0,0,0-.025.067h0a.976.976,0,0,0-.042.092c-.017.033-.025.067-.042.1s-.025.067-.042.1-.025.067-.033.108-.025.075-.033.108c-.008.017-.008.033-.017.05a1.545,1.545,0,0,0-.15-.191.376.376,0,0,0-.058-.058c-.025-.058-.042-.108-.067-.158a.949.949,0,0,0-.083-.158c.008-.05.025-.092.033-.141.017-.083.042-.158.05-.208.033-.108.05-.158.067-.2a.268.268,0,0,1,.017-.05.064.064,0,0,0-.025.008.477.477,0,0,0-.058.033.533.533,0,0,0-.183.15.979.979,0,0,0-.092.125.494.494,0,0,0-.067-.067.521.521,0,0,0-.092-.067.426.426,0,0,1,.058.083c.017.025.033.067.058.116-.033.067-.067.133-.1.216-.017.05-.033.092-.05.141s-.033.1-.05.158-.033.116-.05.183v-.008c-.008-.05-.017-.108-.025-.158a.562.562,0,0,1-.017-.116c.025-.108.042-.175.042-.175a.1.1,0,0,0-.017.025c-.008.017-.025.033-.033.05a1.842,1.842,0,0,0-.058-.25c.025-.158.025-.233.008-.241a.074.074,0,0,1-.033-.067v-.1a.688.688,0,0,1-.075.092l-.025.025a.317.317,0,0,0-.042-.05c-.017-.017-.033-.025-.042-.033a.026.026,0,0,0-.017-.008v.008a.36.36,0,0,0-.008.042.771.771,0,0,0-.008.166c-.017.042-.033.1-.058.166-.017.042-.025.092-.042.133a.257.257,0,0,0-.017.067c-.008.025-.008.05-.017.067a.031.031,0,0,1-.008.025c-.042-.083-.075-.158-.116-.225a.946.946,0,0,0-.208-.275.308.308,0,0,0-.092-.067.426.426,0,0,1,.058.083c.017.033.042.075.067.125s.05.125.083.2.058.166.092.266c.017.05.033.108.05.158a.05.05,0,0,1-.008.033c-.042-.092-.075-.183-.108-.258a2.477,2.477,0,0,0-.158-.283.675.675,0,0,0-.05-.067.1.1,0,0,0-.017-.025s.008.042.017.125.033.2.058.349.067.325.108.508c0,.008.008.025.008.033a.877.877,0,0,0-.058.092c-.017.033-.042.075-.058.116v-.374c0-.108-.008-.216-.017-.308s-.025-.166-.033-.216c-.008-.025-.008-.05-.017-.058a.036.036,0,0,0-.008-.025l-.017.017a.478.478,0,0,1-.033.058c-.025.05-.058.125-.092.208-.008.017-.008.033-.017.05,0-.025-.008-.058-.008-.083-.008-.042-.008-.083-.017-.116.025-.116.042-.175.042-.175a.1.1,0,0,0-.017.025c-.008.017-.025.033-.033.05a1.977,1.977,0,0,0-.058-.258c.025-.158.025-.225,0-.225s-.042-.008-.042-.042v-.092a.425.425,0,0,1-.075.083.237.237,0,0,0-.058-.067c-.017-.017-.033-.025-.042-.033a.026.026,0,0,0-.017-.008L12.2,19.1c0,.008-.008.017-.008.033a.772.772,0,0,0-.008.166c-.017.033-.033.1-.058.166-.017.042-.025.092-.042.133a.257.257,0,0,0-.017.067c-.008.025-.008.05-.017.067l-.025.1v-.092c0-.067-.008-.125-.008-.183s-.008-.108-.017-.158a.649.649,0,0,0-.092-.325.222.222,0,0,0-.1-.083.115.115,0,0,1-.033-.025.026.026,0,0,0-.017-.008l-.008.008c0,.008-.008.017-.017.025a.2.2,0,0,0-.033.083,2.227,2.227,0,0,0-.017.341V19.5a.182.182,0,0,0-.033-.042.1.1,0,0,0-.017-.025s.008.042.017.125q.012.062.025.175v.15c-.008-.05-.017-.092-.025-.133-.008-.025-.008-.05-.017-.058a.036.036,0,0,0-.008-.025l-.017.017a.477.477,0,0,1-.033.058c-.025.05-.058.125-.092.208-.017.042-.025.075-.042.125h0c0-.208,0-.424-.008-.6-.008-.092-.008-.175-.008-.233s-.008-.083-.017-.116v-.008h0V19.1a.387.387,0,0,0-.025-.075c-.008-.017-.025-.033-.033-.05s-.008-.017-.017-.025-.017-.025-.025-.033a.743.743,0,0,1-.042-.108c-.033-.092-.058-.241-.083-.333a1.59,1.59,0,0,0-.075-.216c-.025-.058-.05-.116-.075-.166s-.05-.108-.075-.158c-.05-.092-.083-.166-.083-.166a.233.233,0,0,0,.008.05c0,.033.008.075.008.125.008.1.017.208.025.333a4.763,4.763,0,0,0,.058.549.584.584,0,0,0,.05.158.563.563,0,0,1,.05.133c.008.033.017.083.025.141a1.914,1.914,0,0,1,.017.233c0,.042.008.092.008.141-.025.083-.05.183-.075.283s-.05.225-.067.341a.05.05,0,0,1-.008.033v-.366c0-.067-.008-.133-.008-.2s-.008-.125-.008-.183-.008-.108-.017-.158a.8.8,0,0,0-.083-.325.25.25,0,0,0-.1-.092.115.115,0,0,1-.033-.025.026.026,0,0,0-.017-.008l-.008.008c0,.008-.008.017-.017.025a.456.456,0,0,0-.033.1,2.317,2.317,0,0,0-.017.341v.6a.352.352,0,0,0-.042.058l-.05.075c-.017.025-.033.058-.05.083s-.025.05-.042.075c-.008.008-.025.017-.033.033l-.025.025c0-.092,0-.191.008-.291,0-.208,0-.416-.008-.591-.008-.092-.008-.175-.008-.225s-.008-.083-.017-.116V19.13h0v-.017a.517.517,0,0,0-.025-.083c-.008-.025-.025-.042-.033-.067-.008-.008-.008-.025-.017-.033s-.017-.025-.025-.042a.9.9,0,0,1-.042-.116c-.033-.092-.058-.233-.083-.325a1.76,1.76,0,0,0-.075-.225c-.025-.067-.05-.125-.075-.183a1.428,1.428,0,0,0-.075-.158l-.083-.166a.233.233,0,0,0,.008.05c0,.033.008.075.008.125q.012.15.025.349c.008.133.033.391.058.558a1.531,1.531,0,0,0,.05.191,1.591,1.591,0,0,1,.05.175c.008.042.017.083.025.141a1.688,1.688,0,0,1,.017.233c0,.042.008.092.008.133-.025.083-.05.175-.075.283-.008.05-.025.108-.033.158a.008.008,0,0,0-.008-.008v.058l-.025.125c0,.017-.008.033-.008.058-.008.008-.008.017-.017.033.008-.05.008-.092.017-.141s.008-.108.017-.158a1.007,1.007,0,0,0,.008-.158c.008-.1.017-.2.017-.283s.008-.158.008-.225a1.368,1.368,0,0,0-.008-.225.36.36,0,0,0-.008-.042V19.13a.43.43,0,0,0-.058.05.489.489,0,0,0-.116.2c-.025.058-.042.133-.067.208s-.042.175-.067.266L9.636,20a.063.063,0,0,1-.008.033,1.217,1.217,0,0,0-.075.108l-.05.075c-.008.008-.008.017-.017.025l-.05-.05a.777.777,0,0,0-.183-.141.477.477,0,0,0-.058-.033.064.064,0,0,0-.025-.008.269.269,0,0,0,.017.075l.025.075-.017.017c-.033.042-.083.1-.133.166V20.27c0-.042-.008-.083-.008-.116-.008-.158-.017-.316-.033-.458q-.012-.112-.025-.2a.668.668,0,0,0-.033-.15c0-.008-.008-.017-.008-.025s.008-.025.008-.042c.017-.058.033-.108.042-.15a1.926,1.926,0,0,1,.067-.183.212.212,0,0,0,.017-.058.064.064,0,0,0,.008-.025.1.1,0,0,1-.025.017.266.266,0,0,0-.058.05.607.607,0,0,0-.083.075.75.75,0,0,0-.075.083c-.008-.008-.008-.025-.017-.033a10146.329,10146.329,0,0,0-.083-.166h0c-.008-.025-.025-.05-.025-.058a.064.064,0,0,1-.008-.025v.008h0a1.663,1.663,0,0,1-.083-.175,1.428,1.428,0,0,0-.075-.158c-.042-.083-.067-.125-.067-.125v.133c0,.042.008.108.008.166s.008.116.017.175a.36.36,0,0,0,.008.042.075.075,0,0,0,.008.042A.3.3,0,0,0,8.554,19c.008.058.025.116.033.183.008.033.008.067.017.108a.031.031,0,0,0,.008.025c0,.042-.008.083-.008.125s-.008.092-.008.141a1.172,1.172,0,0,1-.008.166v.067c-.017.125-.042.266-.058.416-.008.075-.017.141-.025.216h0c-.05-.05-.092-.1-.133-.133a1.394,1.394,0,0,0-.175-.133h0c-.008-.108-.008-.191-.017-.25a.928.928,0,0,0-.017-.108.036.036,0,0,0-.008.025c-.008.017-.017.042-.033.075a1.769,1.769,0,0,0-.083.3l-.025.125c0-.033-.008-.067-.008-.1-.008-.15-.017-.3-.033-.441-.008-.067-.017-.133-.025-.191a.668.668,0,0,0-.033-.15c0-.008-.008-.017-.008-.025s.008-.033.008-.05c.017-.067.033-.133.042-.183.025-.108.05-.2.067-.258a.422.422,0,0,0,.017-.075.064.064,0,0,0,.008-.025l-.025.025a.543.543,0,0,0-.058.067c-.025.025-.05.058-.083.1s-.05.075-.075.116c-.008-.017-.008-.033-.017-.05-.017-.033-.025-.075-.042-.108s-.025-.075-.042-.108h0a.766.766,0,0,1-.025-.075.064.064,0,0,1-.008-.025V18.8h0a2.033,2.033,0,0,1-.083-.2,1.621,1.621,0,0,0-.075-.166c-.042-.083-.067-.125-.067-.125v.133c0,.05.008.108.008.175s.008.133.017.208c0,.017.008.033.008.058a.142.142,0,0,0,.008.058.562.562,0,0,0,.017.116c.008.075.025.158.033.241.008.042.008.083.017.133a.031.031,0,0,0,.008.025c0,.042-.008.092-.008.141s-.008.092-.008.141v.225c-.017.125-.042.258-.058.391l-.025.2c-.008.067-.008.133-.017.2a.162.162,0,0,1-.008.067.268.268,0,0,1-.05-.017l.008.008.017.017c.008.008.017.017.017.025s.008.008.008.017v.391c0,.042.008.083.008.108a.106.106,0,0,0,.008.05H7.414a.207.207,0,0,1,.008-.067V21.2c0-.025-.008-.058-.008-.083a.3.3,0,0,0-.017-.083.12.12,0,0,0-.017-.058v-.05a.086.086,0,0,0-.008-.033.026.026,0,0,0-.017.008.174.174,0,0,0-.033-.05.676.676,0,0,0-.075-.083.538.538,0,0,0-.067-.075c-.008-.033-.008-.067-.017-.1l-.042-.166A.207.207,0,0,0,7.1,20.37l-.017.017c-.008.008-.017.025-.033.042s-.008.017-.017.033a.71.71,0,0,0-.092-.116c.025-.116.05-.241.075-.349s.05-.225.067-.316.042-.175.058-.25.033-.15.042-.216c.025-.133.042-.241.05-.316s.008-.125.008-.125l-.025.025a.806.806,0,0,0-.058.075c-.042.067-.108.166-.175.291a3.714,3.714,0,0,0-.2.466c-.017.042-.033.092-.05.141s-.033.1-.05.158c-.033.108-.058.225-.083.349s-.05.25-.075.366c-.017.083-.033.175-.042.258a.366.366,0,0,0-.083-.017.266.266,0,0,0-.058-.008h.008a.029.029,0,0,0,.017.008c.008.008.017.008.017.017l.008.008H6.374a.1.1,0,0,0,.025.017.274.274,0,0,1,.05.05c.008.008.008.017.017.025a.927.927,0,0,0-.017.141c-.008.05-.008.1-.017.141s-.008.075-.008.108v.05H6.357v-.017a.207.207,0,0,1,.008-.067v-.15c0-.025-.008-.058-.008-.083a.3.3,0,0,0-.017-.083.212.212,0,0,1-.017-.058.181.181,0,0,0-.058-.075.584.584,0,0,0-.075-.05.338.338,0,0,1-.083-.075.462.462,0,0,1-.05-.067.584.584,0,0,0-.05-.075,1.217,1.217,0,0,0-.075-.108c0-.033-.008-.075-.008-.108s-.008-.067-.008-.1c.017-.075.033-.141.05-.208.025-.108.05-.208.067-.308s.042-.191.058-.283.033-.183.042-.266c.025-.166.042-.308.05-.4s.008-.15.008-.15a.091.091,0,0,0-.017.033.6.6,0,0,0-.058.092c-.042.083-.108.208-.175.366-.058.133-.108.291-.166.458-.008-.017-.008-.033-.017-.05a.427.427,0,0,0-.033-.083.083.083,0,0,1-.008-.033s-.008.05-.025.125a2.164,2.164,0,0,0-.042.3,1.621,1.621,0,0,0-.017.208c-.025.083-.042.166-.067.258-.025.116-.05.233-.075.341a2.439,2.439,0,0,0-.042.241H5.342a.064.064,0,0,1,.025.008.224.224,0,0,1,.075.05h0a.05.05,0,0,1-.008.033c0,.017-.008.042-.008.058a.157.157,0,0,0-.017-.067.244.244,0,0,0-.033-.067l-.017-.017H5.35c-.008,0-.017.008-.025.008a.2.2,0,0,0-.075.058l-.008.008c.008-.025.008-.058.017-.083a.573.573,0,0,0,.017-.108c.008-.025.008-.05.017-.067v-.025s-.017.017-.05.058a.207.207,0,0,0-.008-.067v-.092c0-.008.008-.008.008-.017a.206.206,0,0,1,.033-.075.663.663,0,0,1,.067-.133c.008-.025.017-.042.025-.067,0-.008.008-.025.008-.033s.008-.025.008-.033a.693.693,0,0,0,.033-.125.52.52,0,0,0,.008-.1v-.042s-.025,0-.067.042c-.017.017-.042.058-.075.1a1.27,1.27,0,0,1-.092.133h0V20.3l-.017.017a.128.128,0,0,0-.033.05h0a.417.417,0,0,1-.058.067c-.017.025-.042.042-.058.067s-.042.042-.058.067l-.05.075a.494.494,0,0,0-.033.067.341.341,0,0,0-.008-.092c0-.042-.008-.083-.008-.125a.491.491,0,0,0-.017-.116,2.285,2.285,0,0,0-.075-.4c-.025-.108-.058-.225-.083-.308a.694.694,0,0,0-.033-.1.131.131,0,0,1-.008-.033s-.008.058-.025.141-.033.208-.05.325-.025.258-.033.408c0,.075-.008.158-.008.233V21l-.008.008a.063.063,0,0,0-.017.033L4.5,21.035a.281.281,0,0,0-.092-.058.418.418,0,0,0-.1-.017H4.269a.538.538,0,0,0,.033-.108c.025-.083.058-.175.083-.258s.05-.175.075-.25.042-.158.067-.233.033-.141.05-.208c.033-.141.05-.291.067-.391a1.121,1.121,0,0,0,.017-.166.246.246,0,0,0-.025.033c-.017.025-.033.058-.058.1-.05.083-.116.216-.183.358s-.141.275-.216.424c-.017.042-.033.075-.05.116l-.05.125c-.008.017-.008.025-.017.042l-.025.025-.058.058a.384.384,0,0,0-.058.058c-.017.025-.033.042-.05.067a.26.26,0,0,0-.042.083.7.7,0,0,0-.033.1h0c-.008-.017-.008-.033-.017-.042a2.156,2.156,0,0,0-.116-.241c-.042-.075-.083-.141-.125-.208a1.412,1.412,0,0,0-.083-.116c.008-.042.025-.075.033-.116.017-.067.033-.133.05-.208.033-.15.05-.316.067-.433a1.5,1.5,0,0,0,.017-.191.432.432,0,0,1-.025.042c-.017.025-.033.067-.058.108-.05.1-.116.241-.183.391-.033.058-.058.133-.092.183-.025-.025-.05-.058-.067-.075A1.107,1.107,0,0,0,3.1,19.92s.025.058.058.133a.688.688,0,0,0,.058.108,1.253,1.253,0,0,0-.092.183c-.017.033-.033.067-.05.108-.008-.017-.008-.033-.017-.05-.017-.05-.033,0-.067.1a.064.064,0,0,0,.042-.017.146.146,0,0,0,.042-.033v.008c-.017.042-.033.075-.05.116l-.05.125h0l-.025-.1.025-.05A.118.118,0,0,0,3,20.5H2.962c-.008,0-.017-.008-.025-.008.017-.058.025-.1.025-.1a.1.1,0,0,0-.017.025.182.182,0,0,0-.033.042c-.033-.116-.075-.216-.108-.325-.042-.125-.083-.258-.116-.358-.017-.05-.033-.092-.042-.116a.35.35,0,0,0-.017-.042.233.233,0,0,1-.008.05c0,.033-.008.075-.008.133-.008.108-.017.266-.017.383s.008.241.017.383c0,.025.008.058.008.083l-.008.008c-.008.017-.025.025-.033.042h0c-.033-.058-.075-.116-.108-.175s-.083-.116-.125-.166c-.083-.1-.158-.175-.208-.25S2.047,20,2.047,20s.025.058.058.141a.909.909,0,0,0,.067.125c.025.042.058.1.083.15s.058.116.092.183l.1.2c0,.008.008.017.008.025-.017.017-.025.042-.042.058a.418.418,0,0,0-.042.108c-.008.042-.008.083-.017.108l.058.042a.106.106,0,0,1-.05-.008c-.008,0-.008,0-.017-.008H2.33c-.008,0-.017-.008-.025-.008s-.017-.008-.025-.017h0l-.075-.05c-.008-.008-.017-.008-.025-.017,0-.05.008-.108.008-.141a.8.8,0,0,0,.017-.1v-.033a.026.026,0,0,0-.017.008.135.135,0,0,1-.05.025,1.132,1.132,0,0,0-.141.1l-.008.008-.025-.125c-.008-.017-.008-.042-.017-.058l.025-.05c.008-.017.008-.025.017-.042-.008,0-.008,0-.017-.008a.174.174,0,0,1-.05-.033.925.925,0,0,1,.033-.108l-.017.017a.182.182,0,0,0-.033.042c-.033-.116-.075-.216-.108-.325s-.083-.266-.116-.366c-.017-.05-.033-.092-.042-.125a.35.35,0,0,0-.017-.042.233.233,0,0,1-.008.05c0,.033-.008.083-.008.141-.008.116-.017.275-.017.383s.008.241.017.374c0,.033.008.067.008.1v.008h0c-.008.017-.025.025-.033.033l-.033.033a.475.475,0,0,0-.067.058.259.259,0,0,0-.058.075.976.976,0,0,0-.042.092.223.223,0,0,1,.017.092c.017.075.025.141.042.2,0,.008.008.017.008.025a1.618,1.618,0,0,0-.042.166.36.36,0,0,1-.008.042c-.075,0-.141.008-.208.008v-.008c.017-.042.025-.092.042-.141s.025-.1.042-.15c.008-.033.025-.075.033-.108a.337.337,0,0,1-.075-.042.538.538,0,0,1-.075-.067c-.008-.008-.017-.017-.025-.017,0-.042.008-.083.008-.108.008-.05.017-.075.017-.092v-.033a.026.026,0,0,0-.017.008.277.277,0,0,1-.05.025,1.039,1.039,0,0,0-.15.092.539.539,0,0,0-.116.216c0,.017.008.025.008.042a.708.708,0,0,0,.05.141c.017.042.033.075.05.108-.017.025-.025.058-.042.083s-.025.042-.033.067H.84c-.133.008-.25.008-.358.008ZM30.963,20.7c0,.025.008.058.008.083a.3.3,0,0,0-.033.075.075.075,0,0,1,.008-.042c0-.033.008-.075.008-.108s.008-.067.008-.1h0A.337.337,0,0,0,30.963,20.7Zm-1.057.616h-.058a.811.811,0,0,1,.042-.092l.025-.05v.033C29.914,21.252,29.906,21.285,29.906,21.318Zm-18.473-.083h0l-.025-.075c0-.008,0-.008-.008-.017v-.017c.008.025.008.042.017.067A.141.141,0,0,0,11.433,21.235Zm-9.769.275.025.05H1.648a.075.075,0,0,0,.008-.042A.008.008,0,0,0,1.664,21.51Zm1.465-.075L3.1,21.46l-.008.008v-.017c.008-.017.008-.025.017-.042C3.12,21.418,3.129,21.427,3.129,21.435Zm-.408.092H2.7c0-.008.008-.017.008-.033h0C2.713,21.5,2.713,21.518,2.721,21.526Zm1.39-.033Zm2.746-.741a.1.1,0,0,0,.042.042c0,.008-.008.017-.008.025s-.008.017-.008.033-.008.042-.017.058v.008c0,.008-.008.008-.008.017a.05.05,0,0,0-.008.033c0,.017-.008.025-.008.042a.106.106,0,0,1-.008.05v.025a.174.174,0,0,0-.05-.033h0c.017-.05.025-.108.042-.158A.7.7,0,0,1,6.857,20.753Zm2.322.1c.017-.017.025-.033.042-.05a.362.362,0,0,1,.05-.058c0-.008.008-.008.008-.017a1.054,1.054,0,0,0-.05.15.243.243,0,0,0-.017.075l-.025-.075A.031.031,0,0,0,9.178,20.852Zm19.521.466h-.025c0-.008-.008-.008-.008-.017s-.008-.017-.017-.025l.017-.017c.008-.008.017-.025.025-.033a.53.53,0,0,0,.017.058C28.691,21.293,28.7,21.3,28.7,21.318Zm-4.194-1.789h.058c.075,0,.158-.008.233-.008h.033c.05,0,.092-.008.141-.008,0,.008-.008.008-.008.017-.025.042-.058.092-.083.133h0v-.008a.026.026,0,0,1-.008.017.406.406,0,0,0-.025.058h0c-.017.025-.025.05-.042.075a.773.773,0,0,0-.042.083c-.008.008-.008.025-.017.033-.025-.033-.05-.058-.075-.092a.785.785,0,0,0-.083-.083.265.265,0,0,0-.058-.05c-.017-.017-.025-.017-.025-.017a.064.064,0,0,0,.008.025.531.531,0,0,1,.017.058c.017.05.042.125.067.208.017.042.025.092.042.141,0,.008,0,.008.008.017a.337.337,0,0,1-.042.075c0-.008-.008-.017-.008-.025a2.156,2.156,0,0,0-.116-.241,1.567,1.567,0,0,0-.116-.2c.008-.05.025-.108.033-.158.008-.025.008-.042.017-.067A.094.094,0,0,0,24.506,19.529Zm-1.057.042c0,.067.008.141.008.225,0,.033.008.075.008.108s.008.075.008.108a.062.062,0,0,0,.008.042l-.05-.1c-.042-.075-.083-.15-.125-.216a1.06,1.06,0,0,0-.108-.158c0-.008.008-.008.008-.017h.158A.312.312,0,0,0,23.449,19.571Zm-6.674.449c.033.025.075.042.108.067l.158.05c-.008.025-.017.042-.025.067s-.025.067-.042.1-.025.067-.033.108-.025.075-.033.108-.025.075-.033.108-.017.075-.025.116a.05.05,0,0,1-.008.033c0-.008-.008-.017-.008-.025a.911.911,0,0,0-.075-.191c-.025-.067-.058-.125-.083-.191-.017-.033-.033-.058-.05-.092s-.033-.058-.05-.092a1.165,1.165,0,0,0-.083-.133.341.341,0,0,0-.008-.092c0-.033-.008-.067-.008-.108,0-.008,0-.017.008-.017C16.592,19.912,16.684,19.962,16.775,20.02Zm10.809,1.29h-.216a.162.162,0,0,1,.008-.067v-.108a.2.2,0,0,0,.017-.067c.008-.033.025-.067.033-.1.017-.058.033-.125.058-.191.025.05.05.1.075.158v.033a1.172,1.172,0,0,1,.008.166v.15C27.584,21.285,27.584,21.293,27.584,21.31Zm-.691-1.631c-.05.025-.1.058-.158.083.008-.042.025-.083.033-.125a.693.693,0,0,1,.033-.125c.033.05.058.1.092.158h0ZM23.2,19.8c.033.067.067.141.1.216.017.042.033.075.05.116s.025.067.042.1c-.025-.033-.058-.067-.075-.092a.5.5,0,0,0-.067-.058V20.1c0,.008.008.033.008.05.008.05.025.116.042.191a.854.854,0,0,0,.033.116c0,.008-.008.025-.008.033-.017.075-.042.15-.058.225a.418.418,0,0,0-.017.1h-.017a1.954,1.954,0,0,0,.008-.216,1.169,1.169,0,0,0-.017-.191.294.294,0,0,0-.008-.05.029.029,0,0,0-.008-.017l-.017.017h0c0-.025-.008-.05-.008-.075a2.228,2.228,0,0,0-.075-.383.624.624,0,0,0-.042-.133c.025-.033.05-.067.067-.092A.909.909,0,0,1,23.2,19.8Zm-5.8,1.431c-.008-.017-.008-.033-.017-.05s-.008-.017-.017-.033v-.008c.008.017.025.033.033.05Zm-.083-.466c.008-.042.025-.075.033-.116s.025-.1.042-.158c.008-.025.008-.05.017-.075,0,.008,0,.008.008.017.017.042.033.075.05.116,0,.017-.008.033-.008.058s-.008.05-.008.075c-.008.05-.008.1-.017.15v.008c0,.008-.008.017-.008.033v.008c-.025-.033-.058-.058-.083-.092Q17.329,20.769,17.316,20.769Zm.483.533h-.05c-.008-.008-.017-.025-.025-.033V21.26c0-.025.008-.042.008-.067h0A.614.614,0,0,1,17.8,21.3Zm7.514-.358.083-.025v.1a.63.63,0,0,0,.008.125.405.405,0,0,0,.008.1H25.4a1.143,1.143,0,0,0-.108-.166.05.05,0,0,1,.008-.033A.4.4,0,0,1,25.313,20.944Zm1.132-.175v.283a.63.63,0,0,0,.008.125c0,.042.008.083.008.116h-.133a.183.183,0,0,1,.008-.067v-.058c0-.025.008-.058.008-.092,0-.008.008-.017.008-.033.008-.033.025-.067.033-.1A1.42,1.42,0,0,0,26.444,20.769Zm-9.8.483.05-.075a.84.84,0,0,1,.058.125h-.075a.492.492,0,0,1-.033-.05Zm1.19-.7a.142.142,0,0,0,.008.058c-.008-.017-.008-.033-.017-.05s-.008-.017-.008-.025A.018.018,0,0,0,17.832,20.553Zm6.49-.591c.008.017.017.042.025.058.017.042.033.075.05.116s.033.083.05.116a.732.732,0,0,1,.042.125c.008.025.017.058.025.083a.7.7,0,0,0-.033.141l-.2.05v-.033a1.2,1.2,0,0,0-.017-.2c0-.025-.008-.042-.008-.058s-.008-.017-.008-.017l-.017.017h0a.106.106,0,0,0-.008-.05l.05-.175C24.289,20.087,24.306,20.02,24.323,19.962Zm2.588.333a.36.36,0,0,1-.008.042c-.008-.008-.008-.017-.017-.025C26.894,20.312,26.9,20.3,26.91,20.295Zm-3.2-.732h.15A.807.807,0,0,0,24,19.554a.209.209,0,0,1-.033.058c-.017.033-.033.075-.05.108s-.033.075-.05.116l-.05.125h0c-.008-.042-.017-.075-.025-.108a.3.3,0,0,1-.017-.083c.025-.083.033-.125.033-.125l-.017.017a.181.181,0,0,0-.033.042C23.732,19.646,23.723,19.6,23.707,19.563Zm2.005-.1c.033,0,.067-.008.092-.008h0c.008.067.025.133.033.208.008.042.017.092.025.133a.174.174,0,0,1-.033.05c-.017.025-.025.05-.042.075-.008.008-.008.025-.017.033-.025-.025-.05-.058-.075-.083l-.017-.017c0-.025-.008-.05-.008-.075-.017-.108-.033-.216-.058-.316A.2.2,0,0,0,25.712,19.463Zm.449-.033h0c.033,0,.067-.008.092-.008.042,0,.083-.008.133-.008a.142.142,0,0,0,.058-.008c0,.017-.008.042-.008.058l-.025.05c-.033.067-.067.141-.1.208-.025.042-.042.092-.067.133a.422.422,0,0,1-.017-.108c-.008-.058-.025-.108-.033-.166A1.24,1.24,0,0,0,26.161,19.429Zm1.165.624c.008-.008.025-.008.033-.017a.246.246,0,0,0-.017.083c0,.008-.008.025-.008.033a.142.142,0,0,0-.008-.058C27.326,20.079,27.326,20.07,27.326,20.054Zm-15.061.9c.008.008.008.017.017.025a.008.008,0,0,0,.008.008v.008c.008.042.017.083.025.116s.025.083.033.116h0c-.017-.042-.033-.083-.05-.133-.008-.033-.025-.067-.033-.1Zm.632.383Zm1.415-.416v.233c0,.033.008.058.008.092a.246.246,0,0,0,.017.083h-.083c0-.025.008-.05.008-.075s.008-.075.008-.116v-.3c.008.008.017.025.025.033S14.3,20.9,14.312,20.919Zm1.015-8.363c.008-.017.017-.025.025-.042l.05-.1c.017-.042.042-.075.058-.116l.05-.1c.017-.042.042-.075.058-.116l.05-.1c.017-.042.042-.075.058-.116l.05-.1c.017-.042.042-.075.058-.116a13.112,13.112,0,0,0,.116-.216c.017-.033.033-.058.05-.092s.042-.083.067-.133c.017-.025.025-.058.042-.083.025-.05.058-.108.083-.158a.477.477,0,0,1,.033-.058c.033-.067.075-.141.116-.208.017-.025.025-.05.042-.075.025-.05.05-.092.075-.141.017-.033.033-.058.05-.092s.042-.083.067-.125.033-.058.05-.092.042-.083.067-.125a.908.908,0,0,1,.05-.092c.025-.042.042-.083.067-.125a.907.907,0,0,1,.05-.092c.025-.042.042-.083.067-.125s.033-.058.05-.092a.909.909,0,0,0,.067-.125c.017-.033.033-.058.05-.092l.025-.05c1.207-.025,2.488-.042,3.819-.05l1.972,3.42c-.666,1.14-1.323,2.247-1.947,3.279H20a1.229,1.229,0,0,1-.175-.008h-.075a1.473,1.473,0,0,1-.191-.008H19.5c-.075,0-.15-.008-.216-.008h-.025c-.166-.008-.333-.008-.491-.017h-.058c-.058,0-.116-.008-.175-.008h-.092c-.05,0-.1-.008-.15-.008a.4.4,0,0,1-.1-.008.716.716,0,0,1-.133-.008.474.474,0,0,1-.108-.008.63.63,0,0,1-.125-.008.474.474,0,0,1-.108-.008c-.042,0-.083-.008-.125-.008a.474.474,0,0,1-.108-.008c-.042,0-.083-.008-.116-.008s-.075-.008-.108-.008h-.05C16.542,14.761,15.918,13.671,15.327,12.556Zm7.988.383c1.331-.008,2.613-.025,3.819-.05.008.017.017.025.025.042s.025.05.042.075c.025.05.05.092.075.141.017.025.025.05.042.075.025.05.05.092.075.133.017.025.025.05.042.075.025.05.05.092.075.141a.494.494,0,0,0,.033.067c.025.05.05.092.075.141.008.025.025.042.033.067l.075.15a.406.406,0,0,1,.025.058,1.878,1.878,0,0,1,.092.183c0,.008.008.008.008.017.033.067.067.133.108.208.008.008.008.017.017.025.033.058.058.116.092.175.008.025.025.042.033.067.025.042.042.092.067.133a.3.3,0,0,1,.033.075c.017.042.042.083.058.125.017.025.025.05.042.075.017.042.042.075.058.116a.773.773,0,0,1,.042.083.688.688,0,0,0,.058.108.773.773,0,0,1,.042.083.688.688,0,0,0,.058.108c.017.025.025.05.042.075a.761.761,0,0,0,.058.116c.008.025.025.05.033.075.008.008.008.017.017.033-.558.924-1.123,1.781-1.689,2.571.008-.092.008-.141.008-.141A.246.246,0,0,0,27,18.4a.6.6,0,0,0-.058.092.063.063,0,0,0-.017.033c-.008-.017-.017-.025-.017-.042a1.1,1.1,0,0,0-.075-.141v.042a.68.68,0,0,0,.008.116c0,.042.008.1.008.158a.008.008,0,0,1-.008.008c-.008-.008-.008-.017-.017-.033a1.208,1.208,0,0,0-.083-.15c-.025-.042-.042-.067-.058-.092a.144.144,0,0,1-.025-.033.146.146,0,0,0,.008.042,1.022,1.022,0,0,1,.017.108c.017.083.033.191.058.333a.029.029,0,0,1-.008.017.106.106,0,0,0-.05.008c-.033,0-.067.008-.1.008s-.083.008-.125.008-.067.008-.1.008-.083.008-.125.008-.067.008-.1.008-.083.008-.125.008c0-.008,0-.017-.008-.017A.131.131,0,0,1,26,18.864v.008h0c-.033-.083-.058-.158-.083-.225a1.076,1.076,0,0,0-.075-.166,1.1,1.1,0,0,0-.075-.141v.042a.68.68,0,0,0,.008.116c0,.05.008.108.008.183v.008l-.025-.05a1.208,1.208,0,0,0-.083-.15c-.025-.042-.042-.067-.058-.092a.144.144,0,0,1-.025-.033.146.146,0,0,0,.008.042,1.023,1.023,0,0,1,.017.108c.017.092.042.216.067.366,0,.017.008.042.008.058h-.017c-.05,0-.092.008-.141.008h0a.343.343,0,0,1,.008-.075.246.246,0,0,0-.025.033.182.182,0,0,0-.025.042h-.017a.233.233,0,0,0,.008-.05l-.025.025-.025.025c-.05,0-.1.008-.15.008h-.058c-.075.008-.15.008-.233.017h-.042c-.058,0-.125.008-.183.008H24.68c-.05,0-.1.008-.15.008h-.05c.008-.083.008-.125.008-.125a.246.246,0,0,0-.025.033c-.017.017-.033.05-.058.083.008-.058.017-.092.017-.092l-.025.025c-.017.017-.033.042-.058.067,0,.008-.008.008-.017.017h-.133a.716.716,0,0,0-.133.008h-.1a.716.716,0,0,0-.133.008h-.358a.1.1,0,0,0-.017-.025v.025H23.2c-.574-.832-1.19-1.781-1.839-2.821C22,15.177,22.65,14.079,23.316,12.939ZM28.367,19.4v.5c0,.1.008.191.008.291a.807.807,0,0,0,.008.141c0,.05.008.092.008.141.008.092.017.183.025.258a.733.733,0,0,0,.017.141c-.008-.05-.017-.108-.025-.158a1.109,1.109,0,0,0-.042-.158l-.05-.15c-.008-.033-.025-.067-.033-.092.008-.067.008-.125.017-.183s.008-.125.008-.183a2.684,2.684,0,0,0-.008-.283c0-.033-.008-.067-.008-.083v-.025a.967.967,0,0,0-.058.092c-.033.058-.075.15-.125.258-.008.017-.008.025-.017.042a.092.092,0,0,0-.033-.042.378.378,0,0,0-.008.083v.1a1.807,1.807,0,0,0-.058.2v.008a.594.594,0,0,0-.042-.141l-.025-.05a.008.008,0,0,0-.008.008l-.033.033c-.008.008-.008.017-.017.025a.417.417,0,0,0-.058-.067.787.787,0,0,0-.042-.15c0-.008,0-.017.008-.017.008-.042.025-.083.033-.116C27.975,19.671,28.175,19.538,28.367,19.4Zm2.946,1.939h-.083v-.008a.854.854,0,0,1,.033-.116.562.562,0,0,0,.017-.116.118.118,0,0,0,.017-.05c0,.017.008.025.008.042.008.033.017.075.025.108v.017c-.008.033-.008.067-.017.092C31.321,21.31,31.312,21.327,31.312,21.335Zm1.232-.025v.042h-.058v-.058a.512.512,0,0,1,.008-.108.549.549,0,0,1,.008-.116c0-.083,0-.175.008-.258v-.05c0,.042.008.075.008.116a.474.474,0,0,0,.008.108c0,.033.008.067.008.1a.341.341,0,0,0,.008.092.23.23,0,0,0,.008.075A.142.142,0,0,0,32.544,21.31Zm2.363-1.24c0,.008.008.017.008.025a.908.908,0,0,0,.05.092l.05.1c.008.025.017.042.025.067a.875.875,0,0,0-.05.175h0c0-.033-.008-.067-.008-.092-.008-.05-.017-.092-.025-.141Zm2.313,1.356c.008-.008.008-.017.017-.025.017-.033.033-.058.05-.092,0,.008.008.008.008.017v.025a.162.162,0,0,0,.008.067v.017Zm2.6.058h-.042c0-.008.008-.017.008-.025a.405.405,0,0,0,.025-.058v.017C39.808,21.443,39.816,21.468,39.816,21.485Zm1.2.033a1.739,1.739,0,0,1-.208-.008l.025-.05c.008-.025.025-.058.033-.083.008-.008.008-.025.017-.033v.008a.457.457,0,0,0,.058.075.036.036,0,0,0,.008.025l.008-.008c.008.008.017.017.017.025A.317.317,0,0,1,41.015,21.518Zm-.483-.017a.337.337,0,0,1,.042-.075c.017-.033.033-.067.058-.108.008-.008.008-.017.017-.033V21.3c-.008.033-.008.067-.017.1s-.008.058-.017.092v.017A.312.312,0,0,0,40.532,21.5Zm1.048-.133Zm.1-.15c.017-.025.042-.058.058-.083,0,.042.008.092.008.133.008.067.008.125.017.183,0,.033.008.058.008.092h-.108c0-.008,0-.008-.008-.017a.494.494,0,0,0-.033-.067.174.174,0,0,0-.033-.05v-.017c.008-.025.017-.05.025-.083,0-.008.008-.008.008-.017C41.647,21.26,41.664,21.243,41.68,21.219Zm.3.325h-.008a.031.031,0,0,1,.008-.025C41.972,21.526,41.98,21.535,41.98,21.543ZM1.14,21.16v0Zm1.048-.025v0Zm.308.2v.017c-.017.058-.033.108-.042.15,0,.008-.008.025-.008.033H2.421A.05.05,0,0,1,2.43,21.5a.63.63,0,0,0,.008-.125c0-.042.008-.092.008-.133V21.11h0a.031.031,0,0,0,.008.025C2.471,21.21,2.48,21.277,2.5,21.335Zm1.19-.216h0a.135.135,0,0,1-.05.025.387.387,0,0,1-.075.025,1.039,1.039,0,0,0-.075-.1.2.2,0,0,0-.092-.05.405.405,0,0,0-.1-.008H3.262a.573.573,0,0,1,.025-.067c.025-.075.058-.158.083-.241.017-.067.042-.125.058-.191.008.008.008.025.017.033.033.067.067.141.1.216.017.033.033.075.05.116s.033.083.05.116C3.661,21.044,3.678,21.085,3.686,21.119Zm.042.125c.025.083.05.166.067.233,0,.008.008.017.008.025H3.711c0-.017-.008-.033-.008-.05s-.008-.033-.017-.05a.627.627,0,0,0-.05-.108l-.025-.05a.384.384,0,0,0,.058-.083.063.063,0,0,0,.017-.033A1.009,1.009,0,0,1,3.728,21.243Zm2.521.2H6.083c-.008-.008-.017-.025-.025-.033a.115.115,0,0,1-.025-.033.312.312,0,0,1,.008-.083v-.017l.075-.1a.84.84,0,0,1,.058.125c.008.025.025.042.033.067a.406.406,0,0,0,.025.058C6.241,21.435,6.249,21.435,6.249,21.443Zm2.23-.6h0V20.9c0,.025-.008.05-.008.067v.067c0,.042-.008.083-.008.125a1.33,1.33,0,0,0,0,.183V21.4H8.446a.389.389,0,0,0-.083-.042c.008-.017.008-.033.017-.05l.025-.1a.8.8,0,0,0,.025-.183v-.108a.1.1,0,0,0-.008-.042.38.38,0,0,0-.05.033.913.913,0,0,0-.1.092.182.182,0,0,0-.033.042.142.142,0,0,1,.008-.058c0-.042.008-.075.008-.108v-.092a.341.341,0,0,0-.008-.092c-.008-.058-.017-.116-.025-.183v-.075c.017.033.025.075.042.1a.472.472,0,0,0,.067.108l.075.1Zm.857-.333c-.025.025-.058.05-.083.075-.042.042-.083.075-.125.116v-.008h0a.05.05,0,0,0,.008-.033c.008-.042.025-.075.033-.116s.025-.083.033-.116c.008-.05.017-.1.025-.141,0,.008.008.017.008.033.017.042.033.083.05.133A.1.1,0,0,1,9.336,20.511Zm.175.383a.53.53,0,0,0,.017-.058v.025c0,.025-.008.05-.008.067v.067c0,.042-.008.083-.008.125a1.33,1.33,0,0,0,0,.183v.075c-.025-.017-.058-.033-.083-.05,0-.017.008-.042.008-.058.008-.033.008-.067.017-.092a.418.418,0,0,0,.017-.1c.008-.033.008-.067.017-.1S9.5,20.919,9.511,20.894Zm1.115-.283c0,.008.008.008.008.017V20.9a.031.031,0,0,1-.008.025c-.008.025-.008.067-.017.108v.233a.283.283,0,0,0,.008.083v.017h-.166c.008-.033.008-.058.017-.092s.008-.067.017-.092a.418.418,0,0,0,.017-.1c.008-.033.008-.067.017-.1l.025-.1c.017-.067.033-.125.05-.183A.405.405,0,0,0,10.626,20.611Zm1.048.566a1.137,1.137,0,0,1,.017-.158.183.183,0,0,1,.008-.067c.008.1.008.175.017.241,0,.033.008.058.008.083s.008.05.008.067h-.058V21.31c0-.025.008-.042.008-.067C11.666,21.227,11.674,21.2,11.674,21.177Zm2.413-1.057c0,.008-.008.008-.008.017-.025.05-.058.125-.092.208-.008.033-.025.067-.033.1-.025.042-.058.092-.092.141-.017.033-.042.075-.058.116,0-.008-.008-.017-.008-.025.025-.075.042-.15.067-.225.025-.108.058-.225.083-.333.025-.092.042-.175.067-.258.008.017.008.033.017.042A1.2,1.2,0,0,0,14.088,20.12Zm1.814-.666c.075.058.158.108.233.166,0,.017.008.042.008.075s.008.058.017.092l-.025.125c-.025.125-.05.258-.075.383,0,.025-.008.042-.008.067l-.05.125a.065.065,0,0,0-.033-.033.3.3,0,0,0-.058-.058v.017c0,.008-.008.033-.008.05,0,.042-.008.108-.008.183a.673.673,0,0,0,.008.125v.017c-.008.017-.008.042-.017.058s-.017.058-.025.083c-.008-.008-.008-.017-.017-.025-.017-.025-.025-.058-.042-.083V20.8c0-.058.008-.125.008-.191v-.058a.653.653,0,0,0,.017-.116.53.53,0,0,1,.017-.075.036.036,0,0,1,.008-.025.329.329,0,0,0-.042.058v-.058a.341.341,0,0,0-.008-.092c0-.033-.008-.067-.008-.1V20.12a.487.487,0,0,0,.017-.108c.008-.067.025-.133.033-.2.008-.033.008-.067.017-.092a.062.062,0,0,1,.008-.042c0-.017.008-.025.008-.042a1.169,1.169,0,0,0,.017-.15C15.9,19.463,15.9,19.463,15.9,19.454Zm-1.048-6.615c.591,1.107,1.215,2.2,1.864,3.245-.458.849-.865,1.639-1.223,2.338a10.017,10.017,0,0,1-3.3-5.708C12.923,12.764,13.821,12.806,14.853,12.839ZM16.975,2.513c-.649.882-1.306,1.872-1.939,2.929-.133.017-.266.025-.391.042h-.033c-.025,0-.042.008-.067.008A.075.075,0,0,0,14.5,5.5c-.025,0-.042.008-.058.008a.062.062,0,0,0-.042.008c-.017,0-.042.008-.058.008a.106.106,0,0,0-.05.008c-.017,0-.033.008-.058.008a4085.269,4085.269,0,0,0-.1.017c-.017,0-.033.008-.05.008a.106.106,0,0,0-.05.008c-.017,0-.033.008-.058.008a.106.106,0,0,0-.05.008c-.017,0-.033.008-.058.008a.075.075,0,0,0-.042.008c-.017,0-.042.008-.058.008a.075.075,0,0,0-.042.008c-.025,0-.042.008-.067.008a.05.05,0,0,0-.033.008c-.025,0-.05.008-.075.008H13.53c-.033.008-.067.008-.1.017a10.167,10.167,0,0,1,3.362-3.4A.618.618,0,0,1,16.975,2.513Zm3.994.083c.574.832,1.19,1.781,1.839,2.821-.624,1.032-1.281,2.13-1.939,3.27-1.331.008-2.613.025-3.819.05h0c-.033-.067-.067-.133-.108-.2,0-.008-.008-.008-.008-.017-.033-.058-.067-.125-.1-.183-.008-.008-.008-.017-.017-.025-.033-.058-.058-.116-.092-.175-.008-.017-.017-.025-.017-.042-.025-.058-.058-.108-.083-.166a.182.182,0,0,0-.025-.042c-.025-.05-.058-.108-.083-.158l-.025-.05c-.025-.058-.058-.108-.083-.158a.029.029,0,0,0-.008-.017c-.033-.067-.067-.125-.1-.191h0l-.1-.2a.008.008,0,0,0-.008-.008c-.025-.058-.058-.108-.083-.166-.017-.025-.025-.058-.042-.083a.688.688,0,0,0-.058-.108A.008.008,0,0,0,16,6.74c-.017-.025-.025-.058-.042-.083s-.033-.058-.05-.092c-.008-.008-.008-.017-.017-.033a.773.773,0,0,1-.042-.083c-.017-.025-.025-.05-.042-.075s-.017-.025-.025-.042c-.017-.033-.025-.058-.042-.092l-.025-.05-.025-.05-.05-.1c-.008-.008-.008-.025-.017-.033-.008-.025-.025-.042-.033-.067a.761.761,0,0,0-.058-.116h0c-.008-.025-.025-.05-.033-.075-.008-.008-.008-.017-.017-.033.641-1.057,1.29-2.047,1.947-2.929a.106.106,0,0,0,.05-.008c.033,0,.067-.008.1-.008s.075-.008.116-.008.067-.008.108-.008.075-.008.116-.008.067-.008.108-.008.075-.008.116-.008.067-.008.108-.008.083-.008.116-.008.067-.008.1-.008.083-.008.125-.008.067-.008.1-.008c.05,0,.1-.008.141-.008a.283.283,0,0,0,.083-.008c.075-.008.15-.008.225-.017h.067c.058,0,.108-.008.166-.008a.341.341,0,0,0,.092-.008c.05,0,.092-.008.141-.008h.1a.716.716,0,0,0,.133-.008h.1a.716.716,0,0,0,.133-.008h.1a.716.716,0,0,0,.133-.008h.566A.211.211,0,0,0,20.969,2.6Zm7.3.25C27.9,3.569,27.476,4.385,27,5.267h-.033a.405.405,0,0,1-.1-.008c-.042,0-.092-.008-.133-.008a.405.405,0,0,1-.1-.008c-.042,0-.092-.008-.133-.008a.405.405,0,0,1-.1-.008c-.042,0-.092-.008-.133-.008a.405.405,0,0,1-.1-.008c-.042,0-.092-.008-.133-.008a.405.405,0,0,1-.1-.008.807.807,0,0,1-.141-.008h-.1a.9.9,0,0,1-.15-.008h-.092c-.058,0-.116-.008-.166-.008h-.075c-.166-.008-.325-.008-.491-.017h-.075a1.229,1.229,0,0,1-.175-.008H23.291c-.649-1.032-1.265-1.98-1.839-2.813.433-.6.849-1.132,1.232-1.581A10.043,10.043,0,0,1,28.267,2.846Zm3.728,6.066c-.732-.05-1.631-.092-2.663-.125-.591-1.107-1.215-2.2-1.864-3.245.458-.849.865-1.639,1.223-2.338A10.017,10.017,0,0,1,31.995,8.912ZM29.54,15.593c-.125.017-.258.025-.383.042-.258-.533-.541-1.09-.832-1.656-.225-.441-.466-.9-.716-1.365.616-1.107,1.2-2.205,1.731-3.27,1.065.033,1.98.083,2.729.133.008.025.025.05.033.075a10.538,10.538,0,0,1,.075,1.265,10.125,10.125,0,0,1-1.1,4.585l-.358.05c-.033.008-.058.008-.092.017q-.462.062-.974.125A.545.545,0,0,0,29.54,15.593Zm-.175,2.971c0,.033.008.058.008.092.008.1.025.2.033.308.008.05.008.108.017.158v.033c0,.05-.008.108-.008.158a.856.856,0,0,1-.008.141v.316c-.008.033-.017.058-.025.092s-.017.075-.025.108-.017.075-.025.108a.562.562,0,0,0-.017.116.283.283,0,0,0-.008.083.864.864,0,0,0-.033-.083c0-.042-.008-.075-.008-.116s-.008-.092-.017-.133c-.025-.166-.05-.333-.083-.466s-.067-.25-.092-.325c-.017-.042-.025-.067-.033-.092l-.017-.033a.131.131,0,0,1-.008.033.543.543,0,0,1-.017.092c-.008.083-.025.2-.033.333s-.017.3-.017.466v.075a.029.029,0,0,1-.017-.008s0,.008.017.033v.017a.008.008,0,0,0-.008.008l-.033.033a.877.877,0,0,0-.067.108.9.9,0,0,0-.008-.15v-.083c0-.025-.008-.058-.008-.083-.008-.116-.025-.233-.033-.341l-.025-.175a.982.982,0,0,0-.033-.166.487.487,0,0,1-.017-.108A7.586,7.586,0,0,0,29.365,18.564Zm.308,2.372Zm.283-.815c.008-.017.008-.025.017-.042a.029.029,0,0,1,.008.017V20.5a1.061,1.061,0,0,0,.008.158v.008c-.008.008-.025.017-.042.033a.1.1,0,0,1-.025-.017.064.064,0,0,0,.008.025.352.352,0,0,1-.058.042v-.424C29.906,20.245,29.939,20.178,29.956,20.12Zm.025-.058v.017h-.008A.026.026,0,0,0,29.981,20.062Zm2.5-.067v.1a.089.089,0,0,0-.025-.042h0A.406.406,0,0,1,32.477,20Zm.125,1.348v.008h0ZM32.719,21c.008-.025.008-.05.017-.067v.05c0,.033-.008.058-.008.092v.216a.183.183,0,0,0,.008.067h-.058c-.008-.008-.017-.017-.017-.025a.115.115,0,0,0-.025-.033c.008-.008.008-.025.017-.033l.025-.075C32.685,21.135,32.7,21.069,32.719,21Zm1.032.308a.162.162,0,0,0,.008.058h-.216a.405.405,0,0,1,.008-.1,3978.577,3978.577,0,0,0,.017-.25.63.63,0,0,1,.008-.125v-.349c0-.042-.008-.075-.008-.108v-.092a1.086,1.086,0,0,0-.017-.225.282.282,0,0,0-.025-.067c.017-.058.033-.108.05-.158.008.042.017.083.025.133.017.092.033.191.05.283l.025.15a5391.207,5391.207,0,0,0,.033.3c.008.05.008.1.017.141s.008.092.017.141a.716.716,0,0,1,.008.133A.357.357,0,0,0,33.75,21.31Zm.116-1.273c0,.008.008.008.008.017l-.008.008c0-.017-.008-.033-.008-.05C33.859,20.02,33.867,20.029,33.867,20.037Zm.924,1.273c0,.025.008.05.008.075h-.125a.106.106,0,0,0-.008-.05v-.042c0-.017-.008-.033-.008-.05a1.666,1.666,0,0,0-.033-.2.422.422,0,0,1-.017-.108v-.391a.7.7,0,0,0-.017-.158V20.37c.025-.05.042-.1.067-.15a.487.487,0,0,1,.017.108c.008.042.017.092.025.141a6738.95,6738.95,0,0,1,.033.3c.008.05.008.1.017.141s.008.092.017.141a.716.716,0,0,1,.008.133A.642.642,0,0,1,34.79,21.31Zm.266-1.256a.008.008,0,0,0-.008-.008c-.042-.058-.083-.125-.125-.183-.025-.042-.058-.075-.083-.116.008-.033.025-.067.033-.1.017-.067.042-.141.05-.2,0-.017.008-.033.008-.05.008.058.017.133.025.216a1.411,1.411,0,0,0,.033.183c.008.058.025.116.033.183A.149.149,0,0,1,35.057,20.054Zm1.889,1.3a.257.257,0,0,1,.017.067h-.15c0-.008,0-.008.008-.017.008-.025.017-.058.033-.1s.025-.092.042-.15a.693.693,0,0,0,.033.125A.243.243,0,0,0,36.946,21.352Zm2.1-.05v.017l-.017-.017v-.075A.531.531,0,0,0,39.043,21.3Zm.225.025v.141h-.1a.182.182,0,0,0-.025-.042.235.235,0,0,1-.025-.05.026.026,0,0,1-.008.017l-.025-.025A.157.157,0,0,0,39.1,21.3c.017-.042.025-.092.042-.15s.025-.125.042-.2v-.017c.025.141.05.258.067.341A.082.082,0,0,1,39.267,21.327Zm1.065.05c-.017.025-.025.05-.042.075h0a.509.509,0,0,0-.042-.1,1.178,1.178,0,0,0-.067-.15.529.529,0,0,0,.017-.058c.017-.058.025-.125.042-.2v-.017c.025.141.05.258.067.341A.712.712,0,0,0,40.332,21.377Zm.125.116c0-.008.008-.017.008-.025a.05.05,0,0,0,.008.033h-.017C40.449,21.493,40.457,21.493,40.457,21.493Zm.782-.874v.141a1.061,1.061,0,0,0,.008.158v.05c-.008.008-.008.017-.017.025a.115.115,0,0,1-.033-.025l-.017-.017a.7.7,0,0,1,.033.083.118.118,0,0,0-.017.05.576.576,0,0,1-.025.067h0c-.017-.025-.033-.058-.05-.083s-.017-.025-.025-.042c.033-.1.058-.216.092-.341a.594.594,0,0,1,.042-.141c.008-.008.008-.017.017-.017v.008A.209.209,0,0,0,41.239,20.619Zm.325.533c-.008.008-.008.017-.017.017-.017.017-.033.042-.05.058a.031.031,0,0,1,.008-.025.207.207,0,0,0,.008-.067c0-.025.008-.05.008-.067.008-.092.017-.175.017-.25v-.025c.008.075.008.15.017.208S41.564,21.1,41.564,21.152Zm.175-.483h0v.316l-.05.05v-.017c.017-.092.025-.191.042-.3C41.73,20.694,41.73,20.678,41.739,20.669Zm.258.05v0Zm.166.666c0,.008-.008.017-.008.025V21.4a.026.026,0,0,1,.008-.017Zm.466,0v.008a.942.942,0,0,0-.083-.108c0-.008-.008-.008-.008-.017a.36.36,0,0,1,.008-.042.183.183,0,0,0,.008-.067c0-.025.008-.042.008-.067.008-.083.017-.175.017-.25v-.083c.008.083.017.166.017.241.008.092.008.166.017.233S42.629,21.352,42.629,21.385Zm-.15.175h-.017c0-.008.008-.017.008-.025C42.471,21.543,42.479,21.551,42.479,21.56Zm.566-.791v0Z" transform="translate(0 0)" fill="#9e9e9e"/>
    </g>
    <path id="Path_65627" data-name="Path 65627" d="M105.8,279.637q13.28-.574,26.578,0-13.28.587-26.578,0Z" transform="translate(-96.996 -256.105)" fill="#9e9e9e"/>
    <path id="Path_65628" data-name="Path 65628" d="M166.5,296.437a118.207,118.207,0,0,1,16.467,0,118.226,118.226,0,0,1-16.467,0Z" transform="translate(-152.645 -271.507)" fill="#9e9e9e"/>
  </g>
</svg>
