<svg xmlns="http://www.w3.org/2000/svg" width="16.001" height="14.438" viewBox="0 0 16.001 14.438">
  <g id="photo-camera" transform="translate(0 -25)">
    <g id="Group_175254" data-name="Group 175254" transform="translate(0 25)">
      <g id="Group_175253" data-name="Group 175253">
        <path id="Path_66160" data-name="Path 66160" d="M15.376,34.438A.625.625,0,0,0,16,33.813V29.75a2.5,2.5,0,0,0-2.5-2.5h-.949a.625.625,0,0,1-.592-.424l-.189-.556A1.875,1.875,0,0,0,10,25H6a1.88,1.88,0,0,0-1.764,1.238l-.216.6a.627.627,0,0,1-.588.413H2.5A2.5,2.5,0,0,0,0,29.75v7.188a2.5,2.5,0,0,0,2.5,2.5h11a2.5,2.5,0,0,0,2.5-2.5.625.625,0,1,0-1.25,0,1.251,1.251,0,0,1-1.25,1.25H2.5a1.251,1.251,0,0,1-1.25-1.25V29.75A1.251,1.251,0,0,1,2.5,28.5h.935A1.88,1.88,0,0,0,5.2,27.262l.216-.6A.627.627,0,0,1,6,26.25H10a.625.625,0,0,1,.592.424l.189.556A1.875,1.875,0,0,0,12.552,28.5H13.5a1.251,1.251,0,0,1,1.25,1.25v4.063A.625.625,0,0,0,15.376,34.438Z" transform="translate(0 -25)" fill="#275072"/>
      </g>
    </g>
    <g id="Group_175256" data-name="Group 175256" transform="translate(4.125 29.125)">
      <g id="Group_175255" data-name="Group 175255">
        <path id="Path_66161" data-name="Path 66161" d="M135.906,157a3.906,3.906,0,1,0,3.906,3.906A3.911,3.911,0,0,0,135.906,157Zm0,6.563a2.656,2.656,0,1,1,2.656-2.656A2.659,2.659,0,0,1,135.906,163.563Z" transform="translate(-132 -157)" fill="#275072"/>
      </g>
    </g>
  </g>
</svg>
