<svg xmlns="http://www.w3.org/2000/svg" width="19.476" height="19.482" viewBox="0 0 19.476 19.482">
  <path id="football" d="M9.588,19.176c5.376,0,9.588-1.685,9.588-3.835,0-1.008-.9-1.936-2.541-2.634a8.268,8.268,0,0,0,.917-2.028v-.006a8.279,8.279,0,0,0,0-4.727V5.94a8.314,8.314,0,0,0-2.185-3.594.288.288,0,0,0-.03-.029A8.307,8.307,0,0,0,11.793.3l-.01,0a8.272,8.272,0,0,0-4.39,0l-.01,0A8.311,8.311,0,0,0,3.839,2.317a.288.288,0,0,0-.03.029A8.314,8.314,0,0,0,1.624,5.94v.006a8.279,8.279,0,0,0,0,4.727v.006a8.268,8.268,0,0,0,.917,2.028C.9,13.405,0,14.332,0,15.341c0,2.151,4.212,3.835,9.588,3.835ZM2.275,10.625l1.109-2H6.2L7,10.067l.622,1.119L7,12.3l-.8,1.438H4.179a7.683,7.683,0,0,1-1.9-3.118ZM1.917,8.309A7.673,7.673,0,0,1,2.049,6.9L2.83,8.309,2.049,9.716a7.674,7.674,0,0,1-.132-1.406ZM8.178,5.752H11l.8,1.438.622,1.119L11.8,9.428,11,10.866H8.178l-.8-1.438L6.757,8.309l.621-1.119ZM6.2,14.382l.594,1.07a7.672,7.672,0,0,1-1.888-1.07Zm1.485,1.36-.931-1.68.258-.465,1.162-2.092H11L12.16,13.6l.258.465-.931,1.679a7.692,7.692,0,0,1-3.8,0Zm5.283-1.36h1.294a7.67,7.67,0,0,1-1.888,1.07ZM15,13.742H12.972l-.8-1.438-.622-1.119.621-1.119.8-1.438h2.82l1.109,2A7.682,7.682,0,0,1,15,13.742Zm2.262-5.433a7.674,7.674,0,0,1-.132,1.406l-.781-1.406L17.126,6.9a7.673,7.673,0,0,1,.132,1.406ZM16.9,5.994l-1.109,2h-2.82l-.8-1.438-.622-1.119.621-1.119.8-1.438H15a7.68,7.68,0,0,1,1.9,3.118ZM12.972,2.237l-.594-1.07a7.67,7.67,0,0,1,1.888,1.07ZM11.487.877l.931,1.679-.258.465L11,5.113H8.178L7.016,3.021l-.258-.465L7.689.877a7.692,7.692,0,0,1,3.8,0ZM6.2,2.237H4.909A7.672,7.672,0,0,1,6.8,1.166Zm-2.024.639H6.2L7,4.314l.622,1.119L7,6.551,6.2,7.99H3.384l-1.109-2a7.681,7.681,0,0,1,1.9-3.118ZM2.908,13.246a8.378,8.378,0,0,0,.9,1.027.288.288,0,0,0,.03.029,8.3,8.3,0,0,0,3.543,2.018l.006,0,.011,0a8.278,8.278,0,0,0,4.376,0l.016,0A8.306,8.306,0,0,0,15.336,14.3a.288.288,0,0,0,.03-.029,8.377,8.377,0,0,0,.9-1.027c1.445.593,2.269,1.348,2.269,2.095,0,1.543-3.6,3.2-8.949,3.2S.639,16.884.639,15.341c0-.747.824-1.5,2.269-2.095Zm0,0" transform="translate(0.15 0.156)" fill="#275072" stroke="#275072" stroke-width="0.3"/>
</svg>
