<svg xmlns="http://www.w3.org/2000/svg" width="22.688" height="22.688" viewBox="0 0 22.688 22.688">
  <g id="Coaching" transform="translate(-19.25 -19.25)">
    <path id="Path_66147" data-name="Path 66147" d="M28.143,79.392H21.8A1.8,1.8,0,0,1,20,77.6V61.8A1.8,1.8,0,0,1,21.8,60h1.8" transform="translate(0 -38.204)" fill="none" stroke="#275072" stroke-linecap="round" stroke-linejoin="round" stroke-width="1.5"/>
    <path id="Path_66148" data-name="Path 66148" d="M263.591,332h6.823v3.591h-3.232A3.591,3.591,0,1,1,263.591,332" transform="translate(-229.227 -297.995)" fill="none" stroke="#275072" stroke-linecap="round" stroke-linejoin="round" stroke-width="1.5"/>
    <path id="Path_66149" data-name="Path 66149" d="M260,60h1.8a1.8,1.8,0,0,1,1.8,1.8v6.823" transform="translate(-229.227 -38.204)" fill="none" stroke="#275072" stroke-linecap="round" stroke-linejoin="round" stroke-width="1.5"/>
    <path id="Path_66150" data-name="Path 66150" d="M100,20v1.8a1.8,1.8,0,0,0,1.8,1.8h3.591a1.8,1.8,0,0,0,1.8-1.8V20" transform="translate(-76.409)" fill="none" stroke="#275072" stroke-linecap="round" stroke-linejoin="round" stroke-width="1.5"/>
    <path id="Path_66151" data-name="Path 66151" d="M97.574,200.861l1.27,1.27,2.539-2.539" transform="translate(-74.092 -171.529)" fill="none" stroke="#275072" stroke-linecap="round" stroke-linejoin="round" stroke-width="1.5"/>
    <path id="Path_66152" data-name="Path 66152" d="M97.574,320.861l1.27,1.27,2.539-2.539" transform="translate(-74.092 -286.143)" fill="none" stroke="#275072" stroke-linecap="round" stroke-linejoin="round" stroke-width="1.5"/>
  </g>
</svg>
