<svg xmlns="http://www.w3.org/2000/svg" xmlns:xlink="http://www.w3.org/1999/xlink" width="375" height="108" viewBox="0 0 375 108">
  <defs>
    <clipPath id="clip-path">
      <rect id="Rectangle_27919" data-name="Rectangle 27919" width="375" height="108" transform="translate(1 -1)" fill="#fff" stroke="#707070" stroke-width="1"/>
    </clipPath>
  </defs>
  <g id="Mask_Group_2269" data-name="Mask Group 2269" transform="translate(-1 1)" clip-path="url(#clip-path)">
    <g id="Group_175192" data-name="Group 175192" transform="translate(302.981 822.272) rotate(180)" opacity="0.13">
      <g id="Group_175175" data-name="Group 175175" transform="translate(76.462 707.272)">
        <path id="Path_65622" data-name="Path 65622" d="M17.047,255.225c-.168,0-.168,0-.337-.168a.521.521,0,0,0-.337-.168l.337.673.168.168h0c-.337,0-.673-.168-1.01-.168H15.7c0-.337.168-.505.168-.842.337-1.01.505-1.683.842-1.852l.168-.168a.737.737,0,0,1,.168.505h0v.168A3.4,3.4,0,0,1,17.047,255.225Z" transform="translate(10.731 -125.02)" fill="#275072"/>
        <path id="Path_65623" data-name="Path 65623" d="M26.21,246.9a1.678,1.678,0,0,1-.168.673,1.805,1.805,0,0,1-.337,1.01q-.253.253-.505-.505A3.751,3.751,0,0,0,26.21,246.9Z" transform="translate(17.224 -138.54)" fill="#275072"/>
        <path id="Path_65624" data-name="Path 65624" d="M10.105,255.859c-.168.168-.168,0-.168,0,0-.168-.168-.337-.168-.505a1.831,1.831,0,0,0-.168-.842V253c0-.168,0-.337.168-.168a.588.588,0,0,1,.168.337,11.458,11.458,0,0,1,.505,2.02v.168A2.421,2.421,0,0,0,10.105,255.859Z" transform="translate(6.562 -124.795)" fill="#275072"/>
        <path id="Path_65625" data-name="Path 65625" d="M25.583,246.99a11.6,11.6,0,0,0,.505,1.347,3.682,3.682,0,0,1-.842.505,1.789,1.789,0,0,1-1.347.168C24.91,246.99,25.247,245.812,25.583,246.99Z" transform="translate(16.336 -138.924)" fill="#275072"/>
        <path id="Path_65626" data-name="Path 65626" d="M0,361.075l10.1,21.484a64.838,64.838,0,0,1,7.239.632c5.724.316,12.795.948,21.212,1.264l7.071.316c10.943.632,23.232,1.264,37.037,1.9l27.1,1.264,62.794,2.212,35.017.948c27.778.632,76.43-123.216,75.083-120.057a45.021,45.021,0,0,0-1.852,4.739,17.918,17.918,0,0,0-1.347-2.528,13.862,13.862,0,0,0-1.852-2.528,19.715,19.715,0,0,1,1.178,3.159c.337.948.673,2.528,1.178,4.423-.673,2.528-1.347,5.055-2.02,8.214-.337,1.9-.673,3.475-1.01,5.371s-.673,3.791-1.01,6-.673,4.423-1.01,6.951v-.316c-.168-1.9-.337-4.107-.505-6a39.1,39.1,0,0,1-.337-4.423c.505-4.107.842-6.635.842-6.635a4.89,4.89,0,0,0-.337.948c-.168.632-.505,1.264-.673,1.9-.337-3.475-.673-6.635-1.178-9.478.505-6,.505-8.846.168-9.162a3.9,3.9,0,0,1-.673-2.528v-3.791a29.931,29.931,0,0,1-1.515,3.475l-.505.948a13.235,13.235,0,0,0-.842-1.9c-.337-.632-.673-.948-.842-1.264s-.337-.316-.337-.316v.316c0,.316-.168.948-.168,1.58a54.646,54.646,0,0,0-.168,6.319c-.337,1.58-.673,3.791-1.178,6.319-.337,1.58-.505,3.475-.842,5.055a17.169,17.169,0,0,0-.337,2.527c-.168.948-.168,1.9-.337,2.528a1.894,1.894,0,0,1-.168.948c-.842-3.159-1.515-6-2.357-8.53-1.684-5.371-3.03-8.846-4.209-10.426a8.033,8.033,0,0,0-1.852-2.528,19.713,19.713,0,0,1,1.178,3.159c.337,1.264.842,2.843,1.347,4.739.505,2.212,1.01,4.739,1.684,7.583s1.178,6.319,1.852,10.11c.337,1.9.673,4.107,1.01,6a3.277,3.277,0,0,1-.168,1.264c-.842-3.475-1.515-6.951-2.189-9.794-1.178-4.739-2.357-8.214-3.2-10.742-.337-1.264-.842-1.9-1.01-2.528a4.885,4.885,0,0,0-.337-.948s.168,1.58.337,4.739.673,7.582,1.178,13.269,1.347,12.322,2.189,19.272c0,.316.168.948.168,1.264-.337.948-.842,2.212-1.178,3.475s-.842,2.843-1.178,4.423V311.472c0-4.107-.168-8.214-.337-11.69s-.505-6.319-.673-8.214a16.791,16.791,0,0,0-.337-2.212,2.172,2.172,0,0,0-.168-.948l-.337.632c-.168.632-.337,1.264-.673,2.211-.505,1.9-1.178,4.739-1.852,7.9-.168.632-.168,1.264-.337,1.9,0-.948-.168-2.212-.168-3.159-.168-1.58-.168-3.159-.337-4.423.505-4.423.842-6.635.842-6.635a4.889,4.889,0,0,0-.337.948c-.168.632-.505,1.264-.673,1.9-.337-3.475-.673-6.951-1.178-9.794.505-6,.505-8.53,0-8.53s-.842-.316-.842-1.58v-3.475a17.308,17.308,0,0,1-1.515,3.159,9.534,9.534,0,0,0-1.178-2.528c-.337-.632-.673-.948-.842-1.264s-.337-.316-.337-.316l-.168.316a12.553,12.553,0,0,0-.168,1.264,54.649,54.649,0,0,0-.168,6.319c-.337,1.264-.673,3.791-1.178,6.319-.337,1.58-.505,3.475-.842,5.055a17.172,17.172,0,0,0-.337,2.528c-.168.948-.168,1.9-.337,2.528l-.505,3.791v-3.475c0-2.527-.168-4.739-.168-6.951-.168-2.212-.168-4.107-.337-6-.505-7.267-1.01-10.426-1.852-12.322a6.713,6.713,0,0,0-2.02-3.159,3.3,3.3,0,0,1-.673-.948c-.168-.316-.337-.316-.337-.316l-.168.316a2.152,2.152,0,0,1-.337.948,12.173,12.173,0,0,0-.673,3.159c-.168,1.9-.337,5.371-.337,12.953v3.159a7.832,7.832,0,0,0-.673-1.58,4.892,4.892,0,0,0-.337-.948s.168,1.58.337,4.739q.253,2.37.505,6.635v5.687c-.168-1.9-.337-3.475-.505-5.055a16.8,16.8,0,0,0-.337-2.212,2.172,2.172,0,0,0-.168-.948l-.337.632c-.168.632-.337,1.264-.673,2.212-.505,1.9-1.178,4.739-1.852,7.9-.337,1.58-.505,2.843-.842,4.739h0c0-7.9,0-16.113-.168-22.747-.168-3.475-.168-6.635-.168-8.846-.168-1.9-.168-3.159-.337-4.423v-.316h0v-.632a24.527,24.527,0,0,0-.505-2.843c-.168-.632-.505-1.264-.673-1.9-.168-.316-.168-.632-.337-.948s-.337-.948-.505-1.264c-.337-.948-.505-2.528-.842-4.107-.673-3.475-1.178-9.162-1.684-12.638s-1.01-6-1.515-8.214-1.01-4.423-1.515-6.319-1.01-4.107-1.515-6c-1.01-3.475-1.684-6.319-1.684-6.319a16.17,16.17,0,0,0,.168,1.9c0,1.264.168,2.843.168,4.739.168,3.791.337,7.9.505,12.638s.505,14.849,1.178,20.852a37.246,37.246,0,0,0,1.01,6,34.656,34.656,0,0,1,1.01,5.055c.168,1.264.337,3.159.505,5.371.168,2.527.337,5.687.337,8.846,0,1.58.168,3.475.168,5.371-.505,3.159-1.01,6.951-1.515,10.742-.505,4.107-1.01,8.53-1.347,12.953a3.277,3.277,0,0,1-.168,1.264v-13.9c0-2.527-.168-5.055-.168-7.582s-.168-4.739-.168-6.951c-.168-2.212-.168-4.107-.337-6-.505-7.267-1.01-10.426-1.684-12.322a8.258,8.258,0,0,0-2.02-3.475,3.3,3.3,0,0,1-.673-.948c-.168-.316-.337-.316-.337-.316l-.168.316a2.152,2.152,0,0,1-.337.948,28.861,28.861,0,0,0-.673,3.791c-.168,2.211-.337,5.371-.337,12.953V300.1a16.486,16.486,0,0,0-.842,2.211l-1.01,2.843c-.337.948-.673,2.212-1.01,3.159s-.505,1.9-.842,2.843a4.532,4.532,0,0,0-.673,1.264l-.505.948c0-3.475,0-7.267.168-11.058,0-7.9,0-15.8-.168-22.432-.168-3.475-.168-6.635-.168-8.53-.168-1.58-.168-3.159-.337-4.423v-.316h0v-.632c-.168-1.264-.337-2.528-.505-3.159-.168-.948-.505-1.58-.673-2.528-.168-.316-.168-.948-.337-1.264-.168-.632-.337-.948-.505-1.58-.337-1.264-.505-2.528-.842-4.423-.673-3.475-1.178-8.846-1.683-12.322s-1.01-6.319-1.515-8.53c-.505-2.527-1.01-4.739-1.515-6.951s-1.01-4.423-1.515-6l-1.684-6.319a16.175,16.175,0,0,0,.168,1.9c0,1.264.168,2.843.168,4.739q.253,5.687.505,13.269c.168,5.055.673,14.849,1.178,21.168.337,3.159.673,5.371,1.01,7.267s.673,3.791,1.01,6.635c.168,1.58.337,3.159.505,5.371s.337,5.371.337,8.846c0,1.58.168,3.475.168,5.055-.505,3.159-1.01,6.635-1.515,10.742-.168,1.9-.505,4.107-.673,6,0-.316-.168-.316-.168-.316v2.212l-.505,4.739c0,.632-.168,1.264-.168,2.212a6.812,6.812,0,0,0-.337,1.264c.168-1.9.168-3.475.337-5.371s.168-4.107.337-6,.168-4.107.168-6c.168-3.791.337-7.583.337-10.742s.168-6,.168-8.53c0-4.739,0-6.951-.168-8.53,0-.632-.168-1.264-.168-1.58v-.632a13.438,13.438,0,0,0-1.178,1.9,24.949,24.949,0,0,0-2.357,7.582c-.505,2.212-.842,5.055-1.347,7.9-.505,3.159-.842,6.635-1.347,10.11l-.505,5.687a4.185,4.185,0,0,1-.168,1.264c-.505,1.264-1.01,2.528-1.515,4.107L192.254,308c-.168.316-.168.632-.337.948l-1.01-1.9a22.35,22.35,0,0,0-3.7-5.371,10.548,10.548,0,0,0-1.178-1.264c-.337-.316-.505-.316-.505-.316a18.34,18.34,0,0,0,.337,2.843l.505,2.843-.337.632c-.673,1.58-1.683,3.791-2.694,6.319v-2.843c0-1.58-.168-3.159-.168-4.423-.168-6-.337-12.006-.673-17.377q-.253-4.265-.505-7.582a45.026,45.026,0,0,0-.673-5.687c0-.316-.168-.632-.168-.948,0-.632.168-.948.168-1.58.337-2.212.673-4.107.842-5.687.505-3.159,1.01-5.371,1.347-6.951a13.874,13.874,0,0,0,.337-2.212,4.166,4.166,0,0,0,.168-.948,2.739,2.739,0,0,1-.505.632,8.364,8.364,0,0,0-1.178,1.9,20.172,20.172,0,0,0-1.684,2.843,29.877,29.877,0,0,0-1.515,3.159c-.168-.316-.168-.948-.337-1.264-.337-.948-.505-1.9-.842-3.159-.337-.948-.505-1.9-.842-3.159h0c-.168-.948-.505-1.9-.505-2.212a4.168,4.168,0,0,1-.168-.948v.316h0c-.673-2.212-1.178-4.423-1.683-6.635s-1.01-4.423-1.515-6c-.842-3.159-1.347-4.739-1.347-4.739v5.055c0,1.58.168,4.107.168,6.319.168,2.212.168,4.423.337,6.635,0,.632.168,1.264.168,1.58a5.056,5.056,0,0,0,.168,1.58,20.131,20.131,0,0,0,.337,3.159c.168,2.212.505,4.423.673,6.951.168,1.264.168,2.528.337,4.107a1.894,1.894,0,0,0,.168.948c0,1.58-.168,3.159-.168,4.739s-.168,3.475-.168,5.371,0,4.107-.168,6.319v2.527c-.337,4.739-.842,10.11-1.178,15.8-.168,2.843-.337,5.371-.505,8.214h0c-1.01-1.9-1.852-3.791-2.694-5.055a39.866,39.866,0,0,0-3.535-5.055h0c-.168-4.107-.168-7.267-.337-9.478-.168-2.843-.337-4.107-.337-4.107a2.173,2.173,0,0,0-.168.948c-.168.632-.337,1.58-.673,2.843-.505,2.527-1.178,6.319-1.683,11.374l-.505,4.739c0-1.264-.168-2.528-.168-3.791-.168-5.687-.337-11.374-.673-16.745-.168-2.527-.337-5.055-.505-7.267a45.025,45.025,0,0,0-.673-5.687c0-.316-.168-.632-.168-.948,0-.632.168-1.264.168-1.9.337-2.528.673-5.055.842-6.951.505-4.107,1.01-7.583,1.347-9.794a28.6,28.6,0,0,0,.337-2.843,4.168,4.168,0,0,0,.168-.948l-.505.948a21.992,21.992,0,0,0-1.178,2.527c-.505.948-1.01,2.212-1.684,3.791-.505,1.264-1.01,2.843-1.515,4.423-.168-.632-.168-1.264-.337-1.9-.337-1.264-.505-2.843-.842-4.107s-.505-2.843-.842-4.107h0c-.168-1.264-.505-2.212-.505-2.843a4.168,4.168,0,0,1-.168-.948v.316h0c-.673-2.528-1.178-5.055-1.684-7.582-.505-2.212-1.01-4.739-1.515-6.319-.842-3.159-1.347-4.739-1.347-4.739v5.055c0,1.9.168,4.107.168,6.635.168,2.528.168,5.055.337,7.9,0,.632.168,1.264.168,2.212a9.8,9.8,0,0,0,.168,2.212,39.106,39.106,0,0,0,.337,4.423c.168,2.843.505,6,.673,9.162.168,1.58.168,3.159.337,5.055a1.894,1.894,0,0,0,.168.948c0,1.58-.168,3.475-.168,5.371,0,1.58-.168,3.475-.168,5.371v8.53c-.337,4.739-.842,9.794-1.178,14.849l-.505,7.583c-.168,2.527-.168,5.055-.337,7.583a11.262,11.262,0,0,1-.168,2.527,4.179,4.179,0,0,1-1.01-.632l.168.316.337.632a2.152,2.152,0,0,1,.337.948c0,.316.168.316.168.632v14.849c0,1.58.168,3.159.168,4.107a7.231,7.231,0,0,0,.168,1.9H150a14.444,14.444,0,0,1,.168-2.527v-5.687c0-.948-.168-2.211-.168-3.159a20.136,20.136,0,0,0-.337-3.159,7.764,7.764,0,0,0-.337-2.211v-1.9a5.633,5.633,0,0,0-.168-1.264s-.168,0-.337.316a8.531,8.531,0,0,0-.673-1.9,26.986,26.986,0,0,0-1.515-3.159,21.7,21.7,0,0,0-1.347-2.843c-.168-1.264-.168-2.528-.337-3.791l-.842-6.319a12.085,12.085,0,0,0-.505-2.211l-.337.632c-.168.316-.337.948-.673,1.58a6.812,6.812,0,0,0-.337,1.264,31.19,31.19,0,0,0-1.852-4.423c.505-4.423,1.01-9.162,1.515-13.269.505-4.423,1.01-8.53,1.347-12.006s.842-6.635,1.178-9.478.673-5.687.842-8.214c.505-5.055.842-9.162,1.01-12.006s.168-4.739.168-4.739l-.505.948c-.337.632-.673,1.58-1.178,2.843-.842,2.528-2.189,6.319-3.535,11.058s-2.694,10.742-4.04,17.693c-.337,1.58-.673,3.475-1.01,5.371s-.673,3.791-1.01,6c-.673,4.107-1.178,8.53-1.684,13.269s-1.01,9.478-1.515,13.9c-.337,3.159-.673,6.635-.842,9.794a4.543,4.543,0,0,0-1.684-.632,3.062,3.062,0,0,0-1.178-.316h.168s.168.316.337.316c.168.316.337.316.337.632l.168.316h-.337a2.739,2.739,0,0,0,.505.632,9.867,9.867,0,0,1,1.01,1.9c.168.316.168.632.337.948-.168,1.9-.337,3.791-.337,5.371-.168,1.9-.168,3.791-.337,5.371,0,1.58-.168,2.843-.168,4.107v1.9h-1.347v-.632a14.444,14.444,0,0,1,.168-2.528v-5.687c0-.948-.168-2.212-.168-3.159a20.133,20.133,0,0,0-.337-3.159,13.875,13.875,0,0,1-.337-2.212,7.9,7.9,0,0,0-1.178-2.843,14.936,14.936,0,0,0-1.515-1.9,11.2,11.2,0,0,1-1.683-2.843,20.952,20.952,0,0,1-1.01-2.528,28.551,28.551,0,0,0-1.01-2.843c-.505-1.58-1.01-2.843-1.515-4.107,0-1.264-.168-2.843-.168-4.107s-.168-2.527-.168-3.791c.337-2.843.673-5.371,1.01-7.9.505-4.107,1.01-7.9,1.347-11.69.337-3.475.842-7.267,1.178-10.742s.673-6.951.842-10.11c.505-6.319.842-11.69,1.01-15.165.168-3.791.168-5.687.168-5.687a4.917,4.917,0,0,0-.337,1.264,29.829,29.829,0,0,0-1.178,3.475c-.842,3.159-2.189,7.9-3.535,13.9-1.178,5.055-2.189,11.058-3.367,17.377-.168-.632-.168-1.264-.337-1.9a25.891,25.891,0,0,0-.673-3.159,5.568,5.568,0,0,1-.168-1.264s-.168,1.9-.505,4.739-.673,6.951-.842,11.374c-.168,2.527-.337,5.055-.337,7.9-.505,3.159-.842,6.319-1.347,9.794-.505,4.423-1.01,8.846-1.515,12.953-.337,3.159-.673,6-.842,9.162H108.08s.168,0,.505.316a5.529,5.529,0,0,1,1.515,1.9h0a3.277,3.277,0,0,1-.168,1.264c0,.632-.168,1.58-.168,2.212a10.353,10.353,0,0,0-.337-2.527,13.618,13.618,0,0,0-.673-2.527l-.337-.632h-.168c-.168,0-.337.316-.505.316a5.757,5.757,0,0,0-1.515,2.212l-.168.316c.168-.948.168-2.212.337-3.159a39.759,39.759,0,0,0,.337-4.107c.168-.948.168-1.9.337-2.527v-.948s-.337.632-1.01,2.211a14.443,14.443,0,0,0-.168-2.527v-3.475c0-.316.168-.316.168-.632a12.015,12.015,0,0,1,.673-2.843,37.373,37.373,0,0,1,1.347-5.055c.168-.948.337-1.58.505-2.527,0-.316.168-.948.168-1.264s.168-.948.168-1.264a45.853,45.853,0,0,0,.673-4.739,36.729,36.729,0,0,0,.168-3.791v-1.58s-.505,0-1.347,1.58c-.337.632-.842,2.212-1.515,3.791-.505,1.58-1.178,3.475-1.852,5.055h0v-.316l-.337.632a6.108,6.108,0,0,0-.673,1.9h0a17.008,17.008,0,0,1-1.178,2.527c-.337.948-.842,1.58-1.178,2.528s-.842,1.58-1.178,2.528l-1.01,2.843c-.168.632-.505,1.58-.673,2.528a24.03,24.03,0,0,0-.168-3.475c0-1.58-.168-3.159-.168-4.739A34.137,34.137,0,0,0,98.147,314c-.337-5.687-.842-11.058-1.515-15.165-.505-4.107-1.178-8.53-1.684-11.69-.168-1.58-.505-2.843-.673-3.791a8.845,8.845,0,0,1-.168-1.264s-.168,2.211-.505,5.371c-.337,3.475-.673,7.9-1.01,12.322s-.505,9.794-.673,15.481c0,2.843-.168,6-.168,8.846V337.7l-.168.316a3.532,3.532,0,0,0-.337,1.264l-.168-.316c-.673-.948-1.178-1.9-1.852-2.211a5,5,0,0,0-2.02-.632h-.842a34.783,34.783,0,0,0,.673-4.107c.505-3.159,1.178-6.635,1.683-9.794s1.01-6.635,1.515-9.478c.505-3.159.842-6,1.347-8.846.337-2.844.673-5.371,1.01-7.9.673-5.371,1.01-11.058,1.347-14.849s.337-6.319.337-6.319a10.978,10.978,0,0,0-.505,1.264c-.337.948-.673,2.211-1.178,3.791-1.01,3.159-2.357,8.214-3.7,13.585s-2.862,10.426-4.377,16.113c-.337,1.58-.673,2.844-1.01,4.423l-1.01,4.739c-.168.632-.168.948-.337,1.58l-.505.948-1.178,2.212a14.109,14.109,0,0,0-1.178,2.212c-.337.948-.673,1.58-1.01,2.528a14.6,14.6,0,0,0-.842,3.159c-.337,1.264-.505,2.843-.673,3.791h0a12.949,12.949,0,0,0-.337-1.58c-.673-3.159-1.515-6.319-2.357-9.162s-1.684-5.371-2.525-7.9c-.505-1.58-1.178-3.159-1.683-4.423.168-1.58.505-2.843.673-4.423.337-2.527.673-5.055,1.01-7.9.673-5.687,1.01-12.006,1.347-16.429s.337-7.267.337-7.267-.168.632-.505,1.58-.673,2.528-1.178,4.107c-1.01,3.791-2.357,9.162-3.7,14.849-.673,2.211-1.178,5.055-1.852,6.951-.505-.948-1.01-2.212-1.347-2.843-1.01-2.527-1.852-4.107-1.852-4.107s.505,2.211,1.178,5.055a37.638,37.638,0,0,0,1.178,4.107,70.663,70.663,0,0,0-1.852,6.951c-.337,1.264-.673,2.527-1.01,4.107-.168-.632-.168-1.264-.337-1.9-.337-1.9-.673,0-1.347,3.791a1.109,1.109,0,0,0,.842-.632,4.348,4.348,0,0,0,.842-1.264v.316c-.337,1.58-.673,2.843-1.01,4.423l-1.01,4.739h0l-.505-3.791.505-1.9a7.484,7.484,0,0,0,.337-1.9h-.673c-.168,0-.337-.316-.505-.316.337-2.212.505-3.791.505-3.791a4.887,4.887,0,0,0-.337.948,7.833,7.833,0,0,0-.673,1.58c-.673-4.423-1.515-8.214-2.189-12.322-.842-4.739-1.683-9.794-2.357-13.585-.337-1.9-.673-3.475-.842-4.423s-.337-1.58-.337-1.58a16.175,16.175,0,0,1-.168,1.9c0,1.264-.168,2.843-.168,5.055-.168,4.107-.337,10.11-.337,14.533s.168,9.162.337,14.533c0,.948.168,2.212.168,3.159l-.168.316c-.168.632-.505.948-.673,1.58h0c-.673-2.211-1.515-4.423-2.189-6.635-.842-2.212-1.683-4.423-2.525-6.319-1.683-3.791-3.2-6.635-4.209-9.478-1.01-2.527-1.852-4.423-1.852-4.423s.505,2.211,1.178,5.371c.337,1.58.842,3.159,1.347,4.739s1.178,3.791,1.683,5.687c.673,2.212,1.178,4.423,1.852,6.951l2.02,7.583c0,.316.168.632.168.948-.337.632-.505,1.58-.842,2.212a25.635,25.635,0,0,0-.842,4.107c-.168,1.58-.168,3.159-.337,4.107l1.179,1.58a1.29,1.29,0,0,1-1.01-.316c-.168,0-.168,0-.337-.316h-.337c-.168,0-.337-.316-.505-.316-.168-.316-.337-.316-.505-.632h0l-1.515-1.9c-.168-.316-.337-.316-.505-.632,0-1.9.168-4.107.168-5.371.168-1.9.337-2.843.337-3.791v-1.264s-.168,0-.337.316a2.771,2.771,0,0,1-1.01.948,30.3,30.3,0,0,0-2.862,3.791l-.168.316-.505-4.739c-.168-.632-.168-1.58-.337-2.212l.505-1.9c.168-.632.168-.948.337-1.58-.168,0-.168,0-.337-.316a4.4,4.4,0,0,1-1.01-1.264c.337-2.527.673-4.107.673-4.107l-.337.632a7.833,7.833,0,0,0-.673,1.58c-.673-4.423-1.515-8.214-2.189-12.321-.842-4.423-1.683-10.11-2.357-13.9-.337-1.9-.673-3.475-.842-4.739-.168-.948-.337-1.58-.337-1.58a16.175,16.175,0,0,1-.168,1.9c0,1.264-.168,3.159-.168,5.371-.168,4.423-.337,10.426-.337,14.533,0,4.423.168,9.162.337,14.217,0,1.264.168,2.527.168,3.791v.316h0a4.531,4.531,0,0,1-.673,1.264l-.673,1.264a15.558,15.558,0,0,0-1.347,2.212,11.439,11.439,0,0,0-1.178,2.843c-.337.948-.505,2.212-.842,3.475a15.122,15.122,0,0,1,.337,3.475c.337,2.843.505,5.371.842,7.583,0,.316.168.632.168.948-.337,2.212-.673,4.423-.842,6.319,0,.632-.168,1.264-.168,1.58-1.515,0-2.862.316-4.209.316v-.316c.337-1.58.505-3.475.842-5.371s.505-3.791.842-5.687c.168-1.264.505-2.843.673-4.107a7.3,7.3,0,0,1-1.515-1.58,17.756,17.756,0,0,1-1.515-2.527c-.168-.316-.337-.632-.505-.632,0-1.58.168-3.159.168-4.107.168-1.9.337-2.843.337-3.475v-1.264s-.168,0-.337.316a5.549,5.549,0,0,1-1.01.948,24.411,24.411,0,0,0-3.03,3.475c-1.01,1.58-1.852,5.371-2.357,8.214,0,.632.168.948.168,1.58a44.461,44.461,0,0,0,1.01,5.371c.337,1.58.673,2.843,1.01,4.107-.337.948-.505,2.212-.842,3.159-.168.948-.505,1.58-.673,2.527H17a59.47,59.47,0,0,1-7.239.316Zm231.312-14.533h0l-.505-2.844a.9.9,0,0,0-.168-.632v-.632c.168.948.168,1.58.337,2.528A8.607,8.607,0,0,0,231.312,346.542ZM33.67,356.968l.505,1.9h-.842a5.056,5.056,0,0,0,.168-1.58C33.67,357.284,33.67,356.968,33.67,356.968Zm29.63-2.843-.505.948-.168.316v-.632c.168-.632.168-.948.337-1.58A2.152,2.152,0,0,1,63.3,354.125ZM55.05,357.6h-.505a12.565,12.565,0,0,0,.168-1.264h0C54.882,356.652,54.882,357.284,55.05,357.6Zm28.114-1.264Zm55.555-28.118a3.625,3.625,0,0,0,.842,1.58c0,.316-.168.632-.168.948a12.562,12.562,0,0,0-.168,1.264c-.168.632-.168,1.58-.337,2.211v.316c0,.316-.168.316-.168.632a3.277,3.277,0,0,0-.168,1.264c0,.632-.168.948-.168,1.58a7.231,7.231,0,0,1-.168,1.9v.948a4.4,4.4,0,0,0-1.01-1.264h0c.337-1.9.505-4.107.842-6A47.29,47.29,0,0,1,138.72,328.218Zm46.97,3.791c.337-.632.505-1.264.842-1.9a14.919,14.919,0,0,1,1.01-2.212c0-.316.168-.316.168-.632-.337,1.9-.842,3.791-1.01,5.687a16.379,16.379,0,0,0-.337,2.843l-.505-2.843A1.893,1.893,0,0,0,185.69,332.009Zm62.458,3.791c.168.316.168.632.337.948,0,0,0,.316.168.316v.316c.168,1.58.337,3.159.505,4.423.168,1.58.505,3.159.673,4.423h0c-.337-1.58-.673-3.159-1.01-5.055-.168-1.264-.505-2.527-.673-3.791Zm12.795,14.533ZM23.064,343.7v0Zm21.212-.948v0Zm6.229,7.583v.632c-.337,2.212-.673,4.107-.842,5.687,0,.316-.168.948-.168,1.264H48.99a3.278,3.278,0,0,1,.168-1.264,44.581,44.581,0,0,0,.168-4.739c0-1.58.168-3.475.168-5.055V341.8h0a1.894,1.894,0,0,0,.168.948C50,345.594,50.168,348.122,50.5,350.333Zm24.074-8.214h0a2.771,2.771,0,0,1-1.01.948,5.913,5.913,0,0,1-1.515.948c-.505-1.264-1.01-2.843-1.515-3.791a4.236,4.236,0,0,0-1.852-1.9,4.523,4.523,0,0,0-2.02-.316h-.673c.168-.948.337-1.9.505-2.528.505-2.843,1.178-6,1.684-9.162.337-2.528.842-4.739,1.178-7.267.168.316.168.948.337,1.264.673,2.528,1.347,5.371,2.02,8.214.337,1.264.673,2.844,1.01,4.423s.673,3.159,1.01,4.423C74.074,339.275,74.41,340.855,74.579,342.119Zm.842,4.739c.505,3.159,1.01,6.319,1.347,8.846,0,.316.168.632.168.948H75.084c0-.632-.168-1.264-.168-1.9-.168-.632-.168-1.264-.337-1.9a36.511,36.511,0,0,0-1.01-4.107l-.505-1.9a18.362,18.362,0,0,0,1.178-3.159,3.533,3.533,0,0,0,.337-1.264C74.916,344.014,75.252,345.594,75.421,346.858Zm51.01,7.583h-3.367c-.168-.316-.337-.948-.505-1.264a5.152,5.152,0,0,1-.505-1.264,21.952,21.952,0,0,1,.168-3.159v-.632l1.515-3.791a48.68,48.68,0,0,1,1.178,4.739c.168.948.505,1.58.673,2.527s.337,1.58.505,2.212C126.262,354.125,126.431,354.125,126.431,354.44Zm45.118-22.747h0V333.9c0,.948-.168,1.9-.168,2.528v2.527c0,1.58-.168,3.159-.168,4.739,0,2.844-.168,5.055,0,6.951v2.212h-.337a7.713,7.713,0,0,0-1.684-1.58c.168-.632.168-1.264.337-1.9l.505-3.791a55.593,55.593,0,0,0,.505-6.951v-4.107a6.746,6.746,0,0,0-.168-1.58,9.448,9.448,0,0,0-1.01,1.264,30.916,30.916,0,0,0-2.02,3.475,7.83,7.83,0,0,0-.673,1.58,9.8,9.8,0,0,1,.168-2.212c0-1.58.168-2.843.168-4.107v-3.475a24.033,24.033,0,0,0-.168-3.475c-.168-2.212-.337-4.423-.505-6.951v-2.843c.337,1.264.505,2.843.842,3.791a24.105,24.105,0,0,0,1.347,4.107l1.515,3.791Zm17.34-12.638c-.505.948-1.178,1.9-1.683,2.844-.842,1.58-1.684,2.843-2.525,4.423v-.316h0a3.278,3.278,0,0,0,.168-1.264c.168-1.58.505-2.843.673-4.423s.505-3.159.673-4.423c.168-1.9.337-3.791.505-5.371a12.554,12.554,0,0,1,.168,1.264c.337,1.58.673,3.159,1.01,5.055A4.358,4.358,0,0,1,188.888,319.055Zm3.535,14.533c.168-.632.168-1.264.337-2.212v.948c0,.948-.168,1.9-.168,2.527v2.528c0,1.58-.168,3.159-.168,4.739,0,2.844-.168,5.055,0,6.951v2.843c-.505-.632-1.178-1.264-1.683-1.9,0-.632.168-1.58.168-2.212.168-1.264.168-2.528.337-3.475a28.828,28.828,0,0,0,.337-3.791c.168-1.264.168-2.528.337-3.791C192.087,335.8,192.255,334.536,192.424,333.589Zm22.559-10.742c0,.316.168.316.168.632V333.9a1.894,1.894,0,0,1-.168.948c-.168.948-.168,2.528-.337,4.107v8.846a19.877,19.877,0,0,0,.168,3.159v.632h-3.367c.168-1.264.168-2.212.337-3.475s.168-2.528.337-3.475a28.827,28.827,0,0,0,.337-3.791c.168-1.264.168-2.528.337-3.791l.505-3.791c.337-2.528.673-4.739,1.01-6.951A25.3,25.3,0,0,0,214.982,322.847Zm21.212,21.484c0-1.9.168-3.791.337-6a12.762,12.762,0,0,1,.168-2.527c.168,3.791.168,6.635.337,9.162,0,1.264.168,2.212.168,3.159s.168,1.9.168,2.528h-1.178v-1.264c0-.948.168-1.58.168-2.528A6.014,6.014,0,0,1,236.194,344.33Zm46.128-27.8c-.505,1.58-1.178,3.475-1.852,5.371-.337,1.264-.842,2.843-1.178,4.423,0-.316-.168-.632-.168-.948.505-2.843.842-5.687,1.347-8.53.505-4.107,1.178-8.53,1.683-12.638C282.659,300.731,282.491,315.264,282.322,316.528Z" transform="translate(0 -212.9)" fill="#275072"/>
      </g>
      <g id="Group_175176" data-name="Group 175176" transform="translate(-128.186 707.272)">
        <path id="Path_65622-2" data-name="Path 65622" d="M15.826,255.225c.168,0,.168,0,.337-.168a.521.521,0,0,1,.337-.168l-.337.673-.168.168h0c.337,0,.673-.168,1.01-.168h.168c0-.337-.168-.505-.168-.842-.337-1.01-.505-1.684-.842-1.852l-.168-.168a.737.737,0,0,0-.168.505h0v.168A3.4,3.4,0,0,0,15.826,255.225Z" transform="translate(239.081 -125.02)" fill="#275072"/>
        <path id="Path_65623-2" data-name="Path 65623" d="M25.2,246.9a1.678,1.678,0,0,0,.168.673,1.805,1.805,0,0,0,.337,1.01q.253.253.505-.505A3.751,3.751,0,0,1,25.2,246.9Z" transform="translate(214.051 -138.54)" fill="#275072"/>
        <path id="Path_65624-2" data-name="Path 65624" d="M9.937,255.859c.168.168.168,0,.168,0,0-.168.168-.337.168-.505a1.831,1.831,0,0,1,.168-.842V253c0-.168,0-.337-.168-.168a.588.588,0,0,0-.168.337,11.458,11.458,0,0,0-.505,2.02v.168A2.421,2.421,0,0,1,9.937,255.859Z" transform="translate(256.082 -124.795)" fill="#275072"/>
        <path id="Path_65625-2" data-name="Path 65625" d="M24.405,246.99a11.6,11.6,0,0,1-.505,1.347,3.682,3.682,0,0,0,.842.505,1.789,1.789,0,0,0,1.347.168C25.078,246.99,24.742,245.812,24.405,246.99Z" transform="translate(216.361 -138.924)" fill="#275072"/>
        <path id="Path_65626-2" data-name="Path 65626" d="M282.685,361.075l-10.1,21.484a64.829,64.829,0,0,0-7.239.632c-5.724.316-12.795.948-21.212,1.264l-7.071.316c-10.943.632-23.232,1.264-37.037,1.9l-27.1,1.264-62.794,2.212-35.017.948C47.333,391.721-1.319,267.873.027,271.032a45.01,45.01,0,0,1,1.852,4.739,17.925,17.925,0,0,1,1.347-2.527,13.864,13.864,0,0,1,1.852-2.527A19.715,19.715,0,0,0,3.9,273.875c-.337.948-.673,2.528-1.178,4.423.673,2.528,1.347,5.055,2.02,8.214.337,1.9.673,3.475,1.01,5.371s.673,3.791,1.01,6,.673,4.423,1.01,6.951v-.316c.168-1.9.337-4.107.505-6a39.1,39.1,0,0,0,.337-4.423c-.505-4.107-.842-6.635-.842-6.635a4.888,4.888,0,0,1,.337.948c.168.632.505,1.264.673,1.9.337-3.475.673-6.635,1.178-9.478-.505-6-.505-8.846-.168-9.162a3.9,3.9,0,0,0,.673-2.528v-3.791a29.934,29.934,0,0,0,1.515,3.475l.505.948a13.24,13.24,0,0,1,.842-1.9c.337-.632.673-.948.842-1.264s.337-.316.337-.316v.316c0,.316.168.948.168,1.58a54.654,54.654,0,0,1,.168,6.319c.337,1.58.673,3.791,1.178,6.319.337,1.58.505,3.475.842,5.055a17.17,17.17,0,0,1,.337,2.528c.168.948.168,1.9.337,2.527a1.894,1.894,0,0,0,.168.948c.842-3.159,1.515-6,2.357-8.53,1.684-5.371,3.03-8.846,4.209-10.426a8.032,8.032,0,0,1,1.852-2.528,19.708,19.708,0,0,0-1.178,3.159c-.337,1.264-.842,2.843-1.347,4.739-.505,2.212-1.01,4.739-1.684,7.583s-1.178,6.319-1.852,10.11c-.337,1.9-.673,4.107-1.01,6a3.276,3.276,0,0,0,.168,1.264c.842-3.475,1.515-6.951,2.189-9.794,1.178-4.739,2.357-8.214,3.2-10.742.337-1.264.842-1.9,1.01-2.527a4.89,4.89,0,0,1,.337-.948s-.168,1.58-.337,4.739-.673,7.582-1.178,13.269-1.347,12.322-2.189,19.272c0,.316-.168.948-.168,1.264.337.948.842,2.212,1.178,3.475s.842,2.843,1.178,4.423V311.472c0-4.107.168-8.214.337-11.69s.505-6.319.673-8.214a16.789,16.789,0,0,1,.337-2.212,2.172,2.172,0,0,1,.168-.948l.337.632c.168.632.337,1.264.673,2.211.505,1.9,1.178,4.739,1.852,7.9.168.632.168,1.264.337,1.9,0-.948.168-2.212.168-3.159.168-1.58.168-3.159.337-4.423-.505-4.423-.842-6.635-.842-6.635a4.887,4.887,0,0,1,.337.948c.168.632.505,1.264.673,1.9.337-3.475.673-6.951,1.178-9.794-.505-6-.505-8.53,0-8.53s.842-.316.842-1.58v-3.475a17.311,17.311,0,0,0,1.515,3.159,9.533,9.533,0,0,1,1.178-2.528c.337-.632.673-.948.842-1.264s.337-.316.337-.316l.168.316a12.555,12.555,0,0,1,.168,1.264,54.654,54.654,0,0,1,.168,6.319c.337,1.264.673,3.791,1.178,6.319.337,1.58.505,3.475.842,5.055a17.173,17.173,0,0,1,.337,2.528c.168.948.168,1.9.337,2.528l.505,3.791v-3.475c0-2.527.168-4.739.168-6.951.168-2.211.168-4.107.337-6,.505-7.267,1.01-10.426,1.852-12.321a6.712,6.712,0,0,1,2.02-3.159,3.3,3.3,0,0,0,.673-.948c.168-.316.337-.316.337-.316l.168.316a2.152,2.152,0,0,0,.337.948,12.174,12.174,0,0,1,.673,3.159c.168,1.9.337,5.371.337,12.953v3.159a7.831,7.831,0,0,1,.673-1.58,4.891,4.891,0,0,1,.337-.948s-.168,1.58-.337,4.739q-.253,2.37-.505,6.635v5.687c.168-1.9.337-3.475.505-5.055a16.8,16.8,0,0,1,.337-2.212,2.172,2.172,0,0,1,.168-.948l.337.632c.168.632.337,1.264.673,2.212.505,1.9,1.178,4.739,1.852,7.9.337,1.58.505,2.843.842,4.739h0c0-7.9,0-16.113.168-22.747.168-3.475.168-6.635.168-8.846.168-1.9.168-3.159.337-4.423v-.316h0v-.632a24.525,24.525,0,0,1,.505-2.843c.168-.632.505-1.264.673-1.9.168-.316.168-.632.337-.948s.337-.948.505-1.264c.337-.948.505-2.528.842-4.107.673-3.475,1.178-9.162,1.684-12.638s1.01-6,1.515-8.214,1.01-4.423,1.515-6.319,1.01-4.107,1.515-6c1.01-3.475,1.684-6.319,1.684-6.319a16.173,16.173,0,0,1-.168,1.9c0,1.264-.168,2.843-.168,4.739-.168,3.791-.337,7.9-.505,12.638s-.505,14.849-1.178,20.852a37.244,37.244,0,0,1-1.01,6,34.658,34.658,0,0,0-1.01,5.055c-.168,1.264-.337,3.159-.505,5.371-.168,2.527-.337,5.687-.337,8.846,0,1.58-.168,3.475-.168,5.371.505,3.159,1.01,6.951,1.515,10.742.505,4.107,1.01,8.53,1.347,12.954a3.277,3.277,0,0,0,.168,1.264v-13.9c0-2.527.168-5.055.168-7.582s.168-4.739.168-6.951c.168-2.212.168-4.107.337-6,.505-7.267,1.01-10.426,1.684-12.322a8.258,8.258,0,0,1,2.02-3.475,3.3,3.3,0,0,0,.673-.948c.168-.316.337-.316.337-.316l.168.316a2.152,2.152,0,0,0,.337.948A28.859,28.859,0,0,1,67.2,264.4c.168,2.211.337,5.371.337,12.953V300.1a16.487,16.487,0,0,1,.842,2.212l1.01,2.843c.337.948.673,2.211,1.01,3.159s.505,1.9.842,2.843a4.532,4.532,0,0,1,.673,1.264l.505.948c0-3.475,0-7.267-.168-11.058,0-7.9,0-15.8.168-22.432.168-3.475.168-6.635.168-8.53.168-1.58.168-3.159.337-4.423v-.316h0v-.632c.168-1.264.337-2.527.505-3.159.168-.948.505-1.58.673-2.527.168-.316.168-.948.337-1.264.168-.632.337-.948.505-1.58.337-1.264.505-2.528.842-4.423.673-3.475,1.178-8.846,1.683-12.322s1.01-6.319,1.515-8.53c.505-2.527,1.01-4.739,1.515-6.951s1.01-4.423,1.515-6L83.7,212.9a16.175,16.175,0,0,1-.168,1.9c0,1.264-.168,2.843-.168,4.739q-.252,5.687-.505,13.269c-.168,5.055-.673,14.849-1.178,21.168-.337,3.159-.673,5.371-1.01,7.267s-.673,3.791-1.01,6.635c-.168,1.58-.337,3.159-.505,5.371s-.337,5.371-.337,8.846c0,1.58-.168,3.475-.168,5.055.505,3.159,1.01,6.635,1.515,10.742.168,1.9.505,4.107.673,6,0-.316.168-.316.168-.316v2.212l.505,4.739c0,.632.168,1.264.168,2.212A6.813,6.813,0,0,1,82.013,314c-.168-1.9-.168-3.475-.337-5.371s-.168-4.107-.337-6-.168-4.107-.168-6c-.168-3.791-.337-7.582-.337-10.742s-.168-6-.168-8.53c0-4.739,0-6.951.168-8.53,0-.632.168-1.264.168-1.58v-.632a13.433,13.433,0,0,1,1.178,1.9,24.951,24.951,0,0,1,2.357,7.583c.505,2.212.842,5.055,1.347,7.9.505,3.159.842,6.635,1.347,10.11l.505,5.687a4.186,4.186,0,0,0,.168,1.264c.505,1.264,1.01,2.528,1.515,4.107L90.431,308c.168.316.168.632.337.948l1.01-1.9a22.349,22.349,0,0,1,3.7-5.371,10.556,10.556,0,0,1,1.178-1.264c.337-.316.505-.316.505-.316a18.339,18.339,0,0,1-.337,2.843l-.505,2.843.337.632c.673,1.58,1.683,3.791,2.694,6.319v-2.843c0-1.58.168-3.159.168-4.423.168-6,.337-12.006.673-17.376q.253-4.265.505-7.583a45.028,45.028,0,0,1,.673-5.687c0-.316.168-.632.168-.948,0-.632-.168-.948-.168-1.58-.337-2.212-.673-4.107-.842-5.687-.505-3.159-1.01-5.371-1.347-6.951a13.877,13.877,0,0,1-.337-2.212,4.168,4.168,0,0,1-.168-.948,2.74,2.74,0,0,0,.505.632,8.366,8.366,0,0,1,1.178,1.9,20.175,20.175,0,0,1,1.683,2.844,29.864,29.864,0,0,1,1.515,3.159c.168-.316.168-.948.337-1.264.337-.948.505-1.9.842-3.159.337-.948.505-1.9.842-3.159h0c.168-.948.505-1.9.505-2.212a4.168,4.168,0,0,0,.168-.948v.316h0c.673-2.212,1.178-4.423,1.683-6.635s1.01-4.423,1.515-6c.842-3.159,1.347-4.739,1.347-4.739v5.055c0,1.58-.168,4.107-.168,6.319-.168,2.212-.168,4.423-.337,6.635,0,.632-.168,1.264-.168,1.58a5.057,5.057,0,0,1-.168,1.58,20.132,20.132,0,0,1-.337,3.159c-.168,2.212-.505,4.423-.673,6.951-.168,1.264-.168,2.528-.337,4.107a1.894,1.894,0,0,1-.168.948c0,1.58.168,3.159.168,4.739s.168,3.475.168,5.371,0,4.107.168,6.319v2.527c.337,4.739.842,10.11,1.178,15.8.168,2.843.337,5.371.505,8.214h0c1.01-1.9,1.852-3.791,2.694-5.055a39.868,39.868,0,0,1,3.535-5.055h0c.168-4.107.168-7.267.337-9.478.168-2.843.337-4.107.337-4.107a2.172,2.172,0,0,1,.168.948c.168.632.337,1.58.673,2.843.505,2.527,1.178,6.319,1.684,11.374l.505,4.739c0-1.264.168-2.527.168-3.791.168-5.687.337-11.374.673-16.745.168-2.527.337-5.055.505-7.267a45.024,45.024,0,0,1,.673-5.687c0-.316.168-.632.168-.948,0-.632-.168-1.264-.168-1.9-.337-2.527-.673-5.055-.842-6.951-.505-4.107-1.01-7.582-1.347-9.794a28.594,28.594,0,0,1-.337-2.843,4.167,4.167,0,0,1-.168-.948l.505.948a21.991,21.991,0,0,1,1.178,2.528c.505.948,1.01,2.212,1.683,3.791.505,1.264,1.01,2.843,1.515,4.423.168-.632.168-1.264.337-1.9.337-1.264.505-2.843.842-4.107s.505-2.843.842-4.107h0c.168-1.264.505-2.211.505-2.843a4.167,4.167,0,0,0,.168-.948v.316h0c.673-2.527,1.178-5.055,1.684-7.582.505-2.212,1.01-4.739,1.515-6.319.842-3.159,1.347-4.739,1.347-4.739v5.055c0,1.9-.168,4.107-.168,6.635-.168,2.528-.168,5.055-.337,7.9,0,.632-.168,1.264-.168,2.212a9.8,9.8,0,0,1-.168,2.212,39.1,39.1,0,0,1-.337,4.423c-.168,2.843-.505,6-.673,9.162-.168,1.58-.168,3.159-.337,5.055a1.894,1.894,0,0,1-.168.948c0,1.58.168,3.475.168,5.371,0,1.58.168,3.475.168,5.371v8.53c.337,4.739.842,9.794,1.178,14.849l.505,7.582c.168,2.527.168,5.055.337,7.582a11.263,11.263,0,0,0,.168,2.528,4.18,4.18,0,0,0,1.01-.632l-.168.316-.337.632a2.152,2.152,0,0,0-.337.948c0,.316-.168.316-.168.632v14.849c0,1.58-.168,3.159-.168,4.107a7.231,7.231,0,0,1-.168,1.9h.842a14.444,14.444,0,0,0-.168-2.527v-5.687c0-.948.168-2.211.168-3.159a20.131,20.131,0,0,1,.337-3.159,7.765,7.765,0,0,1,.337-2.212v-1.9a5.633,5.633,0,0,1,.168-1.264s.168,0,.337.316a8.53,8.53,0,0,1,.673-1.9,26.981,26.981,0,0,1,1.515-3.159,21.712,21.712,0,0,1,1.347-2.843c.168-1.264.168-2.527.337-3.791l.842-6.319a12.085,12.085,0,0,1,.505-2.212l.337.632c.168.316.337.948.673,1.58a6.811,6.811,0,0,1,.337,1.264,31.188,31.188,0,0,1,1.852-4.423c-.505-4.423-1.01-9.162-1.515-13.269-.505-4.423-1.01-8.53-1.347-12.006s-.842-6.635-1.178-9.478-.673-5.687-.842-8.214c-.505-5.055-.842-9.162-1.01-12.006s-.168-4.739-.168-4.739l.505.948c.337.632.673,1.58,1.178,2.843.842,2.528,2.189,6.319,3.535,11.058s2.694,10.742,4.04,17.692c.337,1.58.673,3.475,1.01,5.371s.673,3.791,1.01,6c.673,4.107,1.178,8.53,1.684,13.269s1.01,9.478,1.515,13.9c.337,3.159.673,6.635.842,9.794a4.543,4.543,0,0,1,1.684-.632,3.062,3.062,0,0,1,1.178-.316h-.168s-.168.316-.337.316c-.168.316-.337.316-.337.632l-.168.316h.337a2.739,2.739,0,0,1-.505.632,9.869,9.869,0,0,0-1.01,1.9c-.168.316-.168.632-.337.948.168,1.9.337,3.791.337,5.371.168,1.9.168,3.791.337,5.371,0,1.58.168,2.843.168,4.107v1.9h1.347v-.632a14.442,14.442,0,0,0-.168-2.527v-5.687c0-.948.168-2.212.168-3.159a20.134,20.134,0,0,1,.337-3.159,13.877,13.877,0,0,0,.337-2.211,7.9,7.9,0,0,1,1.178-2.844,14.946,14.946,0,0,1,1.515-1.9,11.2,11.2,0,0,0,1.684-2.843,20.952,20.952,0,0,0,1.01-2.528,28.559,28.559,0,0,1,1.01-2.843c.505-1.58,1.01-2.843,1.515-4.107,0-1.264.168-2.843.168-4.107s.168-2.528.168-3.791c-.337-2.843-.673-5.371-1.01-7.9-.505-4.107-1.01-7.9-1.347-11.69-.337-3.475-.842-7.266-1.178-10.742s-.673-6.951-.842-10.11c-.505-6.319-.842-11.69-1.01-15.165-.168-3.791-.168-5.687-.168-5.687a4.916,4.916,0,0,1,.337,1.264,29.827,29.827,0,0,1,1.178,3.475c.842,3.159,2.189,7.9,3.535,13.9,1.178,5.055,2.189,11.058,3.367,17.377.168-.632.168-1.264.337-1.9a25.891,25.891,0,0,1,.673-3.159,5.569,5.569,0,0,0,.168-1.264s.168,1.9.505,4.739.673,6.951.842,11.374c.168,2.528.337,5.055.337,7.9.505,3.159.842,6.319,1.347,9.794.505,4.423,1.01,8.846,1.515,12.953.337,3.159.673,6,.842,9.162h2.189s-.168,0-.505.316a5.529,5.529,0,0,0-1.515,1.9h0a3.277,3.277,0,0,0,.168,1.264c0,.632.168,1.58.168,2.212a10.354,10.354,0,0,1,.337-2.527,13.619,13.619,0,0,1,.673-2.527l.337-.632h.168c.168,0,.337.316.505.316a5.757,5.757,0,0,1,1.515,2.212l.168.316c-.168-.948-.168-2.212-.337-3.159a39.748,39.748,0,0,1-.337-4.107c-.168-.948-.168-1.9-.337-2.527v-.948s.337.632,1.01,2.211a14.443,14.443,0,0,1,.168-2.527v-3.475c0-.316-.168-.316-.168-.632a12.014,12.014,0,0,0-.673-2.843,37.379,37.379,0,0,0-1.347-5.055c-.168-.948-.337-1.58-.505-2.527,0-.316-.168-.948-.168-1.264s-.168-.948-.168-1.264a45.861,45.861,0,0,1-.673-4.739,36.732,36.732,0,0,1-.168-3.791v-1.58s.505,0,1.347,1.58c.337.632.842,2.212,1.515,3.791.505,1.58,1.178,3.475,1.852,5.055h0v-.316l.337.632a6.106,6.106,0,0,1,.673,1.9h0a17.019,17.019,0,0,0,1.178,2.528c.337.948.842,1.58,1.178,2.528s.842,1.58,1.178,2.527l1.01,2.843c.168.632.505,1.58.673,2.528a24.028,24.028,0,0,1,.168-3.475c0-1.58.168-3.159.168-4.739a34.136,34.136,0,0,1,.337-4.423c.337-5.687.842-11.058,1.515-15.165.505-4.107,1.178-8.53,1.683-11.69.168-1.58.505-2.843.673-3.791a8.846,8.846,0,0,0,.168-1.264s.168,2.212.505,5.371c.337,3.475.673,7.9,1.01,12.322s.505,9.794.673,15.481c0,2.843.168,6,.168,8.846V337.7l.168.316a3.534,3.534,0,0,1,.337,1.264l.168-.316c.673-.948,1.178-1.9,1.852-2.211a5,5,0,0,1,2.02-.632h.842a34.779,34.779,0,0,1-.673-4.107c-.505-3.159-1.178-6.635-1.684-9.794s-1.01-6.635-1.515-9.478c-.505-3.159-.842-6-1.347-8.846-.337-2.843-.673-5.371-1.01-7.9-.673-5.371-1.01-11.058-1.347-14.849s-.337-6.319-.337-6.319a10.976,10.976,0,0,1,.505,1.264c.337.948.673,2.212,1.178,3.791,1.01,3.159,2.357,8.214,3.7,13.585s2.862,10.426,4.377,16.113c.337,1.58.673,2.843,1.01,4.423l1.01,4.739c.168.632.168.948.337,1.58l.505.948,1.178,2.212a14.1,14.1,0,0,1,1.178,2.212c.337.948.673,1.58,1.01,2.527a14.6,14.6,0,0,1,.842,3.159c.337,1.264.505,2.843.673,3.791h0a12.941,12.941,0,0,1,.337-1.58c.673-3.159,1.515-6.319,2.357-9.162s1.683-5.371,2.525-7.9c.505-1.58,1.178-3.159,1.684-4.423-.168-1.58-.505-2.843-.673-4.423-.337-2.528-.673-5.055-1.01-7.9-.673-5.687-1.01-12.006-1.347-16.429s-.337-7.267-.337-7.267.168.632.505,1.58.673,2.528,1.178,4.107c1.01,3.791,2.357,9.162,3.7,14.849.673,2.212,1.178,5.055,1.852,6.951.505-.948,1.01-2.211,1.347-2.843,1.01-2.528,1.852-4.107,1.852-4.107s-.505,2.212-1.178,5.055a37.645,37.645,0,0,1-1.178,4.107,70.672,70.672,0,0,1,1.852,6.951c.337,1.264.673,2.527,1.01,4.107.168-.632.168-1.264.337-1.9.337-1.9.673,0,1.347,3.791a1.109,1.109,0,0,1-.842-.632,4.348,4.348,0,0,1-.842-1.264v.316c.337,1.58.673,2.843,1.01,4.423l1.01,4.739h0l.505-3.791-.505-1.9a7.484,7.484,0,0,1-.337-1.9h.673c.168,0,.337-.316.505-.316-.337-2.212-.505-3.791-.505-3.791a4.888,4.888,0,0,1,.337.948,7.829,7.829,0,0,1,.673,1.58c.673-4.423,1.515-8.214,2.189-12.322.842-4.739,1.684-9.794,2.357-13.585.337-1.9.673-3.475.842-4.423s.337-1.58.337-1.58a16.174,16.174,0,0,0,.168,1.9c0,1.264.168,2.843.168,5.055.168,4.107.337,10.11.337,14.533s-.168,9.162-.337,14.533c0,.948-.168,2.212-.168,3.159l.168.316c.168.632.505.948.673,1.58h0c.673-2.212,1.515-4.423,2.189-6.635.842-2.212,1.683-4.423,2.525-6.319,1.683-3.791,3.2-6.635,4.209-9.478,1.01-2.527,1.852-4.423,1.852-4.423s-.505,2.212-1.178,5.371c-.337,1.58-.842,3.159-1.347,4.739s-1.178,3.791-1.684,5.687c-.673,2.212-1.178,4.423-1.852,6.951l-2.02,7.583c0,.316-.168.632-.168.948.337.632.505,1.58.842,2.212a25.639,25.639,0,0,1,.842,4.107c.168,1.58.168,3.159.337,4.107l-1.179,1.58a1.29,1.29,0,0,0,1.01-.316c.168,0,.168,0,.337-.316h.337c.168,0,.337-.316.505-.316.168-.316.337-.316.505-.632h0l1.515-1.9c.168-.316.337-.316.505-.632,0-1.9-.168-4.107-.168-5.371-.168-1.9-.337-2.843-.337-3.791v-1.264s.168,0,.337.316a2.772,2.772,0,0,0,1.01.948,30.3,30.3,0,0,1,2.862,3.791l.168.316.505-4.739c.168-.632.168-1.58.337-2.212l-.505-1.9c-.168-.632-.168-.948-.337-1.58.168,0,.168,0,.337-.316a4.4,4.4,0,0,0,1.01-1.264c-.337-2.528-.673-4.107-.673-4.107l.337.632a7.828,7.828,0,0,1,.673,1.58c.673-4.423,1.515-8.214,2.189-12.321.842-4.423,1.684-10.11,2.357-13.9.337-1.9.673-3.475.842-4.739.168-.948.337-1.58.337-1.58a16.174,16.174,0,0,0,.168,1.9c0,1.264.168,3.159.168,5.371.168,4.423.337,10.426.337,14.533,0,4.423-.168,9.162-.337,14.217,0,1.264-.168,2.528-.168,3.791v.316h0a4.53,4.53,0,0,0,.673,1.264l.673,1.264a15.561,15.561,0,0,1,1.347,2.212,11.439,11.439,0,0,1,1.178,2.843c.337.948.505,2.212.842,3.475a15.123,15.123,0,0,0-.337,3.475c-.337,2.843-.505,5.371-.842,7.583,0,.316-.168.632-.168.948.337,2.212.673,4.423.842,6.319,0,.632.168,1.264.168,1.58,1.515,0,2.862.316,4.209.316v-.316c-.337-1.58-.505-3.475-.842-5.371s-.505-3.791-.842-5.687c-.168-1.264-.505-2.843-.673-4.107a7.3,7.3,0,0,0,1.515-1.58,17.754,17.754,0,0,0,1.515-2.527c.168-.316.337-.632.505-.632,0-1.58-.168-3.159-.168-4.107-.168-1.9-.337-2.843-.337-3.475v-1.264s.168,0,.337.316a5.55,5.55,0,0,0,1.01.948,24.411,24.411,0,0,1,3.03,3.475c1.01,1.58,1.852,5.371,2.357,8.214,0,.632-.168.948-.168,1.58a44.447,44.447,0,0,1-1.01,5.371c-.337,1.58-.673,2.843-1.01,4.107.337.948.505,2.212.842,3.159.168.948.505,1.58.673,2.527h.337a59.481,59.481,0,0,0,7.239.316ZM51.373,346.542h0l.505-2.844a.9.9,0,0,1,.168-.632v-.632c-.168.948-.168,1.58-.337,2.528A8.6,8.6,0,0,1,51.373,346.542Zm197.642,10.426-.505,1.9h.842a5.056,5.056,0,0,1-.168-1.58C249.015,357.284,249.015,356.968,249.015,356.968Zm-29.63-2.843.505.948.168.316v-.632c-.168-.632-.168-.948-.337-1.58A2.152,2.152,0,0,0,219.386,354.124Zm8.249,3.475h.505a12.562,12.562,0,0,1-.168-1.264h0C227.8,356.652,227.8,357.284,227.635,357.6Zm-28.114-1.264Zm-55.555-28.118a3.626,3.626,0,0,1-.842,1.58c0,.316.168.632.168.948a12.557,12.557,0,0,1,.168,1.264c.168.632.168,1.58.337,2.211v.316c0,.316.168.316.168.632a3.277,3.277,0,0,1,.168,1.264c0,.632.168.948.168,1.58a7.23,7.23,0,0,0,.168,1.9v.948a4.4,4.4,0,0,1,1.01-1.264h0c-.337-1.9-.505-4.107-.842-6A47.285,47.285,0,0,0,143.965,328.217ZM97,332.009c-.337-.632-.505-1.264-.842-1.9a14.915,14.915,0,0,0-1.01-2.212c0-.316-.168-.316-.168-.632.337,1.9.842,3.791,1.01,5.687a16.38,16.38,0,0,1,.337,2.843l.505-2.843A1.894,1.894,0,0,1,97,332.009ZM34.538,335.8c-.168.316-.168.632-.337.948,0,0,0,.316-.168.316v.316c-.168,1.58-.337,3.159-.505,4.423-.168,1.58-.505,3.159-.673,4.423h0c.337-1.58.673-3.159,1.01-5.055.168-1.264.505-2.528.673-3.791ZM21.744,350.333ZM259.621,343.7v0Zm-21.212-.948v0Zm-6.229,7.583v.632c.337,2.212.673,4.107.842,5.687,0,.316.168.948.168,1.264h.505a3.278,3.278,0,0,0-.168-1.264,44.582,44.582,0,0,1-.168-4.739c0-1.58-.168-3.475-.168-5.055V341.8h0a1.894,1.894,0,0,1-.168.948C232.685,345.594,232.517,348.121,232.18,350.333Zm-24.074-8.214h0a2.772,2.772,0,0,0,1.01.948,5.913,5.913,0,0,0,1.515.948c.505-1.264,1.01-2.843,1.515-3.791a4.235,4.235,0,0,1,1.852-1.9,4.522,4.522,0,0,1,2.02-.316h.673c-.168-.948-.337-1.9-.505-2.527-.505-2.843-1.178-6-1.684-9.162-.337-2.528-.842-4.739-1.178-7.267-.168.316-.168.948-.337,1.264-.673,2.528-1.347,5.371-2.02,8.214-.337,1.264-.673,2.843-1.01,4.423s-.673,3.159-1.01,4.423C208.611,339.275,208.275,340.855,208.106,342.119Zm-.842,4.739c-.505,3.159-1.01,6.319-1.347,8.846,0,.316-.168.632-.168.948H207.6c0-.632.168-1.264.168-1.9.168-.632.168-1.264.337-1.9a36.5,36.5,0,0,1,1.01-4.107l.505-1.9a18.361,18.361,0,0,1-1.178-3.159,3.533,3.533,0,0,1-.337-1.264C207.77,344.014,207.433,345.594,207.265,346.858Zm-51.01,7.583h3.367c.168-.316.337-.948.505-1.264a5.15,5.15,0,0,0,.505-1.264,21.952,21.952,0,0,0-.168-3.159v-.632l-1.515-3.791a48.681,48.681,0,0,0-1.178,4.739c-.168.948-.505,1.58-.673,2.528s-.337,1.58-.505,2.212C156.423,354.124,156.255,354.124,156.255,354.44Zm-45.118-22.747h0V333.9c0,.948.168,1.9.168,2.527v2.528c0,1.58.168,3.159.168,4.739,0,2.844.168,5.055,0,6.951v2.212h.337a7.717,7.717,0,0,1,1.683-1.58c-.168-.632-.168-1.264-.337-1.9l-.505-3.791a55.6,55.6,0,0,1-.505-6.951v-4.107a6.746,6.746,0,0,1,.168-1.58,9.454,9.454,0,0,1,1.01,1.264,30.918,30.918,0,0,1,2.02,3.475,7.83,7.83,0,0,1,.673,1.58,9.8,9.8,0,0,0-.168-2.212c0-1.58-.168-2.843-.168-4.107v-3.475a24.029,24.029,0,0,1,.168-3.475c.168-2.212.337-4.423.505-6.951v-2.843c-.337,1.264-.505,2.843-.842,3.791a24.109,24.109,0,0,1-1.347,4.107l-1.515,3.791ZM93.8,319.055c.505.948,1.178,1.9,1.684,2.843.842,1.58,1.683,2.843,2.525,4.423v-.316h0a3.278,3.278,0,0,1-.168-1.264c-.168-1.58-.505-2.843-.673-4.423s-.505-3.159-.673-4.423c-.168-1.9-.337-3.791-.505-5.371a12.552,12.552,0,0,0-.168,1.264c-.337,1.58-.673,3.159-1.01,5.055A4.358,4.358,0,0,0,93.8,319.055Zm-3.535,14.533c-.168-.632-.168-1.264-.337-2.212v.948c0,.948.168,1.9.168,2.527v2.527c0,1.58.168,3.159.168,4.739,0,2.844.168,5.055,0,6.951v2.844c.505-.632,1.178-1.264,1.684-1.9,0-.632-.168-1.58-.168-2.212-.168-1.264-.168-2.527-.337-3.475a28.83,28.83,0,0,1-.337-3.791c-.168-1.264-.168-2.527-.337-3.791C90.6,335.8,90.43,334.536,90.262,333.588ZM67.7,322.846c0,.316-.168.316-.168.632V333.9a1.894,1.894,0,0,0,.168.948c.168.948.168,2.527.337,4.107v8.846a19.877,19.877,0,0,1-.168,3.159v.632h3.367c-.168-1.264-.168-2.212-.337-3.475s-.168-2.527-.337-3.475a28.83,28.83,0,0,1-.337-3.791c-.168-1.264-.168-2.527-.337-3.791l-.505-3.791c-.337-2.528-.673-4.739-1.01-6.951A25.3,25.3,0,0,1,67.7,322.846ZM46.491,344.33c0-1.9-.168-3.791-.337-6a12.762,12.762,0,0,0-.168-2.527c-.168,3.791-.168,6.635-.337,9.162,0,1.264-.168,2.212-.168,3.159s-.168,1.9-.168,2.528h1.178v-1.264c0-.948-.168-1.58-.168-2.528A6.014,6.014,0,0,0,46.491,344.33ZM.363,316.528c.505,1.58,1.178,3.475,1.852,5.371.337,1.264.842,2.843,1.178,4.423,0-.316.168-.632.168-.948-.505-2.843-.842-5.687-1.347-8.53-.505-4.107-1.178-8.53-1.683-12.637C.027,300.731.195,315.264.363,316.528Z" transform="translate(0 -212.9)" fill="#275072"/>
      </g>
    </g>
  </g>
</svg>
