<svg id="vuesax_linear_wallet" data-name="vuesax/linear/wallet" xmlns="http://www.w3.org/2000/svg" width="17.223" height="17.223" viewBox="0 0 17.223 17.223">
  <g id="wallet">
    <path id="Vector" d="M5.526.372,5.5.422,3.423,5.252H1.378A3.527,3.527,0,0,0,0,5.531l1.256-3,.029-.072.05-.115a.621.621,0,0,1,.05-.122C2.325.049,3.387-.446,5.526.372Z" transform="translate(3.559 1.435)" fill="none" stroke="#27902b" stroke-linecap="round" stroke-linejoin="round" stroke-width="1"/>
    <path id="Vector-2" data-name="Vector" d="M5.971,5.023A3.416,3.416,0,0,0,4.959,4.88H0L2.081.05,2.1,0c.108.036.208.086.316.129L4,.8A4.662,4.662,0,0,1,5.877,2a1.518,1.518,0,0,1,.179.258,1.092,1.092,0,0,1,.144.309,1.159,1.159,0,0,1,.065.187A3.393,3.393,0,0,1,5.971,5.023Z" transform="translate(6.982 1.807)" fill="none" stroke="#27902b" stroke-linecap="round" stroke-linejoin="round" stroke-width="1"/>
    <path id="Vector-3" data-name="Vector" d="M14,3.5V4.9c0,.144-.007.287-.014.431C13.85,7.836,12.451,9.1,9.8,9.1H4.2a3.96,3.96,0,0,1-.51-.036A3.516,3.516,0,0,1,.036,5.411,3.96,3.96,0,0,1,0,4.9V3.5A3.512,3.512,0,0,1,2.124.28,3.554,3.554,0,0,1,3.5,0h7a3.591,3.591,0,0,1,1.012.144A3.519,3.519,0,0,1,14,3.5Z" transform="translate(1.444 6.687)" fill="none" stroke="#27902b" stroke-linecap="round" stroke-linejoin="round" stroke-width="1"/>
    <path id="Vector-4" data-name="Vector" d="M3.38,0,2.124,3A3.512,3.512,0,0,0,0,6.222v-2.1A4.2,4.2,0,0,1,3.38,0Z" transform="translate(1.435 3.967)" fill="none" stroke="#27902b" stroke-linecap="round" stroke-linejoin="round" stroke-width="1"/>
    <path id="Vector-5" data-name="Vector" d="M2.483,3.71v2.1A3.5,3.5,0,0,0,0,2.461,3.514,3.514,0,0,0,.3.187.82.82,0,0,0,.237,0,4.179,4.179,0,0,1,2.483,3.71Z" transform="translate(12.959 4.376)" fill="none" stroke="#27902b" stroke-linecap="round" stroke-linejoin="round" stroke-width="1"/>
    <path id="Vector-6" data-name="Vector" d="M0,0H17.223V17.223H0Z" fill="none" opacity="0"/>
  </g>
</svg>
