<svg xmlns="http://www.w3.org/2000/svg" width="51.631" height="41.33" viewBox="0 0 51.631 41.33">
  <g id="ball" transform="translate(-24.684 -49.686)">
    <path id="Path_66132" data-name="Path 66132" d="M128.941,82.237a20.482,20.482,0,0,0,3.841-11.957c0-.044,0-.087-.005-.131,0-.006,0-.011,0-.016a20.577,20.577,0,0,0-3.451-11.224.809.809,0,0,0-.168-.262,20.585,20.585,0,0,0-9.78-7.676l-.014,0A20.729,20.729,0,0,0,104.914,51a.824.824,0,0,0-.055,1.519l6.434,2.969v6.3l-7.52,5.923-6.9-2.177a.824.824,0,1,0-.5,1.572l6.915,2.182,3.023,9.07-3.11,3.979a.824.824,0,0,0,1.3,1.015l3.135-4.01h9.914l2.872,3.59L117.389,88.5a18.887,18.887,0,0,1-5.208.734.824.824,0,1,0,0,1.648A20.53,20.53,0,0,0,118.138,90l.047-.013a20.675,20.675,0,0,0,10.7-7.676.806.806,0,0,0,.052-.073Zm-7.183-.277-2.882-3.6,3.183-9.316,5.357-1.786,3.711,3.3a18.839,18.839,0,0,1-3.351,10.48Zm7.305-20.247a18.922,18.922,0,0,1,1.947,6.532L128.483,66Zm-1.356-2.273L126.86,65.7l-5.327,1.776-8.592-5.728V55.49l6.167-2.846A18.939,18.939,0,0,1,127.707,59.44ZM116.8,51.9l-4.681,2.16-4.634-2.139A19.1,19.1,0,0,1,116.8,51.9ZM112.157,63.21l8.269,5.514L117.361,77.7h-9.529l-2.925-8.775Zm7.566,24.454,2.217-4.064,4.339-.667A19.041,19.041,0,0,1,119.723,87.663Z" transform="translate(-56.466)" fill="#fca21a"/>
    <path id="Path_66133" data-name="Path 66133" d="M112.7,102.8a.881.881,0,1,0,.708-1.025A.881.881,0,0,0,112.7,102.8Z" transform="translate(-69.872 -41.345)" fill="#fca21a"/>
    <path id="Path_66134" data-name="Path 66134" d="M110.432,162.481a.881.881,0,1,0-.708,1.025A.881.881,0,0,0,110.432,162.481Z" transform="translate(-66.696 -88.985)" fill="#fca21a"/>
    <path id="Path_66135" data-name="Path 66135" d="M25.407,241.774a.881.881,0,1,0,1.025.708A.881.881,0,0,0,25.407,241.774Z" transform="translate(0 -152.505)" fill="#fca21a"/>
    <path id="Path_66136" data-name="Path 66136" d="M63.213,241.654H40.14a.824.824,0,1,0,0,1.648H63.213a.824.824,0,1,0,0-1.648Z" transform="translate(-11.617 -152.421)" fill="#fca21a"/>
    <path id="Path_66137" data-name="Path 66137" d="M64.14,221.654a.824.824,0,0,0,0,1.648h4.944a.824.824,0,0,0,0-1.648Z" transform="translate(-30.673 -136.542)" fill="#fca21a"/>
    <path id="Path_66138" data-name="Path 66138" d="M78.852,202.478a.824.824,0,0,0-.824-.824H68.14a.824.824,0,0,0,0,1.648h9.888A.824.824,0,0,0,78.852,202.478Z" transform="translate(-33.849 -120.662)" fill="#fca21a"/>
    <path id="Path_66139" data-name="Path 66139" d="M50.268,182.478a.824.824,0,0,0-.824-.824H32.14a.824.824,0,1,0,0,1.648h17.3A.824.824,0,0,0,50.268,182.478Z" transform="translate(-5.265 -104.782)" fill="#fca21a"/>
    <path id="Path_66140" data-name="Path 66140" d="M63.316,162.478a.824.824,0,0,0,.824.824h5.768a.824.824,0,0,0,0-1.648H64.14A.824.824,0,0,0,63.316,162.478Z" transform="translate(-30.673 -88.902)" fill="#fca21a"/>
    <path id="Path_66141" data-name="Path 66141" d="M44.14,133.654a.824.824,0,0,0,0,1.648h1.648a.824.824,0,0,0,0-1.648Z" transform="translate(-14.793 -66.67)" fill="#fca21a"/>
    <path id="Path_66142" data-name="Path 66142" d="M131.316,102.478a.824.824,0,0,0,.824.824h1.648a.824.824,0,1,0,0-1.648H132.14A.824.824,0,0,0,131.316,102.478Z" transform="translate(-84.665 -41.262)" fill="#fca21a"/>
    <path id="Path_66143" data-name="Path 66143" d="M56.14,71.3H67.676a.824.824,0,1,0,0-1.648H56.14a.824.824,0,1,0,0,1.648Z" transform="translate(-24.321 -15.854)" fill="#fca21a"/>
    <path id="Path_66144" data-name="Path 66144" d="M36.14,87.3h4.944a.824.824,0,1,0,0-1.648H36.14a.824.824,0,1,0,0,1.648Z" transform="translate(-8.441 -28.558)" fill="#fca21a"/>
    <path id="Path_66145" data-name="Path 66145" d="M79.316,86.478a.824.824,0,0,0,.824.824h9.888a.824.824,0,1,0,0-1.648H80.14A.824.824,0,0,0,79.316,86.478Z" transform="translate(-43.377 -28.558)" fill="#fca21a"/>
    <path id="Path_66146" data-name="Path 66146" d="M100.14,55.3h4.12a.824.824,0,1,0,0-1.648h-4.12a.824.824,0,1,0,0,1.648Z" transform="translate(-59.257 -3.15)" fill="#fca21a"/>
  </g>
</svg>
